%TF.GenerationSoftware,KiCad,Pcbnew,9.0.0*%
%TF.CreationDate,2025-03-20T21:32:39+01:00*%
%TF.ProjectId,PCB_Module_Payement,5043425f-4d6f-4647-956c-655f50617965,rev?*%
%TF.SameCoordinates,Original*%
%TF.FileFunction,Legend,Top*%
%TF.FilePolarity,Positive*%
%FSLAX46Y46*%
G04 Gerber Fmt 4.6, Leading zero omitted, Abs format (unit mm)*
G04 Created by KiCad (PCBNEW 9.0.0) date 2025-03-20 21:32:39*
%MOMM*%
%LPD*%
G01*
G04 APERTURE LIST*
%ADD10C,0.150000*%
%ADD11C,0.120000*%
%ADD12C,0.152400*%
G04 APERTURE END LIST*
D10*
X180854819Y-110633333D02*
X181569104Y-110633333D01*
X181569104Y-110633333D02*
X181711961Y-110680952D01*
X181711961Y-110680952D02*
X181807200Y-110776190D01*
X181807200Y-110776190D02*
X181854819Y-110919047D01*
X181854819Y-110919047D02*
X181854819Y-111014285D01*
X180854819Y-109680952D02*
X180854819Y-110157142D01*
X180854819Y-110157142D02*
X181331009Y-110204761D01*
X181331009Y-110204761D02*
X181283390Y-110157142D01*
X181283390Y-110157142D02*
X181235771Y-110061904D01*
X181235771Y-110061904D02*
X181235771Y-109823809D01*
X181235771Y-109823809D02*
X181283390Y-109728571D01*
X181283390Y-109728571D02*
X181331009Y-109680952D01*
X181331009Y-109680952D02*
X181426247Y-109633333D01*
X181426247Y-109633333D02*
X181664342Y-109633333D01*
X181664342Y-109633333D02*
X181759580Y-109680952D01*
X181759580Y-109680952D02*
X181807200Y-109728571D01*
X181807200Y-109728571D02*
X181854819Y-109823809D01*
X181854819Y-109823809D02*
X181854819Y-110061904D01*
X181854819Y-110061904D02*
X181807200Y-110157142D01*
X181807200Y-110157142D02*
X181759580Y-110204761D01*
X159573333Y-97374819D02*
X159240000Y-96898628D01*
X159001905Y-97374819D02*
X159001905Y-96374819D01*
X159001905Y-96374819D02*
X159382857Y-96374819D01*
X159382857Y-96374819D02*
X159478095Y-96422438D01*
X159478095Y-96422438D02*
X159525714Y-96470057D01*
X159525714Y-96470057D02*
X159573333Y-96565295D01*
X159573333Y-96565295D02*
X159573333Y-96708152D01*
X159573333Y-96708152D02*
X159525714Y-96803390D01*
X159525714Y-96803390D02*
X159478095Y-96851009D01*
X159478095Y-96851009D02*
X159382857Y-96898628D01*
X159382857Y-96898628D02*
X159001905Y-96898628D01*
X160525714Y-97374819D02*
X159954286Y-97374819D01*
X160240000Y-97374819D02*
X160240000Y-96374819D01*
X160240000Y-96374819D02*
X160144762Y-96517676D01*
X160144762Y-96517676D02*
X160049524Y-96612914D01*
X160049524Y-96612914D02*
X159954286Y-96660533D01*
X143897200Y-113553332D02*
X143944819Y-113410475D01*
X143944819Y-113410475D02*
X143944819Y-113172380D01*
X143944819Y-113172380D02*
X143897200Y-113077142D01*
X143897200Y-113077142D02*
X143849580Y-113029523D01*
X143849580Y-113029523D02*
X143754342Y-112981904D01*
X143754342Y-112981904D02*
X143659104Y-112981904D01*
X143659104Y-112981904D02*
X143563866Y-113029523D01*
X143563866Y-113029523D02*
X143516247Y-113077142D01*
X143516247Y-113077142D02*
X143468628Y-113172380D01*
X143468628Y-113172380D02*
X143421009Y-113362856D01*
X143421009Y-113362856D02*
X143373390Y-113458094D01*
X143373390Y-113458094D02*
X143325771Y-113505713D01*
X143325771Y-113505713D02*
X143230533Y-113553332D01*
X143230533Y-113553332D02*
X143135295Y-113553332D01*
X143135295Y-113553332D02*
X143040057Y-113505713D01*
X143040057Y-113505713D02*
X142992438Y-113458094D01*
X142992438Y-113458094D02*
X142944819Y-113362856D01*
X142944819Y-113362856D02*
X142944819Y-113124761D01*
X142944819Y-113124761D02*
X142992438Y-112981904D01*
X142944819Y-112648570D02*
X143944819Y-112410475D01*
X143944819Y-112410475D02*
X143230533Y-112219999D01*
X143230533Y-112219999D02*
X143944819Y-112029523D01*
X143944819Y-112029523D02*
X142944819Y-111791428D01*
X142944819Y-111505713D02*
X142944819Y-110886666D01*
X142944819Y-110886666D02*
X143325771Y-111219999D01*
X143325771Y-111219999D02*
X143325771Y-111077142D01*
X143325771Y-111077142D02*
X143373390Y-110981904D01*
X143373390Y-110981904D02*
X143421009Y-110934285D01*
X143421009Y-110934285D02*
X143516247Y-110886666D01*
X143516247Y-110886666D02*
X143754342Y-110886666D01*
X143754342Y-110886666D02*
X143849580Y-110934285D01*
X143849580Y-110934285D02*
X143897200Y-110981904D01*
X143897200Y-110981904D02*
X143944819Y-111077142D01*
X143944819Y-111077142D02*
X143944819Y-111362856D01*
X143944819Y-111362856D02*
X143897200Y-111458094D01*
X143897200Y-111458094D02*
X143849580Y-111505713D01*
X157533333Y-118624819D02*
X157200000Y-118148628D01*
X156961905Y-118624819D02*
X156961905Y-117624819D01*
X156961905Y-117624819D02*
X157342857Y-117624819D01*
X157342857Y-117624819D02*
X157438095Y-117672438D01*
X157438095Y-117672438D02*
X157485714Y-117720057D01*
X157485714Y-117720057D02*
X157533333Y-117815295D01*
X157533333Y-117815295D02*
X157533333Y-117958152D01*
X157533333Y-117958152D02*
X157485714Y-118053390D01*
X157485714Y-118053390D02*
X157438095Y-118101009D01*
X157438095Y-118101009D02*
X157342857Y-118148628D01*
X157342857Y-118148628D02*
X156961905Y-118148628D01*
X158390476Y-117624819D02*
X158200000Y-117624819D01*
X158200000Y-117624819D02*
X158104762Y-117672438D01*
X158104762Y-117672438D02*
X158057143Y-117720057D01*
X158057143Y-117720057D02*
X157961905Y-117862914D01*
X157961905Y-117862914D02*
X157914286Y-118053390D01*
X157914286Y-118053390D02*
X157914286Y-118434342D01*
X157914286Y-118434342D02*
X157961905Y-118529580D01*
X157961905Y-118529580D02*
X158009524Y-118577200D01*
X158009524Y-118577200D02*
X158104762Y-118624819D01*
X158104762Y-118624819D02*
X158295238Y-118624819D01*
X158295238Y-118624819D02*
X158390476Y-118577200D01*
X158390476Y-118577200D02*
X158438095Y-118529580D01*
X158438095Y-118529580D02*
X158485714Y-118434342D01*
X158485714Y-118434342D02*
X158485714Y-118196247D01*
X158485714Y-118196247D02*
X158438095Y-118101009D01*
X158438095Y-118101009D02*
X158390476Y-118053390D01*
X158390476Y-118053390D02*
X158295238Y-118005771D01*
X158295238Y-118005771D02*
X158104762Y-118005771D01*
X158104762Y-118005771D02*
X158009524Y-118053390D01*
X158009524Y-118053390D02*
X157961905Y-118101009D01*
X157961905Y-118101009D02*
X157914286Y-118196247D01*
X157767200Y-89733332D02*
X157814819Y-89590475D01*
X157814819Y-89590475D02*
X157814819Y-89352380D01*
X157814819Y-89352380D02*
X157767200Y-89257142D01*
X157767200Y-89257142D02*
X157719580Y-89209523D01*
X157719580Y-89209523D02*
X157624342Y-89161904D01*
X157624342Y-89161904D02*
X157529104Y-89161904D01*
X157529104Y-89161904D02*
X157433866Y-89209523D01*
X157433866Y-89209523D02*
X157386247Y-89257142D01*
X157386247Y-89257142D02*
X157338628Y-89352380D01*
X157338628Y-89352380D02*
X157291009Y-89542856D01*
X157291009Y-89542856D02*
X157243390Y-89638094D01*
X157243390Y-89638094D02*
X157195771Y-89685713D01*
X157195771Y-89685713D02*
X157100533Y-89733332D01*
X157100533Y-89733332D02*
X157005295Y-89733332D01*
X157005295Y-89733332D02*
X156910057Y-89685713D01*
X156910057Y-89685713D02*
X156862438Y-89638094D01*
X156862438Y-89638094D02*
X156814819Y-89542856D01*
X156814819Y-89542856D02*
X156814819Y-89304761D01*
X156814819Y-89304761D02*
X156862438Y-89161904D01*
X156814819Y-88828570D02*
X157814819Y-88590475D01*
X157814819Y-88590475D02*
X157100533Y-88399999D01*
X157100533Y-88399999D02*
X157814819Y-88209523D01*
X157814819Y-88209523D02*
X156814819Y-87971428D01*
X157814819Y-87066666D02*
X157814819Y-87638094D01*
X157814819Y-87352380D02*
X156814819Y-87352380D01*
X156814819Y-87352380D02*
X156957676Y-87447618D01*
X156957676Y-87447618D02*
X157052914Y-87542856D01*
X157052914Y-87542856D02*
X157100533Y-87638094D01*
X156669580Y-108046666D02*
X156717200Y-108094285D01*
X156717200Y-108094285D02*
X156764819Y-108237142D01*
X156764819Y-108237142D02*
X156764819Y-108332380D01*
X156764819Y-108332380D02*
X156717200Y-108475237D01*
X156717200Y-108475237D02*
X156621961Y-108570475D01*
X156621961Y-108570475D02*
X156526723Y-108618094D01*
X156526723Y-108618094D02*
X156336247Y-108665713D01*
X156336247Y-108665713D02*
X156193390Y-108665713D01*
X156193390Y-108665713D02*
X156002914Y-108618094D01*
X156002914Y-108618094D02*
X155907676Y-108570475D01*
X155907676Y-108570475D02*
X155812438Y-108475237D01*
X155812438Y-108475237D02*
X155764819Y-108332380D01*
X155764819Y-108332380D02*
X155764819Y-108237142D01*
X155764819Y-108237142D02*
X155812438Y-108094285D01*
X155812438Y-108094285D02*
X155860057Y-108046666D01*
X155764819Y-107713332D02*
X155764819Y-107094285D01*
X155764819Y-107094285D02*
X156145771Y-107427618D01*
X156145771Y-107427618D02*
X156145771Y-107284761D01*
X156145771Y-107284761D02*
X156193390Y-107189523D01*
X156193390Y-107189523D02*
X156241009Y-107141904D01*
X156241009Y-107141904D02*
X156336247Y-107094285D01*
X156336247Y-107094285D02*
X156574342Y-107094285D01*
X156574342Y-107094285D02*
X156669580Y-107141904D01*
X156669580Y-107141904D02*
X156717200Y-107189523D01*
X156717200Y-107189523D02*
X156764819Y-107284761D01*
X156764819Y-107284761D02*
X156764819Y-107570475D01*
X156764819Y-107570475D02*
X156717200Y-107665713D01*
X156717200Y-107665713D02*
X156669580Y-107713332D01*
X161074405Y-117284819D02*
X161074405Y-116284819D01*
X161074405Y-116284819D02*
X161312500Y-116284819D01*
X161312500Y-116284819D02*
X161455357Y-116332438D01*
X161455357Y-116332438D02*
X161550595Y-116427676D01*
X161550595Y-116427676D02*
X161598214Y-116522914D01*
X161598214Y-116522914D02*
X161645833Y-116713390D01*
X161645833Y-116713390D02*
X161645833Y-116856247D01*
X161645833Y-116856247D02*
X161598214Y-117046723D01*
X161598214Y-117046723D02*
X161550595Y-117141961D01*
X161550595Y-117141961D02*
X161455357Y-117237200D01*
X161455357Y-117237200D02*
X161312500Y-117284819D01*
X161312500Y-117284819D02*
X161074405Y-117284819D01*
X162026786Y-116380057D02*
X162074405Y-116332438D01*
X162074405Y-116332438D02*
X162169643Y-116284819D01*
X162169643Y-116284819D02*
X162407738Y-116284819D01*
X162407738Y-116284819D02*
X162502976Y-116332438D01*
X162502976Y-116332438D02*
X162550595Y-116380057D01*
X162550595Y-116380057D02*
X162598214Y-116475295D01*
X162598214Y-116475295D02*
X162598214Y-116570533D01*
X162598214Y-116570533D02*
X162550595Y-116713390D01*
X162550595Y-116713390D02*
X161979167Y-117284819D01*
X161979167Y-117284819D02*
X162598214Y-117284819D01*
X171549405Y-105384819D02*
X171549405Y-104384819D01*
X171549405Y-104384819D02*
X171787500Y-104384819D01*
X171787500Y-104384819D02*
X171930357Y-104432438D01*
X171930357Y-104432438D02*
X172025595Y-104527676D01*
X172025595Y-104527676D02*
X172073214Y-104622914D01*
X172073214Y-104622914D02*
X172120833Y-104813390D01*
X172120833Y-104813390D02*
X172120833Y-104956247D01*
X172120833Y-104956247D02*
X172073214Y-105146723D01*
X172073214Y-105146723D02*
X172025595Y-105241961D01*
X172025595Y-105241961D02*
X171930357Y-105337200D01*
X171930357Y-105337200D02*
X171787500Y-105384819D01*
X171787500Y-105384819D02*
X171549405Y-105384819D01*
X173073214Y-105384819D02*
X172501786Y-105384819D01*
X172787500Y-105384819D02*
X172787500Y-104384819D01*
X172787500Y-104384819D02*
X172692262Y-104527676D01*
X172692262Y-104527676D02*
X172597024Y-104622914D01*
X172597024Y-104622914D02*
X172501786Y-104670533D01*
X162899580Y-99216666D02*
X162947200Y-99264285D01*
X162947200Y-99264285D02*
X162994819Y-99407142D01*
X162994819Y-99407142D02*
X162994819Y-99502380D01*
X162994819Y-99502380D02*
X162947200Y-99645237D01*
X162947200Y-99645237D02*
X162851961Y-99740475D01*
X162851961Y-99740475D02*
X162756723Y-99788094D01*
X162756723Y-99788094D02*
X162566247Y-99835713D01*
X162566247Y-99835713D02*
X162423390Y-99835713D01*
X162423390Y-99835713D02*
X162232914Y-99788094D01*
X162232914Y-99788094D02*
X162137676Y-99740475D01*
X162137676Y-99740475D02*
X162042438Y-99645237D01*
X162042438Y-99645237D02*
X161994819Y-99502380D01*
X161994819Y-99502380D02*
X161994819Y-99407142D01*
X161994819Y-99407142D02*
X162042438Y-99264285D01*
X162042438Y-99264285D02*
X162090057Y-99216666D01*
X161994819Y-98311904D02*
X161994819Y-98788094D01*
X161994819Y-98788094D02*
X162471009Y-98835713D01*
X162471009Y-98835713D02*
X162423390Y-98788094D01*
X162423390Y-98788094D02*
X162375771Y-98692856D01*
X162375771Y-98692856D02*
X162375771Y-98454761D01*
X162375771Y-98454761D02*
X162423390Y-98359523D01*
X162423390Y-98359523D02*
X162471009Y-98311904D01*
X162471009Y-98311904D02*
X162566247Y-98264285D01*
X162566247Y-98264285D02*
X162804342Y-98264285D01*
X162804342Y-98264285D02*
X162899580Y-98311904D01*
X162899580Y-98311904D02*
X162947200Y-98359523D01*
X162947200Y-98359523D02*
X162994819Y-98454761D01*
X162994819Y-98454761D02*
X162994819Y-98692856D01*
X162994819Y-98692856D02*
X162947200Y-98788094D01*
X162947200Y-98788094D02*
X162899580Y-98835713D01*
X162419580Y-113236666D02*
X162467200Y-113284285D01*
X162467200Y-113284285D02*
X162514819Y-113427142D01*
X162514819Y-113427142D02*
X162514819Y-113522380D01*
X162514819Y-113522380D02*
X162467200Y-113665237D01*
X162467200Y-113665237D02*
X162371961Y-113760475D01*
X162371961Y-113760475D02*
X162276723Y-113808094D01*
X162276723Y-113808094D02*
X162086247Y-113855713D01*
X162086247Y-113855713D02*
X161943390Y-113855713D01*
X161943390Y-113855713D02*
X161752914Y-113808094D01*
X161752914Y-113808094D02*
X161657676Y-113760475D01*
X161657676Y-113760475D02*
X161562438Y-113665237D01*
X161562438Y-113665237D02*
X161514819Y-113522380D01*
X161514819Y-113522380D02*
X161514819Y-113427142D01*
X161514819Y-113427142D02*
X161562438Y-113284285D01*
X161562438Y-113284285D02*
X161610057Y-113236666D01*
X161514819Y-112379523D02*
X161514819Y-112569999D01*
X161514819Y-112569999D02*
X161562438Y-112665237D01*
X161562438Y-112665237D02*
X161610057Y-112712856D01*
X161610057Y-112712856D02*
X161752914Y-112808094D01*
X161752914Y-112808094D02*
X161943390Y-112855713D01*
X161943390Y-112855713D02*
X162324342Y-112855713D01*
X162324342Y-112855713D02*
X162419580Y-112808094D01*
X162419580Y-112808094D02*
X162467200Y-112760475D01*
X162467200Y-112760475D02*
X162514819Y-112665237D01*
X162514819Y-112665237D02*
X162514819Y-112474761D01*
X162514819Y-112474761D02*
X162467200Y-112379523D01*
X162467200Y-112379523D02*
X162419580Y-112331904D01*
X162419580Y-112331904D02*
X162324342Y-112284285D01*
X162324342Y-112284285D02*
X162086247Y-112284285D01*
X162086247Y-112284285D02*
X161991009Y-112331904D01*
X161991009Y-112331904D02*
X161943390Y-112379523D01*
X161943390Y-112379523D02*
X161895771Y-112474761D01*
X161895771Y-112474761D02*
X161895771Y-112665237D01*
X161895771Y-112665237D02*
X161943390Y-112760475D01*
X161943390Y-112760475D02*
X161991009Y-112808094D01*
X161991009Y-112808094D02*
X162086247Y-112855713D01*
X149713333Y-79024580D02*
X149665714Y-79072200D01*
X149665714Y-79072200D02*
X149522857Y-79119819D01*
X149522857Y-79119819D02*
X149427619Y-79119819D01*
X149427619Y-79119819D02*
X149284762Y-79072200D01*
X149284762Y-79072200D02*
X149189524Y-78976961D01*
X149189524Y-78976961D02*
X149141905Y-78881723D01*
X149141905Y-78881723D02*
X149094286Y-78691247D01*
X149094286Y-78691247D02*
X149094286Y-78548390D01*
X149094286Y-78548390D02*
X149141905Y-78357914D01*
X149141905Y-78357914D02*
X149189524Y-78262676D01*
X149189524Y-78262676D02*
X149284762Y-78167438D01*
X149284762Y-78167438D02*
X149427619Y-78119819D01*
X149427619Y-78119819D02*
X149522857Y-78119819D01*
X149522857Y-78119819D02*
X149665714Y-78167438D01*
X149665714Y-78167438D02*
X149713333Y-78215057D01*
X150665714Y-79119819D02*
X150094286Y-79119819D01*
X150380000Y-79119819D02*
X150380000Y-78119819D01*
X150380000Y-78119819D02*
X150284762Y-78262676D01*
X150284762Y-78262676D02*
X150189524Y-78357914D01*
X150189524Y-78357914D02*
X150094286Y-78405533D01*
X167986666Y-123204819D02*
X167986666Y-123919104D01*
X167986666Y-123919104D02*
X167939047Y-124061961D01*
X167939047Y-124061961D02*
X167843809Y-124157200D01*
X167843809Y-124157200D02*
X167700952Y-124204819D01*
X167700952Y-124204819D02*
X167605714Y-124204819D01*
X168891428Y-123204819D02*
X168700952Y-123204819D01*
X168700952Y-123204819D02*
X168605714Y-123252438D01*
X168605714Y-123252438D02*
X168558095Y-123300057D01*
X168558095Y-123300057D02*
X168462857Y-123442914D01*
X168462857Y-123442914D02*
X168415238Y-123633390D01*
X168415238Y-123633390D02*
X168415238Y-124014342D01*
X168415238Y-124014342D02*
X168462857Y-124109580D01*
X168462857Y-124109580D02*
X168510476Y-124157200D01*
X168510476Y-124157200D02*
X168605714Y-124204819D01*
X168605714Y-124204819D02*
X168796190Y-124204819D01*
X168796190Y-124204819D02*
X168891428Y-124157200D01*
X168891428Y-124157200D02*
X168939047Y-124109580D01*
X168939047Y-124109580D02*
X168986666Y-124014342D01*
X168986666Y-124014342D02*
X168986666Y-123776247D01*
X168986666Y-123776247D02*
X168939047Y-123681009D01*
X168939047Y-123681009D02*
X168891428Y-123633390D01*
X168891428Y-123633390D02*
X168796190Y-123585771D01*
X168796190Y-123585771D02*
X168605714Y-123585771D01*
X168605714Y-123585771D02*
X168510476Y-123633390D01*
X168510476Y-123633390D02*
X168462857Y-123681009D01*
X168462857Y-123681009D02*
X168415238Y-123776247D01*
X152766666Y-111759819D02*
X152766666Y-112474104D01*
X152766666Y-112474104D02*
X152719047Y-112616961D01*
X152719047Y-112616961D02*
X152623809Y-112712200D01*
X152623809Y-112712200D02*
X152480952Y-112759819D01*
X152480952Y-112759819D02*
X152385714Y-112759819D01*
X153671428Y-112093152D02*
X153671428Y-112759819D01*
X153433333Y-111712200D02*
X153195238Y-112426485D01*
X153195238Y-112426485D02*
X153814285Y-112426485D01*
X163849580Y-99246666D02*
X163897200Y-99294285D01*
X163897200Y-99294285D02*
X163944819Y-99437142D01*
X163944819Y-99437142D02*
X163944819Y-99532380D01*
X163944819Y-99532380D02*
X163897200Y-99675237D01*
X163897200Y-99675237D02*
X163801961Y-99770475D01*
X163801961Y-99770475D02*
X163706723Y-99818094D01*
X163706723Y-99818094D02*
X163516247Y-99865713D01*
X163516247Y-99865713D02*
X163373390Y-99865713D01*
X163373390Y-99865713D02*
X163182914Y-99818094D01*
X163182914Y-99818094D02*
X163087676Y-99770475D01*
X163087676Y-99770475D02*
X162992438Y-99675237D01*
X162992438Y-99675237D02*
X162944819Y-99532380D01*
X162944819Y-99532380D02*
X162944819Y-99437142D01*
X162944819Y-99437142D02*
X162992438Y-99294285D01*
X162992438Y-99294285D02*
X163040057Y-99246666D01*
X162944819Y-98913332D02*
X162944819Y-98246666D01*
X162944819Y-98246666D02*
X163944819Y-98675237D01*
X159599580Y-94416666D02*
X159647200Y-94464285D01*
X159647200Y-94464285D02*
X159694819Y-94607142D01*
X159694819Y-94607142D02*
X159694819Y-94702380D01*
X159694819Y-94702380D02*
X159647200Y-94845237D01*
X159647200Y-94845237D02*
X159551961Y-94940475D01*
X159551961Y-94940475D02*
X159456723Y-94988094D01*
X159456723Y-94988094D02*
X159266247Y-95035713D01*
X159266247Y-95035713D02*
X159123390Y-95035713D01*
X159123390Y-95035713D02*
X158932914Y-94988094D01*
X158932914Y-94988094D02*
X158837676Y-94940475D01*
X158837676Y-94940475D02*
X158742438Y-94845237D01*
X158742438Y-94845237D02*
X158694819Y-94702380D01*
X158694819Y-94702380D02*
X158694819Y-94607142D01*
X158694819Y-94607142D02*
X158742438Y-94464285D01*
X158742438Y-94464285D02*
X158790057Y-94416666D01*
X159123390Y-93845237D02*
X159075771Y-93940475D01*
X159075771Y-93940475D02*
X159028152Y-93988094D01*
X159028152Y-93988094D02*
X158932914Y-94035713D01*
X158932914Y-94035713D02*
X158885295Y-94035713D01*
X158885295Y-94035713D02*
X158790057Y-93988094D01*
X158790057Y-93988094D02*
X158742438Y-93940475D01*
X158742438Y-93940475D02*
X158694819Y-93845237D01*
X158694819Y-93845237D02*
X158694819Y-93654761D01*
X158694819Y-93654761D02*
X158742438Y-93559523D01*
X158742438Y-93559523D02*
X158790057Y-93511904D01*
X158790057Y-93511904D02*
X158885295Y-93464285D01*
X158885295Y-93464285D02*
X158932914Y-93464285D01*
X158932914Y-93464285D02*
X159028152Y-93511904D01*
X159028152Y-93511904D02*
X159075771Y-93559523D01*
X159075771Y-93559523D02*
X159123390Y-93654761D01*
X159123390Y-93654761D02*
X159123390Y-93845237D01*
X159123390Y-93845237D02*
X159171009Y-93940475D01*
X159171009Y-93940475D02*
X159218628Y-93988094D01*
X159218628Y-93988094D02*
X159313866Y-94035713D01*
X159313866Y-94035713D02*
X159504342Y-94035713D01*
X159504342Y-94035713D02*
X159599580Y-93988094D01*
X159599580Y-93988094D02*
X159647200Y-93940475D01*
X159647200Y-93940475D02*
X159694819Y-93845237D01*
X159694819Y-93845237D02*
X159694819Y-93654761D01*
X159694819Y-93654761D02*
X159647200Y-93559523D01*
X159647200Y-93559523D02*
X159599580Y-93511904D01*
X159599580Y-93511904D02*
X159504342Y-93464285D01*
X159504342Y-93464285D02*
X159313866Y-93464285D01*
X159313866Y-93464285D02*
X159218628Y-93511904D01*
X159218628Y-93511904D02*
X159171009Y-93559523D01*
X159171009Y-93559523D02*
X159123390Y-93654761D01*
X165033333Y-101534819D02*
X164700000Y-101058628D01*
X164461905Y-101534819D02*
X164461905Y-100534819D01*
X164461905Y-100534819D02*
X164842857Y-100534819D01*
X164842857Y-100534819D02*
X164938095Y-100582438D01*
X164938095Y-100582438D02*
X164985714Y-100630057D01*
X164985714Y-100630057D02*
X165033333Y-100725295D01*
X165033333Y-100725295D02*
X165033333Y-100868152D01*
X165033333Y-100868152D02*
X164985714Y-100963390D01*
X164985714Y-100963390D02*
X164938095Y-101011009D01*
X164938095Y-101011009D02*
X164842857Y-101058628D01*
X164842857Y-101058628D02*
X164461905Y-101058628D01*
X165366667Y-100534819D02*
X165985714Y-100534819D01*
X165985714Y-100534819D02*
X165652381Y-100915771D01*
X165652381Y-100915771D02*
X165795238Y-100915771D01*
X165795238Y-100915771D02*
X165890476Y-100963390D01*
X165890476Y-100963390D02*
X165938095Y-101011009D01*
X165938095Y-101011009D02*
X165985714Y-101106247D01*
X165985714Y-101106247D02*
X165985714Y-101344342D01*
X165985714Y-101344342D02*
X165938095Y-101439580D01*
X165938095Y-101439580D02*
X165890476Y-101487200D01*
X165890476Y-101487200D02*
X165795238Y-101534819D01*
X165795238Y-101534819D02*
X165509524Y-101534819D01*
X165509524Y-101534819D02*
X165414286Y-101487200D01*
X165414286Y-101487200D02*
X165366667Y-101439580D01*
X181996666Y-77109819D02*
X181996666Y-77824104D01*
X181996666Y-77824104D02*
X181949047Y-77966961D01*
X181949047Y-77966961D02*
X181853809Y-78062200D01*
X181853809Y-78062200D02*
X181710952Y-78109819D01*
X181710952Y-78109819D02*
X181615714Y-78109819D01*
X182377619Y-77109819D02*
X182996666Y-77109819D01*
X182996666Y-77109819D02*
X182663333Y-77490771D01*
X182663333Y-77490771D02*
X182806190Y-77490771D01*
X182806190Y-77490771D02*
X182901428Y-77538390D01*
X182901428Y-77538390D02*
X182949047Y-77586009D01*
X182949047Y-77586009D02*
X182996666Y-77681247D01*
X182996666Y-77681247D02*
X182996666Y-77919342D01*
X182996666Y-77919342D02*
X182949047Y-78014580D01*
X182949047Y-78014580D02*
X182901428Y-78062200D01*
X182901428Y-78062200D02*
X182806190Y-78109819D01*
X182806190Y-78109819D02*
X182520476Y-78109819D01*
X182520476Y-78109819D02*
X182425238Y-78062200D01*
X182425238Y-78062200D02*
X182377619Y-78014580D01*
X160584819Y-117366666D02*
X160108628Y-117699999D01*
X160584819Y-117938094D02*
X159584819Y-117938094D01*
X159584819Y-117938094D02*
X159584819Y-117557142D01*
X159584819Y-117557142D02*
X159632438Y-117461904D01*
X159632438Y-117461904D02*
X159680057Y-117414285D01*
X159680057Y-117414285D02*
X159775295Y-117366666D01*
X159775295Y-117366666D02*
X159918152Y-117366666D01*
X159918152Y-117366666D02*
X160013390Y-117414285D01*
X160013390Y-117414285D02*
X160061009Y-117461904D01*
X160061009Y-117461904D02*
X160108628Y-117557142D01*
X160108628Y-117557142D02*
X160108628Y-117938094D01*
X160584819Y-116890475D02*
X160584819Y-116699999D01*
X160584819Y-116699999D02*
X160537200Y-116604761D01*
X160537200Y-116604761D02*
X160489580Y-116557142D01*
X160489580Y-116557142D02*
X160346723Y-116461904D01*
X160346723Y-116461904D02*
X160156247Y-116414285D01*
X160156247Y-116414285D02*
X159775295Y-116414285D01*
X159775295Y-116414285D02*
X159680057Y-116461904D01*
X159680057Y-116461904D02*
X159632438Y-116509523D01*
X159632438Y-116509523D02*
X159584819Y-116604761D01*
X159584819Y-116604761D02*
X159584819Y-116795237D01*
X159584819Y-116795237D02*
X159632438Y-116890475D01*
X159632438Y-116890475D02*
X159680057Y-116938094D01*
X159680057Y-116938094D02*
X159775295Y-116985713D01*
X159775295Y-116985713D02*
X160013390Y-116985713D01*
X160013390Y-116985713D02*
X160108628Y-116938094D01*
X160108628Y-116938094D02*
X160156247Y-116890475D01*
X160156247Y-116890475D02*
X160203866Y-116795237D01*
X160203866Y-116795237D02*
X160203866Y-116604761D01*
X160203866Y-116604761D02*
X160156247Y-116509523D01*
X160156247Y-116509523D02*
X160108628Y-116461904D01*
X160108628Y-116461904D02*
X160013390Y-116414285D01*
X159583333Y-118624819D02*
X159250000Y-118148628D01*
X159011905Y-118624819D02*
X159011905Y-117624819D01*
X159011905Y-117624819D02*
X159392857Y-117624819D01*
X159392857Y-117624819D02*
X159488095Y-117672438D01*
X159488095Y-117672438D02*
X159535714Y-117720057D01*
X159535714Y-117720057D02*
X159583333Y-117815295D01*
X159583333Y-117815295D02*
X159583333Y-117958152D01*
X159583333Y-117958152D02*
X159535714Y-118053390D01*
X159535714Y-118053390D02*
X159488095Y-118101009D01*
X159488095Y-118101009D02*
X159392857Y-118148628D01*
X159392857Y-118148628D02*
X159011905Y-118148628D01*
X160154762Y-118053390D02*
X160059524Y-118005771D01*
X160059524Y-118005771D02*
X160011905Y-117958152D01*
X160011905Y-117958152D02*
X159964286Y-117862914D01*
X159964286Y-117862914D02*
X159964286Y-117815295D01*
X159964286Y-117815295D02*
X160011905Y-117720057D01*
X160011905Y-117720057D02*
X160059524Y-117672438D01*
X160059524Y-117672438D02*
X160154762Y-117624819D01*
X160154762Y-117624819D02*
X160345238Y-117624819D01*
X160345238Y-117624819D02*
X160440476Y-117672438D01*
X160440476Y-117672438D02*
X160488095Y-117720057D01*
X160488095Y-117720057D02*
X160535714Y-117815295D01*
X160535714Y-117815295D02*
X160535714Y-117862914D01*
X160535714Y-117862914D02*
X160488095Y-117958152D01*
X160488095Y-117958152D02*
X160440476Y-118005771D01*
X160440476Y-118005771D02*
X160345238Y-118053390D01*
X160345238Y-118053390D02*
X160154762Y-118053390D01*
X160154762Y-118053390D02*
X160059524Y-118101009D01*
X160059524Y-118101009D02*
X160011905Y-118148628D01*
X160011905Y-118148628D02*
X159964286Y-118243866D01*
X159964286Y-118243866D02*
X159964286Y-118434342D01*
X159964286Y-118434342D02*
X160011905Y-118529580D01*
X160011905Y-118529580D02*
X160059524Y-118577200D01*
X160059524Y-118577200D02*
X160154762Y-118624819D01*
X160154762Y-118624819D02*
X160345238Y-118624819D01*
X160345238Y-118624819D02*
X160440476Y-118577200D01*
X160440476Y-118577200D02*
X160488095Y-118529580D01*
X160488095Y-118529580D02*
X160535714Y-118434342D01*
X160535714Y-118434342D02*
X160535714Y-118243866D01*
X160535714Y-118243866D02*
X160488095Y-118148628D01*
X160488095Y-118148628D02*
X160440476Y-118101009D01*
X160440476Y-118101009D02*
X160345238Y-118053390D01*
X147969047Y-79481009D02*
X148111904Y-79528628D01*
X148111904Y-79528628D02*
X148159523Y-79576247D01*
X148159523Y-79576247D02*
X148207142Y-79671485D01*
X148207142Y-79671485D02*
X148207142Y-79814342D01*
X148207142Y-79814342D02*
X148159523Y-79909580D01*
X148159523Y-79909580D02*
X148111904Y-79957200D01*
X148111904Y-79957200D02*
X148016666Y-80004819D01*
X148016666Y-80004819D02*
X147635714Y-80004819D01*
X147635714Y-80004819D02*
X147635714Y-79004819D01*
X147635714Y-79004819D02*
X147969047Y-79004819D01*
X147969047Y-79004819D02*
X148064285Y-79052438D01*
X148064285Y-79052438D02*
X148111904Y-79100057D01*
X148111904Y-79100057D02*
X148159523Y-79195295D01*
X148159523Y-79195295D02*
X148159523Y-79290533D01*
X148159523Y-79290533D02*
X148111904Y-79385771D01*
X148111904Y-79385771D02*
X148064285Y-79433390D01*
X148064285Y-79433390D02*
X147969047Y-79481009D01*
X147969047Y-79481009D02*
X147635714Y-79481009D01*
X148540476Y-79004819D02*
X149207142Y-79004819D01*
X149207142Y-79004819D02*
X148540476Y-80004819D01*
X148540476Y-80004819D02*
X149207142Y-80004819D01*
X150111904Y-80004819D02*
X149540476Y-80004819D01*
X149826190Y-80004819D02*
X149826190Y-79004819D01*
X149826190Y-79004819D02*
X149730952Y-79147676D01*
X149730952Y-79147676D02*
X149635714Y-79242914D01*
X149635714Y-79242914D02*
X149540476Y-79290533D01*
X144659048Y-84283866D02*
X145420953Y-84283866D01*
X145040000Y-84664819D02*
X145040000Y-83902914D01*
X160074819Y-73198333D02*
X160789104Y-73198333D01*
X160789104Y-73198333D02*
X160931961Y-73245952D01*
X160931961Y-73245952D02*
X161027200Y-73341190D01*
X161027200Y-73341190D02*
X161074819Y-73484047D01*
X161074819Y-73484047D02*
X161074819Y-73579285D01*
X161074819Y-72198333D02*
X161074819Y-72769761D01*
X161074819Y-72484047D02*
X160074819Y-72484047D01*
X160074819Y-72484047D02*
X160217676Y-72579285D01*
X160217676Y-72579285D02*
X160312914Y-72674523D01*
X160312914Y-72674523D02*
X160360533Y-72769761D01*
X142107142Y-118269580D02*
X142059523Y-118317200D01*
X142059523Y-118317200D02*
X141916666Y-118364819D01*
X141916666Y-118364819D02*
X141821428Y-118364819D01*
X141821428Y-118364819D02*
X141678571Y-118317200D01*
X141678571Y-118317200D02*
X141583333Y-118221961D01*
X141583333Y-118221961D02*
X141535714Y-118126723D01*
X141535714Y-118126723D02*
X141488095Y-117936247D01*
X141488095Y-117936247D02*
X141488095Y-117793390D01*
X141488095Y-117793390D02*
X141535714Y-117602914D01*
X141535714Y-117602914D02*
X141583333Y-117507676D01*
X141583333Y-117507676D02*
X141678571Y-117412438D01*
X141678571Y-117412438D02*
X141821428Y-117364819D01*
X141821428Y-117364819D02*
X141916666Y-117364819D01*
X141916666Y-117364819D02*
X142059523Y-117412438D01*
X142059523Y-117412438D02*
X142107142Y-117460057D01*
X143059523Y-118364819D02*
X142488095Y-118364819D01*
X142773809Y-118364819D02*
X142773809Y-117364819D01*
X142773809Y-117364819D02*
X142678571Y-117507676D01*
X142678571Y-117507676D02*
X142583333Y-117602914D01*
X142583333Y-117602914D02*
X142488095Y-117650533D01*
X143916666Y-117698152D02*
X143916666Y-118364819D01*
X143678571Y-117317200D02*
X143440476Y-118031485D01*
X143440476Y-118031485D02*
X144059523Y-118031485D01*
X171593333Y-104034819D02*
X171260000Y-103558628D01*
X171021905Y-104034819D02*
X171021905Y-103034819D01*
X171021905Y-103034819D02*
X171402857Y-103034819D01*
X171402857Y-103034819D02*
X171498095Y-103082438D01*
X171498095Y-103082438D02*
X171545714Y-103130057D01*
X171545714Y-103130057D02*
X171593333Y-103225295D01*
X171593333Y-103225295D02*
X171593333Y-103368152D01*
X171593333Y-103368152D02*
X171545714Y-103463390D01*
X171545714Y-103463390D02*
X171498095Y-103511009D01*
X171498095Y-103511009D02*
X171402857Y-103558628D01*
X171402857Y-103558628D02*
X171021905Y-103558628D01*
X172450476Y-103368152D02*
X172450476Y-104034819D01*
X172212381Y-102987200D02*
X171974286Y-103701485D01*
X171974286Y-103701485D02*
X172593333Y-103701485D01*
X153523333Y-118624819D02*
X153190000Y-118148628D01*
X152951905Y-118624819D02*
X152951905Y-117624819D01*
X152951905Y-117624819D02*
X153332857Y-117624819D01*
X153332857Y-117624819D02*
X153428095Y-117672438D01*
X153428095Y-117672438D02*
X153475714Y-117720057D01*
X153475714Y-117720057D02*
X153523333Y-117815295D01*
X153523333Y-117815295D02*
X153523333Y-117958152D01*
X153523333Y-117958152D02*
X153475714Y-118053390D01*
X153475714Y-118053390D02*
X153428095Y-118101009D01*
X153428095Y-118101009D02*
X153332857Y-118148628D01*
X153332857Y-118148628D02*
X152951905Y-118148628D01*
X153856667Y-117624819D02*
X154523333Y-117624819D01*
X154523333Y-117624819D02*
X154094762Y-118624819D01*
X160924819Y-94416666D02*
X160448628Y-94749999D01*
X160924819Y-94988094D02*
X159924819Y-94988094D01*
X159924819Y-94988094D02*
X159924819Y-94607142D01*
X159924819Y-94607142D02*
X159972438Y-94511904D01*
X159972438Y-94511904D02*
X160020057Y-94464285D01*
X160020057Y-94464285D02*
X160115295Y-94416666D01*
X160115295Y-94416666D02*
X160258152Y-94416666D01*
X160258152Y-94416666D02*
X160353390Y-94464285D01*
X160353390Y-94464285D02*
X160401009Y-94511904D01*
X160401009Y-94511904D02*
X160448628Y-94607142D01*
X160448628Y-94607142D02*
X160448628Y-94988094D01*
X160020057Y-94035713D02*
X159972438Y-93988094D01*
X159972438Y-93988094D02*
X159924819Y-93892856D01*
X159924819Y-93892856D02*
X159924819Y-93654761D01*
X159924819Y-93654761D02*
X159972438Y-93559523D01*
X159972438Y-93559523D02*
X160020057Y-93511904D01*
X160020057Y-93511904D02*
X160115295Y-93464285D01*
X160115295Y-93464285D02*
X160210533Y-93464285D01*
X160210533Y-93464285D02*
X160353390Y-93511904D01*
X160353390Y-93511904D02*
X160924819Y-94083332D01*
X160924819Y-94083332D02*
X160924819Y-93464285D01*
X164849580Y-99722857D02*
X164897200Y-99770476D01*
X164897200Y-99770476D02*
X164944819Y-99913333D01*
X164944819Y-99913333D02*
X164944819Y-100008571D01*
X164944819Y-100008571D02*
X164897200Y-100151428D01*
X164897200Y-100151428D02*
X164801961Y-100246666D01*
X164801961Y-100246666D02*
X164706723Y-100294285D01*
X164706723Y-100294285D02*
X164516247Y-100341904D01*
X164516247Y-100341904D02*
X164373390Y-100341904D01*
X164373390Y-100341904D02*
X164182914Y-100294285D01*
X164182914Y-100294285D02*
X164087676Y-100246666D01*
X164087676Y-100246666D02*
X163992438Y-100151428D01*
X163992438Y-100151428D02*
X163944819Y-100008571D01*
X163944819Y-100008571D02*
X163944819Y-99913333D01*
X163944819Y-99913333D02*
X163992438Y-99770476D01*
X163992438Y-99770476D02*
X164040057Y-99722857D01*
X164944819Y-98770476D02*
X164944819Y-99341904D01*
X164944819Y-99056190D02*
X163944819Y-99056190D01*
X163944819Y-99056190D02*
X164087676Y-99151428D01*
X164087676Y-99151428D02*
X164182914Y-99246666D01*
X164182914Y-99246666D02*
X164230533Y-99341904D01*
X163944819Y-98437142D02*
X163944819Y-97818095D01*
X163944819Y-97818095D02*
X164325771Y-98151428D01*
X164325771Y-98151428D02*
X164325771Y-98008571D01*
X164325771Y-98008571D02*
X164373390Y-97913333D01*
X164373390Y-97913333D02*
X164421009Y-97865714D01*
X164421009Y-97865714D02*
X164516247Y-97818095D01*
X164516247Y-97818095D02*
X164754342Y-97818095D01*
X164754342Y-97818095D02*
X164849580Y-97865714D01*
X164849580Y-97865714D02*
X164897200Y-97913333D01*
X164897200Y-97913333D02*
X164944819Y-98008571D01*
X164944819Y-98008571D02*
X164944819Y-98294285D01*
X164944819Y-98294285D02*
X164897200Y-98389523D01*
X164897200Y-98389523D02*
X164849580Y-98437142D01*
X151683333Y-107069580D02*
X151635714Y-107117200D01*
X151635714Y-107117200D02*
X151492857Y-107164819D01*
X151492857Y-107164819D02*
X151397619Y-107164819D01*
X151397619Y-107164819D02*
X151254762Y-107117200D01*
X151254762Y-107117200D02*
X151159524Y-107021961D01*
X151159524Y-107021961D02*
X151111905Y-106926723D01*
X151111905Y-106926723D02*
X151064286Y-106736247D01*
X151064286Y-106736247D02*
X151064286Y-106593390D01*
X151064286Y-106593390D02*
X151111905Y-106402914D01*
X151111905Y-106402914D02*
X151159524Y-106307676D01*
X151159524Y-106307676D02*
X151254762Y-106212438D01*
X151254762Y-106212438D02*
X151397619Y-106164819D01*
X151397619Y-106164819D02*
X151492857Y-106164819D01*
X151492857Y-106164819D02*
X151635714Y-106212438D01*
X151635714Y-106212438D02*
X151683333Y-106260057D01*
X152540476Y-106498152D02*
X152540476Y-107164819D01*
X152302381Y-106117200D02*
X152064286Y-106831485D01*
X152064286Y-106831485D02*
X152683333Y-106831485D01*
X167719580Y-112792857D02*
X167767200Y-112840476D01*
X167767200Y-112840476D02*
X167814819Y-112983333D01*
X167814819Y-112983333D02*
X167814819Y-113078571D01*
X167814819Y-113078571D02*
X167767200Y-113221428D01*
X167767200Y-113221428D02*
X167671961Y-113316666D01*
X167671961Y-113316666D02*
X167576723Y-113364285D01*
X167576723Y-113364285D02*
X167386247Y-113411904D01*
X167386247Y-113411904D02*
X167243390Y-113411904D01*
X167243390Y-113411904D02*
X167052914Y-113364285D01*
X167052914Y-113364285D02*
X166957676Y-113316666D01*
X166957676Y-113316666D02*
X166862438Y-113221428D01*
X166862438Y-113221428D02*
X166814819Y-113078571D01*
X166814819Y-113078571D02*
X166814819Y-112983333D01*
X166814819Y-112983333D02*
X166862438Y-112840476D01*
X166862438Y-112840476D02*
X166910057Y-112792857D01*
X167814819Y-111840476D02*
X167814819Y-112411904D01*
X167814819Y-112126190D02*
X166814819Y-112126190D01*
X166814819Y-112126190D02*
X166957676Y-112221428D01*
X166957676Y-112221428D02*
X167052914Y-112316666D01*
X167052914Y-112316666D02*
X167100533Y-112411904D01*
X166910057Y-111459523D02*
X166862438Y-111411904D01*
X166862438Y-111411904D02*
X166814819Y-111316666D01*
X166814819Y-111316666D02*
X166814819Y-111078571D01*
X166814819Y-111078571D02*
X166862438Y-110983333D01*
X166862438Y-110983333D02*
X166910057Y-110935714D01*
X166910057Y-110935714D02*
X167005295Y-110888095D01*
X167005295Y-110888095D02*
X167100533Y-110888095D01*
X167100533Y-110888095D02*
X167243390Y-110935714D01*
X167243390Y-110935714D02*
X167814819Y-111507142D01*
X167814819Y-111507142D02*
X167814819Y-110888095D01*
X138488095Y-117604819D02*
X138488095Y-116604819D01*
X138488095Y-117081009D02*
X139059523Y-117081009D01*
X139059523Y-117604819D02*
X139059523Y-116604819D01*
X139440476Y-116604819D02*
X140059523Y-116604819D01*
X140059523Y-116604819D02*
X139726190Y-116985771D01*
X139726190Y-116985771D02*
X139869047Y-116985771D01*
X139869047Y-116985771D02*
X139964285Y-117033390D01*
X139964285Y-117033390D02*
X140011904Y-117081009D01*
X140011904Y-117081009D02*
X140059523Y-117176247D01*
X140059523Y-117176247D02*
X140059523Y-117414342D01*
X140059523Y-117414342D02*
X140011904Y-117509580D01*
X140011904Y-117509580D02*
X139964285Y-117557200D01*
X139964285Y-117557200D02*
X139869047Y-117604819D01*
X139869047Y-117604819D02*
X139583333Y-117604819D01*
X139583333Y-117604819D02*
X139488095Y-117557200D01*
X139488095Y-117557200D02*
X139440476Y-117509580D01*
X170134819Y-122306904D02*
X170944342Y-122306904D01*
X170944342Y-122306904D02*
X171039580Y-122259285D01*
X171039580Y-122259285D02*
X171087200Y-122211666D01*
X171087200Y-122211666D02*
X171134819Y-122116428D01*
X171134819Y-122116428D02*
X171134819Y-121925952D01*
X171134819Y-121925952D02*
X171087200Y-121830714D01*
X171087200Y-121830714D02*
X171039580Y-121783095D01*
X171039580Y-121783095D02*
X170944342Y-121735476D01*
X170944342Y-121735476D02*
X170134819Y-121735476D01*
X170468152Y-120830714D02*
X171134819Y-120830714D01*
X170087200Y-121068809D02*
X170801485Y-121306904D01*
X170801485Y-121306904D02*
X170801485Y-120687857D01*
X163173333Y-108429580D02*
X163125714Y-108477200D01*
X163125714Y-108477200D02*
X162982857Y-108524819D01*
X162982857Y-108524819D02*
X162887619Y-108524819D01*
X162887619Y-108524819D02*
X162744762Y-108477200D01*
X162744762Y-108477200D02*
X162649524Y-108381961D01*
X162649524Y-108381961D02*
X162601905Y-108286723D01*
X162601905Y-108286723D02*
X162554286Y-108096247D01*
X162554286Y-108096247D02*
X162554286Y-107953390D01*
X162554286Y-107953390D02*
X162601905Y-107762914D01*
X162601905Y-107762914D02*
X162649524Y-107667676D01*
X162649524Y-107667676D02*
X162744762Y-107572438D01*
X162744762Y-107572438D02*
X162887619Y-107524819D01*
X162887619Y-107524819D02*
X162982857Y-107524819D01*
X162982857Y-107524819D02*
X163125714Y-107572438D01*
X163125714Y-107572438D02*
X163173333Y-107620057D01*
X163649524Y-108524819D02*
X163840000Y-108524819D01*
X163840000Y-108524819D02*
X163935238Y-108477200D01*
X163935238Y-108477200D02*
X163982857Y-108429580D01*
X163982857Y-108429580D02*
X164078095Y-108286723D01*
X164078095Y-108286723D02*
X164125714Y-108096247D01*
X164125714Y-108096247D02*
X164125714Y-107715295D01*
X164125714Y-107715295D02*
X164078095Y-107620057D01*
X164078095Y-107620057D02*
X164030476Y-107572438D01*
X164030476Y-107572438D02*
X163935238Y-107524819D01*
X163935238Y-107524819D02*
X163744762Y-107524819D01*
X163744762Y-107524819D02*
X163649524Y-107572438D01*
X163649524Y-107572438D02*
X163601905Y-107620057D01*
X163601905Y-107620057D02*
X163554286Y-107715295D01*
X163554286Y-107715295D02*
X163554286Y-107953390D01*
X163554286Y-107953390D02*
X163601905Y-108048628D01*
X163601905Y-108048628D02*
X163649524Y-108096247D01*
X163649524Y-108096247D02*
X163744762Y-108143866D01*
X163744762Y-108143866D02*
X163935238Y-108143866D01*
X163935238Y-108143866D02*
X164030476Y-108096247D01*
X164030476Y-108096247D02*
X164078095Y-108048628D01*
X164078095Y-108048628D02*
X164125714Y-107953390D01*
X176608095Y-71554819D02*
X176608095Y-70554819D01*
X176608095Y-71031009D02*
X177179523Y-71031009D01*
X177179523Y-71554819D02*
X177179523Y-70554819D01*
X177608095Y-70650057D02*
X177655714Y-70602438D01*
X177655714Y-70602438D02*
X177750952Y-70554819D01*
X177750952Y-70554819D02*
X177989047Y-70554819D01*
X177989047Y-70554819D02*
X178084285Y-70602438D01*
X178084285Y-70602438D02*
X178131904Y-70650057D01*
X178131904Y-70650057D02*
X178179523Y-70745295D01*
X178179523Y-70745295D02*
X178179523Y-70840533D01*
X178179523Y-70840533D02*
X178131904Y-70983390D01*
X178131904Y-70983390D02*
X177560476Y-71554819D01*
X177560476Y-71554819D02*
X178179523Y-71554819D01*
X155553333Y-118624819D02*
X155220000Y-118148628D01*
X154981905Y-118624819D02*
X154981905Y-117624819D01*
X154981905Y-117624819D02*
X155362857Y-117624819D01*
X155362857Y-117624819D02*
X155458095Y-117672438D01*
X155458095Y-117672438D02*
X155505714Y-117720057D01*
X155505714Y-117720057D02*
X155553333Y-117815295D01*
X155553333Y-117815295D02*
X155553333Y-117958152D01*
X155553333Y-117958152D02*
X155505714Y-118053390D01*
X155505714Y-118053390D02*
X155458095Y-118101009D01*
X155458095Y-118101009D02*
X155362857Y-118148628D01*
X155362857Y-118148628D02*
X154981905Y-118148628D01*
X156458095Y-117624819D02*
X155981905Y-117624819D01*
X155981905Y-117624819D02*
X155934286Y-118101009D01*
X155934286Y-118101009D02*
X155981905Y-118053390D01*
X155981905Y-118053390D02*
X156077143Y-118005771D01*
X156077143Y-118005771D02*
X156315238Y-118005771D01*
X156315238Y-118005771D02*
X156410476Y-118053390D01*
X156410476Y-118053390D02*
X156458095Y-118101009D01*
X156458095Y-118101009D02*
X156505714Y-118196247D01*
X156505714Y-118196247D02*
X156505714Y-118434342D01*
X156505714Y-118434342D02*
X156458095Y-118529580D01*
X156458095Y-118529580D02*
X156410476Y-118577200D01*
X156410476Y-118577200D02*
X156315238Y-118624819D01*
X156315238Y-118624819D02*
X156077143Y-118624819D01*
X156077143Y-118624819D02*
X155981905Y-118577200D01*
X155981905Y-118577200D02*
X155934286Y-118529580D01*
X152604819Y-106866666D02*
X152604819Y-107342856D01*
X152604819Y-107342856D02*
X151604819Y-107342856D01*
X152604819Y-106009523D02*
X152604819Y-106580951D01*
X152604819Y-106295237D02*
X151604819Y-106295237D01*
X151604819Y-106295237D02*
X151747676Y-106390475D01*
X151747676Y-106390475D02*
X151842914Y-106485713D01*
X151842914Y-106485713D02*
X151890533Y-106580951D01*
X172895180Y-117838095D02*
X172085657Y-117838095D01*
X172085657Y-117838095D02*
X171990419Y-117885714D01*
X171990419Y-117885714D02*
X171942800Y-117933333D01*
X171942800Y-117933333D02*
X171895180Y-118028571D01*
X171895180Y-118028571D02*
X171895180Y-118219047D01*
X171895180Y-118219047D02*
X171942800Y-118314285D01*
X171942800Y-118314285D02*
X171990419Y-118361904D01*
X171990419Y-118361904D02*
X172085657Y-118409523D01*
X172085657Y-118409523D02*
X172895180Y-118409523D01*
X172895180Y-119361904D02*
X172895180Y-118885714D01*
X172895180Y-118885714D02*
X172418990Y-118838095D01*
X172418990Y-118838095D02*
X172466609Y-118885714D01*
X172466609Y-118885714D02*
X172514228Y-118980952D01*
X172514228Y-118980952D02*
X172514228Y-119219047D01*
X172514228Y-119219047D02*
X172466609Y-119314285D01*
X172466609Y-119314285D02*
X172418990Y-119361904D01*
X172418990Y-119361904D02*
X172323752Y-119409523D01*
X172323752Y-119409523D02*
X172085657Y-119409523D01*
X172085657Y-119409523D02*
X171990419Y-119361904D01*
X171990419Y-119361904D02*
X171942800Y-119314285D01*
X171942800Y-119314285D02*
X171895180Y-119219047D01*
X171895180Y-119219047D02*
X171895180Y-118980952D01*
X171895180Y-118980952D02*
X171942800Y-118885714D01*
X171942800Y-118885714D02*
X171990419Y-118838095D01*
X172895180Y-115415500D02*
X172657085Y-115415500D01*
X172752323Y-115177405D02*
X172657085Y-115415500D01*
X172657085Y-115415500D02*
X172752323Y-115653595D01*
X172466609Y-115272643D02*
X172657085Y-115415500D01*
X172657085Y-115415500D02*
X172466609Y-115558357D01*
X171804819Y-115415499D02*
X172042914Y-115415499D01*
X171947676Y-115653594D02*
X172042914Y-115415499D01*
X172042914Y-115415499D02*
X171947676Y-115177404D01*
X172233390Y-115558356D02*
X172042914Y-115415499D01*
X172042914Y-115415499D02*
X172233390Y-115272642D01*
X170537142Y-122329819D02*
X170203809Y-121853628D01*
X169965714Y-122329819D02*
X169965714Y-121329819D01*
X169965714Y-121329819D02*
X170346666Y-121329819D01*
X170346666Y-121329819D02*
X170441904Y-121377438D01*
X170441904Y-121377438D02*
X170489523Y-121425057D01*
X170489523Y-121425057D02*
X170537142Y-121520295D01*
X170537142Y-121520295D02*
X170537142Y-121663152D01*
X170537142Y-121663152D02*
X170489523Y-121758390D01*
X170489523Y-121758390D02*
X170441904Y-121806009D01*
X170441904Y-121806009D02*
X170346666Y-121853628D01*
X170346666Y-121853628D02*
X169965714Y-121853628D01*
X171489523Y-122329819D02*
X170918095Y-122329819D01*
X171203809Y-122329819D02*
X171203809Y-121329819D01*
X171203809Y-121329819D02*
X171108571Y-121472676D01*
X171108571Y-121472676D02*
X171013333Y-121567914D01*
X171013333Y-121567914D02*
X170918095Y-121615533D01*
X172108571Y-121329819D02*
X172203809Y-121329819D01*
X172203809Y-121329819D02*
X172299047Y-121377438D01*
X172299047Y-121377438D02*
X172346666Y-121425057D01*
X172346666Y-121425057D02*
X172394285Y-121520295D01*
X172394285Y-121520295D02*
X172441904Y-121710771D01*
X172441904Y-121710771D02*
X172441904Y-121948866D01*
X172441904Y-121948866D02*
X172394285Y-122139342D01*
X172394285Y-122139342D02*
X172346666Y-122234580D01*
X172346666Y-122234580D02*
X172299047Y-122282200D01*
X172299047Y-122282200D02*
X172203809Y-122329819D01*
X172203809Y-122329819D02*
X172108571Y-122329819D01*
X172108571Y-122329819D02*
X172013333Y-122282200D01*
X172013333Y-122282200D02*
X171965714Y-122234580D01*
X171965714Y-122234580D02*
X171918095Y-122139342D01*
X171918095Y-122139342D02*
X171870476Y-121948866D01*
X171870476Y-121948866D02*
X171870476Y-121710771D01*
X171870476Y-121710771D02*
X171918095Y-121520295D01*
X171918095Y-121520295D02*
X171965714Y-121425057D01*
X171965714Y-121425057D02*
X172013333Y-121377438D01*
X172013333Y-121377438D02*
X172108571Y-121329819D01*
X164304819Y-104911904D02*
X165114342Y-104911904D01*
X165114342Y-104911904D02*
X165209580Y-104864285D01*
X165209580Y-104864285D02*
X165257200Y-104816666D01*
X165257200Y-104816666D02*
X165304819Y-104721428D01*
X165304819Y-104721428D02*
X165304819Y-104530952D01*
X165304819Y-104530952D02*
X165257200Y-104435714D01*
X165257200Y-104435714D02*
X165209580Y-104388095D01*
X165209580Y-104388095D02*
X165114342Y-104340476D01*
X165114342Y-104340476D02*
X164304819Y-104340476D01*
X165304819Y-103340476D02*
X165304819Y-103911904D01*
X165304819Y-103626190D02*
X164304819Y-103626190D01*
X164304819Y-103626190D02*
X164447676Y-103721428D01*
X164447676Y-103721428D02*
X164542914Y-103816666D01*
X164542914Y-103816666D02*
X164590533Y-103911904D01*
X138638095Y-72454819D02*
X138638095Y-71454819D01*
X138638095Y-71931009D02*
X139209523Y-71931009D01*
X139209523Y-72454819D02*
X139209523Y-71454819D01*
X140209523Y-72454819D02*
X139638095Y-72454819D01*
X139923809Y-72454819D02*
X139923809Y-71454819D01*
X139923809Y-71454819D02*
X139828571Y-71597676D01*
X139828571Y-71597676D02*
X139733333Y-71692914D01*
X139733333Y-71692914D02*
X139638095Y-71740533D01*
X164837142Y-124669819D02*
X164503809Y-124193628D01*
X164265714Y-124669819D02*
X164265714Y-123669819D01*
X164265714Y-123669819D02*
X164646666Y-123669819D01*
X164646666Y-123669819D02*
X164741904Y-123717438D01*
X164741904Y-123717438D02*
X164789523Y-123765057D01*
X164789523Y-123765057D02*
X164837142Y-123860295D01*
X164837142Y-123860295D02*
X164837142Y-124003152D01*
X164837142Y-124003152D02*
X164789523Y-124098390D01*
X164789523Y-124098390D02*
X164741904Y-124146009D01*
X164741904Y-124146009D02*
X164646666Y-124193628D01*
X164646666Y-124193628D02*
X164265714Y-124193628D01*
X165789523Y-124669819D02*
X165218095Y-124669819D01*
X165503809Y-124669819D02*
X165503809Y-123669819D01*
X165503809Y-123669819D02*
X165408571Y-123812676D01*
X165408571Y-123812676D02*
X165313333Y-123907914D01*
X165313333Y-123907914D02*
X165218095Y-123955533D01*
X166741904Y-124669819D02*
X166170476Y-124669819D01*
X166456190Y-124669819D02*
X166456190Y-123669819D01*
X166456190Y-123669819D02*
X166360952Y-123812676D01*
X166360952Y-123812676D02*
X166265714Y-123907914D01*
X166265714Y-123907914D02*
X166170476Y-123955533D01*
X172947200Y-89733332D02*
X172994819Y-89590475D01*
X172994819Y-89590475D02*
X172994819Y-89352380D01*
X172994819Y-89352380D02*
X172947200Y-89257142D01*
X172947200Y-89257142D02*
X172899580Y-89209523D01*
X172899580Y-89209523D02*
X172804342Y-89161904D01*
X172804342Y-89161904D02*
X172709104Y-89161904D01*
X172709104Y-89161904D02*
X172613866Y-89209523D01*
X172613866Y-89209523D02*
X172566247Y-89257142D01*
X172566247Y-89257142D02*
X172518628Y-89352380D01*
X172518628Y-89352380D02*
X172471009Y-89542856D01*
X172471009Y-89542856D02*
X172423390Y-89638094D01*
X172423390Y-89638094D02*
X172375771Y-89685713D01*
X172375771Y-89685713D02*
X172280533Y-89733332D01*
X172280533Y-89733332D02*
X172185295Y-89733332D01*
X172185295Y-89733332D02*
X172090057Y-89685713D01*
X172090057Y-89685713D02*
X172042438Y-89638094D01*
X172042438Y-89638094D02*
X171994819Y-89542856D01*
X171994819Y-89542856D02*
X171994819Y-89304761D01*
X171994819Y-89304761D02*
X172042438Y-89161904D01*
X171994819Y-88828570D02*
X172994819Y-88590475D01*
X172994819Y-88590475D02*
X172280533Y-88399999D01*
X172280533Y-88399999D02*
X172994819Y-88209523D01*
X172994819Y-88209523D02*
X171994819Y-87971428D01*
X172090057Y-87638094D02*
X172042438Y-87590475D01*
X172042438Y-87590475D02*
X171994819Y-87495237D01*
X171994819Y-87495237D02*
X171994819Y-87257142D01*
X171994819Y-87257142D02*
X172042438Y-87161904D01*
X172042438Y-87161904D02*
X172090057Y-87114285D01*
X172090057Y-87114285D02*
X172185295Y-87066666D01*
X172185295Y-87066666D02*
X172280533Y-87066666D01*
X172280533Y-87066666D02*
X172423390Y-87114285D01*
X172423390Y-87114285D02*
X172994819Y-87685713D01*
X172994819Y-87685713D02*
X172994819Y-87066666D01*
X173704819Y-111411904D02*
X174514342Y-111411904D01*
X174514342Y-111411904D02*
X174609580Y-111364285D01*
X174609580Y-111364285D02*
X174657200Y-111316666D01*
X174657200Y-111316666D02*
X174704819Y-111221428D01*
X174704819Y-111221428D02*
X174704819Y-111030952D01*
X174704819Y-111030952D02*
X174657200Y-110935714D01*
X174657200Y-110935714D02*
X174609580Y-110888095D01*
X174609580Y-110888095D02*
X174514342Y-110840476D01*
X174514342Y-110840476D02*
X173704819Y-110840476D01*
X173704819Y-110459523D02*
X173704819Y-109840476D01*
X173704819Y-109840476D02*
X174085771Y-110173809D01*
X174085771Y-110173809D02*
X174085771Y-110030952D01*
X174085771Y-110030952D02*
X174133390Y-109935714D01*
X174133390Y-109935714D02*
X174181009Y-109888095D01*
X174181009Y-109888095D02*
X174276247Y-109840476D01*
X174276247Y-109840476D02*
X174514342Y-109840476D01*
X174514342Y-109840476D02*
X174609580Y-109888095D01*
X174609580Y-109888095D02*
X174657200Y-109935714D01*
X174657200Y-109935714D02*
X174704819Y-110030952D01*
X174704819Y-110030952D02*
X174704819Y-110316666D01*
X174704819Y-110316666D02*
X174657200Y-110411904D01*
X174657200Y-110411904D02*
X174609580Y-110459523D01*
X173704819Y-113834499D02*
X173942914Y-113834499D01*
X173847676Y-114072594D02*
X173942914Y-113834499D01*
X173942914Y-113834499D02*
X173847676Y-113596404D01*
X174133390Y-113977356D02*
X173942914Y-113834499D01*
X173942914Y-113834499D02*
X174133390Y-113691642D01*
X173704819Y-113834499D02*
X173942914Y-113834499D01*
X173847676Y-114072594D02*
X173942914Y-113834499D01*
X173942914Y-113834499D02*
X173847676Y-113596404D01*
X174133390Y-113977356D02*
X173942914Y-113834499D01*
X173942914Y-113834499D02*
X174133390Y-113691642D01*
X151957142Y-105939580D02*
X151909523Y-105987200D01*
X151909523Y-105987200D02*
X151766666Y-106034819D01*
X151766666Y-106034819D02*
X151671428Y-106034819D01*
X151671428Y-106034819D02*
X151528571Y-105987200D01*
X151528571Y-105987200D02*
X151433333Y-105891961D01*
X151433333Y-105891961D02*
X151385714Y-105796723D01*
X151385714Y-105796723D02*
X151338095Y-105606247D01*
X151338095Y-105606247D02*
X151338095Y-105463390D01*
X151338095Y-105463390D02*
X151385714Y-105272914D01*
X151385714Y-105272914D02*
X151433333Y-105177676D01*
X151433333Y-105177676D02*
X151528571Y-105082438D01*
X151528571Y-105082438D02*
X151671428Y-105034819D01*
X151671428Y-105034819D02*
X151766666Y-105034819D01*
X151766666Y-105034819D02*
X151909523Y-105082438D01*
X151909523Y-105082438D02*
X151957142Y-105130057D01*
X152909523Y-106034819D02*
X152338095Y-106034819D01*
X152623809Y-106034819D02*
X152623809Y-105034819D01*
X152623809Y-105034819D02*
X152528571Y-105177676D01*
X152528571Y-105177676D02*
X152433333Y-105272914D01*
X152433333Y-105272914D02*
X152338095Y-105320533D01*
X153528571Y-105034819D02*
X153623809Y-105034819D01*
X153623809Y-105034819D02*
X153719047Y-105082438D01*
X153719047Y-105082438D02*
X153766666Y-105130057D01*
X153766666Y-105130057D02*
X153814285Y-105225295D01*
X153814285Y-105225295D02*
X153861904Y-105415771D01*
X153861904Y-105415771D02*
X153861904Y-105653866D01*
X153861904Y-105653866D02*
X153814285Y-105844342D01*
X153814285Y-105844342D02*
X153766666Y-105939580D01*
X153766666Y-105939580D02*
X153719047Y-105987200D01*
X153719047Y-105987200D02*
X153623809Y-106034819D01*
X153623809Y-106034819D02*
X153528571Y-106034819D01*
X153528571Y-106034819D02*
X153433333Y-105987200D01*
X153433333Y-105987200D02*
X153385714Y-105939580D01*
X153385714Y-105939580D02*
X153338095Y-105844342D01*
X153338095Y-105844342D02*
X153290476Y-105653866D01*
X153290476Y-105653866D02*
X153290476Y-105415771D01*
X153290476Y-105415771D02*
X153338095Y-105225295D01*
X153338095Y-105225295D02*
X153385714Y-105130057D01*
X153385714Y-105130057D02*
X153433333Y-105082438D01*
X153433333Y-105082438D02*
X153528571Y-105034819D01*
X153279580Y-103062857D02*
X153327200Y-103110476D01*
X153327200Y-103110476D02*
X153374819Y-103253333D01*
X153374819Y-103253333D02*
X153374819Y-103348571D01*
X153374819Y-103348571D02*
X153327200Y-103491428D01*
X153327200Y-103491428D02*
X153231961Y-103586666D01*
X153231961Y-103586666D02*
X153136723Y-103634285D01*
X153136723Y-103634285D02*
X152946247Y-103681904D01*
X152946247Y-103681904D02*
X152803390Y-103681904D01*
X152803390Y-103681904D02*
X152612914Y-103634285D01*
X152612914Y-103634285D02*
X152517676Y-103586666D01*
X152517676Y-103586666D02*
X152422438Y-103491428D01*
X152422438Y-103491428D02*
X152374819Y-103348571D01*
X152374819Y-103348571D02*
X152374819Y-103253333D01*
X152374819Y-103253333D02*
X152422438Y-103110476D01*
X152422438Y-103110476D02*
X152470057Y-103062857D01*
X153374819Y-102110476D02*
X153374819Y-102681904D01*
X153374819Y-102396190D02*
X152374819Y-102396190D01*
X152374819Y-102396190D02*
X152517676Y-102491428D01*
X152517676Y-102491428D02*
X152612914Y-102586666D01*
X152612914Y-102586666D02*
X152660533Y-102681904D01*
X153374819Y-101158095D02*
X153374819Y-101729523D01*
X153374819Y-101443809D02*
X152374819Y-101443809D01*
X152374819Y-101443809D02*
X152517676Y-101539047D01*
X152517676Y-101539047D02*
X152612914Y-101634285D01*
X152612914Y-101634285D02*
X152660533Y-101729523D01*
X174904819Y-116769047D02*
X175619104Y-116769047D01*
X175619104Y-116769047D02*
X175761961Y-116816666D01*
X175761961Y-116816666D02*
X175857200Y-116911904D01*
X175857200Y-116911904D02*
X175904819Y-117054761D01*
X175904819Y-117054761D02*
X175904819Y-117149999D01*
X176000057Y-116530952D02*
X176000057Y-115769047D01*
X175857200Y-115578570D02*
X175904819Y-115435713D01*
X175904819Y-115435713D02*
X175904819Y-115197618D01*
X175904819Y-115197618D02*
X175857200Y-115102380D01*
X175857200Y-115102380D02*
X175809580Y-115054761D01*
X175809580Y-115054761D02*
X175714342Y-115007142D01*
X175714342Y-115007142D02*
X175619104Y-115007142D01*
X175619104Y-115007142D02*
X175523866Y-115054761D01*
X175523866Y-115054761D02*
X175476247Y-115102380D01*
X175476247Y-115102380D02*
X175428628Y-115197618D01*
X175428628Y-115197618D02*
X175381009Y-115388094D01*
X175381009Y-115388094D02*
X175333390Y-115483332D01*
X175333390Y-115483332D02*
X175285771Y-115530951D01*
X175285771Y-115530951D02*
X175190533Y-115578570D01*
X175190533Y-115578570D02*
X175095295Y-115578570D01*
X175095295Y-115578570D02*
X175000057Y-115530951D01*
X175000057Y-115530951D02*
X174952438Y-115483332D01*
X174952438Y-115483332D02*
X174904819Y-115388094D01*
X174904819Y-115388094D02*
X174904819Y-115149999D01*
X174904819Y-115149999D02*
X174952438Y-115007142D01*
X175238152Y-114673808D02*
X175904819Y-114483332D01*
X175904819Y-114483332D02*
X175428628Y-114292856D01*
X175428628Y-114292856D02*
X175904819Y-114102380D01*
X175904819Y-114102380D02*
X175238152Y-113911904D01*
X175904819Y-113530951D02*
X175238152Y-113530951D01*
X174904819Y-113530951D02*
X174952438Y-113578570D01*
X174952438Y-113578570D02*
X175000057Y-113530951D01*
X175000057Y-113530951D02*
X174952438Y-113483332D01*
X174952438Y-113483332D02*
X174904819Y-113530951D01*
X174904819Y-113530951D02*
X175000057Y-113530951D01*
X175238152Y-113197618D02*
X175238152Y-112816666D01*
X174904819Y-113054761D02*
X175761961Y-113054761D01*
X175761961Y-113054761D02*
X175857200Y-113007142D01*
X175857200Y-113007142D02*
X175904819Y-112911904D01*
X175904819Y-112911904D02*
X175904819Y-112816666D01*
X175857200Y-112054761D02*
X175904819Y-112149999D01*
X175904819Y-112149999D02*
X175904819Y-112340475D01*
X175904819Y-112340475D02*
X175857200Y-112435713D01*
X175857200Y-112435713D02*
X175809580Y-112483332D01*
X175809580Y-112483332D02*
X175714342Y-112530951D01*
X175714342Y-112530951D02*
X175428628Y-112530951D01*
X175428628Y-112530951D02*
X175333390Y-112483332D01*
X175333390Y-112483332D02*
X175285771Y-112435713D01*
X175285771Y-112435713D02*
X175238152Y-112340475D01*
X175238152Y-112340475D02*
X175238152Y-112149999D01*
X175238152Y-112149999D02*
X175285771Y-112054761D01*
X175904819Y-111626189D02*
X174904819Y-111626189D01*
X175904819Y-111197618D02*
X175381009Y-111197618D01*
X175381009Y-111197618D02*
X175285771Y-111245237D01*
X175285771Y-111245237D02*
X175238152Y-111340475D01*
X175238152Y-111340475D02*
X175238152Y-111483332D01*
X175238152Y-111483332D02*
X175285771Y-111578570D01*
X175285771Y-111578570D02*
X175333390Y-111626189D01*
X175904819Y-110197618D02*
X175904819Y-110769046D01*
X175904819Y-110483332D02*
X174904819Y-110483332D01*
X174904819Y-110483332D02*
X175047676Y-110578570D01*
X175047676Y-110578570D02*
X175142914Y-110673808D01*
X175142914Y-110673808D02*
X175190533Y-110769046D01*
X164261904Y-113145180D02*
X164261904Y-112335657D01*
X164261904Y-112335657D02*
X164214285Y-112240419D01*
X164214285Y-112240419D02*
X164166666Y-112192800D01*
X164166666Y-112192800D02*
X164071428Y-112145180D01*
X164071428Y-112145180D02*
X163880952Y-112145180D01*
X163880952Y-112145180D02*
X163785714Y-112192800D01*
X163785714Y-112192800D02*
X163738095Y-112240419D01*
X163738095Y-112240419D02*
X163690476Y-112335657D01*
X163690476Y-112335657D02*
X163690476Y-113145180D01*
X163261904Y-113049942D02*
X163214285Y-113097561D01*
X163214285Y-113097561D02*
X163119047Y-113145180D01*
X163119047Y-113145180D02*
X162880952Y-113145180D01*
X162880952Y-113145180D02*
X162785714Y-113097561D01*
X162785714Y-113097561D02*
X162738095Y-113049942D01*
X162738095Y-113049942D02*
X162690476Y-112954704D01*
X162690476Y-112954704D02*
X162690476Y-112859466D01*
X162690476Y-112859466D02*
X162738095Y-112716609D01*
X162738095Y-112716609D02*
X163309523Y-112145180D01*
X163309523Y-112145180D02*
X162690476Y-112145180D01*
X165049399Y-115659780D02*
X165049399Y-115421685D01*
X165287494Y-115516923D02*
X165049399Y-115421685D01*
X165049399Y-115421685D02*
X164811304Y-115516923D01*
X165192256Y-115231209D02*
X165049399Y-115421685D01*
X165049399Y-115421685D02*
X164906542Y-115231209D01*
X165049400Y-114569419D02*
X165049400Y-114807514D01*
X164811305Y-114712276D02*
X165049400Y-114807514D01*
X165049400Y-114807514D02*
X165287495Y-114712276D01*
X164906543Y-114997990D02*
X165049400Y-114807514D01*
X165049400Y-114807514D02*
X165192257Y-114997990D01*
X145994819Y-73793333D02*
X146709104Y-73793333D01*
X146709104Y-73793333D02*
X146851961Y-73840952D01*
X146851961Y-73840952D02*
X146947200Y-73936190D01*
X146947200Y-73936190D02*
X146994819Y-74079047D01*
X146994819Y-74079047D02*
X146994819Y-74174285D01*
X146090057Y-73364761D02*
X146042438Y-73317142D01*
X146042438Y-73317142D02*
X145994819Y-73221904D01*
X145994819Y-73221904D02*
X145994819Y-72983809D01*
X145994819Y-72983809D02*
X146042438Y-72888571D01*
X146042438Y-72888571D02*
X146090057Y-72840952D01*
X146090057Y-72840952D02*
X146185295Y-72793333D01*
X146185295Y-72793333D02*
X146280533Y-72793333D01*
X146280533Y-72793333D02*
X146423390Y-72840952D01*
X146423390Y-72840952D02*
X146994819Y-73412380D01*
X146994819Y-73412380D02*
X146994819Y-72793333D01*
X164023333Y-79124580D02*
X163975714Y-79172200D01*
X163975714Y-79172200D02*
X163832857Y-79219819D01*
X163832857Y-79219819D02*
X163737619Y-79219819D01*
X163737619Y-79219819D02*
X163594762Y-79172200D01*
X163594762Y-79172200D02*
X163499524Y-79076961D01*
X163499524Y-79076961D02*
X163451905Y-78981723D01*
X163451905Y-78981723D02*
X163404286Y-78791247D01*
X163404286Y-78791247D02*
X163404286Y-78648390D01*
X163404286Y-78648390D02*
X163451905Y-78457914D01*
X163451905Y-78457914D02*
X163499524Y-78362676D01*
X163499524Y-78362676D02*
X163594762Y-78267438D01*
X163594762Y-78267438D02*
X163737619Y-78219819D01*
X163737619Y-78219819D02*
X163832857Y-78219819D01*
X163832857Y-78219819D02*
X163975714Y-78267438D01*
X163975714Y-78267438D02*
X164023333Y-78315057D01*
X164404286Y-78315057D02*
X164451905Y-78267438D01*
X164451905Y-78267438D02*
X164547143Y-78219819D01*
X164547143Y-78219819D02*
X164785238Y-78219819D01*
X164785238Y-78219819D02*
X164880476Y-78267438D01*
X164880476Y-78267438D02*
X164928095Y-78315057D01*
X164928095Y-78315057D02*
X164975714Y-78410295D01*
X164975714Y-78410295D02*
X164975714Y-78505533D01*
X164975714Y-78505533D02*
X164928095Y-78648390D01*
X164928095Y-78648390D02*
X164356667Y-79219819D01*
X164356667Y-79219819D02*
X164975714Y-79219819D01*
D11*
%TO.C,J5*%
X189310000Y-107660000D02*
X189310000Y-99940000D01*
X189310000Y-106550000D02*
X187010000Y-106550000D01*
X189310000Y-99940000D02*
X176490000Y-99940000D01*
X187010000Y-106550000D02*
X187010000Y-105400000D01*
X187010000Y-105400000D02*
X182000000Y-105400000D01*
X187010000Y-102200000D02*
X187010000Y-101050000D01*
X187010000Y-102200000D02*
X182000000Y-102200000D01*
X187010000Y-101050000D02*
X189310000Y-101050000D01*
X185410000Y-107000000D02*
X182000000Y-107000000D01*
X185410000Y-105900000D02*
X185410000Y-107000000D01*
X185410000Y-101700000D02*
X185410000Y-100600000D01*
X185410000Y-100600000D02*
X182000000Y-100600000D01*
X185200000Y-104200000D02*
X183400000Y-104200000D01*
X185200000Y-103400000D02*
X185200000Y-104200000D01*
X183400000Y-104200000D02*
X183400000Y-103400000D01*
X183400000Y-103400000D02*
X185200000Y-103400000D01*
X182000000Y-107000000D02*
X182000000Y-107660000D01*
X182000000Y-105900000D02*
X185410000Y-105900000D01*
X182000000Y-105400000D02*
X182000000Y-105900000D01*
X182000000Y-102200000D02*
X182000000Y-101700000D01*
X182000000Y-101700000D02*
X185410000Y-101700000D01*
X182000000Y-100600000D02*
X182000000Y-99940000D01*
X179390000Y-106440000D02*
X176490000Y-106440000D01*
X179390000Y-106160000D02*
X179390000Y-106440000D01*
X179390000Y-101160000D02*
X179390000Y-101440000D01*
X178800000Y-105050000D02*
X178400000Y-105450000D01*
X178400000Y-105450000D02*
X178400000Y-104650000D01*
X178400000Y-104650000D02*
X178800000Y-105050000D01*
X176490000Y-107660000D02*
X189310000Y-107660000D01*
X176490000Y-106440000D02*
X176490000Y-107660000D01*
X176490000Y-101160000D02*
X179390000Y-101160000D01*
X176490000Y-99940000D02*
X176490000Y-101160000D01*
%TO.C,R1*%
X159893641Y-96130000D02*
X159586359Y-96130000D01*
X159893641Y-95370000D02*
X159586359Y-95370000D01*
%TO.C,SW3*%
X136590000Y-108340000D02*
X136590000Y-114760000D01*
X136590000Y-114760000D02*
X137000000Y-114760000D01*
X137000000Y-108340000D02*
X136590000Y-108340000D01*
X138600000Y-114760000D02*
X141000000Y-114760000D01*
X141000000Y-108340000D02*
X138600000Y-108340000D01*
X142600000Y-114760000D02*
X143010000Y-114760000D01*
X143010000Y-108340000D02*
X142730000Y-108340000D01*
X143010000Y-114760000D02*
X143010000Y-108340000D01*
%TO.C,R6*%
X157853641Y-116620000D02*
X157546359Y-116620000D01*
X157853641Y-117380000D02*
X157546359Y-117380000D01*
%TO.C,SW1*%
X158390000Y-85190000D02*
X158390000Y-91610000D01*
X158390000Y-91610000D02*
X158670000Y-91610000D01*
X158800000Y-85190000D02*
X158390000Y-85190000D01*
X160400000Y-91610000D02*
X162800000Y-91610000D01*
X162800000Y-85190000D02*
X160400000Y-85190000D01*
X164400000Y-91610000D02*
X164810000Y-91610000D01*
X164810000Y-85190000D02*
X164400000Y-85190000D01*
X164810000Y-91610000D02*
X164810000Y-85190000D01*
%TO.C,C3*%
X154790000Y-107772164D02*
X154790000Y-107987836D01*
X155510000Y-107772164D02*
X155510000Y-107987836D01*
%TO.C,D2*%
X161012500Y-116135000D02*
X163297500Y-116135000D01*
X163297500Y-114665000D02*
X161012500Y-114665000D01*
X163297500Y-116135000D02*
X163297500Y-114665000D01*
%TO.C,D1*%
X171487500Y-104235000D02*
X173772500Y-104235000D01*
X173772500Y-102765000D02*
X171487500Y-102765000D01*
X173772500Y-104235000D02*
X173772500Y-102765000D01*
%TO.C,C5*%
X163340000Y-99157836D02*
X163340000Y-98942164D01*
X164060000Y-99157836D02*
X164060000Y-98942164D01*
%TO.C,C6*%
X160540000Y-112962164D02*
X160540000Y-113177836D01*
X161260000Y-112962164D02*
X161260000Y-113177836D01*
%TO.C,C1*%
X149772164Y-79465000D02*
X149987836Y-79465000D01*
X149772164Y-80185000D02*
X149987836Y-80185000D01*
%TO.C,J6*%
X163620000Y-127495000D02*
X163620000Y-129495000D01*
X163620000Y-131395000D02*
X163620000Y-133295000D01*
X163620000Y-133295000D02*
X173020000Y-133295000D01*
X173020000Y-127495000D02*
X173020000Y-129495000D01*
X173020000Y-131395000D02*
X173020000Y-133295000D01*
%TO.C,J4*%
X145685000Y-106660000D02*
X145685000Y-106595000D01*
X145685000Y-115605000D02*
X145685000Y-115540000D01*
X149215000Y-106595000D02*
X145685000Y-106595000D01*
X149215000Y-106660000D02*
X149215000Y-106595000D01*
X149215000Y-115605000D02*
X145685000Y-115605000D01*
X149215000Y-115605000D02*
X149215000Y-115540000D01*
X150540000Y-115540000D02*
X149215000Y-115540000D01*
%TO.C,C7*%
X164290000Y-99187836D02*
X164290000Y-98972164D01*
X165010000Y-99187836D02*
X165010000Y-98972164D01*
%TO.C,C8*%
X160040000Y-94357836D02*
X160040000Y-94142164D01*
X160760000Y-94357836D02*
X160760000Y-94142164D01*
%TO.C,R3*%
X165046359Y-101870000D02*
X165353641Y-101870000D01*
X165046359Y-102630000D02*
X165353641Y-102630000D01*
%TO.C,J3*%
X176675000Y-78655000D02*
X177945000Y-78655000D01*
X176675000Y-79925000D02*
X176675000Y-78655000D01*
X178987929Y-82085000D02*
X179385000Y-82085000D01*
X178987929Y-82845000D02*
X179385000Y-82845000D01*
X178987929Y-84625000D02*
X179385000Y-84625000D01*
X178987929Y-85385000D02*
X179385000Y-85385000D01*
X178987929Y-87165000D02*
X179385000Y-87165000D01*
X178987929Y-87925000D02*
X179385000Y-87925000D01*
X178987929Y-89705000D02*
X179385000Y-89705000D01*
X178987929Y-90465000D02*
X179385000Y-90465000D01*
X178987929Y-92245000D02*
X179385000Y-92245000D01*
X178987929Y-93005000D02*
X179385000Y-93005000D01*
X178987929Y-94785000D02*
X179385000Y-94785000D01*
X178987929Y-95545000D02*
X179385000Y-95545000D01*
X178987929Y-97325000D02*
X179385000Y-97325000D01*
X178987929Y-98085000D02*
X179385000Y-98085000D01*
X179055000Y-79545000D02*
X179385000Y-79545000D01*
X179055000Y-80305000D02*
X179385000Y-80305000D01*
X179385000Y-78595000D02*
X179385000Y-99035000D01*
X179385000Y-81195000D02*
X182045000Y-81195000D01*
X179385000Y-83735000D02*
X182045000Y-83735000D01*
X179385000Y-86275000D02*
X182045000Y-86275000D01*
X179385000Y-88815000D02*
X182045000Y-88815000D01*
X179385000Y-91355000D02*
X182045000Y-91355000D01*
X179385000Y-93895000D02*
X182045000Y-93895000D01*
X179385000Y-96435000D02*
X182045000Y-96435000D01*
X179385000Y-99035000D02*
X182045000Y-99035000D01*
X182045000Y-78595000D02*
X179385000Y-78595000D01*
X182045000Y-79545000D02*
X188045000Y-79545000D01*
X182045000Y-79605000D02*
X188045000Y-79605000D01*
X182045000Y-79725000D02*
X188045000Y-79725000D01*
X182045000Y-79845000D02*
X188045000Y-79845000D01*
X182045000Y-79965000D02*
X188045000Y-79965000D01*
X182045000Y-80085000D02*
X188045000Y-80085000D01*
X182045000Y-80205000D02*
X188045000Y-80205000D01*
X182045000Y-82085000D02*
X188045000Y-82085000D01*
X182045000Y-84625000D02*
X188045000Y-84625000D01*
X182045000Y-87165000D02*
X188045000Y-87165000D01*
X182045000Y-89705000D02*
X188045000Y-89705000D01*
X182045000Y-92245000D02*
X188045000Y-92245000D01*
X182045000Y-94785000D02*
X188045000Y-94785000D01*
X182045000Y-97325000D02*
X188045000Y-97325000D01*
X182045000Y-99035000D02*
X182045000Y-78595000D01*
X188045000Y-79545000D02*
X188045000Y-80305000D01*
X188045000Y-80305000D02*
X182045000Y-80305000D01*
X188045000Y-82085000D02*
X188045000Y-82845000D01*
X188045000Y-82845000D02*
X182045000Y-82845000D01*
X188045000Y-84625000D02*
X188045000Y-85385000D01*
X188045000Y-85385000D02*
X182045000Y-85385000D01*
X188045000Y-87165000D02*
X188045000Y-87925000D01*
X188045000Y-87925000D02*
X182045000Y-87925000D01*
X188045000Y-89705000D02*
X188045000Y-90465000D01*
X188045000Y-90465000D02*
X182045000Y-90465000D01*
X188045000Y-92245000D02*
X188045000Y-93005000D01*
X188045000Y-93005000D02*
X182045000Y-93005000D01*
X188045000Y-94785000D02*
X188045000Y-95545000D01*
X188045000Y-95545000D02*
X182045000Y-95545000D01*
X188045000Y-97325000D02*
X188045000Y-98085000D01*
X188045000Y-98085000D02*
X182045000Y-98085000D01*
%TO.C,R9*%
X160920000Y-117353641D02*
X160920000Y-117046359D01*
X161680000Y-117353641D02*
X161680000Y-117046359D01*
%TO.C,R8*%
X159903641Y-116620000D02*
X159596359Y-116620000D01*
X159903641Y-117380000D02*
X159596359Y-117380000D01*
%TO.C,BZ1*%
X154950000Y-86750000D02*
G75*
G02*
X142750000Y-86750000I-6100000J0D01*
G01*
X142750000Y-86750000D02*
G75*
G02*
X154950000Y-86750000I6100000J0D01*
G01*
%TO.C,J1*%
X161560000Y-73150000D02*
X161560000Y-75810000D01*
X161560000Y-75810000D02*
X171840000Y-75810000D01*
X161620000Y-78520000D02*
X161620000Y-77250000D01*
X162510000Y-67150000D02*
X163270000Y-67150000D01*
X162510000Y-73150000D02*
X162510000Y-67150000D01*
X162510000Y-76140000D02*
X162510000Y-75810000D01*
X162570000Y-73150000D02*
X162570000Y-67150000D01*
X162690000Y-73150000D02*
X162690000Y-67150000D01*
X162810000Y-73150000D02*
X162810000Y-67150000D01*
X162890000Y-78520000D02*
X161620000Y-78520000D01*
X162930000Y-73150000D02*
X162930000Y-67150000D01*
X163050000Y-73150000D02*
X163050000Y-67150000D01*
X163170000Y-73150000D02*
X163170000Y-67150000D01*
X163270000Y-67150000D02*
X163270000Y-73150000D01*
X163270000Y-76140000D02*
X163270000Y-75810000D01*
X164160000Y-75810000D02*
X164160000Y-73150000D01*
X165050000Y-67150000D02*
X165810000Y-67150000D01*
X165050000Y-73150000D02*
X165050000Y-67150000D01*
X165050000Y-76207071D02*
X165050000Y-75810000D01*
X165810000Y-67150000D02*
X165810000Y-73150000D01*
X165810000Y-76207071D02*
X165810000Y-75810000D01*
X166700000Y-75810000D02*
X166700000Y-73150000D01*
X167590000Y-67150000D02*
X168350000Y-67150000D01*
X167590000Y-73150000D02*
X167590000Y-67150000D01*
X167590000Y-76207071D02*
X167590000Y-75810000D01*
X168350000Y-67150000D02*
X168350000Y-73150000D01*
X168350000Y-76207071D02*
X168350000Y-75810000D01*
X169240000Y-75810000D02*
X169240000Y-73150000D01*
X170130000Y-67150000D02*
X170890000Y-67150000D01*
X170130000Y-73150000D02*
X170130000Y-67150000D01*
X170130000Y-76207071D02*
X170130000Y-75810000D01*
X170890000Y-67150000D02*
X170890000Y-73150000D01*
X170890000Y-76207071D02*
X170890000Y-75810000D01*
X171840000Y-73150000D02*
X161560000Y-73150000D01*
X171840000Y-75810000D02*
X171840000Y-73150000D01*
%TO.C,C14*%
X142857836Y-116390000D02*
X142642164Y-116390000D01*
X142857836Y-117110000D02*
X142642164Y-117110000D01*
%TO.C,R4*%
X171606359Y-104370000D02*
X171913641Y-104370000D01*
X171606359Y-105130000D02*
X171913641Y-105130000D01*
%TO.C,R7*%
X153843641Y-116620000D02*
X153536359Y-116620000D01*
X153843641Y-117380000D02*
X153536359Y-117380000D01*
%TO.C,R2*%
X158920000Y-94096359D02*
X158920000Y-94403641D01*
X159680000Y-94096359D02*
X159680000Y-94403641D01*
%TO.C,C13*%
X165290000Y-99187836D02*
X165290000Y-98972164D01*
X166010000Y-99187836D02*
X166010000Y-98972164D01*
%TO.C,C4*%
X151957836Y-105190000D02*
X151742164Y-105190000D01*
X151957836Y-105910000D02*
X151742164Y-105910000D01*
%TO.C,C12*%
X165840000Y-112042164D02*
X165840000Y-112257836D01*
X166560000Y-112042164D02*
X166560000Y-112257836D01*
%TO.C,U4*%
X166720000Y-121545000D02*
X166720000Y-120745000D01*
X166720000Y-121545000D02*
X166720000Y-122345000D01*
X169840000Y-121545000D02*
X169840000Y-120745000D01*
X169840000Y-121545000D02*
X169840000Y-122345000D01*
X170120000Y-120485000D02*
X169790000Y-120245000D01*
X170120000Y-120005000D01*
X170120000Y-120485000D01*
G36*
X170120000Y-120485000D02*
G01*
X169790000Y-120245000D01*
X170120000Y-120005000D01*
X170120000Y-120485000D01*
G37*
%TO.C,C9*%
X163232164Y-108870000D02*
X163447836Y-108870000D01*
X163232164Y-109590000D02*
X163447836Y-109590000D01*
%TO.C,R5*%
X155873641Y-116620000D02*
X155566359Y-116620000D01*
X155873641Y-117380000D02*
X155566359Y-117380000D01*
%TO.C,L1*%
X153140000Y-107099622D02*
X153140000Y-106300378D01*
X154260000Y-107099622D02*
X154260000Y-106300378D01*
D12*
%TO.C,U5*%
X170876800Y-116326700D02*
X170876800Y-120873300D01*
X173823200Y-120873300D02*
X173823200Y-116326700D01*
D11*
%TO.C,R10*%
X171026359Y-122665000D02*
X171333641Y-122665000D01*
X171026359Y-123425000D02*
X171333641Y-123425000D01*
%TO.C,U1*%
X156410000Y-100540000D02*
X156885000Y-100540000D01*
X156410000Y-101015000D02*
X156410000Y-100540000D01*
X156410000Y-107285000D02*
X156410000Y-107760000D01*
X156410000Y-107760000D02*
X156885000Y-107760000D01*
X163155000Y-100540000D02*
X163390000Y-100540000D01*
X163630000Y-101015000D02*
X163630000Y-100840000D01*
X163630000Y-107285000D02*
X163630000Y-107760000D01*
X163630000Y-107760000D02*
X163155000Y-107760000D01*
X163960000Y-100780000D02*
X163630000Y-100540000D01*
X163960000Y-100300000D01*
X163960000Y-100780000D01*
G36*
X163960000Y-100780000D02*
G01*
X163630000Y-100540000D01*
X163960000Y-100300000D01*
X163960000Y-100780000D01*
G37*
%TO.C,R11*%
X165633641Y-122665000D02*
X165326359Y-122665000D01*
X165633641Y-123425000D02*
X165326359Y-123425000D01*
%TO.C,SW2*%
X165090000Y-85190000D02*
X165090000Y-91610000D01*
X165090000Y-91610000D02*
X165500000Y-91610000D01*
X165500000Y-85190000D02*
X165090000Y-85190000D01*
X167100000Y-91610000D02*
X169500000Y-91610000D01*
X169500000Y-85190000D02*
X167100000Y-85190000D01*
X171100000Y-91610000D02*
X171510000Y-91610000D01*
X171510000Y-85190000D02*
X171230000Y-85190000D01*
X171510000Y-91610000D02*
X171510000Y-85190000D01*
D12*
%TO.C,U3*%
X172776800Y-108376700D02*
X172776800Y-112923300D01*
X175723200Y-112923300D02*
X175723200Y-108376700D01*
D11*
%TO.C,C10*%
X152740580Y-103640000D02*
X152459420Y-103640000D01*
X152740580Y-104660000D02*
X152459420Y-104660000D01*
%TO.C,C11*%
X154440000Y-102527836D02*
X154440000Y-102312164D01*
X153720000Y-102527836D02*
X153720000Y-102312164D01*
%TO.C,J_Switch1*%
X176540000Y-108540000D02*
X176540000Y-109760000D01*
X176540000Y-109760000D02*
X179440000Y-109760000D01*
X176540000Y-117540000D02*
X176540000Y-118760000D01*
X176540000Y-118760000D02*
X189360000Y-118760000D01*
X178450000Y-115750000D02*
X178850000Y-116150000D01*
X178450000Y-116550000D02*
X178450000Y-115750000D01*
X178850000Y-116150000D02*
X178450000Y-116550000D01*
X179440000Y-109760000D02*
X179440000Y-110040000D01*
X179440000Y-117260000D02*
X179440000Y-117540000D01*
X179440000Y-117540000D02*
X176540000Y-117540000D01*
X182050000Y-109650000D02*
X182050000Y-108540000D01*
X182050000Y-110750000D02*
X185460000Y-110750000D01*
X182050000Y-111250000D02*
X182050000Y-110750000D01*
X182050000Y-116050000D02*
X182050000Y-116550000D01*
X182050000Y-116550000D02*
X185460000Y-116550000D01*
X182050000Y-117650000D02*
X182050000Y-118760000D01*
X183450000Y-112850000D02*
X185250000Y-112850000D01*
X183450000Y-114450000D02*
X183450000Y-112850000D01*
X185250000Y-112850000D02*
X185250000Y-114450000D01*
X185250000Y-114450000D02*
X183450000Y-114450000D01*
X185460000Y-109650000D02*
X182050000Y-109650000D01*
X185460000Y-110750000D02*
X185460000Y-109650000D01*
X185460000Y-116550000D02*
X185460000Y-117650000D01*
X185460000Y-117650000D02*
X182050000Y-117650000D01*
X187060000Y-109650000D02*
X189360000Y-109650000D01*
X187060000Y-111250000D02*
X182050000Y-111250000D01*
X187060000Y-112050000D02*
X187060000Y-109650000D01*
X187060000Y-116050000D02*
X182050000Y-116050000D01*
X187060000Y-117650000D02*
X187060000Y-115250000D01*
X189360000Y-108540000D02*
X176540000Y-108540000D01*
X189360000Y-117650000D02*
X187060000Y-117650000D01*
X189360000Y-118760000D02*
X189360000Y-108540000D01*
D12*
%TO.C,U2*%
X162572900Y-112196140D02*
X162572900Y-113003860D01*
X162572900Y-114174800D02*
X164427100Y-114174800D01*
X164427100Y-111025200D02*
X162572900Y-111025200D01*
D11*
%TO.C,J2*%
X144900000Y-73075000D02*
X144900000Y-75735000D01*
X144900000Y-75735000D02*
X160260000Y-75735000D01*
X144960000Y-78445000D02*
X144960000Y-77175000D01*
X145850000Y-67075000D02*
X146610000Y-67075000D01*
X145850000Y-73075000D02*
X145850000Y-67075000D01*
X145850000Y-76065000D02*
X145850000Y-75735000D01*
X145910000Y-73075000D02*
X145910000Y-67075000D01*
X146030000Y-73075000D02*
X146030000Y-67075000D01*
X146150000Y-73075000D02*
X146150000Y-67075000D01*
X146230000Y-78445000D02*
X144960000Y-78445000D01*
X146270000Y-73075000D02*
X146270000Y-67075000D01*
X146390000Y-73075000D02*
X146390000Y-67075000D01*
X146510000Y-73075000D02*
X146510000Y-67075000D01*
X146610000Y-67075000D02*
X146610000Y-73075000D01*
X146610000Y-76065000D02*
X146610000Y-75735000D01*
X147500000Y-75735000D02*
X147500000Y-73075000D01*
X148390000Y-67075000D02*
X149150000Y-67075000D01*
X148390000Y-73075000D02*
X148390000Y-67075000D01*
X148390000Y-76132071D02*
X148390000Y-75735000D01*
X149150000Y-67075000D02*
X149150000Y-73075000D01*
X149150000Y-76132071D02*
X149150000Y-75735000D01*
X150040000Y-75735000D02*
X150040000Y-73075000D01*
X150930000Y-67075000D02*
X151690000Y-67075000D01*
X150930000Y-73075000D02*
X150930000Y-67075000D01*
X150930000Y-76132071D02*
X150930000Y-75735000D01*
X151690000Y-67075000D02*
X151690000Y-73075000D01*
X151690000Y-76132071D02*
X151690000Y-75735000D01*
X152580000Y-75735000D02*
X152580000Y-73075000D01*
X153470000Y-67075000D02*
X154230000Y-67075000D01*
X153470000Y-73075000D02*
X153470000Y-67075000D01*
X153470000Y-76132071D02*
X153470000Y-75735000D01*
X154230000Y-67075000D02*
X154230000Y-73075000D01*
X154230000Y-76132071D02*
X154230000Y-75735000D01*
X155120000Y-75735000D02*
X155120000Y-73075000D01*
X156010000Y-67075000D02*
X156770000Y-67075000D01*
X156010000Y-73075000D02*
X156010000Y-67075000D01*
X156010000Y-76132071D02*
X156010000Y-75735000D01*
X156770000Y-67075000D02*
X156770000Y-73075000D01*
X156770000Y-76132071D02*
X156770000Y-75735000D01*
X157660000Y-75735000D02*
X157660000Y-73075000D01*
X158550000Y-67075000D02*
X159310000Y-67075000D01*
X158550000Y-73075000D02*
X158550000Y-67075000D01*
X158550000Y-76132071D02*
X158550000Y-75735000D01*
X159310000Y-67075000D02*
X159310000Y-73075000D01*
X159310000Y-76132071D02*
X159310000Y-75735000D01*
X160260000Y-73075000D02*
X144900000Y-73075000D01*
X160260000Y-75735000D02*
X160260000Y-73075000D01*
%TO.C,C2*%
X164082164Y-79565000D02*
X164297836Y-79565000D01*
X164082164Y-80285000D02*
X164297836Y-80285000D01*
%TD*%
M02*
