%TF.GenerationSoftware,KiCad,Pcbnew,9.0.0*%
%TF.CreationDate,2025-03-20T21:32:39+01:00*%
%TF.ProjectId,PCB_Module_Payement,5043425f-4d6f-4647-956c-655f50617965,rev?*%
%TF.SameCoordinates,Original*%
%TF.FileFunction,Paste,Bot*%
%TF.FilePolarity,Positive*%
%FSLAX46Y46*%
G04 Gerber Fmt 4.6, Leading zero omitted, Abs format (unit mm)*
G04 Created by KiCad (PCBNEW 9.0.0) date 2025-03-20 21:32:39*
%MOMM*%
%LPD*%
G01*
G04 APERTURE LIST*
G04 Aperture macros list*
%AMRoundRect*
0 Rectangle with rounded corners*
0 $1 Rounding radius*
0 $2 $3 $4 $5 $6 $7 $8 $9 X,Y pos of 4 corners*
0 Add a 4 corners polygon primitive as box body*
4,1,4,$2,$3,$4,$5,$6,$7,$8,$9,$2,$3,0*
0 Add four circle primitives for the rounded corners*
1,1,$1+$1,$2,$3*
1,1,$1+$1,$4,$5*
1,1,$1+$1,$6,$7*
1,1,$1+$1,$8,$9*
0 Add four rect primitives between the rounded corners*
20,1,$1+$1,$2,$3,$4,$5,0*
20,1,$1+$1,$4,$5,$6,$7,0*
20,1,$1+$1,$6,$7,$8,$9,0*
20,1,$1+$1,$8,$9,$2,$3,0*%
G04 Aperture macros list end*
%ADD10RoundRect,0.218750X-0.218750X-0.256250X0.218750X-0.256250X0.218750X0.256250X-0.218750X0.256250X0*%
%ADD11RoundRect,0.140000X-0.170000X0.140000X-0.170000X-0.140000X0.170000X-0.140000X0.170000X0.140000X0*%
%ADD12RoundRect,0.135000X0.185000X-0.135000X0.185000X0.135000X-0.185000X0.135000X-0.185000X-0.135000X0*%
%ADD13RoundRect,0.150000X0.150000X-0.587500X0.150000X0.587500X-0.150000X0.587500X-0.150000X-0.587500X0*%
%ADD14RoundRect,0.135000X-0.185000X0.135000X-0.185000X-0.135000X0.185000X-0.135000X0.185000X0.135000X0*%
%ADD15R,0.400000X0.500000*%
%ADD16R,1.500000X1.500000*%
%ADD17RoundRect,0.218750X-0.256250X0.218750X-0.256250X-0.218750X0.256250X-0.218750X0.256250X0.218750X0*%
%ADD18RoundRect,0.250000X-0.250000X-0.475000X0.250000X-0.475000X0.250000X0.475000X-0.250000X0.475000X0*%
%ADD19RoundRect,0.250000X0.312500X0.625000X-0.312500X0.625000X-0.312500X-0.625000X0.312500X-0.625000X0*%
%ADD20RoundRect,0.250000X0.250000X0.475000X-0.250000X0.475000X-0.250000X-0.475000X0.250000X-0.475000X0*%
G04 APERTURE END LIST*
D10*
%TO.C,D5*%
X155787500Y-98850000D03*
X154212500Y-98850000D03*
%TD*%
D11*
%TO.C,C15*%
X176700000Y-91830000D03*
X176700000Y-90870000D03*
%TD*%
D12*
%TO.C,R19*%
X150200000Y-95360000D03*
X150200000Y-94340000D03*
%TD*%
D13*
%TO.C,Q1*%
X150100000Y-92600000D03*
X148200000Y-92600000D03*
X149150000Y-90725000D03*
%TD*%
D14*
%TO.C,R12*%
X170100000Y-113490000D03*
X170100000Y-114510000D03*
%TD*%
D12*
%TO.C,R13*%
X177500000Y-108460000D03*
X177500000Y-107440000D03*
%TD*%
%TO.C,R20*%
X157150000Y-99820000D03*
X157150000Y-98800000D03*
%TD*%
D15*
%TO.C,U6*%
X177650000Y-106250000D03*
X176650000Y-106250000D03*
X175650000Y-106250000D03*
X174650000Y-106250000D03*
X173650000Y-106250000D03*
D16*
X168900000Y-105750000D03*
X168900000Y-101550000D03*
D15*
X173650000Y-101050000D03*
X174650000Y-101050000D03*
X175650000Y-101050000D03*
X176650000Y-101050000D03*
X177650000Y-101050000D03*
D16*
X176050000Y-103650000D03*
%TD*%
D17*
%TO.C,D3*%
X171600000Y-112662500D03*
X171600000Y-114237500D03*
%TD*%
D14*
%TO.C,R14*%
X176450000Y-107440000D03*
X176450000Y-108460000D03*
%TD*%
D18*
%TO.C,C16*%
X168800000Y-99350000D03*
X170700000Y-99350000D03*
%TD*%
D19*
%TO.C,R15*%
X172412500Y-110250000D03*
X169487500Y-110250000D03*
%TD*%
D14*
%TO.C,R16*%
X178550000Y-107440000D03*
X178550000Y-108460000D03*
%TD*%
D19*
%TO.C,R17*%
X178112500Y-110250000D03*
X175187500Y-110250000D03*
%TD*%
D20*
%TO.C,C17*%
X174100000Y-107950000D03*
X172200000Y-107950000D03*
%TD*%
D14*
%TO.C,R18*%
X175200000Y-113440000D03*
X175200000Y-114460000D03*
%TD*%
D17*
%TO.C,D4*%
X173750000Y-112662500D03*
X173750000Y-114237500D03*
%TD*%
D11*
%TO.C,C18*%
X175400000Y-107420000D03*
X175400000Y-108380000D03*
%TD*%
M02*
