%TF.GenerationSoftware,KiCad,Pcbnew,9.0.0*%
%TF.CreationDate,2025-03-20T21:32:39+01:00*%
%TF.ProjectId,PCB_Module_Payement,5043425f-4d6f-4647-956c-655f50617965,rev?*%
%TF.SameCoordinates,Original*%
%TF.FileFunction,Copper,L2,Inr*%
%TF.FilePolarity,Positive*%
%FSLAX46Y46*%
G04 Gerber Fmt 4.6, Leading zero omitted, Abs format (unit mm)*
G04 Created by KiCad (PCBNEW 9.0.0) date 2025-03-20 21:32:39*
%MOMM*%
%LPD*%
G01*
G04 APERTURE LIST*
G04 Aperture macros list*
%AMRoundRect*
0 Rectangle with rounded corners*
0 $1 Rounding radius*
0 $2 $3 $4 $5 $6 $7 $8 $9 X,Y pos of 4 corners*
0 Add a 4 corners polygon primitive as box body*
4,1,4,$2,$3,$4,$5,$6,$7,$8,$9,$2,$3,0*
0 Add four circle primitives for the rounded corners*
1,1,$1+$1,$2,$3*
1,1,$1+$1,$4,$5*
1,1,$1+$1,$6,$7*
1,1,$1+$1,$8,$9*
0 Add four rect primitives between the rounded corners*
20,1,$1+$1,$2,$3,$4,$5,0*
20,1,$1+$1,$4,$5,$6,$7,0*
20,1,$1+$1,$6,$7,$8,$9,0*
20,1,$1+$1,$8,$9,$2,$3,0*%
G04 Aperture macros list end*
%TA.AperFunction,ComponentPad*%
%ADD10O,1.950000X1.700000*%
%TD*%
%TA.AperFunction,ComponentPad*%
%ADD11RoundRect,0.250000X0.725000X-0.600000X0.725000X0.600000X-0.725000X0.600000X-0.725000X-0.600000X0*%
%TD*%
%TA.AperFunction,HeatsinkPad*%
%ADD12O,1.000000X2.100000*%
%TD*%
%TA.AperFunction,HeatsinkPad*%
%ADD13O,1.000000X1.600000*%
%TD*%
%TA.AperFunction,ComponentPad*%
%ADD14R,1.700000X1.700000*%
%TD*%
%TA.AperFunction,ComponentPad*%
%ADD15O,1.700000X1.700000*%
%TD*%
%TA.AperFunction,ComponentPad*%
%ADD16R,2.000000X2.000000*%
%TD*%
%TA.AperFunction,ComponentPad*%
%ADD17C,2.000000*%
%TD*%
%TA.AperFunction,ComponentPad*%
%ADD18C,5.400000*%
%TD*%
%TA.AperFunction,ViaPad*%
%ADD19C,0.500000*%
%TD*%
%TA.AperFunction,Conductor*%
%ADD20C,0.300000*%
%TD*%
G04 APERTURE END LIST*
D10*
%TO.N,GND*%
%TO.C,J5*%
X180000000Y-102550000D03*
D11*
%TO.N,VCC*%
X180000000Y-105050000D03*
%TD*%
D12*
%TO.N,GND*%
%TO.C,J6*%
X164000000Y-126265000D03*
D13*
X164000000Y-130445000D03*
D12*
X172640000Y-126265000D03*
D13*
X172640000Y-130445000D03*
%TD*%
D14*
%TO.N,/Modules/SPI1_SCK*%
%TO.C,J3*%
X177945000Y-79925000D03*
D15*
%TO.N,/Modules/RSTO*%
X177945000Y-82465000D03*
%TO.N,/Modules/SS*%
X177945000Y-85005000D03*
%TO.N,/Modules/SPI1_Mosi*%
X177945000Y-87545000D03*
%TO.N,+5V*%
X177945000Y-90085000D03*
%TO.N,GND*%
X177945000Y-92625000D03*
%TO.N,/Modules/SPI1_Miso*%
X177945000Y-95165000D03*
%TO.N,/Modules/IRQ*%
X177945000Y-97705000D03*
%TD*%
D16*
%TO.N,+5V*%
%TO.C,BZ1*%
X145050000Y-86750000D03*
D17*
%TO.N,Net-(BZ1--)*%
X152650000Y-86750000D03*
%TD*%
D14*
%TO.N,+5V*%
%TO.C,J1*%
X162890000Y-77250000D03*
D15*
%TO.N,GND*%
X165430000Y-77250000D03*
%TO.N,/Modules/I2C1_SDA*%
X167970000Y-77250000D03*
%TO.N,/Modules/I2C1_SCL*%
X170510000Y-77250000D03*
%TD*%
D18*
%TO.N,GND*%
%TO.C,H4*%
X177550000Y-122200000D03*
%TD*%
%TO.N,GND*%
%TO.C,H3*%
X139250000Y-120850000D03*
%TD*%
%TO.N,GND*%
%TO.C,H2*%
X177370000Y-74800000D03*
%TD*%
%TO.N,GND*%
%TO.C,H1*%
X139400000Y-75700000D03*
%TD*%
D11*
%TO.N,Net-(J_Switch1-Pin_1)*%
%TO.C,J_Switch1*%
X180050000Y-116150000D03*
D10*
%TO.N,+5V*%
X180050000Y-113650000D03*
%TO.N,Net-(J_Switch1-Pin_3)*%
X180050000Y-111150000D03*
%TD*%
D14*
%TO.N,/Modules/STATE*%
%TO.C,J2*%
X146230000Y-77175000D03*
D15*
%TO.N,+5V*%
X148770000Y-77175000D03*
%TO.N,GND*%
X151310000Y-77175000D03*
%TO.N,/Modules/Bt_TXD*%
X153850000Y-77175000D03*
%TO.N,/Modules/Bt_RXD*%
X156390000Y-77175000D03*
%TO.N,/Modules/KEY*%
X158930000Y-77175000D03*
%TD*%
D14*
%TO.N,+5V*%
%TO.C,J7*%
X140450000Y-89175000D03*
D15*
X137910000Y-89175000D03*
%TO.N,/STM32/PC13*%
X140450000Y-91715000D03*
%TO.N,/STM32/PC14*%
X137910000Y-91715000D03*
%TO.N,/STM32/PC4*%
X140450000Y-94255000D03*
%TO.N,/STM32/PC15*%
X137910000Y-94255000D03*
%TO.N,+3.3V*%
X140450000Y-96795000D03*
X137910000Y-96795000D03*
%TO.N,/STM32/PF1*%
X140450000Y-99335000D03*
%TO.N,/STM32/PF0*%
X137910000Y-99335000D03*
%TO.N,/STM32/PA7*%
X140450000Y-101875000D03*
%TO.N,/STM32/Pb1*%
X137910000Y-101875000D03*
%TO.N,GND*%
X140450000Y-104415000D03*
X137910000Y-104415000D03*
%TD*%
D14*
%TO.N,/Modules/R0W1*%
%TO.C,J8*%
X143410000Y-120195000D03*
D15*
%TO.N,/Modules/ROW2*%
X145950000Y-120195000D03*
%TO.N,/Modules/ROW3*%
X148490000Y-120195000D03*
%TO.N,/Modules/ROW4*%
X151030000Y-120195000D03*
%TO.N,/Modules/Culomn1*%
X153570000Y-120195000D03*
%TO.N,/Modules/Culomn2*%
X156110000Y-120195000D03*
%TO.N,/Modules/Culomn3*%
X158650000Y-120195000D03*
%TO.N,/Modules/Culomn4*%
X161190000Y-120195000D03*
%TD*%
D19*
%TO.N,+3.3V*%
X162860000Y-109730000D03*
%TO.N,GND*%
X152710000Y-102460000D03*
X153760000Y-97560000D03*
X165450000Y-79860000D03*
%TO.N,+5V*%
X163710000Y-78870000D03*
%TO.N,GND*%
X165180000Y-98600000D03*
X153230000Y-117720000D03*
X179350000Y-108460000D03*
X161490000Y-112590000D03*
X141770000Y-104450000D03*
X139220000Y-104400000D03*
X159270000Y-117710000D03*
X157000000Y-117660000D03*
X155020000Y-117700000D03*
X144550000Y-99600000D03*
%TO.N,/Alim/Charge_Batterie*%
X154880000Y-102910000D03*
%TO.N,/STM32/NRST*%
X159550000Y-99350000D03*
%TO.N,/STM32/PC4*%
X149750000Y-101200000D03*
%TO.N,GND*%
X160450000Y-87150000D03*
X158850000Y-87750000D03*
%TO.N,+3.3V*%
X158750000Y-96300000D03*
%TO.N,/Modules/SPI1_SCK*%
X166250000Y-82050000D03*
%TO.N,GND*%
X148710000Y-93320000D03*
%TO.N,/STM32/Pb1*%
X154650000Y-104230000D03*
%TO.N,/STM32/PC4*%
X155680000Y-102720000D03*
%TO.N,/STM32/PF1*%
X160150000Y-98750000D03*
%TO.N,/STM32/PF0*%
X160700000Y-99450000D03*
%TO.N,/STM32/PC15*%
X161250000Y-98350000D03*
%TO.N,/STM32/PC14*%
X162200000Y-97500000D03*
%TO.N,/STM32/PC13*%
X162750000Y-96600000D03*
%TO.N,+3.3V*%
X163150000Y-100750000D03*
%TO.N,+5V*%
X144950000Y-85450000D03*
X140450000Y-87600000D03*
X176900000Y-114700000D03*
X165550000Y-111670000D03*
X166000000Y-113700000D03*
X169400000Y-113450000D03*
X176250000Y-115300000D03*
X178450000Y-114700000D03*
X138000000Y-87600000D03*
X148770000Y-79195000D03*
%TO.N,GND*%
X151800000Y-104950000D03*
X155150000Y-108700000D03*
X163700000Y-97950000D03*
X176050000Y-103650000D03*
X164600000Y-98100000D03*
X163600000Y-88200000D03*
X160000000Y-104100000D03*
X168300000Y-119650000D03*
X138800000Y-108650000D03*
X164500000Y-123100000D03*
X143700000Y-116700000D03*
X175200000Y-103650000D03*
X163200000Y-115500000D03*
X165500000Y-112600000D03*
X176900000Y-103700000D03*
X166250000Y-102220000D03*
X169550000Y-109200000D03*
X171650000Y-107950000D03*
X138750000Y-114400000D03*
X166700000Y-112650000D03*
X176050000Y-102800000D03*
X163600000Y-89350000D03*
X150700000Y-105540000D03*
X175700000Y-100400000D03*
X175880000Y-108330000D03*
X171950000Y-124600000D03*
X176050000Y-104550000D03*
X148050000Y-108550000D03*
X148250000Y-112400000D03*
X171410000Y-99520000D03*
X148200000Y-111100000D03*
X164650000Y-124550000D03*
X160550000Y-93500000D03*
X163600000Y-87350000D03*
%TO.N,VCC*%
X177400000Y-110250000D03*
X174150000Y-106250000D03*
%TO.N,5V_BUCK*%
X168900000Y-105750000D03*
X177500000Y-108460000D03*
%TO.N,+3.3V*%
X164650000Y-100200000D03*
X161500000Y-113552500D03*
X155675000Y-106875000D03*
X150750000Y-113650000D03*
X161760000Y-117710000D03*
%TO.N,/Alim/Charge_Batterie*%
X165655000Y-107805000D03*
X172412500Y-110250000D03*
%TO.N,/STM32/NRST*%
X143350000Y-108560000D03*
%TO.N,/Modules/SPI1_SCK*%
X156250000Y-101150000D03*
%TO.N,/Modules/I2C1_SCL*%
X165200000Y-102830000D03*
%TO.N,/Modules/I2C1_SDA*%
X167400000Y-105400000D03*
%TO.N,5V_USB*%
X165850000Y-124500000D03*
X168300000Y-123450000D03*
X170750000Y-124400000D03*
%TO.N,/STM32/SWO*%
X165270000Y-104950000D03*
X147000000Y-111150000D03*
%TO.N,/STM32/SWCLK*%
X163850000Y-107699000D03*
X147000000Y-112350000D03*
%TO.N,/STM32/SWDIO*%
X146950000Y-113600000D03*
X163300000Y-108250000D03*
%TO.N,/STM32/BOOT0*%
X166200000Y-97950000D03*
X166100000Y-101500000D03*
%TO.N,/STM32/BUZZER*%
X155850000Y-104400000D03*
%TO.N,/STM32/BL_LED*%
X157150000Y-99820000D03*
%TO.N,/STM32/RFID_LED*%
X171250000Y-104750000D03*
X164560000Y-105400000D03*
%TO.N,/STM32/USB_D-*%
X167300000Y-119550000D03*
X161458019Y-110525119D03*
%TO.N,/STM32/USB_D+*%
X169200000Y-119400000D03*
X161850000Y-109800000D03*
%TD*%
D20*
%TO.N,GND*%
X141470000Y-104450000D02*
X141435000Y-104415000D01*
X141770000Y-104450000D02*
X141470000Y-104450000D01*
X141435000Y-104415000D02*
X140450000Y-104415000D01*
X138880000Y-104400000D02*
X138865000Y-104415000D01*
X139220000Y-104400000D02*
X138880000Y-104400000D01*
X138865000Y-104415000D02*
X137910000Y-104415000D01*
%TD*%
%TA.AperFunction,Conductor*%
%TO.N,GND*%
G36*
X139984075Y-104222007D02*
G01*
X139950000Y-104349174D01*
X139950000Y-104480826D01*
X139984075Y-104607993D01*
X140016988Y-104665000D01*
X138343012Y-104665000D01*
X138375925Y-104607993D01*
X138410000Y-104480826D01*
X138410000Y-104349174D01*
X138375925Y-104222007D01*
X138343012Y-104165000D01*
X140016988Y-104165000D01*
X139984075Y-104222007D01*
G37*
%TD.AperFunction*%
%TA.AperFunction,Conductor*%
G36*
X176630959Y-71470185D02*
G01*
X176676714Y-71522989D01*
X176686658Y-71592147D01*
X176657633Y-71655703D01*
X176598855Y-71693477D01*
X176591513Y-71695391D01*
X176482731Y-71720219D01*
X176482729Y-71720220D01*
X176143482Y-71838927D01*
X175819663Y-71994870D01*
X175515335Y-72186092D01*
X175289634Y-72366081D01*
X176608282Y-73684729D01*
X176490534Y-73770278D01*
X176340278Y-73920534D01*
X176254729Y-74038282D01*
X174936081Y-72719634D01*
X174756092Y-72945335D01*
X174564870Y-73249663D01*
X174408927Y-73573482D01*
X174290220Y-73912729D01*
X174290219Y-73912731D01*
X174210242Y-74263136D01*
X174210240Y-74263148D01*
X174170000Y-74620287D01*
X174170000Y-74979712D01*
X174210240Y-75336851D01*
X174210242Y-75336863D01*
X174290219Y-75687268D01*
X174290220Y-75687270D01*
X174408927Y-76026517D01*
X174564870Y-76350336D01*
X174756092Y-76654664D01*
X174936081Y-76880364D01*
X176254728Y-75561717D01*
X176340278Y-75679466D01*
X176490534Y-75829722D01*
X176608281Y-75915270D01*
X175289634Y-77233916D01*
X175289634Y-77233917D01*
X175515335Y-77413907D01*
X175819663Y-77605129D01*
X176143482Y-77761072D01*
X176482729Y-77879779D01*
X176482731Y-77879780D01*
X176833136Y-77959757D01*
X176833148Y-77959759D01*
X177190287Y-77999999D01*
X177190289Y-78000000D01*
X177549711Y-78000000D01*
X177549712Y-77999999D01*
X177906851Y-77959759D01*
X177906863Y-77959757D01*
X178257268Y-77879780D01*
X178257270Y-77879779D01*
X178596517Y-77761072D01*
X178920336Y-77605129D01*
X179224664Y-77413907D01*
X179450364Y-77233916D01*
X178131718Y-75915270D01*
X178249466Y-75829722D01*
X178399722Y-75679466D01*
X178485270Y-75561718D01*
X179803916Y-76880364D01*
X179983907Y-76654664D01*
X180175129Y-76350336D01*
X180331072Y-76026517D01*
X180449779Y-75687270D01*
X180449780Y-75687268D01*
X180529757Y-75336863D01*
X180529759Y-75336851D01*
X180569999Y-74979712D01*
X180570000Y-74979710D01*
X180570000Y-74620289D01*
X180569999Y-74620287D01*
X180529759Y-74263148D01*
X180529757Y-74263136D01*
X180449780Y-73912731D01*
X180449779Y-73912729D01*
X180331072Y-73573482D01*
X180175129Y-73249663D01*
X179983907Y-72945335D01*
X179803916Y-72719634D01*
X178485270Y-74038281D01*
X178399722Y-73920534D01*
X178249466Y-73770278D01*
X178131716Y-73684728D01*
X179450364Y-72366081D01*
X179224664Y-72186092D01*
X178920336Y-71994870D01*
X178596517Y-71838927D01*
X178257270Y-71720220D01*
X178257268Y-71720219D01*
X178148487Y-71695391D01*
X178087509Y-71661282D01*
X178054651Y-71599621D01*
X178060346Y-71529984D01*
X178102786Y-71474480D01*
X178168496Y-71450732D01*
X178176080Y-71450500D01*
X181226000Y-71450500D01*
X181293039Y-71470185D01*
X181338794Y-71522989D01*
X181350000Y-71574500D01*
X181350000Y-101566450D01*
X181330315Y-101633489D01*
X181277511Y-101679244D01*
X181208353Y-101689188D01*
X181144797Y-101660163D01*
X181138319Y-101654131D01*
X181004464Y-101520276D01*
X181004459Y-101520272D01*
X180832557Y-101395379D01*
X180643217Y-101298904D01*
X180441128Y-101233242D01*
X180250000Y-101202969D01*
X180250000Y-102145854D01*
X180183343Y-102107370D01*
X180062535Y-102075000D01*
X179937465Y-102075000D01*
X179816657Y-102107370D01*
X179750000Y-102145854D01*
X179750000Y-101202969D01*
X179558872Y-101233242D01*
X179558869Y-101233242D01*
X179356782Y-101298904D01*
X179167442Y-101395379D01*
X178995540Y-101520272D01*
X178995535Y-101520276D01*
X178845276Y-101670535D01*
X178845272Y-101670540D01*
X178720379Y-101842442D01*
X178623904Y-102031782D01*
X178558242Y-102233870D01*
X178558242Y-102233873D01*
X178547769Y-102300000D01*
X179595854Y-102300000D01*
X179557370Y-102366657D01*
X179525000Y-102487465D01*
X179525000Y-102612535D01*
X179557370Y-102733343D01*
X179595854Y-102800000D01*
X178547769Y-102800000D01*
X178558242Y-102866126D01*
X178558242Y-102866129D01*
X178623904Y-103068217D01*
X178720379Y-103257557D01*
X178845272Y-103429459D01*
X178845276Y-103429464D01*
X178984143Y-103568331D01*
X179017628Y-103629654D01*
X179012644Y-103699346D01*
X178970772Y-103755279D01*
X178961559Y-103761551D01*
X178806342Y-103857289D01*
X178682289Y-103981342D01*
X178590187Y-104130663D01*
X178590186Y-104130666D01*
X178535001Y-104297203D01*
X178535001Y-104297204D01*
X178535000Y-104297204D01*
X178524500Y-104399983D01*
X178524500Y-105700001D01*
X178524501Y-105700018D01*
X178535000Y-105802796D01*
X178535001Y-105802799D01*
X178590185Y-105969331D01*
X178590187Y-105969336D01*
X178625069Y-106025888D01*
X178682288Y-106118656D01*
X178806344Y-106242712D01*
X178955666Y-106334814D01*
X179122203Y-106389999D01*
X179224991Y-106400500D01*
X180775008Y-106400499D01*
X180877797Y-106389999D01*
X181044334Y-106334814D01*
X181160906Y-106262912D01*
X181228296Y-106244473D01*
X181294959Y-106265395D01*
X181339729Y-106319037D01*
X181350000Y-106368452D01*
X181350000Y-110115742D01*
X181330315Y-110182781D01*
X181277511Y-110228536D01*
X181208353Y-110238480D01*
X181144797Y-110209455D01*
X181138319Y-110203423D01*
X181054786Y-110119890D01*
X180882820Y-109994951D01*
X180693414Y-109898444D01*
X180693413Y-109898443D01*
X180693412Y-109898443D01*
X180491243Y-109832754D01*
X180491241Y-109832753D01*
X180491240Y-109832753D01*
X180329957Y-109807208D01*
X180281287Y-109799500D01*
X179818713Y-109799500D01*
X179770042Y-109807208D01*
X179608760Y-109832753D01*
X179406585Y-109898444D01*
X179217179Y-109994951D01*
X179045213Y-110119890D01*
X178894890Y-110270213D01*
X178769951Y-110442179D01*
X178673444Y-110631585D01*
X178607753Y-110833760D01*
X178574500Y-111043713D01*
X178574500Y-111256286D01*
X178605353Y-111451087D01*
X178607754Y-111466243D01*
X178671463Y-111662319D01*
X178673444Y-111668414D01*
X178769951Y-111857820D01*
X178894890Y-112029786D01*
X179045209Y-112180105D01*
X179045214Y-112180109D01*
X179209793Y-112299682D01*
X179252459Y-112355011D01*
X179258438Y-112424625D01*
X179225833Y-112486420D01*
X179209793Y-112500318D01*
X179045214Y-112619890D01*
X179045209Y-112619894D01*
X178894890Y-112770213D01*
X178769951Y-112942179D01*
X178673444Y-113131585D01*
X178607753Y-113333760D01*
X178592337Y-113431094D01*
X178574500Y-113543713D01*
X178574500Y-113756287D01*
X178577293Y-113773920D01*
X178582390Y-113806102D01*
X178573435Y-113875396D01*
X178528439Y-113928848D01*
X178461688Y-113949487D01*
X178459917Y-113949500D01*
X178376080Y-113949500D01*
X178231092Y-113978340D01*
X178231082Y-113978343D01*
X178094511Y-114034912D01*
X178094498Y-114034919D01*
X177971584Y-114117048D01*
X177971580Y-114117051D01*
X177867051Y-114221580D01*
X177867048Y-114221584D01*
X177784913Y-114344507D01*
X177784357Y-114345549D01*
X177783921Y-114345992D01*
X177781531Y-114349570D01*
X177780852Y-114349116D01*
X177735394Y-114395392D01*
X177667256Y-114410852D01*
X177601577Y-114387019D01*
X177568885Y-114349291D01*
X177568469Y-114349570D01*
X177566251Y-114346251D01*
X177565643Y-114345549D01*
X177565086Y-114344507D01*
X177482951Y-114221584D01*
X177482948Y-114221580D01*
X177378419Y-114117051D01*
X177378415Y-114117048D01*
X177255501Y-114034919D01*
X177255488Y-114034912D01*
X177118917Y-113978343D01*
X177118907Y-113978340D01*
X176973920Y-113949500D01*
X176973918Y-113949500D01*
X176826082Y-113949500D01*
X176826080Y-113949500D01*
X176681092Y-113978340D01*
X176681082Y-113978343D01*
X176544511Y-114034912D01*
X176544498Y-114034919D01*
X176421584Y-114117048D01*
X176421580Y-114117051D01*
X176317051Y-114221580D01*
X176317048Y-114221584D01*
X176234919Y-114344498D01*
X176234912Y-114344511D01*
X176178340Y-114481089D01*
X176177975Y-114482295D01*
X176177611Y-114482848D01*
X176176011Y-114486714D01*
X176175277Y-114486410D01*
X176139676Y-114540733D01*
X176083510Y-114567913D01*
X176031089Y-114578341D01*
X176031084Y-114578342D01*
X175894511Y-114634912D01*
X175894498Y-114634919D01*
X175771584Y-114717048D01*
X175771580Y-114717051D01*
X175667051Y-114821580D01*
X175667048Y-114821584D01*
X175584919Y-114944498D01*
X175584912Y-114944511D01*
X175528343Y-115081082D01*
X175528340Y-115081092D01*
X175499500Y-115226079D01*
X175499500Y-115226082D01*
X175499500Y-115373918D01*
X175499500Y-115373920D01*
X175499499Y-115373920D01*
X175528340Y-115518907D01*
X175528343Y-115518917D01*
X175584912Y-115655488D01*
X175584919Y-115655501D01*
X175667048Y-115778415D01*
X175667051Y-115778419D01*
X175771580Y-115882948D01*
X175771584Y-115882951D01*
X175894498Y-115965080D01*
X175894511Y-115965087D01*
X176031082Y-116021656D01*
X176031087Y-116021658D01*
X176031091Y-116021658D01*
X176031092Y-116021659D01*
X176176079Y-116050500D01*
X176176082Y-116050500D01*
X176323920Y-116050500D01*
X176421462Y-116031096D01*
X176468913Y-116021658D01*
X176605495Y-115965084D01*
X176728416Y-115882951D01*
X176832951Y-115778416D01*
X176915084Y-115655495D01*
X176971658Y-115518913D01*
X176971659Y-115518905D01*
X176972022Y-115517712D01*
X176972385Y-115517157D01*
X176973989Y-115513286D01*
X176974723Y-115513590D01*
X177010317Y-115459272D01*
X177066491Y-115432085D01*
X177118913Y-115421658D01*
X177255495Y-115365084D01*
X177378416Y-115282951D01*
X177482951Y-115178416D01*
X177565084Y-115055495D01*
X177565085Y-115055491D01*
X177565639Y-115054457D01*
X177566074Y-115054013D01*
X177568469Y-115050430D01*
X177569148Y-115050884D01*
X177614599Y-115004611D01*
X177682735Y-114989147D01*
X177748416Y-115012975D01*
X177781113Y-115050709D01*
X177781531Y-115050430D01*
X177783752Y-115053754D01*
X177784361Y-115054457D01*
X177784917Y-115055498D01*
X177867048Y-115178415D01*
X177867051Y-115178419D01*
X177971580Y-115282948D01*
X177971584Y-115282951D01*
X178094498Y-115365080D01*
X178094511Y-115365087D01*
X178172047Y-115397203D01*
X178231087Y-115421658D01*
X178231091Y-115421658D01*
X178231092Y-115421659D01*
X178376079Y-115450500D01*
X178450500Y-115450500D01*
X178517539Y-115470185D01*
X178563294Y-115522989D01*
X178574500Y-115574500D01*
X178574500Y-116800001D01*
X178574501Y-116800018D01*
X178585000Y-116902796D01*
X178585001Y-116902799D01*
X178613347Y-116988340D01*
X178640186Y-117069334D01*
X178732288Y-117218656D01*
X178856344Y-117342712D01*
X179005666Y-117434814D01*
X179172203Y-117489999D01*
X179274991Y-117500500D01*
X180825008Y-117500499D01*
X180927797Y-117489999D01*
X181094334Y-117434814D01*
X181160903Y-117393753D01*
X181228295Y-117375313D01*
X181294959Y-117396235D01*
X181339728Y-117449877D01*
X181350000Y-117499292D01*
X181350000Y-124775500D01*
X181330315Y-124842539D01*
X181277511Y-124888294D01*
X181226000Y-124899500D01*
X179651705Y-124899500D01*
X179584666Y-124879815D01*
X179538911Y-124827011D01*
X179528967Y-124757853D01*
X179557992Y-124694297D01*
X179574392Y-124678553D01*
X179630364Y-124633916D01*
X178311718Y-123315270D01*
X178429466Y-123229722D01*
X178579722Y-123079466D01*
X178665270Y-122961718D01*
X179983916Y-124280364D01*
X180163907Y-124054664D01*
X180355129Y-123750336D01*
X180511072Y-123426517D01*
X180629779Y-123087270D01*
X180629780Y-123087268D01*
X180709757Y-122736863D01*
X180709759Y-122736851D01*
X180749999Y-122379712D01*
X180750000Y-122379710D01*
X180750000Y-122020289D01*
X180749999Y-122020287D01*
X180709759Y-121663148D01*
X180709757Y-121663136D01*
X180629780Y-121312731D01*
X180629779Y-121312729D01*
X180511072Y-120973482D01*
X180355129Y-120649663D01*
X180163907Y-120345335D01*
X179983916Y-120119634D01*
X178665270Y-121438281D01*
X178579722Y-121320534D01*
X178429466Y-121170278D01*
X178311716Y-121084728D01*
X179630364Y-119766081D01*
X179404664Y-119586092D01*
X179100336Y-119394870D01*
X178776517Y-119238927D01*
X178437270Y-119120220D01*
X178437268Y-119120219D01*
X178086863Y-119040242D01*
X178086851Y-119040240D01*
X177729712Y-119000000D01*
X177370287Y-119000000D01*
X177013148Y-119040240D01*
X177013136Y-119040242D01*
X176662731Y-119120219D01*
X176662729Y-119120220D01*
X176323482Y-119238927D01*
X175999663Y-119394870D01*
X175695335Y-119586092D01*
X175469634Y-119766081D01*
X176788282Y-121084729D01*
X176670534Y-121170278D01*
X176520278Y-121320534D01*
X176434729Y-121438282D01*
X175116081Y-120119634D01*
X174936092Y-120345335D01*
X174744870Y-120649663D01*
X174588927Y-120973482D01*
X174470220Y-121312729D01*
X174470219Y-121312731D01*
X174390242Y-121663136D01*
X174390240Y-121663148D01*
X174350000Y-122020287D01*
X174350000Y-122379712D01*
X174390240Y-122736851D01*
X174390242Y-122736863D01*
X174470219Y-123087268D01*
X174470220Y-123087270D01*
X174588927Y-123426517D01*
X174744870Y-123750336D01*
X174936092Y-124054664D01*
X175116081Y-124280364D01*
X176434728Y-122961717D01*
X176520278Y-123079466D01*
X176670534Y-123229722D01*
X176788281Y-123315270D01*
X175469634Y-124633916D01*
X175469634Y-124633917D01*
X175525606Y-124678553D01*
X175565746Y-124735742D01*
X175568596Y-124805553D01*
X175533250Y-124865823D01*
X175470931Y-124897416D01*
X175448293Y-124899500D01*
X174020753Y-124899500D01*
X173954861Y-124899401D01*
X173954489Y-124899500D01*
X173954107Y-124899500D01*
X173891410Y-124916299D01*
X173891232Y-124916346D01*
X173827509Y-124933318D01*
X173827151Y-124933466D01*
X173826835Y-124933595D01*
X173770423Y-124966165D01*
X173770291Y-124966241D01*
X173749126Y-124978419D01*
X173713279Y-124999044D01*
X173712886Y-124999344D01*
X173712699Y-124999486D01*
X173666458Y-125045727D01*
X173614443Y-125097585D01*
X173614113Y-125098092D01*
X173613986Y-125098220D01*
X173612396Y-125096643D01*
X173593468Y-125110326D01*
X173565525Y-125130761D01*
X173565174Y-125130782D01*
X173564891Y-125130987D01*
X173530350Y-125132880D01*
X173495782Y-125134963D01*
X173495476Y-125134791D01*
X173495126Y-125134811D01*
X173464972Y-125117688D01*
X173434838Y-125100792D01*
X173434513Y-125100392D01*
X173434369Y-125100310D01*
X173434226Y-125100038D01*
X173420392Y-125082987D01*
X173416748Y-125077533D01*
X173277466Y-124938251D01*
X173277462Y-124938248D01*
X173113684Y-124828814D01*
X173113671Y-124828807D01*
X172931691Y-124753429D01*
X172931683Y-124753427D01*
X172890000Y-124745135D01*
X172890000Y-125548011D01*
X172880060Y-125530795D01*
X172824205Y-125474940D01*
X172755796Y-125435444D01*
X172679496Y-125415000D01*
X172600504Y-125415000D01*
X172524204Y-125435444D01*
X172455795Y-125474940D01*
X172399940Y-125530795D01*
X172390000Y-125548011D01*
X172390000Y-124745136D01*
X172389999Y-124745135D01*
X172348316Y-124753427D01*
X172348308Y-124753429D01*
X172166328Y-124828807D01*
X172166315Y-124828814D01*
X172002537Y-124938248D01*
X172002533Y-124938251D01*
X171863251Y-125077533D01*
X171863248Y-125077537D01*
X171753814Y-125241315D01*
X171753807Y-125241328D01*
X171678430Y-125423306D01*
X171678427Y-125423318D01*
X171640000Y-125616504D01*
X171640000Y-126015000D01*
X172340000Y-126015000D01*
X172340000Y-126515000D01*
X171784464Y-126515000D01*
X171717425Y-126495315D01*
X171677077Y-126453000D01*
X171670517Y-126441638D01*
X171670513Y-126441633D01*
X171563367Y-126334487D01*
X171563365Y-126334485D01*
X171497750Y-126296602D01*
X171432136Y-126258719D01*
X171358950Y-126239109D01*
X171285766Y-126219500D01*
X171134234Y-126219500D01*
X170987863Y-126258719D01*
X170856635Y-126334485D01*
X170856632Y-126334487D01*
X170749487Y-126441632D01*
X170749485Y-126441635D01*
X170673719Y-126572863D01*
X170634500Y-126719234D01*
X170634500Y-126870765D01*
X170673719Y-127017136D01*
X170695615Y-127055060D01*
X170749485Y-127148365D01*
X170856635Y-127255515D01*
X170987865Y-127331281D01*
X171134234Y-127370500D01*
X171134236Y-127370500D01*
X171285764Y-127370500D01*
X171285766Y-127370500D01*
X171432135Y-127331281D01*
X171563365Y-127255515D01*
X171563372Y-127255507D01*
X171569811Y-127250568D01*
X171572044Y-127253478D01*
X171618258Y-127227865D01*
X171687980Y-127232411D01*
X171744176Y-127273930D01*
X171750394Y-127283634D01*
X171750426Y-127283613D01*
X171863248Y-127452462D01*
X171863251Y-127452466D01*
X172002533Y-127591748D01*
X172002537Y-127591751D01*
X172166315Y-127701185D01*
X172166328Y-127701192D01*
X172348308Y-127776569D01*
X172390000Y-127784862D01*
X172390000Y-126981988D01*
X172399940Y-126999205D01*
X172455795Y-127055060D01*
X172524204Y-127094556D01*
X172600504Y-127115000D01*
X172679496Y-127115000D01*
X172755796Y-127094556D01*
X172824205Y-127055060D01*
X172880060Y-126999205D01*
X172890000Y-126981988D01*
X172890000Y-127784862D01*
X172931690Y-127776569D01*
X172931692Y-127776569D01*
X173113671Y-127701192D01*
X173113684Y-127701185D01*
X173277461Y-127591752D01*
X173304425Y-127564788D01*
X173365748Y-127531302D01*
X173435440Y-127536286D01*
X173491374Y-127578156D01*
X173515792Y-127643620D01*
X173516108Y-127652655D01*
X173513621Y-129305231D01*
X173493835Y-129372240D01*
X173440963Y-129417916D01*
X173371789Y-129427755D01*
X173308277Y-129398635D01*
X173301940Y-129392725D01*
X173277466Y-129368251D01*
X173277462Y-129368248D01*
X173113684Y-129258814D01*
X173113671Y-129258807D01*
X172931691Y-129183429D01*
X172931683Y-129183427D01*
X172890000Y-129175135D01*
X172890000Y-129978011D01*
X172880060Y-129960795D01*
X172824205Y-129904940D01*
X172755796Y-129865444D01*
X172679496Y-129845000D01*
X172600504Y-129845000D01*
X172524204Y-129865444D01*
X172455795Y-129904940D01*
X172399940Y-129960795D01*
X172390000Y-129978011D01*
X172390000Y-129175136D01*
X172389999Y-129175135D01*
X172348316Y-129183427D01*
X172348308Y-129183429D01*
X172166328Y-129258807D01*
X172166315Y-129258814D01*
X172002537Y-129368248D01*
X172002533Y-129368251D01*
X171863251Y-129507533D01*
X171863248Y-129507537D01*
X171753814Y-129671315D01*
X171753807Y-129671328D01*
X171678430Y-129853306D01*
X171678427Y-129853318D01*
X171640000Y-130046504D01*
X171640000Y-130195000D01*
X172340000Y-130195000D01*
X172340000Y-130695000D01*
X171640000Y-130695000D01*
X171640000Y-130843495D01*
X171678427Y-131036681D01*
X171678430Y-131036693D01*
X171753807Y-131218671D01*
X171753814Y-131218683D01*
X171842633Y-131351609D01*
X171863511Y-131418286D01*
X171845027Y-131485666D01*
X171793048Y-131532357D01*
X171739531Y-131544500D01*
X164900469Y-131544500D01*
X164833430Y-131524815D01*
X164787675Y-131472011D01*
X164777731Y-131402853D01*
X164797367Y-131351609D01*
X164886185Y-131218683D01*
X164886192Y-131218671D01*
X164961569Y-131036693D01*
X164961572Y-131036681D01*
X164999999Y-130843495D01*
X165000000Y-130843492D01*
X165000000Y-130695000D01*
X164300000Y-130695000D01*
X164300000Y-130195000D01*
X165000000Y-130195000D01*
X165000000Y-130046508D01*
X164999999Y-130046504D01*
X164961572Y-129853318D01*
X164961569Y-129853306D01*
X164886192Y-129671328D01*
X164886185Y-129671315D01*
X164776751Y-129507537D01*
X164776748Y-129507533D01*
X164637466Y-129368251D01*
X164637462Y-129368248D01*
X164473684Y-129258814D01*
X164473671Y-129258807D01*
X164291691Y-129183429D01*
X164291683Y-129183427D01*
X164250000Y-129175135D01*
X164250000Y-129978011D01*
X164240060Y-129960795D01*
X164184205Y-129904940D01*
X164115796Y-129865444D01*
X164039496Y-129845000D01*
X163960504Y-129845000D01*
X163884204Y-129865444D01*
X163815795Y-129904940D01*
X163759940Y-129960795D01*
X163750000Y-129978011D01*
X163750000Y-129175136D01*
X163749999Y-129175135D01*
X163708316Y-129183427D01*
X163708308Y-129183429D01*
X163526328Y-129258807D01*
X163526315Y-129258814D01*
X163362537Y-129368248D01*
X163362533Y-129368251D01*
X163332181Y-129398604D01*
X163270858Y-129432089D01*
X163201166Y-129427105D01*
X163145233Y-129385233D01*
X163120816Y-129319769D01*
X163120500Y-129310923D01*
X163120500Y-127649077D01*
X163140185Y-127582038D01*
X163192989Y-127536283D01*
X163262147Y-127526339D01*
X163325703Y-127555364D01*
X163332181Y-127561396D01*
X163362533Y-127591748D01*
X163362537Y-127591751D01*
X163526315Y-127701185D01*
X163526328Y-127701192D01*
X163708308Y-127776569D01*
X163750000Y-127784862D01*
X163750000Y-126981988D01*
X163759940Y-126999205D01*
X163815795Y-127055060D01*
X163884204Y-127094556D01*
X163960504Y-127115000D01*
X164039496Y-127115000D01*
X164115796Y-127094556D01*
X164184205Y-127055060D01*
X164240060Y-126999205D01*
X164250000Y-126981988D01*
X164250000Y-127784862D01*
X164291690Y-127776569D01*
X164291692Y-127776569D01*
X164473671Y-127701192D01*
X164473684Y-127701185D01*
X164637462Y-127591751D01*
X164637466Y-127591748D01*
X164776748Y-127452466D01*
X164776751Y-127452462D01*
X164889574Y-127283613D01*
X164891007Y-127284570D01*
X164934198Y-127240580D01*
X165002332Y-127225103D01*
X165068018Y-127248919D01*
X165070089Y-127250697D01*
X165070189Y-127250568D01*
X165076630Y-127255510D01*
X165076635Y-127255515D01*
X165207865Y-127331281D01*
X165354234Y-127370500D01*
X165354236Y-127370500D01*
X165505764Y-127370500D01*
X165505766Y-127370500D01*
X165652135Y-127331281D01*
X165783365Y-127255515D01*
X165890515Y-127148365D01*
X165966281Y-127017135D01*
X166005500Y-126870766D01*
X166005500Y-126719234D01*
X165966281Y-126572865D01*
X165890515Y-126441635D01*
X165783365Y-126334485D01*
X165717750Y-126296602D01*
X165652136Y-126258719D01*
X165578950Y-126239109D01*
X165505766Y-126219500D01*
X165354234Y-126219500D01*
X165207863Y-126258719D01*
X165076635Y-126334485D01*
X165076632Y-126334487D01*
X164969486Y-126441633D01*
X164969482Y-126441638D01*
X164962923Y-126453000D01*
X164912356Y-126501216D01*
X164855536Y-126515000D01*
X164300000Y-126515000D01*
X164300000Y-126015000D01*
X165000000Y-126015000D01*
X165000000Y-125616508D01*
X164999999Y-125616504D01*
X164961572Y-125423318D01*
X164961569Y-125423306D01*
X164886192Y-125241328D01*
X164886185Y-125241315D01*
X164776751Y-125077537D01*
X164776748Y-125077533D01*
X164637466Y-124938251D01*
X164637462Y-124938248D01*
X164473684Y-124828814D01*
X164473671Y-124828807D01*
X164291691Y-124753429D01*
X164291683Y-124753427D01*
X164250000Y-124745135D01*
X164250000Y-125548011D01*
X164240060Y-125530795D01*
X164184205Y-125474940D01*
X164115796Y-125435444D01*
X164039496Y-125415000D01*
X163960504Y-125415000D01*
X163884204Y-125435444D01*
X163815795Y-125474940D01*
X163759940Y-125530795D01*
X163750000Y-125548011D01*
X163750000Y-124745136D01*
X163749999Y-124745135D01*
X163708316Y-124753427D01*
X163708308Y-124753429D01*
X163526328Y-124828807D01*
X163526315Y-124828814D01*
X163362537Y-124938248D01*
X163362533Y-124938251D01*
X163223251Y-125077533D01*
X163223248Y-125077537D01*
X163219600Y-125082997D01*
X163203112Y-125096774D01*
X163190115Y-125113886D01*
X163176832Y-125118734D01*
X163165985Y-125127799D01*
X163144668Y-125130475D01*
X163124482Y-125137844D01*
X163110686Y-125134741D01*
X163096660Y-125136503D01*
X163077279Y-125127229D01*
X163056314Y-125122515D01*
X163042478Y-125110577D01*
X163033634Y-125106345D01*
X163028209Y-125101167D01*
X163021423Y-125094286D01*
X163020500Y-125092686D01*
X163020431Y-125092617D01*
X163020385Y-125092537D01*
X162973775Y-125045961D01*
X162927314Y-124999500D01*
X162927310Y-124999496D01*
X162927164Y-124999384D01*
X162869608Y-124966183D01*
X162869607Y-124966183D01*
X162869576Y-124966165D01*
X162813186Y-124933608D01*
X162813094Y-124933583D01*
X162813012Y-124933536D01*
X162749054Y-124916423D01*
X162749018Y-124916401D01*
X162749015Y-124916412D01*
X162722517Y-124909313D01*
X162685887Y-124899498D01*
X162685748Y-124899480D01*
X162685743Y-124899479D01*
X162685712Y-124899475D01*
X162685705Y-124899475D01*
X162618711Y-124899500D01*
X162554108Y-124899500D01*
X162554017Y-124899524D01*
X162552496Y-124899524D01*
X162545940Y-124899527D01*
X136443972Y-124909266D01*
X136376925Y-124889606D01*
X136331151Y-124836820D01*
X136319926Y-124785380D01*
X136319889Y-124745135D01*
X136319732Y-124573920D01*
X165099499Y-124573920D01*
X165128340Y-124718907D01*
X165128343Y-124718917D01*
X165184912Y-124855488D01*
X165184919Y-124855501D01*
X165267048Y-124978415D01*
X165267051Y-124978419D01*
X165371580Y-125082948D01*
X165371584Y-125082951D01*
X165494498Y-125165080D01*
X165494511Y-125165087D01*
X165594451Y-125206483D01*
X165631087Y-125221658D01*
X165631091Y-125221658D01*
X165631092Y-125221659D01*
X165776079Y-125250500D01*
X165776082Y-125250500D01*
X165923920Y-125250500D01*
X166021462Y-125231096D01*
X166068913Y-125221658D01*
X166205495Y-125165084D01*
X166328416Y-125082951D01*
X166432951Y-124978416D01*
X166515084Y-124855495D01*
X166571658Y-124718913D01*
X166588565Y-124633917D01*
X166600500Y-124573920D01*
X166600500Y-124473920D01*
X169999499Y-124473920D01*
X170028340Y-124618907D01*
X170028343Y-124618917D01*
X170084912Y-124755488D01*
X170084919Y-124755501D01*
X170167048Y-124878415D01*
X170167051Y-124878419D01*
X170271580Y-124982948D01*
X170271584Y-124982951D01*
X170394498Y-125065080D01*
X170394511Y-125065087D01*
X170524028Y-125118734D01*
X170531087Y-125121658D01*
X170531091Y-125121658D01*
X170531092Y-125121659D01*
X170676079Y-125150500D01*
X170676082Y-125150500D01*
X170823920Y-125150500D01*
X170940906Y-125127229D01*
X170968913Y-125121658D01*
X171105495Y-125065084D01*
X171228416Y-124982951D01*
X171332951Y-124878416D01*
X171415084Y-124755495D01*
X171471658Y-124618913D01*
X171500500Y-124473918D01*
X171500500Y-124326082D01*
X171500500Y-124326079D01*
X171471659Y-124181092D01*
X171471658Y-124181091D01*
X171471658Y-124181087D01*
X171456505Y-124144505D01*
X171415087Y-124044511D01*
X171415080Y-124044498D01*
X171332951Y-123921584D01*
X171332948Y-123921580D01*
X171228419Y-123817051D01*
X171228415Y-123817048D01*
X171105501Y-123734919D01*
X171105488Y-123734912D01*
X170968917Y-123678343D01*
X170968907Y-123678340D01*
X170823920Y-123649500D01*
X170823918Y-123649500D01*
X170676082Y-123649500D01*
X170676080Y-123649500D01*
X170531092Y-123678340D01*
X170531082Y-123678343D01*
X170394511Y-123734912D01*
X170394498Y-123734919D01*
X170271584Y-123817048D01*
X170271580Y-123817051D01*
X170167051Y-123921580D01*
X170167048Y-123921584D01*
X170084919Y-124044498D01*
X170084912Y-124044511D01*
X170028343Y-124181082D01*
X170028340Y-124181092D01*
X169999500Y-124326079D01*
X169999500Y-124326082D01*
X169999500Y-124473918D01*
X169999500Y-124473920D01*
X169999499Y-124473920D01*
X166600500Y-124473920D01*
X166600500Y-124426079D01*
X166571659Y-124281092D01*
X166571658Y-124281091D01*
X166571658Y-124281087D01*
X166526332Y-124171659D01*
X166515087Y-124144511D01*
X166515080Y-124144498D01*
X166432951Y-124021584D01*
X166432948Y-124021580D01*
X166328419Y-123917051D01*
X166328415Y-123917048D01*
X166205501Y-123834919D01*
X166205488Y-123834912D01*
X166068917Y-123778343D01*
X166068907Y-123778340D01*
X165923920Y-123749500D01*
X165923918Y-123749500D01*
X165776082Y-123749500D01*
X165776080Y-123749500D01*
X165631092Y-123778340D01*
X165631082Y-123778343D01*
X165494511Y-123834912D01*
X165494498Y-123834919D01*
X165371584Y-123917048D01*
X165371580Y-123917051D01*
X165267051Y-124021580D01*
X165267048Y-124021584D01*
X165184919Y-124144498D01*
X165184912Y-124144511D01*
X165128343Y-124281082D01*
X165128340Y-124281092D01*
X165099500Y-124426079D01*
X165099500Y-124426082D01*
X165099500Y-124573918D01*
X165099500Y-124573920D01*
X165099499Y-124573920D01*
X136319732Y-124573920D01*
X136317946Y-122628860D01*
X136337568Y-122561807D01*
X136390330Y-122516004D01*
X136459479Y-122505997D01*
X136523062Y-122534964D01*
X136546939Y-122562779D01*
X136636092Y-122704664D01*
X136816081Y-122930364D01*
X138134728Y-121611717D01*
X138220278Y-121729466D01*
X138370534Y-121879722D01*
X138488281Y-121965270D01*
X137169634Y-123283916D01*
X137169634Y-123283917D01*
X137395335Y-123463907D01*
X137699663Y-123655129D01*
X138023482Y-123811072D01*
X138362729Y-123929779D01*
X138362731Y-123929780D01*
X138713136Y-124009757D01*
X138713148Y-124009759D01*
X139070287Y-124049999D01*
X139070289Y-124050000D01*
X139429711Y-124050000D01*
X139429712Y-124049999D01*
X139786851Y-124009759D01*
X139786863Y-124009757D01*
X140137268Y-123929780D01*
X140137270Y-123929779D01*
X140476517Y-123811072D01*
X140800336Y-123655129D01*
X141009154Y-123523920D01*
X167549499Y-123523920D01*
X167578340Y-123668907D01*
X167578343Y-123668917D01*
X167634912Y-123805488D01*
X167634919Y-123805501D01*
X167717048Y-123928415D01*
X167717051Y-123928419D01*
X167821580Y-124032948D01*
X167821584Y-124032951D01*
X167944498Y-124115080D01*
X167944511Y-124115087D01*
X168015548Y-124144511D01*
X168081087Y-124171658D01*
X168081091Y-124171658D01*
X168081092Y-124171659D01*
X168226079Y-124200500D01*
X168226082Y-124200500D01*
X168373920Y-124200500D01*
X168384613Y-124198373D01*
X168476514Y-124180091D01*
X168518913Y-124171658D01*
X168655495Y-124115084D01*
X168778416Y-124032951D01*
X168882951Y-123928416D01*
X168965084Y-123805495D01*
X169021658Y-123668913D01*
X169050500Y-123523918D01*
X169050500Y-123376082D01*
X169050500Y-123376079D01*
X169021659Y-123231092D01*
X169021658Y-123231091D01*
X169021658Y-123231087D01*
X169021093Y-123229722D01*
X168965087Y-123094511D01*
X168965080Y-123094498D01*
X168882951Y-122971584D01*
X168882948Y-122971580D01*
X168778419Y-122867051D01*
X168778415Y-122867048D01*
X168655501Y-122784919D01*
X168655488Y-122784912D01*
X168518917Y-122728343D01*
X168518907Y-122728340D01*
X168373920Y-122699500D01*
X168373918Y-122699500D01*
X168226082Y-122699500D01*
X168226080Y-122699500D01*
X168081092Y-122728340D01*
X168081082Y-122728343D01*
X167944511Y-122784912D01*
X167944498Y-122784919D01*
X167821584Y-122867048D01*
X167821580Y-122867051D01*
X167717051Y-122971580D01*
X167717048Y-122971584D01*
X167634919Y-123094498D01*
X167634912Y-123094511D01*
X167578343Y-123231082D01*
X167578340Y-123231092D01*
X167549500Y-123376079D01*
X167549500Y-123376082D01*
X167549500Y-123523918D01*
X167549500Y-123523920D01*
X167549499Y-123523920D01*
X141009154Y-123523920D01*
X141104664Y-123463907D01*
X141330364Y-123283916D01*
X140011718Y-121965270D01*
X140129466Y-121879722D01*
X140279722Y-121729466D01*
X140365270Y-121611718D01*
X141683916Y-122930364D01*
X141863907Y-122704664D01*
X142055129Y-122400336D01*
X142211072Y-122076517D01*
X142246294Y-121975859D01*
X142246294Y-121975858D01*
X142329780Y-121737266D01*
X142352337Y-121638440D01*
X142386445Y-121577461D01*
X142448107Y-121544603D01*
X142486483Y-121542743D01*
X142489952Y-121543115D01*
X142512127Y-121545500D01*
X144307872Y-121545499D01*
X144367483Y-121539091D01*
X144502331Y-121488796D01*
X144617546Y-121402546D01*
X144703796Y-121287331D01*
X144752810Y-121155916D01*
X144794681Y-121099984D01*
X144860145Y-121075566D01*
X144928418Y-121090417D01*
X144956673Y-121111569D01*
X145070213Y-121225109D01*
X145242179Y-121350048D01*
X145242181Y-121350049D01*
X145242184Y-121350051D01*
X145431588Y-121446557D01*
X145633757Y-121512246D01*
X145843713Y-121545500D01*
X145843714Y-121545500D01*
X146056286Y-121545500D01*
X146056287Y-121545500D01*
X146266243Y-121512246D01*
X146468412Y-121446557D01*
X146657816Y-121350051D01*
X146744138Y-121287335D01*
X146829786Y-121225109D01*
X146829788Y-121225106D01*
X146829792Y-121225104D01*
X146980104Y-121074792D01*
X146980106Y-121074788D01*
X146980109Y-121074786D01*
X147105048Y-120902820D01*
X147105047Y-120902820D01*
X147105051Y-120902816D01*
X147109514Y-120894054D01*
X147157488Y-120843259D01*
X147225308Y-120826463D01*
X147291444Y-120848999D01*
X147330486Y-120894056D01*
X147334951Y-120902820D01*
X147459890Y-121074786D01*
X147610213Y-121225109D01*
X147782179Y-121350048D01*
X147782181Y-121350049D01*
X147782184Y-121350051D01*
X147971588Y-121446557D01*
X148173757Y-121512246D01*
X148383713Y-121545500D01*
X148383714Y-121545500D01*
X148596286Y-121545500D01*
X148596287Y-121545500D01*
X148806243Y-121512246D01*
X149008412Y-121446557D01*
X149197816Y-121350051D01*
X149284138Y-121287335D01*
X149369786Y-121225109D01*
X149369788Y-121225106D01*
X149369792Y-121225104D01*
X149520104Y-121074792D01*
X149520106Y-121074788D01*
X149520109Y-121074786D01*
X149645048Y-120902820D01*
X149645047Y-120902820D01*
X149645051Y-120902816D01*
X149649514Y-120894054D01*
X149697488Y-120843259D01*
X149765308Y-120826463D01*
X149831444Y-120848999D01*
X149870486Y-120894056D01*
X149874951Y-120902820D01*
X149999890Y-121074786D01*
X150150213Y-121225109D01*
X150322179Y-121350048D01*
X150322181Y-121350049D01*
X150322184Y-121350051D01*
X150511588Y-121446557D01*
X150713757Y-121512246D01*
X150923713Y-121545500D01*
X150923714Y-121545500D01*
X151136286Y-121545500D01*
X151136287Y-121545500D01*
X151346243Y-121512246D01*
X151548412Y-121446557D01*
X151737816Y-121350051D01*
X151824138Y-121287335D01*
X151909786Y-121225109D01*
X151909788Y-121225106D01*
X151909792Y-121225104D01*
X152060104Y-121074792D01*
X152060106Y-121074788D01*
X152060109Y-121074786D01*
X152185048Y-120902820D01*
X152185047Y-120902820D01*
X152185051Y-120902816D01*
X152189514Y-120894054D01*
X152237488Y-120843259D01*
X152305308Y-120826463D01*
X152371444Y-120848999D01*
X152410486Y-120894056D01*
X152414951Y-120902820D01*
X152539890Y-121074786D01*
X152690213Y-121225109D01*
X152862179Y-121350048D01*
X152862181Y-121350049D01*
X152862184Y-121350051D01*
X153051588Y-121446557D01*
X153253757Y-121512246D01*
X153463713Y-121545500D01*
X153463714Y-121545500D01*
X153676286Y-121545500D01*
X153676287Y-121545500D01*
X153886243Y-121512246D01*
X154088412Y-121446557D01*
X154277816Y-121350051D01*
X154364138Y-121287335D01*
X154449786Y-121225109D01*
X154449788Y-121225106D01*
X154449792Y-121225104D01*
X154600104Y-121074792D01*
X154600106Y-121074788D01*
X154600109Y-121074786D01*
X154725048Y-120902820D01*
X154725047Y-120902820D01*
X154725051Y-120902816D01*
X154729514Y-120894054D01*
X154777488Y-120843259D01*
X154845308Y-120826463D01*
X154911444Y-120848999D01*
X154950486Y-120894056D01*
X154954951Y-120902820D01*
X155079890Y-121074786D01*
X155230213Y-121225109D01*
X155402179Y-121350048D01*
X155402181Y-121350049D01*
X155402184Y-121350051D01*
X155591588Y-121446557D01*
X155793757Y-121512246D01*
X156003713Y-121545500D01*
X156003714Y-121545500D01*
X156216286Y-121545500D01*
X156216287Y-121545500D01*
X156426243Y-121512246D01*
X156628412Y-121446557D01*
X156817816Y-121350051D01*
X156904138Y-121287335D01*
X156989786Y-121225109D01*
X156989788Y-121225106D01*
X156989792Y-121225104D01*
X157140104Y-121074792D01*
X157140106Y-121074788D01*
X157140109Y-121074786D01*
X157265048Y-120902820D01*
X157265047Y-120902820D01*
X157265051Y-120902816D01*
X157269514Y-120894054D01*
X157317488Y-120843259D01*
X157385308Y-120826463D01*
X157451444Y-120848999D01*
X157490486Y-120894056D01*
X157494951Y-120902820D01*
X157619890Y-121074786D01*
X157770213Y-121225109D01*
X157942179Y-121350048D01*
X157942181Y-121350049D01*
X157942184Y-121350051D01*
X158131588Y-121446557D01*
X158333757Y-121512246D01*
X158543713Y-121545500D01*
X158543714Y-121545500D01*
X158756286Y-121545500D01*
X158756287Y-121545500D01*
X158966243Y-121512246D01*
X159168412Y-121446557D01*
X159357816Y-121350051D01*
X159444138Y-121287335D01*
X159529786Y-121225109D01*
X159529788Y-121225106D01*
X159529792Y-121225104D01*
X159680104Y-121074792D01*
X159680106Y-121074788D01*
X159680109Y-121074786D01*
X159805048Y-120902820D01*
X159805047Y-120902820D01*
X159805051Y-120902816D01*
X159809514Y-120894054D01*
X159857488Y-120843259D01*
X159925308Y-120826463D01*
X159991444Y-120848999D01*
X160030486Y-120894056D01*
X160034951Y-120902820D01*
X160159890Y-121074786D01*
X160310213Y-121225109D01*
X160482179Y-121350048D01*
X160482181Y-121350049D01*
X160482184Y-121350051D01*
X160671588Y-121446557D01*
X160873757Y-121512246D01*
X161083713Y-121545500D01*
X161083714Y-121545500D01*
X161296286Y-121545500D01*
X161296287Y-121545500D01*
X161506243Y-121512246D01*
X161708412Y-121446557D01*
X161897816Y-121350051D01*
X161984138Y-121287335D01*
X162069786Y-121225109D01*
X162069788Y-121225106D01*
X162069792Y-121225104D01*
X162220104Y-121074792D01*
X162220106Y-121074788D01*
X162220109Y-121074786D01*
X162345048Y-120902820D01*
X162345047Y-120902820D01*
X162345051Y-120902816D01*
X162441557Y-120713412D01*
X162507246Y-120511243D01*
X162540500Y-120301287D01*
X162540500Y-120088713D01*
X162507246Y-119878757D01*
X162441557Y-119676588D01*
X162414721Y-119623920D01*
X166549499Y-119623920D01*
X166578340Y-119768907D01*
X166578343Y-119768917D01*
X166634912Y-119905488D01*
X166634919Y-119905501D01*
X166717048Y-120028415D01*
X166717051Y-120028419D01*
X166821580Y-120132948D01*
X166821584Y-120132951D01*
X166944498Y-120215080D01*
X166944511Y-120215087D01*
X167081082Y-120271656D01*
X167081087Y-120271658D01*
X167081091Y-120271658D01*
X167081092Y-120271659D01*
X167226079Y-120300500D01*
X167226082Y-120300500D01*
X167373920Y-120300500D01*
X167471462Y-120281096D01*
X167518913Y-120271658D01*
X167655495Y-120215084D01*
X167778416Y-120132951D01*
X167882951Y-120028416D01*
X167965084Y-119905495D01*
X168021658Y-119768913D01*
X168050500Y-119623918D01*
X168050500Y-119476082D01*
X168050500Y-119476079D01*
X168050071Y-119473920D01*
X168449499Y-119473920D01*
X168478340Y-119618907D01*
X168478343Y-119618917D01*
X168534912Y-119755488D01*
X168534919Y-119755501D01*
X168617048Y-119878415D01*
X168617051Y-119878419D01*
X168721580Y-119982948D01*
X168721584Y-119982951D01*
X168844498Y-120065080D01*
X168844511Y-120065087D01*
X168981082Y-120121656D01*
X168981087Y-120121658D01*
X168981091Y-120121658D01*
X168981092Y-120121659D01*
X169126079Y-120150500D01*
X169126082Y-120150500D01*
X169273920Y-120150500D01*
X169371462Y-120131096D01*
X169418913Y-120121658D01*
X169555495Y-120065084D01*
X169678416Y-119982951D01*
X169782951Y-119878416D01*
X169865084Y-119755495D01*
X169921658Y-119618913D01*
X169937157Y-119540998D01*
X169950500Y-119473920D01*
X169950500Y-119326079D01*
X169921659Y-119181092D01*
X169921658Y-119181091D01*
X169921658Y-119181087D01*
X169917469Y-119170974D01*
X169865087Y-119044511D01*
X169865080Y-119044498D01*
X169782951Y-118921584D01*
X169782948Y-118921580D01*
X169678419Y-118817051D01*
X169678415Y-118817048D01*
X169555501Y-118734919D01*
X169555488Y-118734912D01*
X169418917Y-118678343D01*
X169418907Y-118678340D01*
X169273920Y-118649500D01*
X169273918Y-118649500D01*
X169126082Y-118649500D01*
X169126080Y-118649500D01*
X168981092Y-118678340D01*
X168981082Y-118678343D01*
X168844511Y-118734912D01*
X168844498Y-118734919D01*
X168721584Y-118817048D01*
X168721580Y-118817051D01*
X168617051Y-118921580D01*
X168617048Y-118921584D01*
X168534919Y-119044498D01*
X168534912Y-119044511D01*
X168478343Y-119181082D01*
X168478340Y-119181092D01*
X168449500Y-119326079D01*
X168449500Y-119326082D01*
X168449500Y-119473918D01*
X168449500Y-119473920D01*
X168449499Y-119473920D01*
X168050071Y-119473920D01*
X168024263Y-119344182D01*
X168024263Y-119344181D01*
X168021659Y-119331094D01*
X168021659Y-119331092D01*
X168021658Y-119331087D01*
X168007592Y-119297128D01*
X167965087Y-119194511D01*
X167965080Y-119194498D01*
X167882951Y-119071584D01*
X167882948Y-119071580D01*
X167778419Y-118967051D01*
X167778415Y-118967048D01*
X167655501Y-118884919D01*
X167655488Y-118884912D01*
X167518917Y-118828343D01*
X167518907Y-118828340D01*
X167373920Y-118799500D01*
X167373918Y-118799500D01*
X167226082Y-118799500D01*
X167226080Y-118799500D01*
X167081092Y-118828340D01*
X167081082Y-118828343D01*
X166944511Y-118884912D01*
X166944498Y-118884919D01*
X166821584Y-118967048D01*
X166821580Y-118967051D01*
X166717051Y-119071580D01*
X166717048Y-119071584D01*
X166634919Y-119194498D01*
X166634912Y-119194511D01*
X166578343Y-119331082D01*
X166578340Y-119331092D01*
X166549500Y-119476079D01*
X166549500Y-119476082D01*
X166549500Y-119623918D01*
X166549500Y-119623920D01*
X166549499Y-119623920D01*
X162414721Y-119623920D01*
X162345051Y-119487184D01*
X162335413Y-119473918D01*
X162220109Y-119315213D01*
X162069786Y-119164890D01*
X161897820Y-119039951D01*
X161708414Y-118943444D01*
X161708413Y-118943443D01*
X161708412Y-118943443D01*
X161506243Y-118877754D01*
X161506241Y-118877753D01*
X161506240Y-118877753D01*
X161344957Y-118852208D01*
X161296287Y-118844500D01*
X161083713Y-118844500D01*
X161035042Y-118852208D01*
X160873760Y-118877753D01*
X160671585Y-118943444D01*
X160482179Y-119039951D01*
X160310213Y-119164890D01*
X160159890Y-119315213D01*
X160034949Y-119487182D01*
X160030484Y-119495946D01*
X159982509Y-119546742D01*
X159914688Y-119563536D01*
X159848553Y-119540998D01*
X159809516Y-119495946D01*
X159805050Y-119487182D01*
X159680109Y-119315213D01*
X159529786Y-119164890D01*
X159357820Y-119039951D01*
X159168414Y-118943444D01*
X159168413Y-118943443D01*
X159168412Y-118943443D01*
X158966243Y-118877754D01*
X158966241Y-118877753D01*
X158966240Y-118877753D01*
X158804957Y-118852208D01*
X158756287Y-118844500D01*
X158543713Y-118844500D01*
X158495042Y-118852208D01*
X158333760Y-118877753D01*
X158131585Y-118943444D01*
X157942179Y-119039951D01*
X157770213Y-119164890D01*
X157619890Y-119315213D01*
X157494949Y-119487182D01*
X157490484Y-119495946D01*
X157442509Y-119546742D01*
X157374688Y-119563536D01*
X157308553Y-119540998D01*
X157269516Y-119495946D01*
X157265050Y-119487182D01*
X157140109Y-119315213D01*
X156989786Y-119164890D01*
X156817820Y-119039951D01*
X156628414Y-118943444D01*
X156628413Y-118943443D01*
X156628412Y-118943443D01*
X156426243Y-118877754D01*
X156426241Y-118877753D01*
X156426240Y-118877753D01*
X156264957Y-118852208D01*
X156216287Y-118844500D01*
X156003713Y-118844500D01*
X155955042Y-118852208D01*
X155793760Y-118877753D01*
X155591585Y-118943444D01*
X155402179Y-119039951D01*
X155230213Y-119164890D01*
X155079890Y-119315213D01*
X154954949Y-119487182D01*
X154950484Y-119495946D01*
X154902509Y-119546742D01*
X154834688Y-119563536D01*
X154768553Y-119540998D01*
X154729516Y-119495946D01*
X154725050Y-119487182D01*
X154600109Y-119315213D01*
X154449786Y-119164890D01*
X154277820Y-119039951D01*
X154088414Y-118943444D01*
X154088413Y-118943443D01*
X154088412Y-118943443D01*
X153886243Y-118877754D01*
X153886241Y-118877753D01*
X153886240Y-118877753D01*
X153724957Y-118852208D01*
X153676287Y-118844500D01*
X153463713Y-118844500D01*
X153415042Y-118852208D01*
X153253760Y-118877753D01*
X153051585Y-118943444D01*
X152862179Y-119039951D01*
X152690213Y-119164890D01*
X152539890Y-119315213D01*
X152414949Y-119487182D01*
X152410484Y-119495946D01*
X152362509Y-119546742D01*
X152294688Y-119563536D01*
X152228553Y-119540998D01*
X152189516Y-119495946D01*
X152185050Y-119487182D01*
X152060109Y-119315213D01*
X151909786Y-119164890D01*
X151737820Y-119039951D01*
X151548414Y-118943444D01*
X151548413Y-118943443D01*
X151548412Y-118943443D01*
X151346243Y-118877754D01*
X151346241Y-118877753D01*
X151346240Y-118877753D01*
X151184957Y-118852208D01*
X151136287Y-118844500D01*
X150923713Y-118844500D01*
X150875042Y-118852208D01*
X150713760Y-118877753D01*
X150511585Y-118943444D01*
X150322179Y-119039951D01*
X150150213Y-119164890D01*
X149999890Y-119315213D01*
X149874949Y-119487182D01*
X149870484Y-119495946D01*
X149822509Y-119546742D01*
X149754688Y-119563536D01*
X149688553Y-119540998D01*
X149649516Y-119495946D01*
X149645050Y-119487182D01*
X149520109Y-119315213D01*
X149369786Y-119164890D01*
X149197820Y-119039951D01*
X149008414Y-118943444D01*
X149008413Y-118943443D01*
X149008412Y-118943443D01*
X148806243Y-118877754D01*
X148806241Y-118877753D01*
X148806240Y-118877753D01*
X148644957Y-118852208D01*
X148596287Y-118844500D01*
X148383713Y-118844500D01*
X148335042Y-118852208D01*
X148173760Y-118877753D01*
X147971585Y-118943444D01*
X147782179Y-119039951D01*
X147610213Y-119164890D01*
X147459890Y-119315213D01*
X147334949Y-119487182D01*
X147330484Y-119495946D01*
X147282509Y-119546742D01*
X147214688Y-119563536D01*
X147148553Y-119540998D01*
X147109516Y-119495946D01*
X147105050Y-119487182D01*
X146980109Y-119315213D01*
X146829786Y-119164890D01*
X146657820Y-119039951D01*
X146468414Y-118943444D01*
X146468413Y-118943443D01*
X146468412Y-118943443D01*
X146266243Y-118877754D01*
X146266241Y-118877753D01*
X146266240Y-118877753D01*
X146104957Y-118852208D01*
X146056287Y-118844500D01*
X145843713Y-118844500D01*
X145795042Y-118852208D01*
X145633760Y-118877753D01*
X145431585Y-118943444D01*
X145242179Y-119039951D01*
X145070215Y-119164889D01*
X144956673Y-119278431D01*
X144895350Y-119311915D01*
X144825658Y-119306931D01*
X144769725Y-119265059D01*
X144752810Y-119234082D01*
X144703797Y-119102671D01*
X144703793Y-119102664D01*
X144617547Y-118987455D01*
X144617544Y-118987452D01*
X144502335Y-118901206D01*
X144502328Y-118901202D01*
X144367482Y-118850908D01*
X144367483Y-118850908D01*
X144307883Y-118844501D01*
X144307881Y-118844500D01*
X144307873Y-118844500D01*
X144307864Y-118844500D01*
X142512129Y-118844500D01*
X142512123Y-118844501D01*
X142452516Y-118850908D01*
X142317671Y-118901202D01*
X142317664Y-118901206D01*
X142202455Y-118987452D01*
X142123905Y-119092381D01*
X142067971Y-119134251D01*
X141998279Y-119139235D01*
X141936957Y-119105749D01*
X141919645Y-119084041D01*
X141863907Y-118995335D01*
X141683916Y-118769634D01*
X140365270Y-120088281D01*
X140279722Y-119970534D01*
X140129466Y-119820278D01*
X140011716Y-119734728D01*
X141330364Y-118416081D01*
X141104664Y-118236092D01*
X140800336Y-118044870D01*
X140476517Y-117888927D01*
X140176423Y-117783920D01*
X161009499Y-117783920D01*
X161038340Y-117928907D01*
X161038343Y-117928917D01*
X161094912Y-118065488D01*
X161094919Y-118065501D01*
X161177048Y-118188415D01*
X161177051Y-118188419D01*
X161281580Y-118292948D01*
X161281584Y-118292951D01*
X161404498Y-118375080D01*
X161404511Y-118375087D01*
X161541082Y-118431656D01*
X161541087Y-118431658D01*
X161541091Y-118431658D01*
X161541092Y-118431659D01*
X161686079Y-118460500D01*
X161686082Y-118460500D01*
X161833920Y-118460500D01*
X161931462Y-118441096D01*
X161978913Y-118431658D01*
X162115495Y-118375084D01*
X162238416Y-118292951D01*
X162342951Y-118188416D01*
X162425084Y-118065495D01*
X162481658Y-117928913D01*
X162510500Y-117783918D01*
X162510500Y-117636082D01*
X162510500Y-117636079D01*
X162481659Y-117491092D01*
X162481658Y-117491091D01*
X162481658Y-117491087D01*
X162442369Y-117396235D01*
X162425087Y-117354511D01*
X162425080Y-117354498D01*
X162342951Y-117231584D01*
X162342948Y-117231580D01*
X162238419Y-117127051D01*
X162238415Y-117127048D01*
X162115501Y-117044919D01*
X162115488Y-117044912D01*
X161978917Y-116988343D01*
X161978907Y-116988340D01*
X161833920Y-116959500D01*
X161833918Y-116959500D01*
X161686082Y-116959500D01*
X161686080Y-116959500D01*
X161541092Y-116988340D01*
X161541082Y-116988343D01*
X161404511Y-117044912D01*
X161404498Y-117044919D01*
X161281584Y-117127048D01*
X161281580Y-117127051D01*
X161177051Y-117231580D01*
X161177048Y-117231584D01*
X161094919Y-117354498D01*
X161094912Y-117354511D01*
X161038343Y-117491082D01*
X161038340Y-117491092D01*
X161009500Y-117636079D01*
X161009500Y-117636082D01*
X161009500Y-117783918D01*
X161009500Y-117783920D01*
X161009499Y-117783920D01*
X140176423Y-117783920D01*
X140137270Y-117770220D01*
X140137268Y-117770219D01*
X140052540Y-117750881D01*
X139786863Y-117690242D01*
X139786851Y-117690240D01*
X139429712Y-117650000D01*
X139070287Y-117650000D01*
X138713148Y-117690240D01*
X138713136Y-117690242D01*
X138362731Y-117770219D01*
X138362729Y-117770220D01*
X138023482Y-117888927D01*
X137699663Y-118044870D01*
X137395335Y-118236092D01*
X137169634Y-118416081D01*
X138488282Y-119734729D01*
X138370534Y-119820278D01*
X138220278Y-119970534D01*
X138134729Y-120088282D01*
X136816081Y-118769634D01*
X136636092Y-118995335D01*
X136543678Y-119142410D01*
X136491343Y-119188701D01*
X136422289Y-119199349D01*
X136358441Y-119170974D01*
X136320069Y-119112584D01*
X136314684Y-119076558D01*
X136309724Y-113673920D01*
X146199499Y-113673920D01*
X146228340Y-113818907D01*
X146228343Y-113818917D01*
X146284912Y-113955488D01*
X146284919Y-113955501D01*
X146367048Y-114078415D01*
X146367051Y-114078419D01*
X146471580Y-114182948D01*
X146471584Y-114182951D01*
X146594498Y-114265080D01*
X146594511Y-114265087D01*
X146715206Y-114315080D01*
X146731087Y-114321658D01*
X146731091Y-114321658D01*
X146731092Y-114321659D01*
X146876079Y-114350500D01*
X146876082Y-114350500D01*
X147023920Y-114350500D01*
X147121462Y-114331096D01*
X147168913Y-114321658D01*
X147305495Y-114265084D01*
X147428416Y-114182951D01*
X147532951Y-114078416D01*
X147615084Y-113955495D01*
X147671658Y-113818913D01*
X147690554Y-113723920D01*
X149999499Y-113723920D01*
X150028340Y-113868907D01*
X150028343Y-113868917D01*
X150084912Y-114005488D01*
X150084919Y-114005501D01*
X150167048Y-114128415D01*
X150167051Y-114128419D01*
X150271580Y-114232948D01*
X150271584Y-114232951D01*
X150394498Y-114315080D01*
X150394511Y-114315087D01*
X150497669Y-114357816D01*
X150531087Y-114371658D01*
X150531091Y-114371658D01*
X150531092Y-114371659D01*
X150676079Y-114400500D01*
X150676082Y-114400500D01*
X150823920Y-114400500D01*
X150921462Y-114381096D01*
X150968913Y-114371658D01*
X151105495Y-114315084D01*
X151228416Y-114232951D01*
X151332951Y-114128416D01*
X151415084Y-114005495D01*
X151471658Y-113868913D01*
X151491052Y-113771417D01*
X151500500Y-113723920D01*
X151500500Y-113626420D01*
X160749499Y-113626420D01*
X160778340Y-113771407D01*
X160778343Y-113771417D01*
X160834912Y-113907988D01*
X160834919Y-113908001D01*
X160917048Y-114030915D01*
X160917051Y-114030919D01*
X161021580Y-114135448D01*
X161021584Y-114135451D01*
X161144498Y-114217580D01*
X161144511Y-114217587D01*
X161281082Y-114274156D01*
X161281087Y-114274158D01*
X161281091Y-114274158D01*
X161281092Y-114274159D01*
X161426079Y-114303000D01*
X161426082Y-114303000D01*
X161573920Y-114303000D01*
X161674724Y-114282948D01*
X161718913Y-114274158D01*
X161855495Y-114217584D01*
X161978416Y-114135451D01*
X162082951Y-114030916D01*
X162165084Y-113907995D01*
X162220620Y-113773920D01*
X165249499Y-113773920D01*
X165278340Y-113918907D01*
X165278343Y-113918917D01*
X165334912Y-114055488D01*
X165334919Y-114055501D01*
X165417048Y-114178415D01*
X165417051Y-114178419D01*
X165521580Y-114282948D01*
X165521584Y-114282951D01*
X165644498Y-114365080D01*
X165644511Y-114365087D01*
X165754999Y-114410852D01*
X165781087Y-114421658D01*
X165781091Y-114421658D01*
X165781092Y-114421659D01*
X165926079Y-114450500D01*
X165926082Y-114450500D01*
X166073920Y-114450500D01*
X166171462Y-114431096D01*
X166218913Y-114421658D01*
X166355495Y-114365084D01*
X166478416Y-114282951D01*
X166582951Y-114178416D01*
X166665084Y-114055495D01*
X166721658Y-113918913D01*
X166750500Y-113773918D01*
X166750500Y-113626082D01*
X166750500Y-113626079D01*
X166730178Y-113523920D01*
X168649499Y-113523920D01*
X168678340Y-113668907D01*
X168678343Y-113668917D01*
X168734912Y-113805488D01*
X168734919Y-113805501D01*
X168817048Y-113928415D01*
X168817051Y-113928419D01*
X168921580Y-114032948D01*
X168921584Y-114032951D01*
X169044498Y-114115080D01*
X169044511Y-114115087D01*
X169093675Y-114135451D01*
X169181087Y-114171658D01*
X169181091Y-114171658D01*
X169181092Y-114171659D01*
X169326079Y-114200500D01*
X169326082Y-114200500D01*
X169473920Y-114200500D01*
X169584944Y-114178415D01*
X169618913Y-114171658D01*
X169750751Y-114117049D01*
X169755488Y-114115087D01*
X169755488Y-114115086D01*
X169755495Y-114115084D01*
X169878416Y-114032951D01*
X169982951Y-113928416D01*
X170065084Y-113805495D01*
X170121658Y-113668913D01*
X170140124Y-113576079D01*
X170150500Y-113523920D01*
X170150500Y-113376079D01*
X170121659Y-113231092D01*
X170121658Y-113231091D01*
X170121658Y-113231087D01*
X170097011Y-113171584D01*
X170065087Y-113094511D01*
X170065080Y-113094498D01*
X169982951Y-112971584D01*
X169982948Y-112971580D01*
X169878419Y-112867051D01*
X169878415Y-112867048D01*
X169755501Y-112784919D01*
X169755488Y-112784912D01*
X169618917Y-112728343D01*
X169618907Y-112728340D01*
X169473920Y-112699500D01*
X169473918Y-112699500D01*
X169326082Y-112699500D01*
X169326080Y-112699500D01*
X169181092Y-112728340D01*
X169181082Y-112728343D01*
X169044511Y-112784912D01*
X169044498Y-112784919D01*
X168921584Y-112867048D01*
X168921580Y-112867051D01*
X168817051Y-112971580D01*
X168817048Y-112971584D01*
X168734919Y-113094498D01*
X168734912Y-113094511D01*
X168678343Y-113231082D01*
X168678340Y-113231092D01*
X168649500Y-113376079D01*
X168649500Y-113376082D01*
X168649500Y-113523918D01*
X168649500Y-113523920D01*
X168649499Y-113523920D01*
X166730178Y-113523920D01*
X166721659Y-113481092D01*
X166721658Y-113481091D01*
X166721658Y-113481087D01*
X166720619Y-113478579D01*
X166695296Y-113417442D01*
X166665085Y-113344507D01*
X166665080Y-113344498D01*
X166582951Y-113221584D01*
X166582948Y-113221580D01*
X166478419Y-113117051D01*
X166478415Y-113117048D01*
X166355501Y-113034919D01*
X166355488Y-113034912D01*
X166218917Y-112978343D01*
X166218907Y-112978340D01*
X166073920Y-112949500D01*
X166073918Y-112949500D01*
X165926082Y-112949500D01*
X165926080Y-112949500D01*
X165781092Y-112978340D01*
X165781082Y-112978343D01*
X165644511Y-113034912D01*
X165644498Y-113034919D01*
X165521584Y-113117048D01*
X165521580Y-113117051D01*
X165417051Y-113221580D01*
X165417048Y-113221584D01*
X165334919Y-113344498D01*
X165334912Y-113344511D01*
X165278343Y-113481082D01*
X165278340Y-113481092D01*
X165249500Y-113626079D01*
X165249500Y-113626082D01*
X165249500Y-113773918D01*
X165249500Y-113773920D01*
X165249499Y-113773920D01*
X162220620Y-113773920D01*
X162221658Y-113771413D01*
X162241051Y-113673920D01*
X162250500Y-113626420D01*
X162250500Y-113478579D01*
X162221659Y-113333592D01*
X162221658Y-113333591D01*
X162221658Y-113333587D01*
X162184759Y-113244505D01*
X162165087Y-113197011D01*
X162165080Y-113196998D01*
X162082951Y-113074084D01*
X162082948Y-113074080D01*
X161978419Y-112969551D01*
X161978415Y-112969548D01*
X161855501Y-112887419D01*
X161855488Y-112887412D01*
X161718917Y-112830843D01*
X161718907Y-112830840D01*
X161573920Y-112802000D01*
X161573918Y-112802000D01*
X161426082Y-112802000D01*
X161426080Y-112802000D01*
X161281092Y-112830840D01*
X161281082Y-112830843D01*
X161144511Y-112887412D01*
X161144498Y-112887419D01*
X161021584Y-112969548D01*
X161021580Y-112969551D01*
X160917051Y-113074080D01*
X160917048Y-113074084D01*
X160834919Y-113196998D01*
X160834912Y-113197011D01*
X160778343Y-113333582D01*
X160778340Y-113333592D01*
X160749500Y-113478579D01*
X160749500Y-113478582D01*
X160749500Y-113626418D01*
X160749500Y-113626420D01*
X160749499Y-113626420D01*
X151500500Y-113626420D01*
X151500500Y-113576079D01*
X151484706Y-113496682D01*
X151484706Y-113496681D01*
X151471659Y-113431094D01*
X151471659Y-113431092D01*
X151471658Y-113431087D01*
X151466006Y-113417442D01*
X151415087Y-113294511D01*
X151415080Y-113294498D01*
X151332951Y-113171584D01*
X151332948Y-113171580D01*
X151228419Y-113067051D01*
X151228415Y-113067048D01*
X151105501Y-112984919D01*
X151105488Y-112984912D01*
X150968917Y-112928343D01*
X150968907Y-112928340D01*
X150823920Y-112899500D01*
X150823918Y-112899500D01*
X150676082Y-112899500D01*
X150676080Y-112899500D01*
X150531092Y-112928340D01*
X150531082Y-112928343D01*
X150394511Y-112984912D01*
X150394498Y-112984919D01*
X150271584Y-113067048D01*
X150271580Y-113067051D01*
X150167051Y-113171580D01*
X150167048Y-113171584D01*
X150084919Y-113294498D01*
X150084912Y-113294511D01*
X150028343Y-113431082D01*
X150028340Y-113431092D01*
X149999500Y-113576079D01*
X149999500Y-113576082D01*
X149999500Y-113723918D01*
X149999500Y-113723920D01*
X149999499Y-113723920D01*
X147690554Y-113723920D01*
X147700500Y-113673918D01*
X147700500Y-113526082D01*
X147700500Y-113526079D01*
X147671659Y-113381092D01*
X147671658Y-113381091D01*
X147671658Y-113381087D01*
X147656505Y-113344505D01*
X147615087Y-113244511D01*
X147615080Y-113244498D01*
X147532951Y-113121584D01*
X147532948Y-113121580D01*
X147499049Y-113087681D01*
X147465564Y-113026358D01*
X147470548Y-112956666D01*
X147499049Y-112912319D01*
X147582948Y-112828419D01*
X147582951Y-112828416D01*
X147665084Y-112705495D01*
X147721658Y-112568913D01*
X147746309Y-112444989D01*
X147750500Y-112423920D01*
X147750500Y-112276079D01*
X147721659Y-112131092D01*
X147721658Y-112131091D01*
X147721658Y-112131087D01*
X147693494Y-112063092D01*
X147665087Y-111994511D01*
X147665080Y-111994498D01*
X147582951Y-111871584D01*
X147582948Y-111871580D01*
X147549049Y-111837681D01*
X147548895Y-111837400D01*
X147548613Y-111837244D01*
X147532125Y-111806687D01*
X147515564Y-111776358D01*
X147515586Y-111776037D01*
X147515434Y-111775754D01*
X147517869Y-111743920D01*
X164799499Y-111743920D01*
X164828340Y-111888907D01*
X164828343Y-111888917D01*
X164884912Y-112025488D01*
X164884919Y-112025501D01*
X164967048Y-112148415D01*
X164967051Y-112148419D01*
X165071580Y-112252948D01*
X165071584Y-112252951D01*
X165194498Y-112335080D01*
X165194511Y-112335087D01*
X165331082Y-112391656D01*
X165331087Y-112391658D01*
X165331091Y-112391658D01*
X165331092Y-112391659D01*
X165476079Y-112420500D01*
X165476082Y-112420500D01*
X165623920Y-112420500D01*
X165726976Y-112400000D01*
X165768913Y-112391658D01*
X165905495Y-112335084D01*
X166028416Y-112252951D01*
X166132951Y-112148416D01*
X166215084Y-112025495D01*
X166271658Y-111888913D01*
X166288014Y-111806687D01*
X166300500Y-111743920D01*
X166300500Y-111596079D01*
X166271659Y-111451092D01*
X166271658Y-111451091D01*
X166271658Y-111451087D01*
X166237622Y-111368917D01*
X166215087Y-111314511D01*
X166215080Y-111314498D01*
X166132951Y-111191584D01*
X166132948Y-111191580D01*
X166028419Y-111087051D01*
X166028415Y-111087048D01*
X165905501Y-111004919D01*
X165905488Y-111004912D01*
X165768917Y-110948343D01*
X165768907Y-110948340D01*
X165623920Y-110919500D01*
X165623918Y-110919500D01*
X165476082Y-110919500D01*
X165476080Y-110919500D01*
X165331092Y-110948340D01*
X165331082Y-110948343D01*
X165194511Y-111004912D01*
X165194498Y-111004919D01*
X165071584Y-111087048D01*
X165071580Y-111087051D01*
X164967051Y-111191580D01*
X164967048Y-111191584D01*
X164884919Y-111314498D01*
X164884912Y-111314511D01*
X164828343Y-111451082D01*
X164828340Y-111451092D01*
X164799500Y-111596079D01*
X164799500Y-111596082D01*
X164799500Y-111743918D01*
X164799500Y-111743920D01*
X164799499Y-111743920D01*
X147517869Y-111743920D01*
X147518080Y-111741167D01*
X147520548Y-111706666D01*
X147520748Y-111706300D01*
X147520765Y-111706088D01*
X147521434Y-111705051D01*
X147537834Y-111675196D01*
X147542997Y-111668369D01*
X147582951Y-111628416D01*
X147665084Y-111505495D01*
X147721658Y-111368913D01*
X147731096Y-111321462D01*
X147750500Y-111223920D01*
X147750500Y-111076079D01*
X147721659Y-110931092D01*
X147721658Y-110931091D01*
X147721658Y-110931087D01*
X147700754Y-110880620D01*
X147665087Y-110794511D01*
X147665080Y-110794498D01*
X147582951Y-110671584D01*
X147582948Y-110671580D01*
X147510407Y-110599039D01*
X160707518Y-110599039D01*
X160736359Y-110744026D01*
X160736362Y-110744036D01*
X160792931Y-110880607D01*
X160792938Y-110880620D01*
X160875067Y-111003534D01*
X160875070Y-111003538D01*
X160979599Y-111108067D01*
X160979603Y-111108070D01*
X161102517Y-111190199D01*
X161102530Y-111190206D01*
X161183919Y-111223918D01*
X161239106Y-111246777D01*
X161239110Y-111246777D01*
X161239111Y-111246778D01*
X161384098Y-111275619D01*
X161384101Y-111275619D01*
X161531939Y-111275619D01*
X161629481Y-111256215D01*
X161676932Y-111246777D01*
X161813514Y-111190203D01*
X161936435Y-111108070D01*
X162040970Y-111003535D01*
X162123103Y-110880614D01*
X162179677Y-110744032D01*
X162202045Y-110631585D01*
X162208519Y-110599039D01*
X162208519Y-110529342D01*
X162210643Y-110522106D01*
X162209390Y-110514670D01*
X162220352Y-110489042D01*
X162228204Y-110462303D01*
X162234588Y-110455762D01*
X162236869Y-110450430D01*
X162261713Y-110427971D01*
X162262975Y-110426679D01*
X162263197Y-110426527D01*
X162328416Y-110382951D01*
X162330281Y-110381085D01*
X162337324Y-110376315D01*
X162365384Y-110367332D01*
X162392493Y-110355814D01*
X162398277Y-110356803D01*
X162403868Y-110355014D01*
X162432326Y-110362627D01*
X162461363Y-110367594D01*
X162470465Y-110372830D01*
X162471364Y-110373071D01*
X162471891Y-110373651D01*
X162475755Y-110375873D01*
X162504505Y-110395084D01*
X162504508Y-110395085D01*
X162504509Y-110395086D01*
X162638122Y-110450430D01*
X162641087Y-110451658D01*
X162641091Y-110451658D01*
X162641092Y-110451659D01*
X162786079Y-110480500D01*
X162786082Y-110480500D01*
X162933920Y-110480500D01*
X163058281Y-110455762D01*
X163078913Y-110451658D01*
X163215495Y-110395084D01*
X163322000Y-110323920D01*
X171661999Y-110323920D01*
X171690840Y-110468907D01*
X171690843Y-110468917D01*
X171747412Y-110605488D01*
X171747419Y-110605501D01*
X171829548Y-110728415D01*
X171829551Y-110728419D01*
X171934080Y-110832948D01*
X171934084Y-110832951D01*
X172056998Y-110915080D01*
X172057011Y-110915087D01*
X172137299Y-110948343D01*
X172193587Y-110971658D01*
X172193591Y-110971658D01*
X172193592Y-110971659D01*
X172338579Y-111000500D01*
X172338582Y-111000500D01*
X172486420Y-111000500D01*
X172583962Y-110981096D01*
X172631413Y-110971658D01*
X172767995Y-110915084D01*
X172890916Y-110832951D01*
X172995451Y-110728416D01*
X173077584Y-110605495D01*
X173134158Y-110468913D01*
X173143596Y-110421462D01*
X173163000Y-110323920D01*
X176649499Y-110323920D01*
X176678340Y-110468907D01*
X176678343Y-110468917D01*
X176734912Y-110605488D01*
X176734919Y-110605501D01*
X176817048Y-110728415D01*
X176817051Y-110728419D01*
X176921580Y-110832948D01*
X176921584Y-110832951D01*
X177044498Y-110915080D01*
X177044511Y-110915087D01*
X177124799Y-110948343D01*
X177181087Y-110971658D01*
X177181091Y-110971658D01*
X177181092Y-110971659D01*
X177326079Y-111000500D01*
X177326082Y-111000500D01*
X177473920Y-111000500D01*
X177571462Y-110981096D01*
X177618913Y-110971658D01*
X177755495Y-110915084D01*
X177878416Y-110832951D01*
X177982951Y-110728416D01*
X178065084Y-110605495D01*
X178121658Y-110468913D01*
X178131096Y-110421462D01*
X178150500Y-110323920D01*
X178150500Y-110176079D01*
X178121659Y-110031092D01*
X178121658Y-110031091D01*
X178121658Y-110031087D01*
X178087622Y-109948917D01*
X178065087Y-109894511D01*
X178065080Y-109894498D01*
X177982951Y-109771584D01*
X177982948Y-109771580D01*
X177878419Y-109667051D01*
X177878415Y-109667048D01*
X177755501Y-109584919D01*
X177755488Y-109584912D01*
X177618917Y-109528343D01*
X177618907Y-109528340D01*
X177473920Y-109499500D01*
X177473918Y-109499500D01*
X177326082Y-109499500D01*
X177326080Y-109499500D01*
X177181092Y-109528340D01*
X177181082Y-109528343D01*
X177044511Y-109584912D01*
X177044498Y-109584919D01*
X176921584Y-109667048D01*
X176921580Y-109667051D01*
X176817051Y-109771580D01*
X176817048Y-109771584D01*
X176734919Y-109894498D01*
X176734912Y-109894511D01*
X176678343Y-110031082D01*
X176678340Y-110031092D01*
X176649500Y-110176079D01*
X176649500Y-110176082D01*
X176649500Y-110323918D01*
X176649500Y-110323920D01*
X176649499Y-110323920D01*
X173163000Y-110323920D01*
X173163000Y-110176079D01*
X173134159Y-110031092D01*
X173134158Y-110031091D01*
X173134158Y-110031087D01*
X173100122Y-109948917D01*
X173077587Y-109894511D01*
X173077580Y-109894498D01*
X172995451Y-109771584D01*
X172995448Y-109771580D01*
X172890919Y-109667051D01*
X172890915Y-109667048D01*
X172768001Y-109584919D01*
X172767988Y-109584912D01*
X172631417Y-109528343D01*
X172631407Y-109528340D01*
X172486420Y-109499500D01*
X172486418Y-109499500D01*
X172338582Y-109499500D01*
X172338580Y-109499500D01*
X172193592Y-109528340D01*
X172193582Y-109528343D01*
X172057011Y-109584912D01*
X172056998Y-109584919D01*
X171934084Y-109667048D01*
X171934080Y-109667051D01*
X171829551Y-109771580D01*
X171829548Y-109771584D01*
X171747419Y-109894498D01*
X171747412Y-109894511D01*
X171690843Y-110031082D01*
X171690840Y-110031092D01*
X171662000Y-110176079D01*
X171662000Y-110176082D01*
X171662000Y-110323918D01*
X171662000Y-110323920D01*
X171661999Y-110323920D01*
X163322000Y-110323920D01*
X163338416Y-110312951D01*
X163442951Y-110208416D01*
X163525084Y-110085495D01*
X163581658Y-109948913D01*
X163591697Y-109898443D01*
X163610500Y-109803920D01*
X163610500Y-109656079D01*
X163581659Y-109511092D01*
X163581658Y-109511091D01*
X163581658Y-109511087D01*
X163576859Y-109499500D01*
X163525087Y-109374511D01*
X163525080Y-109374498D01*
X163442951Y-109251584D01*
X163442948Y-109251580D01*
X163386111Y-109194743D01*
X163352626Y-109133420D01*
X163357610Y-109063728D01*
X163399482Y-109007795D01*
X163449597Y-108985446D01*
X163518913Y-108971658D01*
X163624547Y-108927902D01*
X163655488Y-108915087D01*
X163655488Y-108915086D01*
X163655495Y-108915084D01*
X163778416Y-108832951D01*
X163882951Y-108728416D01*
X163965084Y-108605495D01*
X164016343Y-108481743D01*
X164060183Y-108427340D01*
X164083438Y-108414641D01*
X164205495Y-108364084D01*
X164328416Y-108281951D01*
X164432951Y-108177416D01*
X164515084Y-108054495D01*
X164571658Y-107917913D01*
X164579414Y-107878920D01*
X164904499Y-107878920D01*
X164933340Y-108023907D01*
X164933343Y-108023917D01*
X164989912Y-108160488D01*
X164989919Y-108160501D01*
X165072048Y-108283415D01*
X165072051Y-108283419D01*
X165176580Y-108387948D01*
X165176584Y-108387951D01*
X165299498Y-108470080D01*
X165299511Y-108470087D01*
X165436082Y-108526656D01*
X165436087Y-108526658D01*
X165436091Y-108526658D01*
X165436092Y-108526659D01*
X165581079Y-108555500D01*
X165581082Y-108555500D01*
X165728920Y-108555500D01*
X165837405Y-108533920D01*
X176749499Y-108533920D01*
X176778340Y-108678907D01*
X176778343Y-108678917D01*
X176834912Y-108815488D01*
X176834919Y-108815501D01*
X176917048Y-108938415D01*
X176917051Y-108938419D01*
X177021580Y-109042948D01*
X177021584Y-109042951D01*
X177144498Y-109125080D01*
X177144511Y-109125087D01*
X177281082Y-109181656D01*
X177281087Y-109181658D01*
X177281091Y-109181658D01*
X177281092Y-109181659D01*
X177426079Y-109210500D01*
X177426082Y-109210500D01*
X177573920Y-109210500D01*
X177671462Y-109191096D01*
X177718913Y-109181658D01*
X177855495Y-109125084D01*
X177978416Y-109042951D01*
X178082951Y-108938416D01*
X178165084Y-108815495D01*
X178221658Y-108678913D01*
X178236262Y-108605495D01*
X178250500Y-108533920D01*
X178250500Y-108386079D01*
X178221659Y-108241092D01*
X178221658Y-108241091D01*
X178221658Y-108241087D01*
X178206505Y-108204505D01*
X178165087Y-108104511D01*
X178165080Y-108104498D01*
X178082951Y-107981584D01*
X178082948Y-107981580D01*
X177978419Y-107877051D01*
X177978415Y-107877048D01*
X177855501Y-107794919D01*
X177855488Y-107794912D01*
X177718917Y-107738343D01*
X177718907Y-107738340D01*
X177573920Y-107709500D01*
X177573918Y-107709500D01*
X177426082Y-107709500D01*
X177426080Y-107709500D01*
X177281092Y-107738340D01*
X177281082Y-107738343D01*
X177144511Y-107794912D01*
X177144498Y-107794919D01*
X177021584Y-107877048D01*
X177021580Y-107877051D01*
X176917051Y-107981580D01*
X176917048Y-107981584D01*
X176834919Y-108104498D01*
X176834912Y-108104511D01*
X176778343Y-108241082D01*
X176778340Y-108241092D01*
X176749500Y-108386079D01*
X176749500Y-108386082D01*
X176749500Y-108533918D01*
X176749500Y-108533920D01*
X176749499Y-108533920D01*
X165837405Y-108533920D01*
X165837415Y-108533918D01*
X165873913Y-108526658D01*
X166010495Y-108470084D01*
X166133416Y-108387951D01*
X166180285Y-108341082D01*
X166229059Y-108292309D01*
X166237948Y-108283419D01*
X166237951Y-108283416D01*
X166320084Y-108160495D01*
X166376658Y-108023913D01*
X166386096Y-107976462D01*
X166405500Y-107878920D01*
X166405500Y-107731079D01*
X166376659Y-107586092D01*
X166376658Y-107586091D01*
X166376658Y-107586087D01*
X166357603Y-107540084D01*
X166320087Y-107449511D01*
X166320080Y-107449498D01*
X166237951Y-107326584D01*
X166237948Y-107326580D01*
X166133419Y-107222051D01*
X166133415Y-107222048D01*
X166010501Y-107139919D01*
X166010488Y-107139912D01*
X165873917Y-107083343D01*
X165873907Y-107083340D01*
X165728920Y-107054500D01*
X165728918Y-107054500D01*
X165581082Y-107054500D01*
X165581080Y-107054500D01*
X165436092Y-107083340D01*
X165436082Y-107083343D01*
X165299511Y-107139912D01*
X165299498Y-107139919D01*
X165176584Y-107222048D01*
X165176580Y-107222051D01*
X165072051Y-107326580D01*
X165072048Y-107326584D01*
X164989919Y-107449498D01*
X164989912Y-107449511D01*
X164933343Y-107586082D01*
X164933340Y-107586092D01*
X164904500Y-107731079D01*
X164904500Y-107731082D01*
X164904500Y-107878918D01*
X164904500Y-107878920D01*
X164904499Y-107878920D01*
X164579414Y-107878920D01*
X164587486Y-107838342D01*
X164600500Y-107772920D01*
X164600500Y-107625079D01*
X164571659Y-107480092D01*
X164571658Y-107480091D01*
X164571658Y-107480087D01*
X164519191Y-107353419D01*
X164515087Y-107343511D01*
X164515080Y-107343498D01*
X164432951Y-107220584D01*
X164432948Y-107220580D01*
X164328419Y-107116051D01*
X164328415Y-107116048D01*
X164205501Y-107033919D01*
X164205488Y-107033912D01*
X164068917Y-106977343D01*
X164068907Y-106977340D01*
X163923920Y-106948500D01*
X163923918Y-106948500D01*
X163776082Y-106948500D01*
X163776080Y-106948500D01*
X163631092Y-106977340D01*
X163631082Y-106977343D01*
X163494511Y-107033912D01*
X163494498Y-107033919D01*
X163371584Y-107116048D01*
X163371580Y-107116051D01*
X163267051Y-107220580D01*
X163267048Y-107220584D01*
X163184919Y-107343498D01*
X163184914Y-107343507D01*
X163133657Y-107467255D01*
X163089816Y-107521658D01*
X163066549Y-107534363D01*
X162944508Y-107584914D01*
X162944498Y-107584919D01*
X162821584Y-107667048D01*
X162821580Y-107667051D01*
X162717051Y-107771580D01*
X162717048Y-107771584D01*
X162634919Y-107894498D01*
X162634912Y-107894511D01*
X162578343Y-108031082D01*
X162578340Y-108031092D01*
X162549500Y-108176079D01*
X162549500Y-108176082D01*
X162549500Y-108323918D01*
X162549500Y-108323920D01*
X162549499Y-108323920D01*
X162578340Y-108468907D01*
X162578343Y-108468917D01*
X162634912Y-108605488D01*
X162634919Y-108605501D01*
X162717048Y-108728415D01*
X162717051Y-108728419D01*
X162773888Y-108785256D01*
X162807373Y-108846579D01*
X162802389Y-108916271D01*
X162760517Y-108972204D01*
X162710399Y-108994554D01*
X162641092Y-109008340D01*
X162641082Y-109008343D01*
X162504511Y-109064912D01*
X162504498Y-109064919D01*
X162376519Y-109150433D01*
X162375834Y-109149408D01*
X162317476Y-109174188D01*
X162248610Y-109162392D01*
X162234242Y-109154124D01*
X162217516Y-109142948D01*
X162205497Y-109134917D01*
X162205488Y-109134912D01*
X162068917Y-109078343D01*
X162068907Y-109078340D01*
X161923920Y-109049500D01*
X161923918Y-109049500D01*
X161776082Y-109049500D01*
X161776080Y-109049500D01*
X161631092Y-109078340D01*
X161631082Y-109078343D01*
X161494511Y-109134912D01*
X161494498Y-109134919D01*
X161371584Y-109217048D01*
X161371580Y-109217051D01*
X161267051Y-109321580D01*
X161267048Y-109321584D01*
X161184919Y-109444498D01*
X161184912Y-109444511D01*
X161128343Y-109581082D01*
X161128340Y-109581092D01*
X161099500Y-109726079D01*
X161099500Y-109795775D01*
X161079815Y-109862814D01*
X161044391Y-109898877D01*
X160979603Y-109942167D01*
X160979599Y-109942170D01*
X160875070Y-110046699D01*
X160875067Y-110046703D01*
X160792938Y-110169617D01*
X160792931Y-110169630D01*
X160736362Y-110306201D01*
X160736359Y-110306211D01*
X160707519Y-110451198D01*
X160707519Y-110451201D01*
X160707519Y-110599037D01*
X160707519Y-110599039D01*
X160707518Y-110599039D01*
X147510407Y-110599039D01*
X147478418Y-110567050D01*
X147450224Y-110548212D01*
X147450223Y-110548211D01*
X147355501Y-110484919D01*
X147355488Y-110484912D01*
X147218917Y-110428343D01*
X147218907Y-110428340D01*
X147073920Y-110399500D01*
X147073918Y-110399500D01*
X146926082Y-110399500D01*
X146926080Y-110399500D01*
X146781092Y-110428340D01*
X146781082Y-110428343D01*
X146644511Y-110484912D01*
X146644498Y-110484919D01*
X146521584Y-110567048D01*
X146521580Y-110567051D01*
X146417051Y-110671580D01*
X146417048Y-110671584D01*
X146334919Y-110794498D01*
X146334912Y-110794511D01*
X146278343Y-110931082D01*
X146278340Y-110931092D01*
X146249500Y-111076079D01*
X146249500Y-111076082D01*
X146249500Y-111223918D01*
X146249500Y-111223920D01*
X146249499Y-111223920D01*
X146278340Y-111368907D01*
X146278343Y-111368917D01*
X146334912Y-111505488D01*
X146334919Y-111505501D01*
X146417048Y-111628415D01*
X146417051Y-111628419D01*
X146450951Y-111662319D01*
X146484436Y-111723642D01*
X146479452Y-111793334D01*
X146450951Y-111837681D01*
X146417051Y-111871580D01*
X146417048Y-111871584D01*
X146334919Y-111994498D01*
X146334912Y-111994511D01*
X146278343Y-112131082D01*
X146278340Y-112131092D01*
X146249500Y-112276079D01*
X146249500Y-112276082D01*
X146249500Y-112423918D01*
X146249500Y-112423920D01*
X146249499Y-112423920D01*
X146278340Y-112568907D01*
X146278343Y-112568917D01*
X146334912Y-112705488D01*
X146334919Y-112705501D01*
X146417048Y-112828415D01*
X146417051Y-112828419D01*
X146450951Y-112862319D01*
X146484436Y-112923642D01*
X146479452Y-112993334D01*
X146450951Y-113037681D01*
X146367051Y-113121580D01*
X146367048Y-113121584D01*
X146284919Y-113244498D01*
X146284912Y-113244511D01*
X146228343Y-113381082D01*
X146228340Y-113381092D01*
X146199500Y-113526079D01*
X146199500Y-113526082D01*
X146199500Y-113673918D01*
X146199500Y-113673920D01*
X146199499Y-113673920D01*
X136309724Y-113673920D01*
X136305097Y-108633920D01*
X142599499Y-108633920D01*
X142628340Y-108778907D01*
X142628343Y-108778917D01*
X142684912Y-108915488D01*
X142684919Y-108915501D01*
X142767048Y-109038415D01*
X142767051Y-109038419D01*
X142871580Y-109142948D01*
X142871584Y-109142951D01*
X142994498Y-109225080D01*
X142994511Y-109225087D01*
X143131082Y-109281656D01*
X143131087Y-109281658D01*
X143131091Y-109281658D01*
X143131092Y-109281659D01*
X143276079Y-109310500D01*
X143276082Y-109310500D01*
X143423920Y-109310500D01*
X143521462Y-109291096D01*
X143568913Y-109281658D01*
X143705495Y-109225084D01*
X143828416Y-109142951D01*
X143932951Y-109038416D01*
X144015084Y-108915495D01*
X144071658Y-108778913D01*
X144100500Y-108633918D01*
X144100500Y-108486082D01*
X144100500Y-108486079D01*
X144071659Y-108341092D01*
X144071658Y-108341091D01*
X144071658Y-108341087D01*
X144064547Y-108323920D01*
X144015087Y-108204511D01*
X144015080Y-108204498D01*
X143932951Y-108081584D01*
X143932948Y-108081580D01*
X143828419Y-107977051D01*
X143828415Y-107977048D01*
X143705501Y-107894919D01*
X143705488Y-107894912D01*
X143568917Y-107838343D01*
X143568907Y-107838340D01*
X143423920Y-107809500D01*
X143423918Y-107809500D01*
X143276082Y-107809500D01*
X143276080Y-107809500D01*
X143131092Y-107838340D01*
X143131082Y-107838343D01*
X142994511Y-107894912D01*
X142994498Y-107894919D01*
X142871584Y-107977048D01*
X142871580Y-107977051D01*
X142767051Y-108081580D01*
X142767048Y-108081584D01*
X142684919Y-108204498D01*
X142684912Y-108204511D01*
X142628343Y-108341082D01*
X142628340Y-108341092D01*
X142599500Y-108486079D01*
X142599500Y-108486082D01*
X142599500Y-108633918D01*
X142599500Y-108633920D01*
X142599499Y-108633920D01*
X136305097Y-108633920D01*
X136303550Y-106948920D01*
X154924499Y-106948920D01*
X154953340Y-107093907D01*
X154953343Y-107093917D01*
X155009912Y-107230488D01*
X155009919Y-107230501D01*
X155092048Y-107353415D01*
X155092051Y-107353419D01*
X155196580Y-107457948D01*
X155196584Y-107457951D01*
X155319498Y-107540080D01*
X155319511Y-107540087D01*
X155427734Y-107584914D01*
X155456087Y-107596658D01*
X155456091Y-107596658D01*
X155456092Y-107596659D01*
X155601079Y-107625500D01*
X155601082Y-107625500D01*
X155748920Y-107625500D01*
X155846462Y-107606096D01*
X155893913Y-107596658D01*
X156030495Y-107540084D01*
X156153416Y-107457951D01*
X156257951Y-107353416D01*
X156340084Y-107230495D01*
X156343583Y-107222049D01*
X156377603Y-107139916D01*
X156396658Y-107093913D01*
X156408593Y-107033912D01*
X156425500Y-106948920D01*
X156425500Y-106801079D01*
X156396659Y-106656092D01*
X156396658Y-106656091D01*
X156396658Y-106656087D01*
X156375699Y-106605488D01*
X156340087Y-106519511D01*
X156340080Y-106519498D01*
X156257951Y-106396584D01*
X156257948Y-106396580D01*
X156153419Y-106292051D01*
X156153415Y-106292048D01*
X156030501Y-106209919D01*
X156030488Y-106209912D01*
X155893917Y-106153343D01*
X155893907Y-106153340D01*
X155748920Y-106124500D01*
X155748918Y-106124500D01*
X155601082Y-106124500D01*
X155601080Y-106124500D01*
X155456092Y-106153340D01*
X155456082Y-106153343D01*
X155319511Y-106209912D01*
X155319498Y-106209919D01*
X155196584Y-106292048D01*
X155196580Y-106292051D01*
X155092051Y-106396580D01*
X155092048Y-106396584D01*
X155009919Y-106519498D01*
X155009912Y-106519511D01*
X154953343Y-106656082D01*
X154953340Y-106656092D01*
X154924500Y-106801079D01*
X154924500Y-106801082D01*
X154924500Y-106948918D01*
X154924500Y-106948920D01*
X154924499Y-106948920D01*
X136303550Y-106948920D01*
X136287134Y-89068713D01*
X136559500Y-89068713D01*
X136559500Y-89281287D01*
X136592754Y-89491243D01*
X136617235Y-89566588D01*
X136658444Y-89693414D01*
X136754951Y-89882820D01*
X136879890Y-90054786D01*
X137030213Y-90205109D01*
X137202182Y-90330050D01*
X137210946Y-90334516D01*
X137261742Y-90382491D01*
X137278536Y-90450312D01*
X137255998Y-90516447D01*
X137210946Y-90555484D01*
X137202182Y-90559949D01*
X137030213Y-90684890D01*
X136879890Y-90835213D01*
X136754951Y-91007179D01*
X136658444Y-91196585D01*
X136658443Y-91196587D01*
X136658443Y-91196588D01*
X136642780Y-91244793D01*
X136592753Y-91398760D01*
X136559500Y-91608713D01*
X136559500Y-91821286D01*
X136574729Y-91917442D01*
X136592754Y-92031243D01*
X136634289Y-92159075D01*
X136658444Y-92233414D01*
X136754951Y-92422820D01*
X136879890Y-92594786D01*
X137030213Y-92745109D01*
X137202182Y-92870050D01*
X137210946Y-92874516D01*
X137261742Y-92922491D01*
X137278536Y-92990312D01*
X137255998Y-93056447D01*
X137210946Y-93095484D01*
X137202182Y-93099949D01*
X137030213Y-93224890D01*
X136879890Y-93375213D01*
X136754951Y-93547179D01*
X136658444Y-93736585D01*
X136592753Y-93938760D01*
X136581478Y-94009949D01*
X136559500Y-94148713D01*
X136559500Y-94361287D01*
X136592754Y-94571243D01*
X136617235Y-94646588D01*
X136658444Y-94773414D01*
X136754951Y-94962820D01*
X136879890Y-95134786D01*
X137030213Y-95285109D01*
X137202182Y-95410050D01*
X137210946Y-95414516D01*
X137261742Y-95462491D01*
X137278536Y-95530312D01*
X137255998Y-95596447D01*
X137210946Y-95635484D01*
X137202182Y-95639949D01*
X137030213Y-95764890D01*
X136879890Y-95915213D01*
X136754951Y-96087179D01*
X136658444Y-96276585D01*
X136592753Y-96478760D01*
X136585258Y-96526082D01*
X136559500Y-96688713D01*
X136559500Y-96901287D01*
X136561997Y-96917051D01*
X136587554Y-97078416D01*
X136592754Y-97111243D01*
X136655789Y-97305245D01*
X136658444Y-97313414D01*
X136754951Y-97502820D01*
X136879890Y-97674786D01*
X137030213Y-97825109D01*
X137202182Y-97950050D01*
X137210946Y-97954516D01*
X137261742Y-98002491D01*
X137278536Y-98070312D01*
X137255998Y-98136447D01*
X137210946Y-98175484D01*
X137202182Y-98179949D01*
X137030213Y-98304890D01*
X136879890Y-98455213D01*
X136754951Y-98627179D01*
X136658444Y-98816585D01*
X136592753Y-99018760D01*
X136574962Y-99131092D01*
X136559500Y-99228713D01*
X136559500Y-99441287D01*
X136592754Y-99651243D01*
X136650322Y-99828419D01*
X136658444Y-99853414D01*
X136754951Y-100042820D01*
X136879890Y-100214786D01*
X137030213Y-100365109D01*
X137202182Y-100490050D01*
X137210946Y-100494516D01*
X137261742Y-100542491D01*
X137278536Y-100610312D01*
X137255998Y-100676447D01*
X137210946Y-100715484D01*
X137202182Y-100719949D01*
X137030213Y-100844890D01*
X136879890Y-100995213D01*
X136754951Y-101167179D01*
X136658444Y-101356585D01*
X136592753Y-101558760D01*
X136567387Y-101718917D01*
X136559500Y-101768713D01*
X136559500Y-101981287D01*
X136563203Y-102004665D01*
X136592294Y-102188343D01*
X136592754Y-102191243D01*
X136649052Y-102364511D01*
X136658444Y-102393414D01*
X136754951Y-102582820D01*
X136879890Y-102754786D01*
X137030213Y-102905109D01*
X137202179Y-103030048D01*
X137202181Y-103030049D01*
X137202184Y-103030051D01*
X137211493Y-103034794D01*
X137262290Y-103082766D01*
X137279087Y-103150587D01*
X137256552Y-103216722D01*
X137211502Y-103255762D01*
X137202443Y-103260378D01*
X137030540Y-103385272D01*
X137030535Y-103385276D01*
X136880276Y-103535535D01*
X136880272Y-103535540D01*
X136755379Y-103707442D01*
X136658904Y-103896782D01*
X136593242Y-104098870D01*
X136593242Y-104098873D01*
X136582769Y-104165000D01*
X137476988Y-104165000D01*
X137444075Y-104222007D01*
X137410000Y-104349174D01*
X137410000Y-104480826D01*
X137444075Y-104607993D01*
X137476988Y-104665000D01*
X136582769Y-104665000D01*
X136593242Y-104731126D01*
X136593242Y-104731129D01*
X136658904Y-104933217D01*
X136755379Y-105122557D01*
X136880272Y-105294459D01*
X136880276Y-105294464D01*
X137030535Y-105444723D01*
X137030540Y-105444727D01*
X137202442Y-105569620D01*
X137391782Y-105666095D01*
X137593871Y-105731757D01*
X137660000Y-105742231D01*
X137660000Y-104848012D01*
X137717007Y-104880925D01*
X137844174Y-104915000D01*
X137975826Y-104915000D01*
X138102993Y-104880925D01*
X138160000Y-104848012D01*
X138160000Y-105742230D01*
X138226126Y-105731757D01*
X138226129Y-105731757D01*
X138428217Y-105666095D01*
X138617557Y-105569620D01*
X138789459Y-105444727D01*
X138789464Y-105444723D01*
X138939723Y-105294464D01*
X138939727Y-105294459D01*
X139064620Y-105122558D01*
X139069514Y-105112954D01*
X139117488Y-105062157D01*
X139185308Y-105045361D01*
X139251444Y-105067897D01*
X139290486Y-105112954D01*
X139295379Y-105122558D01*
X139420272Y-105294459D01*
X139420276Y-105294464D01*
X139570535Y-105444723D01*
X139570540Y-105444727D01*
X139742442Y-105569620D01*
X139931782Y-105666095D01*
X140133871Y-105731757D01*
X140200000Y-105742231D01*
X140200000Y-104848012D01*
X140257007Y-104880925D01*
X140384174Y-104915000D01*
X140515826Y-104915000D01*
X140642993Y-104880925D01*
X140700000Y-104848012D01*
X140700000Y-105742230D01*
X140766126Y-105731757D01*
X140766129Y-105731757D01*
X140968217Y-105666095D01*
X141157557Y-105569620D01*
X141289278Y-105473920D01*
X163809499Y-105473920D01*
X163838340Y-105618907D01*
X163838343Y-105618917D01*
X163894912Y-105755488D01*
X163894919Y-105755501D01*
X163977048Y-105878415D01*
X163977051Y-105878419D01*
X164081580Y-105982948D01*
X164081584Y-105982951D01*
X164204498Y-106065080D01*
X164204511Y-106065087D01*
X164333842Y-106118657D01*
X164341087Y-106121658D01*
X164341091Y-106121658D01*
X164341092Y-106121659D01*
X164486079Y-106150500D01*
X164486082Y-106150500D01*
X164633920Y-106150500D01*
X164731462Y-106131096D01*
X164778913Y-106121658D01*
X164915495Y-106065084D01*
X165038416Y-105982951D01*
X165142951Y-105878416D01*
X165214334Y-105771584D01*
X165225008Y-105755609D01*
X165278620Y-105710804D01*
X165328110Y-105700500D01*
X165343920Y-105700500D01*
X165441462Y-105681096D01*
X165488913Y-105671658D01*
X165616251Y-105618913D01*
X165625488Y-105615087D01*
X165625488Y-105615086D01*
X165625495Y-105615084D01*
X165748416Y-105532951D01*
X165807447Y-105473920D01*
X166649499Y-105473920D01*
X166678340Y-105618907D01*
X166678343Y-105618917D01*
X166734912Y-105755488D01*
X166734919Y-105755501D01*
X166817048Y-105878415D01*
X166817051Y-105878419D01*
X166921580Y-105982948D01*
X166921584Y-105982951D01*
X167044498Y-106065080D01*
X167044511Y-106065087D01*
X167173842Y-106118657D01*
X167181087Y-106121658D01*
X167181091Y-106121658D01*
X167181092Y-106121659D01*
X167326079Y-106150500D01*
X167326082Y-106150500D01*
X167473920Y-106150500D01*
X167571462Y-106131096D01*
X167618913Y-106121658D01*
X167755495Y-106065084D01*
X167878416Y-105982951D01*
X167966871Y-105894495D01*
X168028192Y-105861012D01*
X168097884Y-105865996D01*
X168153818Y-105907867D01*
X168176168Y-105957986D01*
X168178340Y-105968907D01*
X168178343Y-105968917D01*
X168234912Y-106105488D01*
X168234919Y-106105501D01*
X168317048Y-106228415D01*
X168317051Y-106228419D01*
X168421580Y-106332948D01*
X168421584Y-106332951D01*
X168544498Y-106415080D01*
X168544511Y-106415087D01*
X168681082Y-106471656D01*
X168681087Y-106471658D01*
X168681091Y-106471658D01*
X168681092Y-106471659D01*
X168826079Y-106500500D01*
X168826082Y-106500500D01*
X168973920Y-106500500D01*
X169071462Y-106481096D01*
X169118913Y-106471658D01*
X169255495Y-106415084D01*
X169378416Y-106332951D01*
X169387447Y-106323920D01*
X173399499Y-106323920D01*
X173428340Y-106468907D01*
X173428343Y-106468917D01*
X173484912Y-106605488D01*
X173484919Y-106605501D01*
X173567048Y-106728415D01*
X173567051Y-106728419D01*
X173671580Y-106832948D01*
X173671584Y-106832951D01*
X173794498Y-106915080D01*
X173794511Y-106915087D01*
X173876192Y-106948920D01*
X173931087Y-106971658D01*
X173931091Y-106971658D01*
X173931092Y-106971659D01*
X174076079Y-107000500D01*
X174076082Y-107000500D01*
X174223920Y-107000500D01*
X174340348Y-106977340D01*
X174368913Y-106971658D01*
X174505495Y-106915084D01*
X174628416Y-106832951D01*
X174732951Y-106728416D01*
X174815084Y-106605495D01*
X174871658Y-106468913D01*
X174885267Y-106400498D01*
X174900500Y-106323920D01*
X174900500Y-106176079D01*
X174871659Y-106031092D01*
X174871658Y-106031091D01*
X174871658Y-106031087D01*
X174851720Y-105982952D01*
X174815087Y-105894511D01*
X174815080Y-105894498D01*
X174732951Y-105771584D01*
X174732948Y-105771580D01*
X174628419Y-105667051D01*
X174628415Y-105667048D01*
X174505501Y-105584919D01*
X174505488Y-105584912D01*
X174368917Y-105528343D01*
X174368907Y-105528340D01*
X174223920Y-105499500D01*
X174223918Y-105499500D01*
X174076082Y-105499500D01*
X174076080Y-105499500D01*
X173931092Y-105528340D01*
X173931082Y-105528343D01*
X173794511Y-105584912D01*
X173794498Y-105584919D01*
X173671584Y-105667048D01*
X173671580Y-105667051D01*
X173567051Y-105771580D01*
X173567048Y-105771584D01*
X173484919Y-105894498D01*
X173484912Y-105894511D01*
X173428343Y-106031082D01*
X173428340Y-106031092D01*
X173399500Y-106176079D01*
X173399500Y-106176082D01*
X173399500Y-106323918D01*
X173399500Y-106323920D01*
X173399499Y-106323920D01*
X169387447Y-106323920D01*
X169482951Y-106228416D01*
X169565084Y-106105495D01*
X169621658Y-105968913D01*
X169636459Y-105894505D01*
X169650500Y-105823920D01*
X169650500Y-105676079D01*
X169621659Y-105531092D01*
X169621658Y-105531091D01*
X169621658Y-105531087D01*
X169620520Y-105528340D01*
X169565087Y-105394511D01*
X169565080Y-105394498D01*
X169482951Y-105271584D01*
X169482948Y-105271580D01*
X169378419Y-105167051D01*
X169378415Y-105167048D01*
X169255501Y-105084919D01*
X169255488Y-105084912D01*
X169118917Y-105028343D01*
X169118907Y-105028340D01*
X168973920Y-104999500D01*
X168973918Y-104999500D01*
X168826082Y-104999500D01*
X168826080Y-104999500D01*
X168681092Y-105028340D01*
X168681082Y-105028343D01*
X168544511Y-105084912D01*
X168544498Y-105084919D01*
X168421584Y-105167048D01*
X168333129Y-105255503D01*
X168271805Y-105288987D01*
X168202114Y-105284003D01*
X168146180Y-105242131D01*
X168123830Y-105192008D01*
X168121658Y-105181087D01*
X168115843Y-105167048D01*
X168065087Y-105044511D01*
X168065080Y-105044498D01*
X167982951Y-104921584D01*
X167982948Y-104921580D01*
X167885288Y-104823920D01*
X170499499Y-104823920D01*
X170528340Y-104968907D01*
X170528343Y-104968917D01*
X170584912Y-105105488D01*
X170584919Y-105105501D01*
X170667048Y-105228415D01*
X170667051Y-105228419D01*
X170771580Y-105332948D01*
X170771584Y-105332951D01*
X170894498Y-105415080D01*
X170894511Y-105415087D01*
X171031082Y-105471656D01*
X171031087Y-105471658D01*
X171031091Y-105471658D01*
X171031092Y-105471659D01*
X171176079Y-105500500D01*
X171176082Y-105500500D01*
X171323920Y-105500500D01*
X171457551Y-105473918D01*
X171468913Y-105471658D01*
X171605495Y-105415084D01*
X171728416Y-105332951D01*
X171832951Y-105228416D01*
X171915084Y-105105495D01*
X171971658Y-104968913D01*
X171989659Y-104878419D01*
X172000500Y-104823920D01*
X172000500Y-104676079D01*
X171971659Y-104531092D01*
X171971658Y-104531091D01*
X171971658Y-104531087D01*
X171947011Y-104471583D01*
X171915087Y-104394511D01*
X171915080Y-104394498D01*
X171832951Y-104271584D01*
X171832948Y-104271580D01*
X171728419Y-104167051D01*
X171728415Y-104167048D01*
X171605501Y-104084919D01*
X171605488Y-104084912D01*
X171468917Y-104028343D01*
X171468907Y-104028340D01*
X171323920Y-103999500D01*
X171323918Y-103999500D01*
X171176082Y-103999500D01*
X171176080Y-103999500D01*
X171031092Y-104028340D01*
X171031082Y-104028343D01*
X170894511Y-104084912D01*
X170894498Y-104084919D01*
X170771584Y-104167048D01*
X170771580Y-104167051D01*
X170667051Y-104271580D01*
X170667048Y-104271584D01*
X170584919Y-104394498D01*
X170584912Y-104394511D01*
X170528343Y-104531082D01*
X170528340Y-104531092D01*
X170499500Y-104676079D01*
X170499500Y-104676082D01*
X170499500Y-104823918D01*
X170499500Y-104823920D01*
X170499499Y-104823920D01*
X167885288Y-104823920D01*
X167878416Y-104817048D01*
X167812630Y-104773092D01*
X167755501Y-104734919D01*
X167755488Y-104734912D01*
X167618917Y-104678343D01*
X167618907Y-104678340D01*
X167473920Y-104649500D01*
X167473918Y-104649500D01*
X167326082Y-104649500D01*
X167326080Y-104649500D01*
X167181092Y-104678340D01*
X167181082Y-104678343D01*
X167044511Y-104734912D01*
X167044498Y-104734919D01*
X166921584Y-104817048D01*
X166921580Y-104817051D01*
X166817051Y-104921580D01*
X166817048Y-104921584D01*
X166734919Y-105044498D01*
X166734912Y-105044511D01*
X166678343Y-105181082D01*
X166678340Y-105181092D01*
X166649500Y-105326079D01*
X166649500Y-105326082D01*
X166649500Y-105473918D01*
X166649500Y-105473920D01*
X166649499Y-105473920D01*
X165807447Y-105473920D01*
X165852951Y-105428416D01*
X165935084Y-105305495D01*
X165991658Y-105168913D01*
X166008366Y-105084919D01*
X166020500Y-105023920D01*
X166020500Y-104876079D01*
X165991659Y-104731092D01*
X165991658Y-104731091D01*
X165991658Y-104731087D01*
X165982269Y-104708419D01*
X165935087Y-104594511D01*
X165935080Y-104594498D01*
X165852951Y-104471584D01*
X165852948Y-104471580D01*
X165748419Y-104367051D01*
X165748415Y-104367048D01*
X165625501Y-104284919D01*
X165625488Y-104284912D01*
X165488917Y-104228343D01*
X165488907Y-104228340D01*
X165343920Y-104199500D01*
X165343918Y-104199500D01*
X165196082Y-104199500D01*
X165196080Y-104199500D01*
X165051092Y-104228340D01*
X165051082Y-104228343D01*
X164914511Y-104284912D01*
X164914498Y-104284919D01*
X164791584Y-104367048D01*
X164791580Y-104367051D01*
X164687048Y-104471583D01*
X164604992Y-104594391D01*
X164551380Y-104639196D01*
X164501890Y-104649500D01*
X164486080Y-104649500D01*
X164341092Y-104678340D01*
X164341082Y-104678343D01*
X164204511Y-104734912D01*
X164204498Y-104734919D01*
X164081584Y-104817048D01*
X164081580Y-104817051D01*
X163977051Y-104921580D01*
X163977048Y-104921584D01*
X163894919Y-105044498D01*
X163894912Y-105044511D01*
X163838343Y-105181082D01*
X163838340Y-105181092D01*
X163809500Y-105326079D01*
X163809500Y-105326082D01*
X163809500Y-105473918D01*
X163809500Y-105473920D01*
X163809499Y-105473920D01*
X141289278Y-105473920D01*
X141329459Y-105444727D01*
X141329464Y-105444723D01*
X141479723Y-105294464D01*
X141514133Y-105247104D01*
X141514134Y-105247102D01*
X141604620Y-105122557D01*
X141701095Y-104933217D01*
X141766757Y-104731129D01*
X141766757Y-104731126D01*
X141777231Y-104665000D01*
X140883012Y-104665000D01*
X140915925Y-104607993D01*
X140950000Y-104480826D01*
X140950000Y-104349174D01*
X140937874Y-104303920D01*
X153899499Y-104303920D01*
X153928340Y-104448907D01*
X153928343Y-104448917D01*
X153984912Y-104585488D01*
X153984919Y-104585501D01*
X154067048Y-104708415D01*
X154067051Y-104708419D01*
X154171580Y-104812948D01*
X154171584Y-104812951D01*
X154294498Y-104895080D01*
X154294511Y-104895087D01*
X154386566Y-104933217D01*
X154431087Y-104951658D01*
X154431091Y-104951658D01*
X154431092Y-104951659D01*
X154576079Y-104980500D01*
X154576082Y-104980500D01*
X154723920Y-104980500D01*
X154821462Y-104961096D01*
X154868913Y-104951658D01*
X155005495Y-104895084D01*
X155090915Y-104838007D01*
X155157592Y-104817130D01*
X155224972Y-104835614D01*
X155262908Y-104872219D01*
X155267048Y-104878416D01*
X155371580Y-104982948D01*
X155371584Y-104982951D01*
X155494498Y-105065080D01*
X155494511Y-105065087D01*
X155631082Y-105121656D01*
X155631087Y-105121658D01*
X155631091Y-105121658D01*
X155631092Y-105121659D01*
X155776079Y-105150500D01*
X155776082Y-105150500D01*
X155923920Y-105150500D01*
X156021462Y-105131096D01*
X156068913Y-105121658D01*
X156205495Y-105065084D01*
X156328416Y-104982951D01*
X156432951Y-104878416D01*
X156515084Y-104755495D01*
X156571658Y-104618913D01*
X156600500Y-104473918D01*
X156600500Y-104326082D01*
X156600500Y-104326079D01*
X156571659Y-104181092D01*
X156571658Y-104181091D01*
X156571658Y-104181087D01*
X156561301Y-104156082D01*
X156515087Y-104044511D01*
X156515080Y-104044498D01*
X156432951Y-103921584D01*
X156432948Y-103921580D01*
X156328419Y-103817051D01*
X156328415Y-103817048D01*
X156205501Y-103734919D01*
X156205488Y-103734912D01*
X156068917Y-103678343D01*
X156068907Y-103678340D01*
X155968955Y-103658458D01*
X155907044Y-103626073D01*
X155872470Y-103565357D01*
X155876211Y-103495587D01*
X155917077Y-103438916D01*
X155945693Y-103422281D01*
X155978837Y-103408552D01*
X156035489Y-103385087D01*
X156035492Y-103385085D01*
X156035495Y-103385084D01*
X156158416Y-103302951D01*
X156262951Y-103198416D01*
X156345084Y-103075495D01*
X156401658Y-102938913D01*
X156408619Y-102903920D01*
X164449499Y-102903920D01*
X164478340Y-103048907D01*
X164478343Y-103048917D01*
X164534912Y-103185488D01*
X164534919Y-103185501D01*
X164617048Y-103308415D01*
X164617051Y-103308419D01*
X164721580Y-103412948D01*
X164721584Y-103412951D01*
X164844498Y-103495080D01*
X164844511Y-103495087D01*
X164981082Y-103551656D01*
X164981087Y-103551658D01*
X164981091Y-103551658D01*
X164981092Y-103551659D01*
X165126079Y-103580500D01*
X165126082Y-103580500D01*
X165273920Y-103580500D01*
X165371462Y-103561096D01*
X165418913Y-103551658D01*
X165555495Y-103495084D01*
X165678416Y-103412951D01*
X165782951Y-103308416D01*
X165865084Y-103185495D01*
X165921658Y-103048913D01*
X165950500Y-102903918D01*
X165950500Y-102756082D01*
X165950500Y-102756079D01*
X165921659Y-102611092D01*
X165921658Y-102611091D01*
X165921658Y-102611087D01*
X165921656Y-102611082D01*
X165865087Y-102474511D01*
X165865079Y-102474496D01*
X165834106Y-102428143D01*
X165813227Y-102361466D01*
X165831711Y-102294085D01*
X165883689Y-102247395D01*
X165952659Y-102236218D01*
X165961399Y-102237634D01*
X166026079Y-102250500D01*
X166026082Y-102250500D01*
X166173920Y-102250500D01*
X166271462Y-102231096D01*
X166318913Y-102221658D01*
X166455495Y-102165084D01*
X166578416Y-102082951D01*
X166682951Y-101978416D01*
X166765084Y-101855495D01*
X166821658Y-101718913D01*
X166839659Y-101628419D01*
X166850500Y-101573920D01*
X166850500Y-101426079D01*
X166821659Y-101281092D01*
X166821658Y-101281091D01*
X166821658Y-101281087D01*
X166797978Y-101223918D01*
X166765087Y-101144511D01*
X166765080Y-101144498D01*
X166682951Y-101021584D01*
X166682948Y-101021580D01*
X166578419Y-100917051D01*
X166578415Y-100917048D01*
X166455501Y-100834919D01*
X166455488Y-100834912D01*
X166318917Y-100778343D01*
X166318907Y-100778340D01*
X166173920Y-100749500D01*
X166173918Y-100749500D01*
X166026082Y-100749500D01*
X166026080Y-100749500D01*
X165881092Y-100778340D01*
X165881082Y-100778343D01*
X165744511Y-100834912D01*
X165744498Y-100834919D01*
X165621584Y-100917048D01*
X165621580Y-100917051D01*
X165517051Y-101021580D01*
X165517048Y-101021584D01*
X165434919Y-101144498D01*
X165434912Y-101144511D01*
X165378343Y-101281082D01*
X165378340Y-101281092D01*
X165349500Y-101426079D01*
X165349500Y-101426082D01*
X165349500Y-101573918D01*
X165349500Y-101573920D01*
X165349499Y-101573920D01*
X165378340Y-101718907D01*
X165378343Y-101718917D01*
X165434912Y-101855488D01*
X165434916Y-101855495D01*
X165465894Y-101901857D01*
X165486772Y-101968534D01*
X165468288Y-102035914D01*
X165416309Y-102082605D01*
X165347339Y-102093781D01*
X165338602Y-102092366D01*
X165273918Y-102079500D01*
X165126082Y-102079500D01*
X165126080Y-102079500D01*
X164981092Y-102108340D01*
X164981082Y-102108343D01*
X164844511Y-102164912D01*
X164844498Y-102164919D01*
X164721584Y-102247048D01*
X164721580Y-102247051D01*
X164617051Y-102351580D01*
X164617048Y-102351584D01*
X164534919Y-102474498D01*
X164534912Y-102474511D01*
X164478343Y-102611082D01*
X164478340Y-102611092D01*
X164449500Y-102756079D01*
X164449500Y-102756082D01*
X164449500Y-102903918D01*
X164449500Y-102903920D01*
X164449499Y-102903920D01*
X156408619Y-102903920D01*
X156422113Y-102836082D01*
X156430500Y-102793920D01*
X156430500Y-102646079D01*
X156401659Y-102501092D01*
X156401658Y-102501091D01*
X156401658Y-102501087D01*
X156401656Y-102501082D01*
X156345087Y-102364511D01*
X156345080Y-102364498D01*
X156262951Y-102241584D01*
X156262948Y-102241580D01*
X156158416Y-102137048D01*
X156144278Y-102127602D01*
X156099473Y-102073990D01*
X156090766Y-102004665D01*
X156120920Y-101941638D01*
X156180363Y-101904918D01*
X156213169Y-101900500D01*
X156323920Y-101900500D01*
X156421462Y-101881096D01*
X156468913Y-101871658D01*
X156605495Y-101815084D01*
X156728416Y-101732951D01*
X156832951Y-101628416D01*
X156915084Y-101505495D01*
X156971658Y-101368913D01*
X156996598Y-101243536D01*
X157000500Y-101223920D01*
X157000500Y-101076079D01*
X156971659Y-100931092D01*
X156971658Y-100931091D01*
X156971658Y-100931087D01*
X156927268Y-100823920D01*
X162399499Y-100823920D01*
X162428340Y-100968907D01*
X162428343Y-100968917D01*
X162484912Y-101105488D01*
X162484919Y-101105501D01*
X162567048Y-101228415D01*
X162567051Y-101228419D01*
X162671580Y-101332948D01*
X162671584Y-101332951D01*
X162794498Y-101415080D01*
X162794511Y-101415087D01*
X162931082Y-101471656D01*
X162931087Y-101471658D01*
X162931091Y-101471658D01*
X162931092Y-101471659D01*
X163076079Y-101500500D01*
X163076082Y-101500500D01*
X163223920Y-101500500D01*
X163321462Y-101481096D01*
X163368913Y-101471658D01*
X163496251Y-101418913D01*
X163505488Y-101415087D01*
X163505488Y-101415086D01*
X163505495Y-101415084D01*
X163628416Y-101332951D01*
X163732951Y-101228416D01*
X163815084Y-101105495D01*
X163871658Y-100968913D01*
X163892311Y-100865087D01*
X163900500Y-100823920D01*
X163900500Y-100811230D01*
X163920185Y-100744191D01*
X163972989Y-100698436D01*
X164042147Y-100688492D01*
X164105703Y-100717517D01*
X164112181Y-100723549D01*
X164171580Y-100782948D01*
X164171584Y-100782951D01*
X164294498Y-100865080D01*
X164294511Y-100865087D01*
X164431082Y-100921656D01*
X164431087Y-100921658D01*
X164431091Y-100921658D01*
X164431092Y-100921659D01*
X164576079Y-100950500D01*
X164576082Y-100950500D01*
X164723920Y-100950500D01*
X164821537Y-100931082D01*
X164868913Y-100921658D01*
X165005495Y-100865084D01*
X165128416Y-100782951D01*
X165232951Y-100678416D01*
X165315084Y-100555495D01*
X165320816Y-100541658D01*
X165347042Y-100478342D01*
X165371658Y-100418913D01*
X165384190Y-100355914D01*
X165400500Y-100273920D01*
X165400500Y-100126079D01*
X165371659Y-99981092D01*
X165371658Y-99981091D01*
X165371658Y-99981087D01*
X165358689Y-99949776D01*
X165315087Y-99844511D01*
X165315080Y-99844498D01*
X165232951Y-99721584D01*
X165232948Y-99721580D01*
X165128419Y-99617051D01*
X165128415Y-99617048D01*
X165005501Y-99534919D01*
X165005488Y-99534912D01*
X164868917Y-99478343D01*
X164868907Y-99478340D01*
X164723920Y-99449500D01*
X164723918Y-99449500D01*
X164576082Y-99449500D01*
X164576080Y-99449500D01*
X164431092Y-99478340D01*
X164431082Y-99478343D01*
X164294511Y-99534912D01*
X164294498Y-99534919D01*
X164171584Y-99617048D01*
X164171580Y-99617051D01*
X164067051Y-99721580D01*
X164067048Y-99721584D01*
X163984919Y-99844498D01*
X163984912Y-99844511D01*
X163928343Y-99981082D01*
X163928340Y-99981092D01*
X163899500Y-100126079D01*
X163899500Y-100138770D01*
X163879815Y-100205809D01*
X163827011Y-100251564D01*
X163757853Y-100261508D01*
X163694297Y-100232483D01*
X163687819Y-100226451D01*
X163628419Y-100167051D01*
X163628415Y-100167048D01*
X163505501Y-100084919D01*
X163505488Y-100084912D01*
X163368917Y-100028343D01*
X163368907Y-100028340D01*
X163223920Y-99999500D01*
X163223918Y-99999500D01*
X163076082Y-99999500D01*
X163076080Y-99999500D01*
X162931092Y-100028340D01*
X162931082Y-100028343D01*
X162794511Y-100084912D01*
X162794498Y-100084919D01*
X162671584Y-100167048D01*
X162671580Y-100167051D01*
X162567051Y-100271580D01*
X162567048Y-100271584D01*
X162484919Y-100394498D01*
X162484912Y-100394511D01*
X162428343Y-100531082D01*
X162428340Y-100531092D01*
X162399500Y-100676079D01*
X162399500Y-100676082D01*
X162399500Y-100823918D01*
X162399500Y-100823920D01*
X162399499Y-100823920D01*
X156927268Y-100823920D01*
X156915087Y-100794511D01*
X156915079Y-100794496D01*
X156884106Y-100748143D01*
X156863227Y-100681466D01*
X156881711Y-100614085D01*
X156933689Y-100567395D01*
X157002659Y-100556218D01*
X157011399Y-100557634D01*
X157076079Y-100570500D01*
X157076082Y-100570500D01*
X157223920Y-100570500D01*
X157335157Y-100548373D01*
X157364725Y-100542491D01*
X157368913Y-100541658D01*
X157505495Y-100485084D01*
X157628416Y-100402951D01*
X157732951Y-100298416D01*
X157815084Y-100175495D01*
X157818583Y-100167049D01*
X157852603Y-100084916D01*
X157871658Y-100038913D01*
X157886070Y-99966463D01*
X157900500Y-99893920D01*
X157900500Y-99746079D01*
X157871659Y-99601092D01*
X157871658Y-99601091D01*
X157871658Y-99601087D01*
X157858329Y-99568907D01*
X157815087Y-99464511D01*
X157815080Y-99464498D01*
X157787967Y-99423920D01*
X158799499Y-99423920D01*
X158828340Y-99568907D01*
X158828343Y-99568917D01*
X158884912Y-99705488D01*
X158884919Y-99705501D01*
X158967048Y-99828415D01*
X158967051Y-99828419D01*
X159071580Y-99932948D01*
X159071584Y-99932951D01*
X159194498Y-100015080D01*
X159194511Y-100015087D01*
X159331082Y-100071656D01*
X159331087Y-100071658D01*
X159331091Y-100071658D01*
X159331092Y-100071659D01*
X159476079Y-100100500D01*
X159476082Y-100100500D01*
X159623920Y-100100500D01*
X159721462Y-100081096D01*
X159768913Y-100071658D01*
X159905495Y-100015084D01*
X159905500Y-100015080D01*
X159905503Y-100015079D01*
X159944534Y-99988999D01*
X159999652Y-99952170D01*
X160066327Y-99931292D01*
X160133708Y-99949776D01*
X160156223Y-99967591D01*
X160221580Y-100032948D01*
X160221584Y-100032951D01*
X160344498Y-100115080D01*
X160344511Y-100115087D01*
X160481082Y-100171656D01*
X160481087Y-100171658D01*
X160481091Y-100171658D01*
X160481092Y-100171659D01*
X160626079Y-100200500D01*
X160626082Y-100200500D01*
X160773920Y-100200500D01*
X160899593Y-100175501D01*
X160918913Y-100171658D01*
X161055495Y-100115084D01*
X161178416Y-100032951D01*
X161282951Y-99928416D01*
X161365084Y-99805495D01*
X161421658Y-99668913D01*
X161448312Y-99534919D01*
X161450500Y-99523920D01*
X161450500Y-99376079D01*
X161421659Y-99231092D01*
X161421657Y-99231085D01*
X161419664Y-99226275D01*
X161412195Y-99156806D01*
X161443469Y-99094327D01*
X161486773Y-99064260D01*
X161605488Y-99015087D01*
X161605488Y-99015086D01*
X161605495Y-99015084D01*
X161728416Y-98932951D01*
X161832951Y-98828416D01*
X161915084Y-98705495D01*
X161915896Y-98703536D01*
X161961734Y-98592871D01*
X161971658Y-98568913D01*
X161999605Y-98428419D01*
X162000500Y-98423920D01*
X162000500Y-98374500D01*
X162020185Y-98307461D01*
X162072989Y-98261706D01*
X162124500Y-98250500D01*
X162273920Y-98250500D01*
X162371462Y-98231096D01*
X162418913Y-98221658D01*
X162546251Y-98168913D01*
X162555488Y-98165087D01*
X162555488Y-98165086D01*
X162555495Y-98165084D01*
X162678416Y-98082951D01*
X162737447Y-98023920D01*
X165449499Y-98023920D01*
X165478340Y-98168907D01*
X165478343Y-98168917D01*
X165534912Y-98305488D01*
X165534919Y-98305501D01*
X165617048Y-98428415D01*
X165617051Y-98428419D01*
X165721580Y-98532948D01*
X165721584Y-98532951D01*
X165844498Y-98615080D01*
X165844511Y-98615087D01*
X165894870Y-98635946D01*
X165981087Y-98671658D01*
X165981091Y-98671658D01*
X165981092Y-98671659D01*
X166126079Y-98700500D01*
X166126082Y-98700500D01*
X166273920Y-98700500D01*
X166371959Y-98680998D01*
X166418913Y-98671658D01*
X166555495Y-98615084D01*
X166678416Y-98532951D01*
X166782951Y-98428416D01*
X166865084Y-98305495D01*
X166921658Y-98168913D01*
X166938366Y-98084919D01*
X166950500Y-98023920D01*
X166950500Y-97876079D01*
X166921659Y-97731092D01*
X166921658Y-97731091D01*
X166921658Y-97731087D01*
X166902535Y-97684919D01*
X166865087Y-97594511D01*
X166865080Y-97594498D01*
X166782951Y-97471584D01*
X166782948Y-97471580D01*
X166678419Y-97367051D01*
X166678415Y-97367048D01*
X166555501Y-97284919D01*
X166555488Y-97284912D01*
X166418917Y-97228343D01*
X166418907Y-97228340D01*
X166273920Y-97199500D01*
X166273918Y-97199500D01*
X166126082Y-97199500D01*
X166126080Y-97199500D01*
X165981092Y-97228340D01*
X165981082Y-97228343D01*
X165844511Y-97284912D01*
X165844498Y-97284919D01*
X165721584Y-97367048D01*
X165721580Y-97367051D01*
X165617051Y-97471580D01*
X165617048Y-97471584D01*
X165534919Y-97594498D01*
X165534912Y-97594511D01*
X165478343Y-97731082D01*
X165478340Y-97731092D01*
X165449500Y-97876079D01*
X165449500Y-97876082D01*
X165449500Y-98023918D01*
X165449500Y-98023920D01*
X165449499Y-98023920D01*
X162737447Y-98023920D01*
X162782951Y-97978416D01*
X162865084Y-97855495D01*
X162873753Y-97834565D01*
X162878736Y-97822537D01*
X162878736Y-97822535D01*
X162883396Y-97811287D01*
X162921658Y-97718913D01*
X162940028Y-97626563D01*
X162950500Y-97573920D01*
X162950500Y-97426084D01*
X162950354Y-97424602D01*
X162950500Y-97423832D01*
X162950500Y-97419990D01*
X162951229Y-97419990D01*
X162963372Y-97355956D01*
X163011437Y-97305245D01*
X163026304Y-97297886D01*
X163066872Y-97281082D01*
X163105495Y-97265084D01*
X163228416Y-97182951D01*
X163332951Y-97078416D01*
X163415084Y-96955495D01*
X163471658Y-96818913D01*
X163497557Y-96688713D01*
X163500500Y-96673920D01*
X163500500Y-96526079D01*
X163471659Y-96381092D01*
X163471658Y-96381091D01*
X163471658Y-96381087D01*
X163468689Y-96373918D01*
X163415087Y-96244511D01*
X163415080Y-96244498D01*
X163332951Y-96121584D01*
X163332948Y-96121580D01*
X163228419Y-96017051D01*
X163228415Y-96017048D01*
X163105501Y-95934919D01*
X163105488Y-95934912D01*
X162968917Y-95878343D01*
X162968907Y-95878340D01*
X162823920Y-95849500D01*
X162823918Y-95849500D01*
X162676082Y-95849500D01*
X162676080Y-95849500D01*
X162531092Y-95878340D01*
X162531082Y-95878343D01*
X162394511Y-95934912D01*
X162394498Y-95934919D01*
X162271584Y-96017048D01*
X162271580Y-96017051D01*
X162167051Y-96121580D01*
X162167048Y-96121584D01*
X162084919Y-96244498D01*
X162084912Y-96244511D01*
X162028343Y-96381082D01*
X162028340Y-96381092D01*
X161999500Y-96526079D01*
X161999500Y-96673929D01*
X161999646Y-96675414D01*
X161999500Y-96676183D01*
X161999500Y-96680010D01*
X161998774Y-96680010D01*
X161986619Y-96744058D01*
X161938548Y-96794763D01*
X161923695Y-96802114D01*
X161844508Y-96834914D01*
X161844498Y-96834919D01*
X161721584Y-96917048D01*
X161721580Y-96917051D01*
X161617051Y-97021580D01*
X161617048Y-97021584D01*
X161534919Y-97144498D01*
X161534912Y-97144511D01*
X161478343Y-97281082D01*
X161478340Y-97281092D01*
X161449500Y-97426079D01*
X161449500Y-97475500D01*
X161429815Y-97542539D01*
X161377011Y-97588294D01*
X161325500Y-97599500D01*
X161176080Y-97599500D01*
X161031092Y-97628340D01*
X161031082Y-97628343D01*
X160894511Y-97684912D01*
X160894498Y-97684919D01*
X160771584Y-97767048D01*
X160771580Y-97767051D01*
X160667051Y-97871580D01*
X160667048Y-97871584D01*
X160584916Y-97994503D01*
X160583932Y-97996345D01*
X160583162Y-97997128D01*
X160581531Y-97999570D01*
X160581067Y-97999260D01*
X160534969Y-98046189D01*
X160466831Y-98061649D01*
X160427122Y-98052453D01*
X160368913Y-98028342D01*
X160368908Y-98028341D01*
X160368907Y-98028340D01*
X160223920Y-97999500D01*
X160223918Y-97999500D01*
X160076082Y-97999500D01*
X160076080Y-97999500D01*
X159931092Y-98028340D01*
X159931082Y-98028343D01*
X159794511Y-98084912D01*
X159794498Y-98084919D01*
X159671584Y-98167048D01*
X159671580Y-98167051D01*
X159567051Y-98271580D01*
X159567048Y-98271584D01*
X159484919Y-98394498D01*
X159484912Y-98394511D01*
X159428343Y-98531082D01*
X159426573Y-98536919D01*
X159425430Y-98536572D01*
X159395968Y-98592871D01*
X159336895Y-98626495D01*
X159336919Y-98626573D01*
X159336575Y-98626677D01*
X159335246Y-98627434D01*
X159331128Y-98628329D01*
X159331082Y-98628343D01*
X159194511Y-98684912D01*
X159194498Y-98684919D01*
X159071584Y-98767048D01*
X159071580Y-98767051D01*
X158967051Y-98871580D01*
X158967048Y-98871584D01*
X158884919Y-98994498D01*
X158884912Y-98994511D01*
X158828343Y-99131082D01*
X158828340Y-99131092D01*
X158799500Y-99276079D01*
X158799500Y-99276082D01*
X158799500Y-99423918D01*
X158799500Y-99423920D01*
X158799499Y-99423920D01*
X157787967Y-99423920D01*
X157732950Y-99341582D01*
X157628419Y-99237051D01*
X157628415Y-99237048D01*
X157505501Y-99154919D01*
X157505488Y-99154912D01*
X157368917Y-99098343D01*
X157368907Y-99098340D01*
X157223920Y-99069500D01*
X157223918Y-99069500D01*
X157076082Y-99069500D01*
X157076080Y-99069500D01*
X156931092Y-99098340D01*
X156931082Y-99098343D01*
X156794511Y-99154912D01*
X156794498Y-99154919D01*
X156671584Y-99237048D01*
X156671580Y-99237051D01*
X156567051Y-99341580D01*
X156567048Y-99341584D01*
X156484919Y-99464498D01*
X156484912Y-99464511D01*
X156428343Y-99601082D01*
X156428340Y-99601092D01*
X156399500Y-99746079D01*
X156399500Y-99746082D01*
X156399500Y-99893918D01*
X156399500Y-99893920D01*
X156399499Y-99893920D01*
X156428340Y-100038907D01*
X156428343Y-100038917D01*
X156484912Y-100175488D01*
X156484916Y-100175495D01*
X156515894Y-100221857D01*
X156536772Y-100288534D01*
X156518288Y-100355914D01*
X156466309Y-100402605D01*
X156397339Y-100413781D01*
X156388602Y-100412366D01*
X156323918Y-100399500D01*
X156176082Y-100399500D01*
X156176080Y-100399500D01*
X156031092Y-100428340D01*
X156031082Y-100428343D01*
X155894511Y-100484912D01*
X155894498Y-100484919D01*
X155771584Y-100567048D01*
X155771580Y-100567051D01*
X155667051Y-100671580D01*
X155667048Y-100671584D01*
X155584919Y-100794498D01*
X155584912Y-100794511D01*
X155528343Y-100931082D01*
X155528340Y-100931092D01*
X155499500Y-101076079D01*
X155499500Y-101076082D01*
X155499500Y-101223918D01*
X155499500Y-101223920D01*
X155499499Y-101223920D01*
X155528340Y-101368907D01*
X155528343Y-101368917D01*
X155584912Y-101505488D01*
X155584919Y-101505501D01*
X155667048Y-101628415D01*
X155667051Y-101628419D01*
X155771583Y-101732951D01*
X155785722Y-101742398D01*
X155830527Y-101796010D01*
X155839234Y-101865335D01*
X155809080Y-101928362D01*
X155749637Y-101965082D01*
X155716831Y-101969500D01*
X155606080Y-101969500D01*
X155461092Y-101998340D01*
X155461082Y-101998343D01*
X155324511Y-102054912D01*
X155324498Y-102054919D01*
X155201587Y-102137046D01*
X155188631Y-102150002D01*
X155127307Y-102183485D01*
X155076760Y-102183935D01*
X154953920Y-102159500D01*
X154953918Y-102159500D01*
X154806082Y-102159500D01*
X154806080Y-102159500D01*
X154661092Y-102188340D01*
X154661082Y-102188343D01*
X154524511Y-102244912D01*
X154524498Y-102244919D01*
X154401584Y-102327048D01*
X154401580Y-102327051D01*
X154297051Y-102431580D01*
X154297048Y-102431584D01*
X154214919Y-102554498D01*
X154214912Y-102554511D01*
X154158343Y-102691082D01*
X154158340Y-102691092D01*
X154129500Y-102836079D01*
X154129500Y-102836082D01*
X154129500Y-102983918D01*
X154129500Y-102983920D01*
X154129499Y-102983920D01*
X154158340Y-103128907D01*
X154158343Y-103128917D01*
X154214912Y-103265488D01*
X154214919Y-103265501D01*
X154297048Y-103388415D01*
X154300914Y-103393126D01*
X154299376Y-103394388D01*
X154328478Y-103447684D01*
X154323494Y-103517376D01*
X154281622Y-103573309D01*
X154276203Y-103577144D01*
X154171584Y-103647048D01*
X154171580Y-103647051D01*
X154067051Y-103751580D01*
X154067048Y-103751584D01*
X153984919Y-103874498D01*
X153984912Y-103874511D01*
X153928343Y-104011082D01*
X153928340Y-104011092D01*
X153899500Y-104156079D01*
X153899500Y-104156082D01*
X153899500Y-104303918D01*
X153899500Y-104303920D01*
X153899499Y-104303920D01*
X140937874Y-104303920D01*
X140915925Y-104222007D01*
X140883012Y-104165000D01*
X141777231Y-104165000D01*
X141766758Y-104098875D01*
X141766757Y-104098870D01*
X141701095Y-103896782D01*
X141604620Y-103707442D01*
X141479727Y-103535540D01*
X141479723Y-103535535D01*
X141329464Y-103385276D01*
X141329459Y-103385272D01*
X141157555Y-103260377D01*
X141148500Y-103255763D01*
X141097706Y-103207788D01*
X141080912Y-103139966D01*
X141103451Y-103073832D01*
X141148508Y-103034793D01*
X141157816Y-103030051D01*
X141237007Y-102972515D01*
X141329786Y-102905109D01*
X141329788Y-102905106D01*
X141329792Y-102905104D01*
X141480104Y-102754792D01*
X141480106Y-102754788D01*
X141480109Y-102754786D01*
X141605048Y-102582820D01*
X141605047Y-102582820D01*
X141605051Y-102582816D01*
X141701557Y-102393412D01*
X141767246Y-102191243D01*
X141800500Y-101981287D01*
X141800500Y-101768713D01*
X141767246Y-101558757D01*
X141701557Y-101356588D01*
X141659436Y-101273920D01*
X148999499Y-101273920D01*
X149028340Y-101418907D01*
X149028343Y-101418917D01*
X149084912Y-101555488D01*
X149084919Y-101555501D01*
X149167048Y-101678415D01*
X149167051Y-101678419D01*
X149271580Y-101782948D01*
X149271584Y-101782951D01*
X149394498Y-101865080D01*
X149394511Y-101865087D01*
X149531082Y-101921656D01*
X149531087Y-101921658D01*
X149531091Y-101921658D01*
X149531092Y-101921659D01*
X149676079Y-101950500D01*
X149676082Y-101950500D01*
X149823920Y-101950500D01*
X149921462Y-101931096D01*
X149968913Y-101921658D01*
X150105495Y-101865084D01*
X150228416Y-101782951D01*
X150332951Y-101678416D01*
X150415084Y-101555495D01*
X150471658Y-101418913D01*
X150500500Y-101273918D01*
X150500500Y-101126082D01*
X150500500Y-101126079D01*
X150471659Y-100981092D01*
X150471658Y-100981091D01*
X150471658Y-100981087D01*
X150466613Y-100968907D01*
X150415087Y-100844511D01*
X150415080Y-100844498D01*
X150332951Y-100721584D01*
X150332948Y-100721580D01*
X150228419Y-100617051D01*
X150228415Y-100617048D01*
X150105501Y-100534919D01*
X150105488Y-100534912D01*
X149968917Y-100478343D01*
X149968907Y-100478340D01*
X149823920Y-100449500D01*
X149823918Y-100449500D01*
X149676082Y-100449500D01*
X149676080Y-100449500D01*
X149531092Y-100478340D01*
X149531082Y-100478343D01*
X149394511Y-100534912D01*
X149394498Y-100534919D01*
X149271584Y-100617048D01*
X149271580Y-100617051D01*
X149167051Y-100721580D01*
X149167048Y-100721584D01*
X149084919Y-100844498D01*
X149084912Y-100844511D01*
X149028343Y-100981082D01*
X149028340Y-100981092D01*
X148999500Y-101126079D01*
X148999500Y-101126082D01*
X148999500Y-101273918D01*
X148999500Y-101273920D01*
X148999499Y-101273920D01*
X141659436Y-101273920D01*
X141605051Y-101167184D01*
X141605049Y-101167181D01*
X141605048Y-101167179D01*
X141480109Y-100995213D01*
X141329786Y-100844890D01*
X141157820Y-100719951D01*
X141157115Y-100719591D01*
X141149054Y-100715485D01*
X141098259Y-100667512D01*
X141081463Y-100599692D01*
X141103999Y-100533556D01*
X141149054Y-100494515D01*
X141157816Y-100490051D01*
X141213630Y-100449500D01*
X141329786Y-100365109D01*
X141329788Y-100365106D01*
X141329792Y-100365104D01*
X141480104Y-100214792D01*
X141480106Y-100214788D01*
X141480109Y-100214786D01*
X141605048Y-100042820D01*
X141605047Y-100042820D01*
X141605051Y-100042816D01*
X141701557Y-99853412D01*
X141767246Y-99651243D01*
X141800500Y-99441287D01*
X141800500Y-99228713D01*
X141767246Y-99018757D01*
X141701557Y-98816588D01*
X141605051Y-98627184D01*
X141605049Y-98627181D01*
X141605048Y-98627179D01*
X141480109Y-98455213D01*
X141329786Y-98304890D01*
X141157820Y-98179951D01*
X141157115Y-98179591D01*
X141149054Y-98175485D01*
X141098259Y-98127512D01*
X141081463Y-98059692D01*
X141103999Y-97993556D01*
X141149054Y-97954515D01*
X141157816Y-97950051D01*
X141179789Y-97934086D01*
X141329786Y-97825109D01*
X141329788Y-97825106D01*
X141329792Y-97825104D01*
X141480104Y-97674792D01*
X141480106Y-97674788D01*
X141480109Y-97674786D01*
X141605048Y-97502820D01*
X141605047Y-97502820D01*
X141605051Y-97502816D01*
X141701557Y-97313412D01*
X141767246Y-97111243D01*
X141800500Y-96901287D01*
X141800500Y-96688713D01*
X141767246Y-96478757D01*
X141733182Y-96373920D01*
X157999499Y-96373920D01*
X158028340Y-96518907D01*
X158028343Y-96518917D01*
X158084912Y-96655488D01*
X158084919Y-96655501D01*
X158167048Y-96778415D01*
X158167051Y-96778419D01*
X158271580Y-96882948D01*
X158271584Y-96882951D01*
X158394498Y-96965080D01*
X158394511Y-96965087D01*
X158471989Y-96997179D01*
X158531087Y-97021658D01*
X158531091Y-97021658D01*
X158531092Y-97021659D01*
X158676079Y-97050500D01*
X158676082Y-97050500D01*
X158823920Y-97050500D01*
X158921462Y-97031096D01*
X158968913Y-97021658D01*
X159105495Y-96965084D01*
X159228416Y-96882951D01*
X159332951Y-96778416D01*
X159415084Y-96655495D01*
X159471658Y-96518913D01*
X159489406Y-96429692D01*
X159500500Y-96373920D01*
X159500500Y-96226079D01*
X159471659Y-96081092D01*
X159471658Y-96081091D01*
X159471658Y-96081087D01*
X159456622Y-96044786D01*
X159415087Y-95944511D01*
X159415080Y-95944498D01*
X159332951Y-95821584D01*
X159332948Y-95821580D01*
X159228419Y-95717051D01*
X159228415Y-95717048D01*
X159105501Y-95634919D01*
X159105488Y-95634912D01*
X158968917Y-95578343D01*
X158968907Y-95578340D01*
X158823920Y-95549500D01*
X158823918Y-95549500D01*
X158676082Y-95549500D01*
X158676080Y-95549500D01*
X158531092Y-95578340D01*
X158531082Y-95578343D01*
X158394511Y-95634912D01*
X158394498Y-95634919D01*
X158271584Y-95717048D01*
X158271580Y-95717051D01*
X158167051Y-95821580D01*
X158167048Y-95821584D01*
X158084919Y-95944498D01*
X158084912Y-95944511D01*
X158028343Y-96081082D01*
X158028340Y-96081092D01*
X157999500Y-96226079D01*
X157999500Y-96226082D01*
X157999500Y-96373918D01*
X157999500Y-96373920D01*
X157999499Y-96373920D01*
X141733182Y-96373920D01*
X141701557Y-96276588D01*
X141701554Y-96276584D01*
X141701554Y-96276581D01*
X141701404Y-96276286D01*
X141701403Y-96276285D01*
X141635397Y-96146742D01*
X141605051Y-96087184D01*
X141574252Y-96044792D01*
X141480109Y-95915213D01*
X141329786Y-95764890D01*
X141157820Y-95639951D01*
X141157115Y-95639591D01*
X141149054Y-95635485D01*
X141098259Y-95587512D01*
X141081463Y-95519692D01*
X141103999Y-95453556D01*
X141149054Y-95414515D01*
X141157816Y-95410051D01*
X141179789Y-95394086D01*
X141329786Y-95285109D01*
X141329788Y-95285106D01*
X141329792Y-95285104D01*
X141480104Y-95134792D01*
X141605051Y-94962816D01*
X141701557Y-94773412D01*
X141767246Y-94571243D01*
X141800500Y-94361287D01*
X141800500Y-94148713D01*
X141767246Y-93938757D01*
X141701557Y-93736588D01*
X141605051Y-93547184D01*
X141605049Y-93547181D01*
X141605048Y-93547179D01*
X141480109Y-93375213D01*
X141329786Y-93224890D01*
X141157820Y-93099951D01*
X141157115Y-93099591D01*
X141149054Y-93095485D01*
X141098259Y-93047512D01*
X141081463Y-92979692D01*
X141103999Y-92913556D01*
X141149054Y-92874515D01*
X141157816Y-92870051D01*
X141229468Y-92817993D01*
X141329786Y-92745109D01*
X141329788Y-92745106D01*
X141329792Y-92745104D01*
X141480104Y-92594792D01*
X141480106Y-92594788D01*
X141480109Y-92594786D01*
X141605048Y-92422820D01*
X141605047Y-92422820D01*
X141605051Y-92422816D01*
X141701557Y-92233412D01*
X141767246Y-92031243D01*
X141800500Y-91821287D01*
X141800500Y-91608713D01*
X141767246Y-91398757D01*
X141701557Y-91196588D01*
X141605051Y-91007184D01*
X141605049Y-91007181D01*
X141605048Y-91007179D01*
X141480109Y-90835213D01*
X141366569Y-90721673D01*
X141333084Y-90660350D01*
X141338068Y-90590658D01*
X141379940Y-90534725D01*
X141410915Y-90517810D01*
X141542331Y-90468796D01*
X141657546Y-90382546D01*
X141743796Y-90267331D01*
X141794091Y-90132483D01*
X141800500Y-90072873D01*
X141800499Y-88277128D01*
X141794091Y-88217517D01*
X141792810Y-88214083D01*
X141743797Y-88082671D01*
X141743793Y-88082664D01*
X141657547Y-87967455D01*
X141657544Y-87967452D01*
X141542335Y-87881206D01*
X141542328Y-87881202D01*
X141407482Y-87830908D01*
X141407483Y-87830908D01*
X141347883Y-87824501D01*
X141347881Y-87824500D01*
X141347873Y-87824500D01*
X141347865Y-87824500D01*
X141321642Y-87824500D01*
X141254603Y-87804815D01*
X141208848Y-87752011D01*
X141198904Y-87682853D01*
X141200025Y-87676307D01*
X141200500Y-87673919D01*
X141200500Y-87526079D01*
X141171659Y-87381092D01*
X141171658Y-87381091D01*
X141171658Y-87381087D01*
X141148837Y-87325992D01*
X141115087Y-87244511D01*
X141115080Y-87244498D01*
X141032951Y-87121584D01*
X141032948Y-87121580D01*
X140928419Y-87017051D01*
X140928415Y-87017048D01*
X140805501Y-86934919D01*
X140805488Y-86934912D01*
X140668917Y-86878343D01*
X140668907Y-86878340D01*
X140523920Y-86849500D01*
X140523918Y-86849500D01*
X140376082Y-86849500D01*
X140376080Y-86849500D01*
X140231092Y-86878340D01*
X140231082Y-86878343D01*
X140094511Y-86934912D01*
X140094498Y-86934919D01*
X139971584Y-87017048D01*
X139971580Y-87017051D01*
X139867051Y-87121580D01*
X139867048Y-87121584D01*
X139784919Y-87244498D01*
X139784912Y-87244511D01*
X139728343Y-87381082D01*
X139728340Y-87381092D01*
X139699500Y-87526079D01*
X139699500Y-87673919D01*
X139699975Y-87676307D01*
X139699860Y-87677583D01*
X139700097Y-87679983D01*
X139699642Y-87680027D01*
X139693748Y-87745899D01*
X139650886Y-87801077D01*
X139584996Y-87824322D01*
X139578362Y-87824500D01*
X139552131Y-87824500D01*
X139552123Y-87824501D01*
X139492516Y-87830908D01*
X139357671Y-87881202D01*
X139357664Y-87881206D01*
X139242455Y-87967452D01*
X139242452Y-87967455D01*
X139156206Y-88082664D01*
X139156203Y-88082669D01*
X139107189Y-88214083D01*
X139065317Y-88270016D01*
X138999853Y-88294433D01*
X138931580Y-88279581D01*
X138903326Y-88258430D01*
X138789794Y-88144898D01*
X138789788Y-88144893D01*
X138712712Y-88088894D01*
X138670046Y-88033564D01*
X138664067Y-87963951D01*
X138671033Y-87941132D01*
X138721658Y-87818913D01*
X138739839Y-87727512D01*
X138750500Y-87673920D01*
X138750500Y-87526079D01*
X138721659Y-87381092D01*
X138721658Y-87381091D01*
X138721658Y-87381087D01*
X138698837Y-87325992D01*
X138665087Y-87244511D01*
X138665080Y-87244498D01*
X138582951Y-87121584D01*
X138582948Y-87121580D01*
X138478419Y-87017051D01*
X138478415Y-87017048D01*
X138355501Y-86934919D01*
X138355488Y-86934912D01*
X138218917Y-86878343D01*
X138218907Y-86878340D01*
X138073920Y-86849500D01*
X138073918Y-86849500D01*
X137926082Y-86849500D01*
X137926080Y-86849500D01*
X137781092Y-86878340D01*
X137781082Y-86878343D01*
X137644511Y-86934912D01*
X137644498Y-86934919D01*
X137521584Y-87017048D01*
X137521580Y-87017051D01*
X137417051Y-87121580D01*
X137417048Y-87121584D01*
X137334919Y-87244498D01*
X137334912Y-87244511D01*
X137278343Y-87381082D01*
X137278340Y-87381092D01*
X137249500Y-87526079D01*
X137249500Y-87526082D01*
X137249500Y-87673918D01*
X137249500Y-87673920D01*
X137249499Y-87673920D01*
X137278340Y-87818906D01*
X137278342Y-87818914D01*
X137289965Y-87846975D01*
X137297432Y-87916445D01*
X137266156Y-87978923D01*
X137231700Y-88004908D01*
X137202186Y-88019946D01*
X137202184Y-88019948D01*
X137030213Y-88144890D01*
X136879890Y-88295213D01*
X136754951Y-88467179D01*
X136658444Y-88656585D01*
X136592753Y-88858760D01*
X136589783Y-88877512D01*
X136559500Y-89068713D01*
X136287134Y-89068713D01*
X136284043Y-85702135D01*
X143549500Y-85702135D01*
X143549500Y-87797870D01*
X143549501Y-87797876D01*
X143555908Y-87857483D01*
X143606202Y-87992328D01*
X143606206Y-87992335D01*
X143692452Y-88107544D01*
X143692455Y-88107547D01*
X143807664Y-88193793D01*
X143807671Y-88193797D01*
X143942517Y-88244091D01*
X143942516Y-88244091D01*
X143949444Y-88244835D01*
X144002127Y-88250500D01*
X146097872Y-88250499D01*
X146157483Y-88244091D01*
X146292331Y-88193796D01*
X146407546Y-88107546D01*
X146493796Y-87992331D01*
X146544091Y-87857483D01*
X146550500Y-87797873D01*
X146550499Y-86631902D01*
X151149500Y-86631902D01*
X151149500Y-86868097D01*
X151186446Y-87101368D01*
X151259433Y-87325996D01*
X151316866Y-87438713D01*
X151366657Y-87536433D01*
X151505483Y-87727510D01*
X151672490Y-87894517D01*
X151863567Y-88033343D01*
X151922581Y-88063412D01*
X152074003Y-88140566D01*
X152074005Y-88140566D01*
X152074008Y-88140568D01*
X152194412Y-88179689D01*
X152298631Y-88213553D01*
X152531903Y-88250500D01*
X152531908Y-88250500D01*
X152768097Y-88250500D01*
X153001368Y-88213553D01*
X153225992Y-88140568D01*
X153436433Y-88033343D01*
X153627510Y-87894517D01*
X153794517Y-87727510D01*
X153933343Y-87536433D01*
X154040568Y-87325992D01*
X154113553Y-87101368D01*
X154125397Y-87026588D01*
X154150500Y-86868097D01*
X154150500Y-86631902D01*
X154113553Y-86398631D01*
X154053072Y-86212491D01*
X154040568Y-86174008D01*
X154040566Y-86174005D01*
X154040566Y-86174003D01*
X153933342Y-85963566D01*
X153876109Y-85884792D01*
X153794517Y-85772490D01*
X153627510Y-85605483D01*
X153436433Y-85466657D01*
X153225996Y-85359433D01*
X153001368Y-85286446D01*
X152768097Y-85249500D01*
X152768092Y-85249500D01*
X152531908Y-85249500D01*
X152531903Y-85249500D01*
X152298631Y-85286446D01*
X152074003Y-85359433D01*
X151863566Y-85466657D01*
X151785448Y-85523414D01*
X151672490Y-85605483D01*
X151672488Y-85605485D01*
X151672487Y-85605485D01*
X151505485Y-85772487D01*
X151505485Y-85772488D01*
X151505483Y-85772490D01*
X151445862Y-85854550D01*
X151366657Y-85963566D01*
X151259433Y-86174003D01*
X151186446Y-86398631D01*
X151149500Y-86631902D01*
X146550499Y-86631902D01*
X146550499Y-85702128D01*
X146544091Y-85642517D01*
X146530278Y-85605483D01*
X146493797Y-85507671D01*
X146493793Y-85507664D01*
X146407547Y-85392455D01*
X146407544Y-85392452D01*
X146292335Y-85306206D01*
X146292328Y-85306202D01*
X146157482Y-85255908D01*
X146157483Y-85255908D01*
X146097883Y-85249501D01*
X146097881Y-85249500D01*
X146097873Y-85249500D01*
X146097865Y-85249500D01*
X145762139Y-85249500D01*
X145695100Y-85229815D01*
X145649345Y-85177011D01*
X145647578Y-85172952D01*
X145615087Y-85094511D01*
X145615080Y-85094498D01*
X145532951Y-84971584D01*
X145532948Y-84971580D01*
X145428419Y-84867051D01*
X145428415Y-84867048D01*
X145305501Y-84784919D01*
X145305488Y-84784912D01*
X145168917Y-84728343D01*
X145168907Y-84728340D01*
X145023920Y-84699500D01*
X145023918Y-84699500D01*
X144876082Y-84699500D01*
X144876080Y-84699500D01*
X144731092Y-84728340D01*
X144731082Y-84728343D01*
X144594511Y-84784912D01*
X144594498Y-84784919D01*
X144471584Y-84867048D01*
X144471580Y-84867051D01*
X144367051Y-84971580D01*
X144367048Y-84971584D01*
X144284919Y-85094498D01*
X144284914Y-85094508D01*
X144252421Y-85172953D01*
X144208579Y-85227357D01*
X144142285Y-85249421D01*
X144137861Y-85249500D01*
X144002130Y-85249500D01*
X144002123Y-85249501D01*
X143942516Y-85255908D01*
X143807671Y-85306202D01*
X143807664Y-85306206D01*
X143692455Y-85392452D01*
X143692452Y-85392455D01*
X143606206Y-85507664D01*
X143606202Y-85507671D01*
X143555908Y-85642517D01*
X143549845Y-85698920D01*
X143549501Y-85702123D01*
X143549500Y-85702135D01*
X136284043Y-85702135D01*
X136280758Y-82123920D01*
X165499499Y-82123920D01*
X165528340Y-82268907D01*
X165528343Y-82268917D01*
X165584912Y-82405488D01*
X165584919Y-82405501D01*
X165667048Y-82528415D01*
X165667051Y-82528419D01*
X165771580Y-82632948D01*
X165771584Y-82632951D01*
X165894498Y-82715080D01*
X165894511Y-82715087D01*
X166031082Y-82771656D01*
X166031087Y-82771658D01*
X166031091Y-82771658D01*
X166031092Y-82771659D01*
X166176079Y-82800500D01*
X166176082Y-82800500D01*
X166323920Y-82800500D01*
X166421462Y-82781096D01*
X166468913Y-82771658D01*
X166605495Y-82715084D01*
X166728416Y-82632951D01*
X166832951Y-82528416D01*
X166915084Y-82405495D01*
X166971658Y-82268913D01*
X166981096Y-82221462D01*
X167000500Y-82123920D01*
X167000500Y-81976079D01*
X166971659Y-81831092D01*
X166971658Y-81831091D01*
X166971658Y-81831087D01*
X166971656Y-81831082D01*
X166915087Y-81694511D01*
X166915080Y-81694498D01*
X166832951Y-81571584D01*
X166832948Y-81571580D01*
X166728419Y-81467051D01*
X166728415Y-81467048D01*
X166605501Y-81384919D01*
X166605488Y-81384912D01*
X166468917Y-81328343D01*
X166468907Y-81328340D01*
X166323920Y-81299500D01*
X166323918Y-81299500D01*
X166176082Y-81299500D01*
X166176080Y-81299500D01*
X166031092Y-81328340D01*
X166031082Y-81328343D01*
X165894511Y-81384912D01*
X165894498Y-81384919D01*
X165771584Y-81467048D01*
X165771580Y-81467051D01*
X165667051Y-81571580D01*
X165667048Y-81571584D01*
X165584919Y-81694498D01*
X165584912Y-81694511D01*
X165528343Y-81831082D01*
X165528340Y-81831092D01*
X165499500Y-81976079D01*
X165499500Y-81976082D01*
X165499500Y-82123918D01*
X165499500Y-82123920D01*
X165499499Y-82123920D01*
X136280758Y-82123920D01*
X136276175Y-77131947D01*
X136295797Y-77064894D01*
X136348559Y-77019091D01*
X136417708Y-77009084D01*
X136481291Y-77038051D01*
X136511894Y-77078036D01*
X136594870Y-77250336D01*
X136786092Y-77554664D01*
X136966081Y-77780364D01*
X138284728Y-76461717D01*
X138370278Y-76579466D01*
X138520534Y-76729722D01*
X138638281Y-76815270D01*
X137319634Y-78133916D01*
X137319634Y-78133917D01*
X137545335Y-78313907D01*
X137849663Y-78505129D01*
X138173482Y-78661072D01*
X138512729Y-78779779D01*
X138512731Y-78779780D01*
X138863136Y-78859757D01*
X138863148Y-78859759D01*
X139220287Y-78899999D01*
X139220289Y-78900000D01*
X139579711Y-78900000D01*
X139579712Y-78899999D01*
X139936851Y-78859759D01*
X139936863Y-78859757D01*
X140287268Y-78779780D01*
X140287270Y-78779779D01*
X140626517Y-78661072D01*
X140950336Y-78505129D01*
X141254664Y-78313907D01*
X141480364Y-78133916D01*
X140161718Y-76815270D01*
X140279466Y-76729722D01*
X140429722Y-76579466D01*
X140515270Y-76461718D01*
X141833916Y-77780364D01*
X142013907Y-77554664D01*
X142205129Y-77250336D01*
X142361072Y-76926517D01*
X142479779Y-76587270D01*
X142479780Y-76587268D01*
X142550566Y-76277135D01*
X144879500Y-76277135D01*
X144879500Y-78072870D01*
X144879501Y-78072876D01*
X144885908Y-78132483D01*
X144936202Y-78267328D01*
X144936206Y-78267335D01*
X145022452Y-78382544D01*
X145022455Y-78382547D01*
X145137664Y-78468793D01*
X145137671Y-78468797D01*
X145272517Y-78519091D01*
X145272516Y-78519091D01*
X145279444Y-78519835D01*
X145332127Y-78525500D01*
X147127872Y-78525499D01*
X147187483Y-78519091D01*
X147322331Y-78468796D01*
X147437546Y-78382546D01*
X147523796Y-78267331D01*
X147572810Y-78135916D01*
X147614681Y-78079984D01*
X147680145Y-78055566D01*
X147748418Y-78070417D01*
X147776673Y-78091569D01*
X147890213Y-78205109D01*
X148062182Y-78330050D01*
X148062184Y-78330051D01*
X148248894Y-78425184D01*
X148299691Y-78473158D01*
X148316486Y-78540979D01*
X148293949Y-78607114D01*
X148280282Y-78623350D01*
X148187048Y-78716584D01*
X148104919Y-78839498D01*
X148104912Y-78839511D01*
X148048343Y-78976082D01*
X148048340Y-78976092D01*
X148019500Y-79121079D01*
X148019500Y-79121082D01*
X148019500Y-79268918D01*
X148019500Y-79268920D01*
X148019499Y-79268920D01*
X148048340Y-79413907D01*
X148048343Y-79413917D01*
X148104912Y-79550488D01*
X148104919Y-79550501D01*
X148187048Y-79673415D01*
X148187051Y-79673419D01*
X148291580Y-79777948D01*
X148291584Y-79777951D01*
X148414498Y-79860080D01*
X148414511Y-79860087D01*
X148551082Y-79916656D01*
X148551087Y-79916658D01*
X148551091Y-79916658D01*
X148551092Y-79916659D01*
X148696079Y-79945500D01*
X148696082Y-79945500D01*
X148843920Y-79945500D01*
X148941462Y-79926096D01*
X148988913Y-79916658D01*
X149125495Y-79860084D01*
X149248416Y-79777951D01*
X149352951Y-79673416D01*
X149435084Y-79550495D01*
X149491658Y-79413913D01*
X149504686Y-79348419D01*
X149520500Y-79268920D01*
X149520500Y-79121079D01*
X149491659Y-78976092D01*
X149491658Y-78976091D01*
X149491658Y-78976087D01*
X149460142Y-78900000D01*
X149435087Y-78839511D01*
X149435080Y-78839498D01*
X149352951Y-78716584D01*
X149352948Y-78716580D01*
X149259718Y-78623350D01*
X149226233Y-78562027D01*
X149231217Y-78492335D01*
X149273089Y-78436402D01*
X149291097Y-78425188D01*
X149477816Y-78330051D01*
X149547087Y-78279723D01*
X149649786Y-78205109D01*
X149649788Y-78205106D01*
X149649792Y-78205104D01*
X149800104Y-78054792D01*
X149800106Y-78054788D01*
X149800109Y-78054786D01*
X149877326Y-77948504D01*
X149925051Y-77882816D01*
X149929793Y-77873508D01*
X149977763Y-77822711D01*
X150045583Y-77805911D01*
X150111719Y-77828445D01*
X150150763Y-77873500D01*
X150155377Y-77882555D01*
X150280272Y-78054459D01*
X150280276Y-78054464D01*
X150430535Y-78204723D01*
X150430540Y-78204727D01*
X150602442Y-78329620D01*
X150791782Y-78426095D01*
X150993871Y-78491757D01*
X151060000Y-78502231D01*
X151060000Y-77608012D01*
X151117007Y-77640925D01*
X151244174Y-77675000D01*
X151375826Y-77675000D01*
X151502993Y-77640925D01*
X151560000Y-77608012D01*
X151560000Y-78502230D01*
X151626126Y-78491757D01*
X151626129Y-78491757D01*
X151828217Y-78426095D01*
X152017557Y-78329620D01*
X152189459Y-78204727D01*
X152189464Y-78204723D01*
X152339723Y-78054464D01*
X152339727Y-78054459D01*
X152464620Y-77882558D01*
X152469232Y-77873507D01*
X152517205Y-77822709D01*
X152585025Y-77805912D01*
X152651161Y-77828447D01*
X152690204Y-77873504D01*
X152694949Y-77882817D01*
X152819890Y-78054786D01*
X152970213Y-78205109D01*
X153142179Y-78330048D01*
X153142181Y-78330049D01*
X153142184Y-78330051D01*
X153331588Y-78426557D01*
X153533757Y-78492246D01*
X153743713Y-78525500D01*
X153743714Y-78525500D01*
X153956286Y-78525500D01*
X153956287Y-78525500D01*
X154166243Y-78492246D01*
X154368412Y-78426557D01*
X154557816Y-78330051D01*
X154627087Y-78279723D01*
X154729786Y-78205109D01*
X154729788Y-78205106D01*
X154729792Y-78205104D01*
X154880104Y-78054792D01*
X154880106Y-78054788D01*
X154880109Y-78054786D01*
X155005048Y-77882820D01*
X155005047Y-77882820D01*
X155005051Y-77882816D01*
X155009514Y-77874054D01*
X155057488Y-77823259D01*
X155125308Y-77806463D01*
X155191444Y-77828999D01*
X155230486Y-77874056D01*
X155234951Y-77882820D01*
X155359890Y-78054786D01*
X155510213Y-78205109D01*
X155682179Y-78330048D01*
X155682181Y-78330049D01*
X155682184Y-78330051D01*
X155871588Y-78426557D01*
X156073757Y-78492246D01*
X156283713Y-78525500D01*
X156283714Y-78525500D01*
X156496286Y-78525500D01*
X156496287Y-78525500D01*
X156706243Y-78492246D01*
X156908412Y-78426557D01*
X157097816Y-78330051D01*
X157167087Y-78279723D01*
X157269786Y-78205109D01*
X157269788Y-78205106D01*
X157269792Y-78205104D01*
X157420104Y-78054792D01*
X157420106Y-78054788D01*
X157420109Y-78054786D01*
X157545048Y-77882820D01*
X157545047Y-77882820D01*
X157545051Y-77882816D01*
X157549514Y-77874054D01*
X157597488Y-77823259D01*
X157665308Y-77806463D01*
X157731444Y-77828999D01*
X157770486Y-77874056D01*
X157774951Y-77882820D01*
X157899890Y-78054786D01*
X158050213Y-78205109D01*
X158222179Y-78330048D01*
X158222181Y-78330049D01*
X158222184Y-78330051D01*
X158411588Y-78426557D01*
X158613757Y-78492246D01*
X158823713Y-78525500D01*
X158823714Y-78525500D01*
X159036286Y-78525500D01*
X159036287Y-78525500D01*
X159246243Y-78492246D01*
X159448412Y-78426557D01*
X159637816Y-78330051D01*
X159707087Y-78279723D01*
X159809786Y-78205109D01*
X159809788Y-78205106D01*
X159809792Y-78205104D01*
X159960104Y-78054792D01*
X159960106Y-78054788D01*
X159960109Y-78054786D01*
X160085048Y-77882820D01*
X160085047Y-77882820D01*
X160085051Y-77882816D01*
X160181557Y-77693412D01*
X160247246Y-77491243D01*
X160280500Y-77281287D01*
X160280500Y-77068713D01*
X160247246Y-76858757D01*
X160181557Y-76656588D01*
X160085051Y-76467184D01*
X160001464Y-76352135D01*
X161539500Y-76352135D01*
X161539500Y-78147870D01*
X161539501Y-78147876D01*
X161545908Y-78207483D01*
X161596202Y-78342328D01*
X161596206Y-78342335D01*
X161682452Y-78457544D01*
X161682455Y-78457547D01*
X161797664Y-78543793D01*
X161797671Y-78543797D01*
X161932517Y-78594091D01*
X161932516Y-78594091D01*
X161939444Y-78594835D01*
X161992127Y-78600500D01*
X162847309Y-78600499D01*
X162914348Y-78620183D01*
X162960103Y-78672987D01*
X162970047Y-78742146D01*
X162968926Y-78748690D01*
X162959500Y-78796077D01*
X162959500Y-78796082D01*
X162959500Y-78943918D01*
X162959500Y-78943920D01*
X162959499Y-78943920D01*
X162988340Y-79088907D01*
X162988343Y-79088917D01*
X163044912Y-79225488D01*
X163044919Y-79225501D01*
X163127048Y-79348415D01*
X163127051Y-79348419D01*
X163231580Y-79452948D01*
X163231584Y-79452951D01*
X163354498Y-79535080D01*
X163354511Y-79535087D01*
X163491082Y-79591656D01*
X163491087Y-79591658D01*
X163491091Y-79591658D01*
X163491092Y-79591659D01*
X163636079Y-79620500D01*
X163636082Y-79620500D01*
X163783920Y-79620500D01*
X163881462Y-79601096D01*
X163928913Y-79591658D01*
X164065495Y-79535084D01*
X164188416Y-79452951D01*
X164292951Y-79348416D01*
X164375084Y-79225495D01*
X164431658Y-79088913D01*
X164443947Y-79027135D01*
X176594500Y-79027135D01*
X176594500Y-80822870D01*
X176594501Y-80822876D01*
X176600908Y-80882483D01*
X176651202Y-81017328D01*
X176651206Y-81017335D01*
X176737452Y-81132544D01*
X176737455Y-81132547D01*
X176852664Y-81218793D01*
X176852671Y-81218797D01*
X176984082Y-81267810D01*
X177040016Y-81309681D01*
X177064433Y-81375145D01*
X177049582Y-81443418D01*
X177028431Y-81471673D01*
X176914889Y-81585215D01*
X176789951Y-81757179D01*
X176693444Y-81946585D01*
X176627753Y-82148760D01*
X176594500Y-82358713D01*
X176594500Y-82571286D01*
X176627753Y-82781239D01*
X176693444Y-82983414D01*
X176789951Y-83172820D01*
X176914890Y-83344786D01*
X177065213Y-83495109D01*
X177237182Y-83620050D01*
X177245946Y-83624516D01*
X177296742Y-83672491D01*
X177313536Y-83740312D01*
X177290998Y-83806447D01*
X177245946Y-83845484D01*
X177237182Y-83849949D01*
X177065213Y-83974890D01*
X176914890Y-84125213D01*
X176789951Y-84297179D01*
X176693444Y-84486585D01*
X176627753Y-84688760D01*
X176594500Y-84898713D01*
X176594500Y-85111286D01*
X176625371Y-85306202D01*
X176627754Y-85321243D01*
X176688328Y-85507671D01*
X176693444Y-85523414D01*
X176789951Y-85712820D01*
X176914890Y-85884786D01*
X177065213Y-86035109D01*
X177237182Y-86160050D01*
X177245946Y-86164516D01*
X177296742Y-86212491D01*
X177313536Y-86280312D01*
X177290998Y-86346447D01*
X177245946Y-86385484D01*
X177237182Y-86389949D01*
X177065213Y-86514890D01*
X176914890Y-86665213D01*
X176789951Y-86837179D01*
X176693444Y-87026585D01*
X176627753Y-87228760D01*
X176603628Y-87381082D01*
X176594500Y-87438713D01*
X176594500Y-87651287D01*
X176598085Y-87673919D01*
X176622949Y-87830909D01*
X176627754Y-87861243D01*
X176679988Y-88022003D01*
X176693444Y-88063414D01*
X176789951Y-88252820D01*
X176914890Y-88424786D01*
X177065213Y-88575109D01*
X177237182Y-88700050D01*
X177245946Y-88704516D01*
X177296742Y-88752491D01*
X177313536Y-88820312D01*
X177290998Y-88886447D01*
X177245946Y-88925484D01*
X177237182Y-88929949D01*
X177065213Y-89054890D01*
X176914890Y-89205213D01*
X176789951Y-89377179D01*
X176693444Y-89566585D01*
X176627753Y-89768760D01*
X176609688Y-89882820D01*
X176594500Y-89978713D01*
X176594500Y-90191287D01*
X176596689Y-90205109D01*
X176624792Y-90382546D01*
X176627754Y-90401243D01*
X176677870Y-90555484D01*
X176693444Y-90603414D01*
X176789951Y-90792820D01*
X176914890Y-90964786D01*
X177065213Y-91115109D01*
X177237179Y-91240048D01*
X177237181Y-91240049D01*
X177237184Y-91240051D01*
X177246493Y-91244794D01*
X177297290Y-91292766D01*
X177314087Y-91360587D01*
X177291552Y-91426722D01*
X177246502Y-91465762D01*
X177237443Y-91470378D01*
X177065540Y-91595272D01*
X177065535Y-91595276D01*
X176915276Y-91745535D01*
X176915272Y-91745540D01*
X176790379Y-91917442D01*
X176693904Y-92106782D01*
X176628242Y-92308870D01*
X176628242Y-92308873D01*
X176617769Y-92375000D01*
X177511988Y-92375000D01*
X177479075Y-92432007D01*
X177445000Y-92559174D01*
X177445000Y-92690826D01*
X177479075Y-92817993D01*
X177511988Y-92875000D01*
X176617769Y-92875000D01*
X176628242Y-92941126D01*
X176628242Y-92941129D01*
X176693904Y-93143217D01*
X176790379Y-93332557D01*
X176915272Y-93504459D01*
X176915276Y-93504464D01*
X177065535Y-93654723D01*
X177065540Y-93654727D01*
X177237444Y-93779622D01*
X177246495Y-93784234D01*
X177297292Y-93832208D01*
X177314087Y-93900029D01*
X177291550Y-93966164D01*
X177246499Y-94005202D01*
X177237182Y-94009949D01*
X177065213Y-94134890D01*
X176914890Y-94285213D01*
X176789951Y-94457179D01*
X176693444Y-94646585D01*
X176627753Y-94848760D01*
X176594500Y-95058713D01*
X176594500Y-95271287D01*
X176596689Y-95285109D01*
X176623368Y-95453556D01*
X176627754Y-95481243D01*
X176677870Y-95635484D01*
X176693444Y-95683414D01*
X176789951Y-95872820D01*
X176914890Y-96044786D01*
X177065213Y-96195109D01*
X177237182Y-96320050D01*
X177245946Y-96324516D01*
X177296742Y-96372491D01*
X177313536Y-96440312D01*
X177290998Y-96506447D01*
X177245946Y-96545484D01*
X177237182Y-96549949D01*
X177065213Y-96674890D01*
X176914890Y-96825213D01*
X176789951Y-96997179D01*
X176693444Y-97186585D01*
X176627753Y-97388760D01*
X176609688Y-97502820D01*
X176594500Y-97598713D01*
X176594500Y-97811287D01*
X176596689Y-97825109D01*
X176623934Y-97997128D01*
X176627754Y-98021243D01*
X176692873Y-98221659D01*
X176693444Y-98223414D01*
X176789951Y-98412820D01*
X176914890Y-98584786D01*
X177065213Y-98735109D01*
X177237179Y-98860048D01*
X177237181Y-98860049D01*
X177237184Y-98860051D01*
X177426588Y-98956557D01*
X177628757Y-99022246D01*
X177838713Y-99055500D01*
X177838714Y-99055500D01*
X178051286Y-99055500D01*
X178051287Y-99055500D01*
X178261243Y-99022246D01*
X178463412Y-98956557D01*
X178652816Y-98860051D01*
X178712642Y-98816585D01*
X178824786Y-98735109D01*
X178824788Y-98735106D01*
X178824792Y-98735104D01*
X178975104Y-98584792D01*
X178975106Y-98584788D01*
X178975109Y-98584786D01*
X179088718Y-98428415D01*
X179100051Y-98412816D01*
X179196557Y-98223412D01*
X179262246Y-98021243D01*
X179295500Y-97811287D01*
X179295500Y-97598713D01*
X179262246Y-97388757D01*
X179196557Y-97186588D01*
X179100051Y-96997184D01*
X179100049Y-96997181D01*
X179100048Y-96997179D01*
X178975109Y-96825213D01*
X178824786Y-96674890D01*
X178652820Y-96549951D01*
X178652115Y-96549591D01*
X178644054Y-96545485D01*
X178593259Y-96497512D01*
X178576463Y-96429692D01*
X178598999Y-96363556D01*
X178644054Y-96324515D01*
X178652816Y-96320051D01*
X178756807Y-96244498D01*
X178824786Y-96195109D01*
X178824788Y-96195106D01*
X178824792Y-96195104D01*
X178975104Y-96044792D01*
X178975106Y-96044788D01*
X178975109Y-96044786D01*
X179100048Y-95872820D01*
X179100047Y-95872820D01*
X179100051Y-95872816D01*
X179196557Y-95683412D01*
X179262246Y-95481243D01*
X179295500Y-95271287D01*
X179295500Y-95058713D01*
X179262246Y-94848757D01*
X179196557Y-94646588D01*
X179100051Y-94457184D01*
X179100049Y-94457181D01*
X179100048Y-94457179D01*
X178975109Y-94285213D01*
X178824786Y-94134890D01*
X178652817Y-94009949D01*
X178643504Y-94005204D01*
X178592707Y-93957230D01*
X178575912Y-93889409D01*
X178598449Y-93823274D01*
X178643507Y-93784232D01*
X178652558Y-93779620D01*
X178824459Y-93654727D01*
X178824464Y-93654723D01*
X178974723Y-93504464D01*
X178974727Y-93504459D01*
X179099620Y-93332557D01*
X179196095Y-93143217D01*
X179261757Y-92941129D01*
X179261757Y-92941126D01*
X179272231Y-92875000D01*
X178378012Y-92875000D01*
X178410925Y-92817993D01*
X178445000Y-92690826D01*
X178445000Y-92559174D01*
X178410925Y-92432007D01*
X178378012Y-92375000D01*
X179272231Y-92375000D01*
X179261757Y-92308873D01*
X179261757Y-92308870D01*
X179196095Y-92106782D01*
X179099620Y-91917442D01*
X178974727Y-91745540D01*
X178974723Y-91745535D01*
X178824464Y-91595276D01*
X178824459Y-91595272D01*
X178652555Y-91470377D01*
X178643500Y-91465763D01*
X178592706Y-91417788D01*
X178575912Y-91349966D01*
X178598451Y-91283832D01*
X178643508Y-91244793D01*
X178652816Y-91240051D01*
X178732007Y-91182515D01*
X178824786Y-91115109D01*
X178824788Y-91115106D01*
X178824792Y-91115104D01*
X178975104Y-90964792D01*
X178975106Y-90964788D01*
X178975109Y-90964786D01*
X179100048Y-90792820D01*
X179100047Y-90792820D01*
X179100051Y-90792816D01*
X179196557Y-90603412D01*
X179262246Y-90401243D01*
X179295500Y-90191287D01*
X179295500Y-89978713D01*
X179262246Y-89768757D01*
X179196557Y-89566588D01*
X179100051Y-89377184D01*
X179100049Y-89377181D01*
X179100048Y-89377179D01*
X178975109Y-89205213D01*
X178824786Y-89054890D01*
X178652820Y-88929951D01*
X178652115Y-88929591D01*
X178644054Y-88925485D01*
X178593259Y-88877512D01*
X178576463Y-88809692D01*
X178598999Y-88743556D01*
X178644054Y-88704515D01*
X178652816Y-88700051D01*
X178712642Y-88656585D01*
X178824786Y-88575109D01*
X178824788Y-88575106D01*
X178824792Y-88575104D01*
X178975104Y-88424792D01*
X178975106Y-88424788D01*
X178975109Y-88424786D01*
X179100048Y-88252820D01*
X179100047Y-88252820D01*
X179100051Y-88252816D01*
X179196557Y-88063412D01*
X179262246Y-87861243D01*
X179295500Y-87651287D01*
X179295500Y-87438713D01*
X179262246Y-87228757D01*
X179196557Y-87026588D01*
X179100051Y-86837184D01*
X179100049Y-86837181D01*
X179100048Y-86837179D01*
X178975109Y-86665213D01*
X178824786Y-86514890D01*
X178652820Y-86389951D01*
X178652115Y-86389591D01*
X178644054Y-86385485D01*
X178593259Y-86337512D01*
X178576463Y-86269692D01*
X178598999Y-86203556D01*
X178644054Y-86164515D01*
X178652816Y-86160051D01*
X178674789Y-86144086D01*
X178824786Y-86035109D01*
X178824788Y-86035106D01*
X178824792Y-86035104D01*
X178975104Y-85884792D01*
X178975106Y-85884788D01*
X178975109Y-85884786D01*
X179100048Y-85712820D01*
X179100047Y-85712820D01*
X179100051Y-85712816D01*
X179196557Y-85523412D01*
X179262246Y-85321243D01*
X179295500Y-85111287D01*
X179295500Y-84898713D01*
X179262246Y-84688757D01*
X179196557Y-84486588D01*
X179100051Y-84297184D01*
X179100049Y-84297181D01*
X179100048Y-84297179D01*
X178975109Y-84125213D01*
X178824786Y-83974890D01*
X178652820Y-83849951D01*
X178652115Y-83849591D01*
X178644054Y-83845485D01*
X178593259Y-83797512D01*
X178576463Y-83729692D01*
X178598999Y-83663556D01*
X178644054Y-83624515D01*
X178652816Y-83620051D01*
X178674789Y-83604086D01*
X178824786Y-83495109D01*
X178824788Y-83495106D01*
X178824792Y-83495104D01*
X178975104Y-83344792D01*
X178975106Y-83344788D01*
X178975109Y-83344786D01*
X179100048Y-83172820D01*
X179100047Y-83172820D01*
X179100051Y-83172816D01*
X179196557Y-82983412D01*
X179262246Y-82781243D01*
X179295500Y-82571287D01*
X179295500Y-82358713D01*
X179262246Y-82148757D01*
X179196557Y-81946588D01*
X179100051Y-81757184D01*
X179100049Y-81757181D01*
X179100048Y-81757179D01*
X178975109Y-81585213D01*
X178861569Y-81471673D01*
X178828084Y-81410350D01*
X178833068Y-81340658D01*
X178874940Y-81284725D01*
X178905915Y-81267810D01*
X179037331Y-81218796D01*
X179152546Y-81132546D01*
X179238796Y-81017331D01*
X179289091Y-80882483D01*
X179295500Y-80822873D01*
X179295499Y-79027128D01*
X179289091Y-78967517D01*
X179280289Y-78943918D01*
X179238797Y-78832671D01*
X179238793Y-78832664D01*
X179152547Y-78717455D01*
X179152544Y-78717452D01*
X179037335Y-78631206D01*
X179037328Y-78631202D01*
X178902482Y-78580908D01*
X178902483Y-78580908D01*
X178842883Y-78574501D01*
X178842881Y-78574500D01*
X178842873Y-78574500D01*
X178842864Y-78574500D01*
X177047129Y-78574500D01*
X177047123Y-78574501D01*
X176987516Y-78580908D01*
X176852671Y-78631202D01*
X176852664Y-78631206D01*
X176737455Y-78717452D01*
X176737452Y-78717455D01*
X176651206Y-78832664D01*
X176651202Y-78832671D01*
X176600908Y-78967517D01*
X176597458Y-78999613D01*
X176594501Y-79027123D01*
X176594500Y-79027135D01*
X164443947Y-79027135D01*
X164443948Y-79027129D01*
X164449422Y-78999614D01*
X164449422Y-78999613D01*
X164460499Y-78943922D01*
X164460500Y-78943920D01*
X164460500Y-78796079D01*
X164431659Y-78651092D01*
X164431658Y-78651091D01*
X164431658Y-78651087D01*
X164423422Y-78631204D01*
X164375087Y-78514511D01*
X164375080Y-78514498D01*
X164292951Y-78391584D01*
X164292948Y-78391580D01*
X164256418Y-78355051D01*
X164247872Y-78339402D01*
X164235264Y-78326793D01*
X164231475Y-78309373D01*
X164222932Y-78293729D01*
X164224203Y-78275944D01*
X164220414Y-78258520D01*
X164227914Y-78224041D01*
X164233005Y-78210394D01*
X164274876Y-78154465D01*
X164340341Y-78130050D01*
X164408614Y-78144903D01*
X164436865Y-78166053D01*
X164550535Y-78279723D01*
X164550540Y-78279727D01*
X164722442Y-78404620D01*
X164911782Y-78501095D01*
X165113871Y-78566757D01*
X165180000Y-78577231D01*
X165180000Y-77683012D01*
X165237007Y-77715925D01*
X165364174Y-77750000D01*
X165495826Y-77750000D01*
X165622993Y-77715925D01*
X165680000Y-77683012D01*
X165680000Y-78577230D01*
X165746126Y-78566757D01*
X165746129Y-78566757D01*
X165948217Y-78501095D01*
X166137557Y-78404620D01*
X166309459Y-78279727D01*
X166309464Y-78279723D01*
X166459723Y-78129464D01*
X166459727Y-78129459D01*
X166584620Y-77957558D01*
X166589232Y-77948507D01*
X166637205Y-77897709D01*
X166705025Y-77880912D01*
X166771161Y-77903447D01*
X166810204Y-77948504D01*
X166814949Y-77957817D01*
X166939890Y-78129786D01*
X167090213Y-78280109D01*
X167262179Y-78405048D01*
X167262181Y-78405049D01*
X167262184Y-78405051D01*
X167451588Y-78501557D01*
X167653757Y-78567246D01*
X167863713Y-78600500D01*
X167863714Y-78600500D01*
X168076286Y-78600500D01*
X168076287Y-78600500D01*
X168286243Y-78567246D01*
X168488412Y-78501557D01*
X168677816Y-78405051D01*
X168764138Y-78342335D01*
X168849786Y-78280109D01*
X168849788Y-78280106D01*
X168849792Y-78280104D01*
X169000104Y-78129792D01*
X169000106Y-78129788D01*
X169000109Y-78129786D01*
X169125048Y-77957820D01*
X169125050Y-77957817D01*
X169125051Y-77957816D01*
X169129514Y-77949054D01*
X169177488Y-77898259D01*
X169245308Y-77881463D01*
X169311444Y-77903999D01*
X169350486Y-77949056D01*
X169354951Y-77957820D01*
X169479890Y-78129786D01*
X169630213Y-78280109D01*
X169802179Y-78405048D01*
X169802181Y-78405049D01*
X169802184Y-78405051D01*
X169991588Y-78501557D01*
X170193757Y-78567246D01*
X170403713Y-78600500D01*
X170403714Y-78600500D01*
X170616286Y-78600500D01*
X170616287Y-78600500D01*
X170826243Y-78567246D01*
X171028412Y-78501557D01*
X171217816Y-78405051D01*
X171304138Y-78342335D01*
X171389786Y-78280109D01*
X171389788Y-78280106D01*
X171389792Y-78280104D01*
X171540104Y-78129792D01*
X171540106Y-78129788D01*
X171540109Y-78129786D01*
X171665048Y-77957820D01*
X171665050Y-77957817D01*
X171665051Y-77957816D01*
X171761557Y-77768412D01*
X171827246Y-77566243D01*
X171860500Y-77356287D01*
X171860500Y-77143713D01*
X171827246Y-76933757D01*
X171761557Y-76731588D01*
X171665051Y-76542184D01*
X171665049Y-76542181D01*
X171665048Y-76542179D01*
X171540109Y-76370213D01*
X171389786Y-76219890D01*
X171217820Y-76094951D01*
X171028414Y-75998444D01*
X171028413Y-75998443D01*
X171028412Y-75998443D01*
X170826243Y-75932754D01*
X170826241Y-75932753D01*
X170826240Y-75932753D01*
X170664957Y-75907208D01*
X170616287Y-75899500D01*
X170403713Y-75899500D01*
X170355042Y-75907208D01*
X170193760Y-75932753D01*
X169991585Y-75998444D01*
X169802179Y-76094951D01*
X169630213Y-76219890D01*
X169479890Y-76370213D01*
X169354949Y-76542182D01*
X169350484Y-76550946D01*
X169302509Y-76601742D01*
X169234688Y-76618536D01*
X169168553Y-76595998D01*
X169129516Y-76550946D01*
X169125050Y-76542182D01*
X169000109Y-76370213D01*
X168849786Y-76219890D01*
X168677820Y-76094951D01*
X168488414Y-75998444D01*
X168488413Y-75998443D01*
X168488412Y-75998443D01*
X168286243Y-75932754D01*
X168286241Y-75932753D01*
X168286240Y-75932753D01*
X168124957Y-75907208D01*
X168076287Y-75899500D01*
X167863713Y-75899500D01*
X167815042Y-75907208D01*
X167653760Y-75932753D01*
X167451585Y-75998444D01*
X167262179Y-76094951D01*
X167090213Y-76219890D01*
X166939890Y-76370213D01*
X166814949Y-76542182D01*
X166810202Y-76551499D01*
X166762227Y-76602293D01*
X166694405Y-76619087D01*
X166628271Y-76596548D01*
X166589234Y-76551495D01*
X166584622Y-76542444D01*
X166459727Y-76370540D01*
X166459723Y-76370535D01*
X166309464Y-76220276D01*
X166309459Y-76220272D01*
X166137557Y-76095379D01*
X165948215Y-75998903D01*
X165746124Y-75933241D01*
X165680000Y-75922768D01*
X165680000Y-76816988D01*
X165622993Y-76784075D01*
X165495826Y-76750000D01*
X165364174Y-76750000D01*
X165237007Y-76784075D01*
X165180000Y-76816988D01*
X165180000Y-75922768D01*
X165179999Y-75922768D01*
X165113875Y-75933241D01*
X164911784Y-75998903D01*
X164722442Y-76095379D01*
X164550541Y-76220271D01*
X164436865Y-76333947D01*
X164375542Y-76367431D01*
X164305850Y-76362447D01*
X164249917Y-76320575D01*
X164233002Y-76289598D01*
X164232007Y-76286931D01*
X164183796Y-76157669D01*
X164183795Y-76157668D01*
X164183793Y-76157664D01*
X164097547Y-76042455D01*
X164097544Y-76042452D01*
X163982335Y-75956206D01*
X163982328Y-75956202D01*
X163847482Y-75905908D01*
X163847483Y-75905908D01*
X163787883Y-75899501D01*
X163787881Y-75899500D01*
X163787873Y-75899500D01*
X163787864Y-75899500D01*
X161992129Y-75899500D01*
X161992123Y-75899501D01*
X161932516Y-75905908D01*
X161797671Y-75956202D01*
X161797664Y-75956206D01*
X161682455Y-76042452D01*
X161682452Y-76042455D01*
X161596206Y-76157664D01*
X161596202Y-76157671D01*
X161545908Y-76292517D01*
X161539501Y-76352116D01*
X161539500Y-76352135D01*
X160001464Y-76352135D01*
X159960104Y-76295208D01*
X159809792Y-76144896D01*
X159809786Y-76144890D01*
X159637820Y-76019951D01*
X159448414Y-75923444D01*
X159448413Y-75923443D01*
X159448412Y-75923443D01*
X159246243Y-75857754D01*
X159246241Y-75857753D01*
X159246240Y-75857753D01*
X159084957Y-75832208D01*
X159036287Y-75824500D01*
X158823713Y-75824500D01*
X158775042Y-75832208D01*
X158613760Y-75857753D01*
X158512672Y-75890598D01*
X158413666Y-75922768D01*
X158411585Y-75923444D01*
X158222179Y-76019951D01*
X158050213Y-76144890D01*
X157899890Y-76295213D01*
X157774949Y-76467182D01*
X157770484Y-76475946D01*
X157722509Y-76526742D01*
X157654688Y-76543536D01*
X157588553Y-76520998D01*
X157549516Y-76475946D01*
X157545050Y-76467182D01*
X157420109Y-76295213D01*
X157269786Y-76144890D01*
X157097820Y-76019951D01*
X156908414Y-75923444D01*
X156908413Y-75923443D01*
X156908412Y-75923443D01*
X156706243Y-75857754D01*
X156706241Y-75857753D01*
X156706240Y-75857753D01*
X156544957Y-75832208D01*
X156496287Y-75824500D01*
X156283713Y-75824500D01*
X156235042Y-75832208D01*
X156073760Y-75857753D01*
X155972672Y-75890598D01*
X155873666Y-75922768D01*
X155871585Y-75923444D01*
X155682179Y-76019951D01*
X155510213Y-76144890D01*
X155359890Y-76295213D01*
X155234949Y-76467182D01*
X155230484Y-76475946D01*
X155182509Y-76526742D01*
X155114688Y-76543536D01*
X155048553Y-76520998D01*
X155009516Y-76475946D01*
X155005050Y-76467182D01*
X154880109Y-76295213D01*
X154729786Y-76144890D01*
X154557820Y-76019951D01*
X154368414Y-75923444D01*
X154368413Y-75923443D01*
X154368412Y-75923443D01*
X154166243Y-75857754D01*
X154166241Y-75857753D01*
X154166240Y-75857753D01*
X154004957Y-75832208D01*
X153956287Y-75824500D01*
X153743713Y-75824500D01*
X153695042Y-75832208D01*
X153533760Y-75857753D01*
X153432672Y-75890598D01*
X153333666Y-75922768D01*
X153331585Y-75923444D01*
X153142179Y-76019951D01*
X152970213Y-76144890D01*
X152819890Y-76295213D01*
X152694949Y-76467182D01*
X152690202Y-76476499D01*
X152642227Y-76527293D01*
X152574405Y-76544087D01*
X152508271Y-76521548D01*
X152469234Y-76476495D01*
X152464622Y-76467444D01*
X152339727Y-76295540D01*
X152339723Y-76295535D01*
X152189464Y-76145276D01*
X152189459Y-76145272D01*
X152017557Y-76020379D01*
X151828215Y-75923903D01*
X151626124Y-75858241D01*
X151560000Y-75847768D01*
X151560000Y-76741988D01*
X151502993Y-76709075D01*
X151375826Y-76675000D01*
X151244174Y-76675000D01*
X151117007Y-76709075D01*
X151060000Y-76741988D01*
X151060000Y-75847768D01*
X151059999Y-75847768D01*
X150993875Y-75858241D01*
X150791784Y-75923903D01*
X150602442Y-76020379D01*
X150430540Y-76145272D01*
X150430535Y-76145276D01*
X150280276Y-76295535D01*
X150280272Y-76295540D01*
X150155378Y-76467443D01*
X150150762Y-76476502D01*
X150102784Y-76527295D01*
X150034963Y-76544087D01*
X149968829Y-76521546D01*
X149929794Y-76476493D01*
X149925051Y-76467184D01*
X149925049Y-76467181D01*
X149925048Y-76467179D01*
X149800109Y-76295213D01*
X149649786Y-76144890D01*
X149477820Y-76019951D01*
X149288414Y-75923444D01*
X149288413Y-75923443D01*
X149288412Y-75923443D01*
X149086243Y-75857754D01*
X149086241Y-75857753D01*
X149086240Y-75857753D01*
X148924957Y-75832208D01*
X148876287Y-75824500D01*
X148663713Y-75824500D01*
X148615042Y-75832208D01*
X148453760Y-75857753D01*
X148352672Y-75890598D01*
X148253666Y-75922768D01*
X148251585Y-75923444D01*
X148062179Y-76019951D01*
X147890215Y-76144889D01*
X147776673Y-76258431D01*
X147715350Y-76291915D01*
X147645658Y-76286931D01*
X147589725Y-76245059D01*
X147572810Y-76214082D01*
X147523797Y-76082671D01*
X147523793Y-76082664D01*
X147437547Y-75967455D01*
X147437544Y-75967452D01*
X147322335Y-75881206D01*
X147322328Y-75881202D01*
X147187482Y-75830908D01*
X147187483Y-75830908D01*
X147127883Y-75824501D01*
X147127881Y-75824500D01*
X147127873Y-75824500D01*
X147127864Y-75824500D01*
X145332129Y-75824500D01*
X145332123Y-75824501D01*
X145272516Y-75830908D01*
X145137671Y-75881202D01*
X145137664Y-75881206D01*
X145022455Y-75967452D01*
X145022452Y-75967455D01*
X144936206Y-76082664D01*
X144936202Y-76082671D01*
X144885908Y-76217517D01*
X144879501Y-76277116D01*
X144879500Y-76277135D01*
X142550566Y-76277135D01*
X142557624Y-76246213D01*
X142557624Y-76246212D01*
X142559757Y-76236867D01*
X142559759Y-76236851D01*
X142599999Y-75879712D01*
X142600000Y-75879710D01*
X142600000Y-75520289D01*
X142599999Y-75520287D01*
X142559759Y-75163148D01*
X142559757Y-75163136D01*
X142479780Y-74812733D01*
X142425556Y-74657768D01*
X142425555Y-74657766D01*
X142361072Y-74473482D01*
X142205129Y-74149663D01*
X142013907Y-73845335D01*
X141833916Y-73619634D01*
X140515270Y-74938281D01*
X140429722Y-74820534D01*
X140279466Y-74670278D01*
X140161716Y-74584728D01*
X141480364Y-73266081D01*
X141254664Y-73086092D01*
X140950336Y-72894870D01*
X140626517Y-72738927D01*
X140287270Y-72620220D01*
X140287268Y-72620219D01*
X139936863Y-72540242D01*
X139936851Y-72540240D01*
X139579712Y-72500000D01*
X139220287Y-72500000D01*
X138863148Y-72540240D01*
X138863136Y-72540242D01*
X138512731Y-72620219D01*
X138512729Y-72620220D01*
X138173482Y-72738927D01*
X137849663Y-72894870D01*
X137545335Y-73086092D01*
X137319634Y-73266081D01*
X138638282Y-74584729D01*
X138520534Y-74670278D01*
X138370278Y-74820534D01*
X138284729Y-74938282D01*
X136966081Y-73619634D01*
X136786092Y-73845335D01*
X136594870Y-74149663D01*
X136509270Y-74327414D01*
X136462447Y-74379273D01*
X136395020Y-74397586D01*
X136328396Y-74376538D01*
X136283728Y-74322812D01*
X136273551Y-74273730D01*
X136271073Y-71574614D01*
X136290696Y-71507556D01*
X136343458Y-71461753D01*
X136395073Y-71450500D01*
X176563920Y-71450500D01*
X176630959Y-71470185D01*
G37*
%TD.AperFunction*%
%TD*%
M02*
