%TF.GenerationSoftware,KiCad,Pcbnew,9.0.0*%
%TF.CreationDate,2025-03-20T21:32:39+01:00*%
%TF.ProjectId,PCB_Module_Payement,5043425f-4d6f-4647-956c-655f50617965,rev?*%
%TF.SameCoordinates,Original*%
%TF.FileFunction,Soldermask,Top*%
%TF.FilePolarity,Negative*%
%FSLAX46Y46*%
G04 Gerber Fmt 4.6, Leading zero omitted, Abs format (unit mm)*
G04 Created by KiCad (PCBNEW 9.0.0) date 2025-03-20 21:32:39*
%MOMM*%
%LPD*%
G01*
G04 APERTURE LIST*
G04 Aperture macros list*
%AMRoundRect*
0 Rectangle with rounded corners*
0 $1 Rounding radius*
0 $2 $3 $4 $5 $6 $7 $8 $9 X,Y pos of 4 corners*
0 Add a 4 corners polygon primitive as box body*
4,1,4,$2,$3,$4,$5,$6,$7,$8,$9,$2,$3,0*
0 Add four circle primitives for the rounded corners*
1,1,$1+$1,$2,$3*
1,1,$1+$1,$4,$5*
1,1,$1+$1,$6,$7*
1,1,$1+$1,$8,$9*
0 Add four rect primitives between the rounded corners*
20,1,$1+$1,$2,$3,$4,$5,0*
20,1,$1+$1,$4,$5,$6,$7,0*
20,1,$1+$1,$6,$7,$8,$9,0*
20,1,$1+$1,$8,$9,$2,$3,0*%
G04 Aperture macros list end*
%ADD10O,1.950000X1.700000*%
%ADD11RoundRect,0.250000X0.725000X-0.600000X0.725000X0.600000X-0.725000X0.600000X-0.725000X-0.600000X0*%
%ADD12O,2.000000X2.800000*%
%ADD13RoundRect,0.135000X0.135000X0.185000X-0.135000X0.185000X-0.135000X-0.185000X0.135000X-0.185000X0*%
%ADD14R,1.000000X2.800000*%
%ADD15RoundRect,0.140000X-0.170000X0.140000X-0.170000X-0.140000X0.170000X-0.140000X0.170000X0.140000X0*%
%ADD16RoundRect,0.218750X0.218750X0.256250X-0.218750X0.256250X-0.218750X-0.256250X0.218750X-0.256250X0*%
%ADD17RoundRect,0.140000X0.170000X-0.140000X0.170000X0.140000X-0.170000X0.140000X-0.170000X-0.140000X0*%
%ADD18RoundRect,0.140000X-0.140000X-0.170000X0.140000X-0.170000X0.140000X0.170000X-0.140000X0.170000X0*%
%ADD19C,0.650000*%
%ADD20R,0.600000X1.450000*%
%ADD21R,0.300000X1.450000*%
%ADD22O,1.000000X2.100000*%
%ADD23O,1.000000X1.600000*%
%ADD24R,2.400000X0.740000*%
%ADD25RoundRect,0.135000X-0.135000X-0.185000X0.135000X-0.185000X0.135000X0.185000X-0.135000X0.185000X0*%
%ADD26R,1.700000X1.700000*%
%ADD27O,1.700000X1.700000*%
%ADD28RoundRect,0.135000X0.185000X-0.135000X0.185000X0.135000X-0.185000X0.135000X-0.185000X-0.135000X0*%
%ADD29R,2.000000X2.000000*%
%ADD30C,2.000000*%
%ADD31RoundRect,0.140000X0.140000X0.170000X-0.140000X0.170000X-0.140000X-0.170000X0.140000X-0.170000X0*%
%ADD32C,5.400000*%
%ADD33RoundRect,0.135000X-0.185000X0.135000X-0.185000X-0.135000X0.185000X-0.135000X0.185000X0.135000X0*%
%ADD34RoundRect,0.150000X-0.150000X0.512500X-0.150000X-0.512500X0.150000X-0.512500X0.150000X0.512500X0*%
%ADD35RoundRect,0.218750X0.381250X-0.218750X0.381250X0.218750X-0.381250X0.218750X-0.381250X-0.218750X0*%
%ADD36R,1.905000X1.139800*%
%ADD37RoundRect,0.062500X-0.062500X0.375000X-0.062500X-0.375000X0.062500X-0.375000X0.062500X0.375000X0*%
%ADD38RoundRect,0.062500X-0.375000X0.062500X-0.375000X-0.062500X0.375000X-0.062500X0.375000X0.062500X0*%
%ADD39R,5.600000X5.600000*%
%ADD40RoundRect,0.225000X0.225000X0.250000X-0.225000X0.250000X-0.225000X-0.250000X0.225000X-0.250000X0*%
%ADD41R,0.914400X0.431800*%
G04 APERTURE END LIST*
D10*
%TO.C,J5*%
X180000000Y-102550000D03*
D11*
X180000000Y-105050000D03*
D12*
X186500000Y-103800000D03*
%TD*%
D13*
%TO.C,R1*%
X159230000Y-95750000D03*
X160250000Y-95750000D03*
%TD*%
D14*
%TO.C,SW3*%
X137800000Y-114450000D03*
X137800000Y-108650000D03*
X141800000Y-114450000D03*
X141800000Y-108650000D03*
%TD*%
D13*
%TO.C,R6*%
X158210000Y-117000000D03*
X157190000Y-117000000D03*
%TD*%
D14*
%TO.C,SW1*%
X163600000Y-85500000D03*
X163600000Y-91300000D03*
X159600000Y-85500000D03*
X159600000Y-91300000D03*
%TD*%
D15*
%TO.C,C3*%
X155150000Y-107400000D03*
X155150000Y-108360000D03*
%TD*%
D16*
%TO.C,D2*%
X162600000Y-115400000D03*
X161025000Y-115400000D03*
%TD*%
%TO.C,D1*%
X173075000Y-103500000D03*
X171500000Y-103500000D03*
%TD*%
D17*
%TO.C,C5*%
X163700000Y-99530000D03*
X163700000Y-98570000D03*
%TD*%
D15*
%TO.C,C6*%
X160900000Y-112590000D03*
X160900000Y-113550000D03*
%TD*%
D18*
%TO.C,C1*%
X149400000Y-79825000D03*
X150360000Y-79825000D03*
%TD*%
D19*
%TO.C,J6*%
X165430000Y-126795000D03*
X171210000Y-126795000D03*
D20*
X165070000Y-125350000D03*
X165870000Y-125350000D03*
D21*
X167070000Y-125350000D03*
X168070000Y-125350000D03*
X168570000Y-125350000D03*
X169570000Y-125350000D03*
D20*
X170770000Y-125350000D03*
X171570000Y-125350000D03*
X171570000Y-125350000D03*
X170770000Y-125350000D03*
D21*
X170070000Y-125350000D03*
X169070000Y-125350000D03*
X167570000Y-125350000D03*
X166570000Y-125350000D03*
D20*
X165870000Y-125350000D03*
X165070000Y-125350000D03*
D22*
X164000000Y-126265000D03*
D23*
X164000000Y-130445000D03*
D22*
X172640000Y-126265000D03*
D23*
X172640000Y-130445000D03*
%TD*%
D24*
%TO.C,J4*%
X149400000Y-114910000D03*
X145500000Y-114910000D03*
X149400000Y-113640000D03*
X145500000Y-113640000D03*
X149400000Y-112370000D03*
X145500000Y-112370000D03*
X149400000Y-111100000D03*
X145500000Y-111100000D03*
X149400000Y-109830000D03*
X145500000Y-109830000D03*
X149400000Y-108560000D03*
X145500000Y-108560000D03*
X149400000Y-107290000D03*
X145500000Y-107290000D03*
%TD*%
D17*
%TO.C,C7*%
X164650000Y-99560000D03*
X164650000Y-98600000D03*
%TD*%
%TO.C,C8*%
X160400000Y-94730000D03*
X160400000Y-93770000D03*
%TD*%
D25*
%TO.C,R3*%
X164690000Y-102250000D03*
X165710000Y-102250000D03*
%TD*%
D26*
%TO.C,J3*%
X177945000Y-79925000D03*
D27*
X177945000Y-82465000D03*
X177945000Y-85005000D03*
X177945000Y-87545000D03*
X177945000Y-90085000D03*
X177945000Y-92625000D03*
X177945000Y-95165000D03*
X177945000Y-97705000D03*
%TD*%
D28*
%TO.C,R9*%
X161300000Y-117710000D03*
X161300000Y-116690000D03*
%TD*%
D13*
%TO.C,R8*%
X160260000Y-117000000D03*
X159240000Y-117000000D03*
%TD*%
D29*
%TO.C,BZ1*%
X145050000Y-86750000D03*
D30*
X152650000Y-86750000D03*
%TD*%
D26*
%TO.C,J1*%
X162890000Y-77250000D03*
D27*
X165430000Y-77250000D03*
X167970000Y-77250000D03*
X170510000Y-77250000D03*
%TD*%
D31*
%TO.C,C14*%
X143230000Y-116750000D03*
X142270000Y-116750000D03*
%TD*%
D32*
%TO.C,H4*%
X177550000Y-122200000D03*
%TD*%
D25*
%TO.C,R4*%
X171250000Y-104750000D03*
X172270000Y-104750000D03*
%TD*%
D13*
%TO.C,R7*%
X154200000Y-117000000D03*
X153180000Y-117000000D03*
%TD*%
D33*
%TO.C,R2*%
X159300000Y-93740000D03*
X159300000Y-94760000D03*
%TD*%
D17*
%TO.C,C13*%
X165650000Y-99560000D03*
X165650000Y-98600000D03*
%TD*%
D31*
%TO.C,C4*%
X152330000Y-105550000D03*
X151370000Y-105550000D03*
%TD*%
D15*
%TO.C,C12*%
X166200000Y-111670000D03*
X166200000Y-112630000D03*
%TD*%
D32*
%TO.C,H3*%
X139250000Y-120850000D03*
%TD*%
D34*
%TO.C,U4*%
X169230000Y-120407500D03*
X168280000Y-120407500D03*
X167330000Y-120407500D03*
X167330000Y-122682500D03*
X168280000Y-122682500D03*
X169230000Y-122682500D03*
%TD*%
D18*
%TO.C,C9*%
X162860000Y-109230000D03*
X163820000Y-109230000D03*
%TD*%
D32*
%TO.C,H2*%
X177370000Y-74800000D03*
%TD*%
D13*
%TO.C,R5*%
X156230000Y-117000000D03*
X155210000Y-117000000D03*
%TD*%
D35*
%TO.C,L1*%
X153700000Y-107762500D03*
X153700000Y-105637500D03*
%TD*%
D36*
%TO.C,U5*%
X172350000Y-116366400D03*
X172350000Y-120833600D03*
%TD*%
D25*
%TO.C,R10*%
X170670000Y-123045000D03*
X171690000Y-123045000D03*
%TD*%
D37*
%TO.C,U1*%
X162770000Y-100712500D03*
X162270000Y-100712500D03*
X161770000Y-100712500D03*
X161270000Y-100712500D03*
X160770000Y-100712500D03*
X160270000Y-100712500D03*
X159770000Y-100712500D03*
X159270000Y-100712500D03*
X158770000Y-100712500D03*
X158270000Y-100712500D03*
X157770000Y-100712500D03*
X157270000Y-100712500D03*
D38*
X156582500Y-101400000D03*
X156582500Y-101900000D03*
X156582500Y-102400000D03*
X156582500Y-102900000D03*
X156582500Y-103400000D03*
X156582500Y-103900000D03*
X156582500Y-104400000D03*
X156582500Y-104900000D03*
X156582500Y-105400000D03*
X156582500Y-105900000D03*
X156582500Y-106400000D03*
X156582500Y-106900000D03*
D37*
X157270000Y-107587500D03*
X157770000Y-107587500D03*
X158270000Y-107587500D03*
X158770000Y-107587500D03*
X159270000Y-107587500D03*
X159770000Y-107587500D03*
X160270000Y-107587500D03*
X160770000Y-107587500D03*
X161270000Y-107587500D03*
X161770000Y-107587500D03*
X162270000Y-107587500D03*
X162770000Y-107587500D03*
D38*
X163457500Y-106900000D03*
X163457500Y-106400000D03*
X163457500Y-105900000D03*
X163457500Y-105400000D03*
X163457500Y-104900000D03*
X163457500Y-104400000D03*
X163457500Y-103900000D03*
X163457500Y-103400000D03*
X163457500Y-102900000D03*
X163457500Y-102400000D03*
X163457500Y-101900000D03*
X163457500Y-101400000D03*
D39*
X160020000Y-104150000D03*
%TD*%
D32*
%TO.C,H1*%
X139400000Y-75700000D03*
%TD*%
D13*
%TO.C,R11*%
X165990000Y-123045000D03*
X164970000Y-123045000D03*
%TD*%
D14*
%TO.C,SW2*%
X166300000Y-91300000D03*
X166300000Y-85500000D03*
X170300000Y-91300000D03*
X170300000Y-85500000D03*
%TD*%
D36*
%TO.C,U3*%
X174250000Y-112883600D03*
X174250000Y-108416400D03*
%TD*%
D40*
%TO.C,C10*%
X153375000Y-104150000D03*
X151825000Y-104150000D03*
%TD*%
D17*
%TO.C,C11*%
X154080000Y-102900000D03*
X154080000Y-101940000D03*
%TD*%
D12*
%TO.C,J_Switch1*%
X186550000Y-113650000D03*
D11*
X180050000Y-116150000D03*
D10*
X180050000Y-113650000D03*
X180050000Y-111150000D03*
%TD*%
D41*
%TO.C,U2*%
X164795400Y-113539800D03*
X164795400Y-112600000D03*
X164795400Y-111660200D03*
X162204600Y-111647500D03*
X162204600Y-113552500D03*
%TD*%
D26*
%TO.C,J2*%
X146230000Y-77175000D03*
D27*
X148770000Y-77175000D03*
X151310000Y-77175000D03*
X153850000Y-77175000D03*
X156390000Y-77175000D03*
X158930000Y-77175000D03*
%TD*%
D18*
%TO.C,C2*%
X163710000Y-79925000D03*
X164670000Y-79925000D03*
%TD*%
D26*
%TO.C,J7*%
X140450000Y-89175000D03*
D27*
X137910000Y-89175000D03*
X140450000Y-91715000D03*
X137910000Y-91715000D03*
X140450000Y-94255000D03*
X137910000Y-94255000D03*
X140450000Y-96795000D03*
X137910000Y-96795000D03*
X140450000Y-99335000D03*
X137910000Y-99335000D03*
X140450000Y-101875000D03*
X137910000Y-101875000D03*
X140450000Y-104415000D03*
X137910000Y-104415000D03*
%TD*%
D26*
%TO.C,J8*%
X143410000Y-120195000D03*
D27*
X145950000Y-120195000D03*
X148490000Y-120195000D03*
X151030000Y-120195000D03*
X153570000Y-120195000D03*
X156110000Y-120195000D03*
X158650000Y-120195000D03*
X161190000Y-120195000D03*
%TD*%
M02*
