%TF.GenerationSoftware,KiCad,Pcbnew,9.0.0-9.0.0-2~ubuntu22.04.1*%
%TF.CreationDate,2025-03-23T14:57:04+01:00*%
%TF.ProjectId,PCB_Module_Payement,5043425f-4d6f-4647-956c-655f50617965,rev?*%
%TF.SameCoordinates,Original*%
%TF.FileFunction,Legend,Top*%
%TF.FilePolarity,Positive*%
%FSLAX46Y46*%
G04 Gerber Fmt 4.6, Leading zero omitted, Abs format (unit mm)*
G04 Created by KiCad (PCBNEW 9.0.0-9.0.0-2~ubuntu22.04.1) date 2025-03-23 14:57:04*
%MOMM*%
%LPD*%
G01*
G04 APERTURE LIST*
%ADD10C,0.150000*%
%ADD11C,0.125000*%
%ADD12C,0.120000*%
%ADD13C,0.152400*%
G04 APERTURE END LIST*
D10*
X138466667Y-111957200D02*
X138609524Y-112004819D01*
X138609524Y-112004819D02*
X138847619Y-112004819D01*
X138847619Y-112004819D02*
X138942857Y-111957200D01*
X138942857Y-111957200D02*
X138990476Y-111909580D01*
X138990476Y-111909580D02*
X139038095Y-111814342D01*
X139038095Y-111814342D02*
X139038095Y-111719104D01*
X139038095Y-111719104D02*
X138990476Y-111623866D01*
X138990476Y-111623866D02*
X138942857Y-111576247D01*
X138942857Y-111576247D02*
X138847619Y-111528628D01*
X138847619Y-111528628D02*
X138657143Y-111481009D01*
X138657143Y-111481009D02*
X138561905Y-111433390D01*
X138561905Y-111433390D02*
X138514286Y-111385771D01*
X138514286Y-111385771D02*
X138466667Y-111290533D01*
X138466667Y-111290533D02*
X138466667Y-111195295D01*
X138466667Y-111195295D02*
X138514286Y-111100057D01*
X138514286Y-111100057D02*
X138561905Y-111052438D01*
X138561905Y-111052438D02*
X138657143Y-111004819D01*
X138657143Y-111004819D02*
X138895238Y-111004819D01*
X138895238Y-111004819D02*
X139038095Y-111052438D01*
X139371429Y-111004819D02*
X139609524Y-112004819D01*
X139609524Y-112004819D02*
X139800000Y-111290533D01*
X139800000Y-111290533D02*
X139990476Y-112004819D01*
X139990476Y-112004819D02*
X140228572Y-111004819D01*
X140514286Y-111004819D02*
X141133333Y-111004819D01*
X141133333Y-111004819D02*
X140800000Y-111385771D01*
X140800000Y-111385771D02*
X140942857Y-111385771D01*
X140942857Y-111385771D02*
X141038095Y-111433390D01*
X141038095Y-111433390D02*
X141085714Y-111481009D01*
X141085714Y-111481009D02*
X141133333Y-111576247D01*
X141133333Y-111576247D02*
X141133333Y-111814342D01*
X141133333Y-111814342D02*
X141085714Y-111909580D01*
X141085714Y-111909580D02*
X141038095Y-111957200D01*
X141038095Y-111957200D02*
X140942857Y-112004819D01*
X140942857Y-112004819D02*
X140657143Y-112004819D01*
X140657143Y-112004819D02*
X140561905Y-111957200D01*
X140561905Y-111957200D02*
X140514286Y-111909580D01*
X157057142Y-118624819D02*
X156723809Y-118148628D01*
X156485714Y-118624819D02*
X156485714Y-117624819D01*
X156485714Y-117624819D02*
X156866666Y-117624819D01*
X156866666Y-117624819D02*
X156961904Y-117672438D01*
X156961904Y-117672438D02*
X157009523Y-117720057D01*
X157009523Y-117720057D02*
X157057142Y-117815295D01*
X157057142Y-117815295D02*
X157057142Y-117958152D01*
X157057142Y-117958152D02*
X157009523Y-118053390D01*
X157009523Y-118053390D02*
X156961904Y-118101009D01*
X156961904Y-118101009D02*
X156866666Y-118148628D01*
X156866666Y-118148628D02*
X156485714Y-118148628D01*
X158009523Y-118624819D02*
X157438095Y-118624819D01*
X157723809Y-118624819D02*
X157723809Y-117624819D01*
X157723809Y-117624819D02*
X157628571Y-117767676D01*
X157628571Y-117767676D02*
X157533333Y-117862914D01*
X157533333Y-117862914D02*
X157438095Y-117910533D01*
X158342857Y-117624819D02*
X159009523Y-117624819D01*
X159009523Y-117624819D02*
X158580952Y-118624819D01*
X157767200Y-89733332D02*
X157814819Y-89590475D01*
X157814819Y-89590475D02*
X157814819Y-89352380D01*
X157814819Y-89352380D02*
X157767200Y-89257142D01*
X157767200Y-89257142D02*
X157719580Y-89209523D01*
X157719580Y-89209523D02*
X157624342Y-89161904D01*
X157624342Y-89161904D02*
X157529104Y-89161904D01*
X157529104Y-89161904D02*
X157433866Y-89209523D01*
X157433866Y-89209523D02*
X157386247Y-89257142D01*
X157386247Y-89257142D02*
X157338628Y-89352380D01*
X157338628Y-89352380D02*
X157291009Y-89542856D01*
X157291009Y-89542856D02*
X157243390Y-89638094D01*
X157243390Y-89638094D02*
X157195771Y-89685713D01*
X157195771Y-89685713D02*
X157100533Y-89733332D01*
X157100533Y-89733332D02*
X157005295Y-89733332D01*
X157005295Y-89733332D02*
X156910057Y-89685713D01*
X156910057Y-89685713D02*
X156862438Y-89638094D01*
X156862438Y-89638094D02*
X156814819Y-89542856D01*
X156814819Y-89542856D02*
X156814819Y-89304761D01*
X156814819Y-89304761D02*
X156862438Y-89161904D01*
X156814819Y-88828570D02*
X157814819Y-88590475D01*
X157814819Y-88590475D02*
X157100533Y-88399999D01*
X157100533Y-88399999D02*
X157814819Y-88209523D01*
X157814819Y-88209523D02*
X156814819Y-87971428D01*
X157814819Y-87066666D02*
X157814819Y-87638094D01*
X157814819Y-87352380D02*
X156814819Y-87352380D01*
X156814819Y-87352380D02*
X156957676Y-87447618D01*
X156957676Y-87447618D02*
X157052914Y-87542856D01*
X157052914Y-87542856D02*
X157100533Y-87638094D01*
X154527142Y-109849580D02*
X154479523Y-109897200D01*
X154479523Y-109897200D02*
X154336666Y-109944819D01*
X154336666Y-109944819D02*
X154241428Y-109944819D01*
X154241428Y-109944819D02*
X154098571Y-109897200D01*
X154098571Y-109897200D02*
X154003333Y-109801961D01*
X154003333Y-109801961D02*
X153955714Y-109706723D01*
X153955714Y-109706723D02*
X153908095Y-109516247D01*
X153908095Y-109516247D02*
X153908095Y-109373390D01*
X153908095Y-109373390D02*
X153955714Y-109182914D01*
X153955714Y-109182914D02*
X154003333Y-109087676D01*
X154003333Y-109087676D02*
X154098571Y-108992438D01*
X154098571Y-108992438D02*
X154241428Y-108944819D01*
X154241428Y-108944819D02*
X154336666Y-108944819D01*
X154336666Y-108944819D02*
X154479523Y-108992438D01*
X154479523Y-108992438D02*
X154527142Y-109040057D01*
X155479523Y-109944819D02*
X154908095Y-109944819D01*
X155193809Y-109944819D02*
X155193809Y-108944819D01*
X155193809Y-108944819D02*
X155098571Y-109087676D01*
X155098571Y-109087676D02*
X155003333Y-109182914D01*
X155003333Y-109182914D02*
X154908095Y-109230533D01*
X156431904Y-109944819D02*
X155860476Y-109944819D01*
X156146190Y-109944819D02*
X156146190Y-108944819D01*
X156146190Y-108944819D02*
X156050952Y-109087676D01*
X156050952Y-109087676D02*
X155955714Y-109182914D01*
X155955714Y-109182914D02*
X155860476Y-109230533D01*
X158721905Y-115854819D02*
X158721905Y-114854819D01*
X158721905Y-114854819D02*
X158960000Y-114854819D01*
X158960000Y-114854819D02*
X159102857Y-114902438D01*
X159102857Y-114902438D02*
X159198095Y-114997676D01*
X159198095Y-114997676D02*
X159245714Y-115092914D01*
X159245714Y-115092914D02*
X159293333Y-115283390D01*
X159293333Y-115283390D02*
X159293333Y-115426247D01*
X159293333Y-115426247D02*
X159245714Y-115616723D01*
X159245714Y-115616723D02*
X159198095Y-115711961D01*
X159198095Y-115711961D02*
X159102857Y-115807200D01*
X159102857Y-115807200D02*
X158960000Y-115854819D01*
X158960000Y-115854819D02*
X158721905Y-115854819D01*
X160198095Y-114854819D02*
X159721905Y-114854819D01*
X159721905Y-114854819D02*
X159674286Y-115331009D01*
X159674286Y-115331009D02*
X159721905Y-115283390D01*
X159721905Y-115283390D02*
X159817143Y-115235771D01*
X159817143Y-115235771D02*
X160055238Y-115235771D01*
X160055238Y-115235771D02*
X160150476Y-115283390D01*
X160150476Y-115283390D02*
X160198095Y-115331009D01*
X160198095Y-115331009D02*
X160245714Y-115426247D01*
X160245714Y-115426247D02*
X160245714Y-115664342D01*
X160245714Y-115664342D02*
X160198095Y-115759580D01*
X160198095Y-115759580D02*
X160150476Y-115807200D01*
X160150476Y-115807200D02*
X160055238Y-115854819D01*
X160055238Y-115854819D02*
X159817143Y-115854819D01*
X159817143Y-115854819D02*
X159721905Y-115807200D01*
X159721905Y-115807200D02*
X159674286Y-115759580D01*
X169381905Y-103894819D02*
X169381905Y-102894819D01*
X169381905Y-102894819D02*
X169620000Y-102894819D01*
X169620000Y-102894819D02*
X169762857Y-102942438D01*
X169762857Y-102942438D02*
X169858095Y-103037676D01*
X169858095Y-103037676D02*
X169905714Y-103132914D01*
X169905714Y-103132914D02*
X169953333Y-103323390D01*
X169953333Y-103323390D02*
X169953333Y-103466247D01*
X169953333Y-103466247D02*
X169905714Y-103656723D01*
X169905714Y-103656723D02*
X169858095Y-103751961D01*
X169858095Y-103751961D02*
X169762857Y-103847200D01*
X169762857Y-103847200D02*
X169620000Y-103894819D01*
X169620000Y-103894819D02*
X169381905Y-103894819D01*
X170334286Y-102990057D02*
X170381905Y-102942438D01*
X170381905Y-102942438D02*
X170477143Y-102894819D01*
X170477143Y-102894819D02*
X170715238Y-102894819D01*
X170715238Y-102894819D02*
X170810476Y-102942438D01*
X170810476Y-102942438D02*
X170858095Y-102990057D01*
X170858095Y-102990057D02*
X170905714Y-103085295D01*
X170905714Y-103085295D02*
X170905714Y-103180533D01*
X170905714Y-103180533D02*
X170858095Y-103323390D01*
X170858095Y-103323390D02*
X170286667Y-103894819D01*
X170286667Y-103894819D02*
X170905714Y-103894819D01*
D11*
X163008571Y-97977190D02*
X162984762Y-98001000D01*
X162984762Y-98001000D02*
X162913333Y-98024809D01*
X162913333Y-98024809D02*
X162865714Y-98024809D01*
X162865714Y-98024809D02*
X162794286Y-98001000D01*
X162794286Y-98001000D02*
X162746667Y-97953380D01*
X162746667Y-97953380D02*
X162722857Y-97905761D01*
X162722857Y-97905761D02*
X162699048Y-97810523D01*
X162699048Y-97810523D02*
X162699048Y-97739095D01*
X162699048Y-97739095D02*
X162722857Y-97643857D01*
X162722857Y-97643857D02*
X162746667Y-97596238D01*
X162746667Y-97596238D02*
X162794286Y-97548619D01*
X162794286Y-97548619D02*
X162865714Y-97524809D01*
X162865714Y-97524809D02*
X162913333Y-97524809D01*
X162913333Y-97524809D02*
X162984762Y-97548619D01*
X162984762Y-97548619D02*
X163008571Y-97572428D01*
X163484762Y-98024809D02*
X163199048Y-98024809D01*
X163341905Y-98024809D02*
X163341905Y-97524809D01*
X163341905Y-97524809D02*
X163294286Y-97596238D01*
X163294286Y-97596238D02*
X163246667Y-97643857D01*
X163246667Y-97643857D02*
X163199048Y-97667666D01*
X163675238Y-97572428D02*
X163699047Y-97548619D01*
X163699047Y-97548619D02*
X163746666Y-97524809D01*
X163746666Y-97524809D02*
X163865714Y-97524809D01*
X163865714Y-97524809D02*
X163913333Y-97548619D01*
X163913333Y-97548619D02*
X163937142Y-97572428D01*
X163937142Y-97572428D02*
X163960952Y-97620047D01*
X163960952Y-97620047D02*
X163960952Y-97667666D01*
X163960952Y-97667666D02*
X163937142Y-97739095D01*
X163937142Y-97739095D02*
X163651428Y-98024809D01*
X163651428Y-98024809D02*
X163960952Y-98024809D01*
D10*
X159443333Y-113559580D02*
X159395714Y-113607200D01*
X159395714Y-113607200D02*
X159252857Y-113654819D01*
X159252857Y-113654819D02*
X159157619Y-113654819D01*
X159157619Y-113654819D02*
X159014762Y-113607200D01*
X159014762Y-113607200D02*
X158919524Y-113511961D01*
X158919524Y-113511961D02*
X158871905Y-113416723D01*
X158871905Y-113416723D02*
X158824286Y-113226247D01*
X158824286Y-113226247D02*
X158824286Y-113083390D01*
X158824286Y-113083390D02*
X158871905Y-112892914D01*
X158871905Y-112892914D02*
X158919524Y-112797676D01*
X158919524Y-112797676D02*
X159014762Y-112702438D01*
X159014762Y-112702438D02*
X159157619Y-112654819D01*
X159157619Y-112654819D02*
X159252857Y-112654819D01*
X159252857Y-112654819D02*
X159395714Y-112702438D01*
X159395714Y-112702438D02*
X159443333Y-112750057D01*
X160348095Y-112654819D02*
X159871905Y-112654819D01*
X159871905Y-112654819D02*
X159824286Y-113131009D01*
X159824286Y-113131009D02*
X159871905Y-113083390D01*
X159871905Y-113083390D02*
X159967143Y-113035771D01*
X159967143Y-113035771D02*
X160205238Y-113035771D01*
X160205238Y-113035771D02*
X160300476Y-113083390D01*
X160300476Y-113083390D02*
X160348095Y-113131009D01*
X160348095Y-113131009D02*
X160395714Y-113226247D01*
X160395714Y-113226247D02*
X160395714Y-113464342D01*
X160395714Y-113464342D02*
X160348095Y-113559580D01*
X160348095Y-113559580D02*
X160300476Y-113607200D01*
X160300476Y-113607200D02*
X160205238Y-113654819D01*
X160205238Y-113654819D02*
X159967143Y-113654819D01*
X159967143Y-113654819D02*
X159871905Y-113607200D01*
X159871905Y-113607200D02*
X159824286Y-113559580D01*
X151067142Y-80379580D02*
X151019523Y-80427200D01*
X151019523Y-80427200D02*
X150876666Y-80474819D01*
X150876666Y-80474819D02*
X150781428Y-80474819D01*
X150781428Y-80474819D02*
X150638571Y-80427200D01*
X150638571Y-80427200D02*
X150543333Y-80331961D01*
X150543333Y-80331961D02*
X150495714Y-80236723D01*
X150495714Y-80236723D02*
X150448095Y-80046247D01*
X150448095Y-80046247D02*
X150448095Y-79903390D01*
X150448095Y-79903390D02*
X150495714Y-79712914D01*
X150495714Y-79712914D02*
X150543333Y-79617676D01*
X150543333Y-79617676D02*
X150638571Y-79522438D01*
X150638571Y-79522438D02*
X150781428Y-79474819D01*
X150781428Y-79474819D02*
X150876666Y-79474819D01*
X150876666Y-79474819D02*
X151019523Y-79522438D01*
X151019523Y-79522438D02*
X151067142Y-79570057D01*
X152019523Y-80474819D02*
X151448095Y-80474819D01*
X151733809Y-80474819D02*
X151733809Y-79474819D01*
X151733809Y-79474819D02*
X151638571Y-79617676D01*
X151638571Y-79617676D02*
X151543333Y-79712914D01*
X151543333Y-79712914D02*
X151448095Y-79760533D01*
X152352857Y-79474819D02*
X153019523Y-79474819D01*
X153019523Y-79474819D02*
X152590952Y-80474819D01*
X167986666Y-128289819D02*
X167986666Y-129004104D01*
X167986666Y-129004104D02*
X167939047Y-129146961D01*
X167939047Y-129146961D02*
X167843809Y-129242200D01*
X167843809Y-129242200D02*
X167700952Y-129289819D01*
X167700952Y-129289819D02*
X167605714Y-129289819D01*
X168605714Y-128718390D02*
X168510476Y-128670771D01*
X168510476Y-128670771D02*
X168462857Y-128623152D01*
X168462857Y-128623152D02*
X168415238Y-128527914D01*
X168415238Y-128527914D02*
X168415238Y-128480295D01*
X168415238Y-128480295D02*
X168462857Y-128385057D01*
X168462857Y-128385057D02*
X168510476Y-128337438D01*
X168510476Y-128337438D02*
X168605714Y-128289819D01*
X168605714Y-128289819D02*
X168796190Y-128289819D01*
X168796190Y-128289819D02*
X168891428Y-128337438D01*
X168891428Y-128337438D02*
X168939047Y-128385057D01*
X168939047Y-128385057D02*
X168986666Y-128480295D01*
X168986666Y-128480295D02*
X168986666Y-128527914D01*
X168986666Y-128527914D02*
X168939047Y-128623152D01*
X168939047Y-128623152D02*
X168891428Y-128670771D01*
X168891428Y-128670771D02*
X168796190Y-128718390D01*
X168796190Y-128718390D02*
X168605714Y-128718390D01*
X168605714Y-128718390D02*
X168510476Y-128766009D01*
X168510476Y-128766009D02*
X168462857Y-128813628D01*
X168462857Y-128813628D02*
X168415238Y-128908866D01*
X168415238Y-128908866D02*
X168415238Y-129099342D01*
X168415238Y-129099342D02*
X168462857Y-129194580D01*
X168462857Y-129194580D02*
X168510476Y-129242200D01*
X168510476Y-129242200D02*
X168605714Y-129289819D01*
X168605714Y-129289819D02*
X168796190Y-129289819D01*
X168796190Y-129289819D02*
X168891428Y-129242200D01*
X168891428Y-129242200D02*
X168939047Y-129194580D01*
X168939047Y-129194580D02*
X168986666Y-129099342D01*
X168986666Y-129099342D02*
X168986666Y-128908866D01*
X168986666Y-128908866D02*
X168939047Y-128813628D01*
X168939047Y-128813628D02*
X168891428Y-128766009D01*
X168891428Y-128766009D02*
X168796190Y-128718390D01*
X147116666Y-110554819D02*
X147116666Y-111269104D01*
X147116666Y-111269104D02*
X147069047Y-111411961D01*
X147069047Y-111411961D02*
X146973809Y-111507200D01*
X146973809Y-111507200D02*
X146830952Y-111554819D01*
X146830952Y-111554819D02*
X146735714Y-111554819D01*
X147640476Y-111554819D02*
X147830952Y-111554819D01*
X147830952Y-111554819D02*
X147926190Y-111507200D01*
X147926190Y-111507200D02*
X147973809Y-111459580D01*
X147973809Y-111459580D02*
X148069047Y-111316723D01*
X148069047Y-111316723D02*
X148116666Y-111126247D01*
X148116666Y-111126247D02*
X148116666Y-110745295D01*
X148116666Y-110745295D02*
X148069047Y-110650057D01*
X148069047Y-110650057D02*
X148021428Y-110602438D01*
X148021428Y-110602438D02*
X147926190Y-110554819D01*
X147926190Y-110554819D02*
X147735714Y-110554819D01*
X147735714Y-110554819D02*
X147640476Y-110602438D01*
X147640476Y-110602438D02*
X147592857Y-110650057D01*
X147592857Y-110650057D02*
X147545238Y-110745295D01*
X147545238Y-110745295D02*
X147545238Y-110983390D01*
X147545238Y-110983390D02*
X147592857Y-111078628D01*
X147592857Y-111078628D02*
X147640476Y-111126247D01*
X147640476Y-111126247D02*
X147735714Y-111173866D01*
X147735714Y-111173866D02*
X147926190Y-111173866D01*
X147926190Y-111173866D02*
X148021428Y-111126247D01*
X148021428Y-111126247D02*
X148069047Y-111078628D01*
X148069047Y-111078628D02*
X148116666Y-110983390D01*
D11*
X164556666Y-97917190D02*
X164532857Y-97941000D01*
X164532857Y-97941000D02*
X164461428Y-97964809D01*
X164461428Y-97964809D02*
X164413809Y-97964809D01*
X164413809Y-97964809D02*
X164342381Y-97941000D01*
X164342381Y-97941000D02*
X164294762Y-97893380D01*
X164294762Y-97893380D02*
X164270952Y-97845761D01*
X164270952Y-97845761D02*
X164247143Y-97750523D01*
X164247143Y-97750523D02*
X164247143Y-97679095D01*
X164247143Y-97679095D02*
X164270952Y-97583857D01*
X164270952Y-97583857D02*
X164294762Y-97536238D01*
X164294762Y-97536238D02*
X164342381Y-97488619D01*
X164342381Y-97488619D02*
X164413809Y-97464809D01*
X164413809Y-97464809D02*
X164461428Y-97464809D01*
X164461428Y-97464809D02*
X164532857Y-97488619D01*
X164532857Y-97488619D02*
X164556666Y-97512428D01*
X164723333Y-97464809D02*
X165056666Y-97464809D01*
X165056666Y-97464809D02*
X164842381Y-97964809D01*
D10*
X158519580Y-94892857D02*
X158567200Y-94940476D01*
X158567200Y-94940476D02*
X158614819Y-95083333D01*
X158614819Y-95083333D02*
X158614819Y-95178571D01*
X158614819Y-95178571D02*
X158567200Y-95321428D01*
X158567200Y-95321428D02*
X158471961Y-95416666D01*
X158471961Y-95416666D02*
X158376723Y-95464285D01*
X158376723Y-95464285D02*
X158186247Y-95511904D01*
X158186247Y-95511904D02*
X158043390Y-95511904D01*
X158043390Y-95511904D02*
X157852914Y-95464285D01*
X157852914Y-95464285D02*
X157757676Y-95416666D01*
X157757676Y-95416666D02*
X157662438Y-95321428D01*
X157662438Y-95321428D02*
X157614819Y-95178571D01*
X157614819Y-95178571D02*
X157614819Y-95083333D01*
X157614819Y-95083333D02*
X157662438Y-94940476D01*
X157662438Y-94940476D02*
X157710057Y-94892857D01*
X158614819Y-93940476D02*
X158614819Y-94511904D01*
X158614819Y-94226190D02*
X157614819Y-94226190D01*
X157614819Y-94226190D02*
X157757676Y-94321428D01*
X157757676Y-94321428D02*
X157852914Y-94416666D01*
X157852914Y-94416666D02*
X157900533Y-94511904D01*
X157614819Y-93083333D02*
X157614819Y-93273809D01*
X157614819Y-93273809D02*
X157662438Y-93369047D01*
X157662438Y-93369047D02*
X157710057Y-93416666D01*
X157710057Y-93416666D02*
X157852914Y-93511904D01*
X157852914Y-93511904D02*
X158043390Y-93559523D01*
X158043390Y-93559523D02*
X158424342Y-93559523D01*
X158424342Y-93559523D02*
X158519580Y-93511904D01*
X158519580Y-93511904D02*
X158567200Y-93464285D01*
X158567200Y-93464285D02*
X158614819Y-93369047D01*
X158614819Y-93369047D02*
X158614819Y-93178571D01*
X158614819Y-93178571D02*
X158567200Y-93083333D01*
X158567200Y-93083333D02*
X158519580Y-93035714D01*
X158519580Y-93035714D02*
X158424342Y-92988095D01*
X158424342Y-92988095D02*
X158186247Y-92988095D01*
X158186247Y-92988095D02*
X158091009Y-93035714D01*
X158091009Y-93035714D02*
X158043390Y-93083333D01*
X158043390Y-93083333D02*
X157995771Y-93178571D01*
X157995771Y-93178571D02*
X157995771Y-93369047D01*
X157995771Y-93369047D02*
X158043390Y-93464285D01*
X158043390Y-93464285D02*
X158091009Y-93511904D01*
X158091009Y-93511904D02*
X158186247Y-93559523D01*
X178004819Y-103993333D02*
X178719104Y-103993333D01*
X178719104Y-103993333D02*
X178861961Y-104040952D01*
X178861961Y-104040952D02*
X178957200Y-104136190D01*
X178957200Y-104136190D02*
X179004819Y-104279047D01*
X179004819Y-104279047D02*
X179004819Y-104374285D01*
X178004819Y-103612380D02*
X178004819Y-102945714D01*
X178004819Y-102945714D02*
X179004819Y-103374285D01*
X165033333Y-101534819D02*
X164700000Y-101058628D01*
X164461905Y-101534819D02*
X164461905Y-100534819D01*
X164461905Y-100534819D02*
X164842857Y-100534819D01*
X164842857Y-100534819D02*
X164938095Y-100582438D01*
X164938095Y-100582438D02*
X164985714Y-100630057D01*
X164985714Y-100630057D02*
X165033333Y-100725295D01*
X165033333Y-100725295D02*
X165033333Y-100868152D01*
X165033333Y-100868152D02*
X164985714Y-100963390D01*
X164985714Y-100963390D02*
X164938095Y-101011009D01*
X164938095Y-101011009D02*
X164842857Y-101058628D01*
X164842857Y-101058628D02*
X164461905Y-101058628D01*
X165890476Y-100534819D02*
X165700000Y-100534819D01*
X165700000Y-100534819D02*
X165604762Y-100582438D01*
X165604762Y-100582438D02*
X165557143Y-100630057D01*
X165557143Y-100630057D02*
X165461905Y-100772914D01*
X165461905Y-100772914D02*
X165414286Y-100963390D01*
X165414286Y-100963390D02*
X165414286Y-101344342D01*
X165414286Y-101344342D02*
X165461905Y-101439580D01*
X165461905Y-101439580D02*
X165509524Y-101487200D01*
X165509524Y-101487200D02*
X165604762Y-101534819D01*
X165604762Y-101534819D02*
X165795238Y-101534819D01*
X165795238Y-101534819D02*
X165890476Y-101487200D01*
X165890476Y-101487200D02*
X165938095Y-101439580D01*
X165938095Y-101439580D02*
X165985714Y-101344342D01*
X165985714Y-101344342D02*
X165985714Y-101106247D01*
X165985714Y-101106247D02*
X165938095Y-101011009D01*
X165938095Y-101011009D02*
X165890476Y-100963390D01*
X165890476Y-100963390D02*
X165795238Y-100915771D01*
X165795238Y-100915771D02*
X165604762Y-100915771D01*
X165604762Y-100915771D02*
X165509524Y-100963390D01*
X165509524Y-100963390D02*
X165461905Y-101011009D01*
X165461905Y-101011009D02*
X165414286Y-101106247D01*
X181996666Y-77109819D02*
X181996666Y-77824104D01*
X181996666Y-77824104D02*
X181949047Y-77966961D01*
X181949047Y-77966961D02*
X181853809Y-78062200D01*
X181853809Y-78062200D02*
X181710952Y-78109819D01*
X181710952Y-78109819D02*
X181615714Y-78109819D01*
X182377619Y-77109819D02*
X182996666Y-77109819D01*
X182996666Y-77109819D02*
X182663333Y-77490771D01*
X182663333Y-77490771D02*
X182806190Y-77490771D01*
X182806190Y-77490771D02*
X182901428Y-77538390D01*
X182901428Y-77538390D02*
X182949047Y-77586009D01*
X182949047Y-77586009D02*
X182996666Y-77681247D01*
X182996666Y-77681247D02*
X182996666Y-77919342D01*
X182996666Y-77919342D02*
X182949047Y-78014580D01*
X182949047Y-78014580D02*
X182901428Y-78062200D01*
X182901428Y-78062200D02*
X182806190Y-78109819D01*
X182806190Y-78109819D02*
X182520476Y-78109819D01*
X182520476Y-78109819D02*
X182425238Y-78062200D01*
X182425238Y-78062200D02*
X182377619Y-78014580D01*
X162944819Y-117952857D02*
X162468628Y-118286190D01*
X162944819Y-118524285D02*
X161944819Y-118524285D01*
X161944819Y-118524285D02*
X161944819Y-118143333D01*
X161944819Y-118143333D02*
X161992438Y-118048095D01*
X161992438Y-118048095D02*
X162040057Y-118000476D01*
X162040057Y-118000476D02*
X162135295Y-117952857D01*
X162135295Y-117952857D02*
X162278152Y-117952857D01*
X162278152Y-117952857D02*
X162373390Y-118000476D01*
X162373390Y-118000476D02*
X162421009Y-118048095D01*
X162421009Y-118048095D02*
X162468628Y-118143333D01*
X162468628Y-118143333D02*
X162468628Y-118524285D01*
X162040057Y-117571904D02*
X161992438Y-117524285D01*
X161992438Y-117524285D02*
X161944819Y-117429047D01*
X161944819Y-117429047D02*
X161944819Y-117190952D01*
X161944819Y-117190952D02*
X161992438Y-117095714D01*
X161992438Y-117095714D02*
X162040057Y-117048095D01*
X162040057Y-117048095D02*
X162135295Y-117000476D01*
X162135295Y-117000476D02*
X162230533Y-117000476D01*
X162230533Y-117000476D02*
X162373390Y-117048095D01*
X162373390Y-117048095D02*
X162944819Y-117619523D01*
X162944819Y-117619523D02*
X162944819Y-117000476D01*
X161944819Y-116381428D02*
X161944819Y-116286190D01*
X161944819Y-116286190D02*
X161992438Y-116190952D01*
X161992438Y-116190952D02*
X162040057Y-116143333D01*
X162040057Y-116143333D02*
X162135295Y-116095714D01*
X162135295Y-116095714D02*
X162325771Y-116048095D01*
X162325771Y-116048095D02*
X162563866Y-116048095D01*
X162563866Y-116048095D02*
X162754342Y-116095714D01*
X162754342Y-116095714D02*
X162849580Y-116143333D01*
X162849580Y-116143333D02*
X162897200Y-116190952D01*
X162897200Y-116190952D02*
X162944819Y-116286190D01*
X162944819Y-116286190D02*
X162944819Y-116381428D01*
X162944819Y-116381428D02*
X162897200Y-116476666D01*
X162897200Y-116476666D02*
X162849580Y-116524285D01*
X162849580Y-116524285D02*
X162754342Y-116571904D01*
X162754342Y-116571904D02*
X162563866Y-116619523D01*
X162563866Y-116619523D02*
X162325771Y-116619523D01*
X162325771Y-116619523D02*
X162135295Y-116571904D01*
X162135295Y-116571904D02*
X162040057Y-116524285D01*
X162040057Y-116524285D02*
X161992438Y-116476666D01*
X161992438Y-116476666D02*
X161944819Y-116381428D01*
X159107142Y-118624819D02*
X158773809Y-118148628D01*
X158535714Y-118624819D02*
X158535714Y-117624819D01*
X158535714Y-117624819D02*
X158916666Y-117624819D01*
X158916666Y-117624819D02*
X159011904Y-117672438D01*
X159011904Y-117672438D02*
X159059523Y-117720057D01*
X159059523Y-117720057D02*
X159107142Y-117815295D01*
X159107142Y-117815295D02*
X159107142Y-117958152D01*
X159107142Y-117958152D02*
X159059523Y-118053390D01*
X159059523Y-118053390D02*
X159011904Y-118101009D01*
X159011904Y-118101009D02*
X158916666Y-118148628D01*
X158916666Y-118148628D02*
X158535714Y-118148628D01*
X160059523Y-118624819D02*
X159488095Y-118624819D01*
X159773809Y-118624819D02*
X159773809Y-117624819D01*
X159773809Y-117624819D02*
X159678571Y-117767676D01*
X159678571Y-117767676D02*
X159583333Y-117862914D01*
X159583333Y-117862914D02*
X159488095Y-117910533D01*
X160535714Y-118624819D02*
X160726190Y-118624819D01*
X160726190Y-118624819D02*
X160821428Y-118577200D01*
X160821428Y-118577200D02*
X160869047Y-118529580D01*
X160869047Y-118529580D02*
X160964285Y-118386723D01*
X160964285Y-118386723D02*
X161011904Y-118196247D01*
X161011904Y-118196247D02*
X161011904Y-117815295D01*
X161011904Y-117815295D02*
X160964285Y-117720057D01*
X160964285Y-117720057D02*
X160916666Y-117672438D01*
X160916666Y-117672438D02*
X160821428Y-117624819D01*
X160821428Y-117624819D02*
X160630952Y-117624819D01*
X160630952Y-117624819D02*
X160535714Y-117672438D01*
X160535714Y-117672438D02*
X160488095Y-117720057D01*
X160488095Y-117720057D02*
X160440476Y-117815295D01*
X160440476Y-117815295D02*
X160440476Y-118053390D01*
X160440476Y-118053390D02*
X160488095Y-118148628D01*
X160488095Y-118148628D02*
X160535714Y-118196247D01*
X160535714Y-118196247D02*
X160630952Y-118243866D01*
X160630952Y-118243866D02*
X160821428Y-118243866D01*
X160821428Y-118243866D02*
X160916666Y-118196247D01*
X160916666Y-118196247D02*
X160964285Y-118148628D01*
X160964285Y-118148628D02*
X161011904Y-118053390D01*
X147969047Y-86681009D02*
X148111904Y-86728628D01*
X148111904Y-86728628D02*
X148159523Y-86776247D01*
X148159523Y-86776247D02*
X148207142Y-86871485D01*
X148207142Y-86871485D02*
X148207142Y-87014342D01*
X148207142Y-87014342D02*
X148159523Y-87109580D01*
X148159523Y-87109580D02*
X148111904Y-87157200D01*
X148111904Y-87157200D02*
X148016666Y-87204819D01*
X148016666Y-87204819D02*
X147635714Y-87204819D01*
X147635714Y-87204819D02*
X147635714Y-86204819D01*
X147635714Y-86204819D02*
X147969047Y-86204819D01*
X147969047Y-86204819D02*
X148064285Y-86252438D01*
X148064285Y-86252438D02*
X148111904Y-86300057D01*
X148111904Y-86300057D02*
X148159523Y-86395295D01*
X148159523Y-86395295D02*
X148159523Y-86490533D01*
X148159523Y-86490533D02*
X148111904Y-86585771D01*
X148111904Y-86585771D02*
X148064285Y-86633390D01*
X148064285Y-86633390D02*
X147969047Y-86681009D01*
X147969047Y-86681009D02*
X147635714Y-86681009D01*
X148540476Y-86204819D02*
X149207142Y-86204819D01*
X149207142Y-86204819D02*
X148540476Y-87204819D01*
X148540476Y-87204819D02*
X149207142Y-87204819D01*
X150111904Y-87204819D02*
X149540476Y-87204819D01*
X149826190Y-87204819D02*
X149826190Y-86204819D01*
X149826190Y-86204819D02*
X149730952Y-86347676D01*
X149730952Y-86347676D02*
X149635714Y-86442914D01*
X149635714Y-86442914D02*
X149540476Y-86490533D01*
X144659048Y-84283866D02*
X145420953Y-84283866D01*
X145040000Y-84664819D02*
X145040000Y-83902914D01*
X160074819Y-73198333D02*
X160789104Y-73198333D01*
X160789104Y-73198333D02*
X160931961Y-73245952D01*
X160931961Y-73245952D02*
X161027200Y-73341190D01*
X161027200Y-73341190D02*
X161074819Y-73484047D01*
X161074819Y-73484047D02*
X161074819Y-73579285D01*
X160074819Y-72293571D02*
X160074819Y-72484047D01*
X160074819Y-72484047D02*
X160122438Y-72579285D01*
X160122438Y-72579285D02*
X160170057Y-72626904D01*
X160170057Y-72626904D02*
X160312914Y-72722142D01*
X160312914Y-72722142D02*
X160503390Y-72769761D01*
X160503390Y-72769761D02*
X160884342Y-72769761D01*
X160884342Y-72769761D02*
X160979580Y-72722142D01*
X160979580Y-72722142D02*
X161027200Y-72674523D01*
X161027200Y-72674523D02*
X161074819Y-72579285D01*
X161074819Y-72579285D02*
X161074819Y-72388809D01*
X161074819Y-72388809D02*
X161027200Y-72293571D01*
X161027200Y-72293571D02*
X160979580Y-72245952D01*
X160979580Y-72245952D02*
X160884342Y-72198333D01*
X160884342Y-72198333D02*
X160646247Y-72198333D01*
X160646247Y-72198333D02*
X160551009Y-72245952D01*
X160551009Y-72245952D02*
X160503390Y-72293571D01*
X160503390Y-72293571D02*
X160455771Y-72388809D01*
X160455771Y-72388809D02*
X160455771Y-72579285D01*
X160455771Y-72579285D02*
X160503390Y-72674523D01*
X160503390Y-72674523D02*
X160551009Y-72722142D01*
X160551009Y-72722142D02*
X160646247Y-72769761D01*
X142117142Y-118319580D02*
X142069523Y-118367200D01*
X142069523Y-118367200D02*
X141926666Y-118414819D01*
X141926666Y-118414819D02*
X141831428Y-118414819D01*
X141831428Y-118414819D02*
X141688571Y-118367200D01*
X141688571Y-118367200D02*
X141593333Y-118271961D01*
X141593333Y-118271961D02*
X141545714Y-118176723D01*
X141545714Y-118176723D02*
X141498095Y-117986247D01*
X141498095Y-117986247D02*
X141498095Y-117843390D01*
X141498095Y-117843390D02*
X141545714Y-117652914D01*
X141545714Y-117652914D02*
X141593333Y-117557676D01*
X141593333Y-117557676D02*
X141688571Y-117462438D01*
X141688571Y-117462438D02*
X141831428Y-117414819D01*
X141831428Y-117414819D02*
X141926666Y-117414819D01*
X141926666Y-117414819D02*
X142069523Y-117462438D01*
X142069523Y-117462438D02*
X142117142Y-117510057D01*
X143069523Y-118414819D02*
X142498095Y-118414819D01*
X142783809Y-118414819D02*
X142783809Y-117414819D01*
X142783809Y-117414819D02*
X142688571Y-117557676D01*
X142688571Y-117557676D02*
X142593333Y-117652914D01*
X142593333Y-117652914D02*
X142498095Y-117700533D01*
X143640952Y-117843390D02*
X143545714Y-117795771D01*
X143545714Y-117795771D02*
X143498095Y-117748152D01*
X143498095Y-117748152D02*
X143450476Y-117652914D01*
X143450476Y-117652914D02*
X143450476Y-117605295D01*
X143450476Y-117605295D02*
X143498095Y-117510057D01*
X143498095Y-117510057D02*
X143545714Y-117462438D01*
X143545714Y-117462438D02*
X143640952Y-117414819D01*
X143640952Y-117414819D02*
X143831428Y-117414819D01*
X143831428Y-117414819D02*
X143926666Y-117462438D01*
X143926666Y-117462438D02*
X143974285Y-117510057D01*
X143974285Y-117510057D02*
X144021904Y-117605295D01*
X144021904Y-117605295D02*
X144021904Y-117652914D01*
X144021904Y-117652914D02*
X143974285Y-117748152D01*
X143974285Y-117748152D02*
X143926666Y-117795771D01*
X143926666Y-117795771D02*
X143831428Y-117843390D01*
X143831428Y-117843390D02*
X143640952Y-117843390D01*
X143640952Y-117843390D02*
X143545714Y-117891009D01*
X143545714Y-117891009D02*
X143498095Y-117938628D01*
X143498095Y-117938628D02*
X143450476Y-118033866D01*
X143450476Y-118033866D02*
X143450476Y-118224342D01*
X143450476Y-118224342D02*
X143498095Y-118319580D01*
X143498095Y-118319580D02*
X143545714Y-118367200D01*
X143545714Y-118367200D02*
X143640952Y-118414819D01*
X143640952Y-118414819D02*
X143831428Y-118414819D01*
X143831428Y-118414819D02*
X143926666Y-118367200D01*
X143926666Y-118367200D02*
X143974285Y-118319580D01*
X143974285Y-118319580D02*
X144021904Y-118224342D01*
X144021904Y-118224342D02*
X144021904Y-118033866D01*
X144021904Y-118033866D02*
X143974285Y-117938628D01*
X143974285Y-117938628D02*
X143926666Y-117891009D01*
X143926666Y-117891009D02*
X143831428Y-117843390D01*
X173037142Y-105434819D02*
X172703809Y-104958628D01*
X172465714Y-105434819D02*
X172465714Y-104434819D01*
X172465714Y-104434819D02*
X172846666Y-104434819D01*
X172846666Y-104434819D02*
X172941904Y-104482438D01*
X172941904Y-104482438D02*
X172989523Y-104530057D01*
X172989523Y-104530057D02*
X173037142Y-104625295D01*
X173037142Y-104625295D02*
X173037142Y-104768152D01*
X173037142Y-104768152D02*
X172989523Y-104863390D01*
X172989523Y-104863390D02*
X172941904Y-104911009D01*
X172941904Y-104911009D02*
X172846666Y-104958628D01*
X172846666Y-104958628D02*
X172465714Y-104958628D01*
X173989523Y-105434819D02*
X173418095Y-105434819D01*
X173703809Y-105434819D02*
X173703809Y-104434819D01*
X173703809Y-104434819D02*
X173608571Y-104577676D01*
X173608571Y-104577676D02*
X173513333Y-104672914D01*
X173513333Y-104672914D02*
X173418095Y-104720533D01*
X174846666Y-104768152D02*
X174846666Y-105434819D01*
X174608571Y-104387200D02*
X174370476Y-105101485D01*
X174370476Y-105101485D02*
X174989523Y-105101485D01*
X153523333Y-118624819D02*
X153190000Y-118148628D01*
X152951905Y-118624819D02*
X152951905Y-117624819D01*
X152951905Y-117624819D02*
X153332857Y-117624819D01*
X153332857Y-117624819D02*
X153428095Y-117672438D01*
X153428095Y-117672438D02*
X153475714Y-117720057D01*
X153475714Y-117720057D02*
X153523333Y-117815295D01*
X153523333Y-117815295D02*
X153523333Y-117958152D01*
X153523333Y-117958152D02*
X153475714Y-118053390D01*
X153475714Y-118053390D02*
X153428095Y-118101009D01*
X153428095Y-118101009D02*
X153332857Y-118148628D01*
X153332857Y-118148628D02*
X152951905Y-118148628D01*
X154475714Y-118624819D02*
X153904286Y-118624819D01*
X154190000Y-118624819D02*
X154190000Y-117624819D01*
X154190000Y-117624819D02*
X154094762Y-117767676D01*
X154094762Y-117767676D02*
X153999524Y-117862914D01*
X153999524Y-117862914D02*
X153904286Y-117910533D01*
X162214819Y-94416666D02*
X161738628Y-94749999D01*
X162214819Y-94988094D02*
X161214819Y-94988094D01*
X161214819Y-94988094D02*
X161214819Y-94607142D01*
X161214819Y-94607142D02*
X161262438Y-94511904D01*
X161262438Y-94511904D02*
X161310057Y-94464285D01*
X161310057Y-94464285D02*
X161405295Y-94416666D01*
X161405295Y-94416666D02*
X161548152Y-94416666D01*
X161548152Y-94416666D02*
X161643390Y-94464285D01*
X161643390Y-94464285D02*
X161691009Y-94511904D01*
X161691009Y-94511904D02*
X161738628Y-94607142D01*
X161738628Y-94607142D02*
X161738628Y-94988094D01*
X161214819Y-94083332D02*
X161214819Y-93416666D01*
X161214819Y-93416666D02*
X162214819Y-93845237D01*
D11*
X166066666Y-97947190D02*
X166042857Y-97971000D01*
X166042857Y-97971000D02*
X165971428Y-97994809D01*
X165971428Y-97994809D02*
X165923809Y-97994809D01*
X165923809Y-97994809D02*
X165852381Y-97971000D01*
X165852381Y-97971000D02*
X165804762Y-97923380D01*
X165804762Y-97923380D02*
X165780952Y-97875761D01*
X165780952Y-97875761D02*
X165757143Y-97780523D01*
X165757143Y-97780523D02*
X165757143Y-97709095D01*
X165757143Y-97709095D02*
X165780952Y-97613857D01*
X165780952Y-97613857D02*
X165804762Y-97566238D01*
X165804762Y-97566238D02*
X165852381Y-97518619D01*
X165852381Y-97518619D02*
X165923809Y-97494809D01*
X165923809Y-97494809D02*
X165971428Y-97494809D01*
X165971428Y-97494809D02*
X166042857Y-97518619D01*
X166042857Y-97518619D02*
X166066666Y-97542428D01*
X166495238Y-97494809D02*
X166400000Y-97494809D01*
X166400000Y-97494809D02*
X166352381Y-97518619D01*
X166352381Y-97518619D02*
X166328571Y-97542428D01*
X166328571Y-97542428D02*
X166280952Y-97613857D01*
X166280952Y-97613857D02*
X166257143Y-97709095D01*
X166257143Y-97709095D02*
X166257143Y-97899571D01*
X166257143Y-97899571D02*
X166280952Y-97947190D01*
X166280952Y-97947190D02*
X166304762Y-97971000D01*
X166304762Y-97971000D02*
X166352381Y-97994809D01*
X166352381Y-97994809D02*
X166447619Y-97994809D01*
X166447619Y-97994809D02*
X166495238Y-97971000D01*
X166495238Y-97971000D02*
X166519047Y-97947190D01*
X166519047Y-97947190D02*
X166542857Y-97899571D01*
X166542857Y-97899571D02*
X166542857Y-97780523D01*
X166542857Y-97780523D02*
X166519047Y-97732904D01*
X166519047Y-97732904D02*
X166495238Y-97709095D01*
X166495238Y-97709095D02*
X166447619Y-97685285D01*
X166447619Y-97685285D02*
X166352381Y-97685285D01*
X166352381Y-97685285D02*
X166304762Y-97709095D01*
X166304762Y-97709095D02*
X166280952Y-97732904D01*
X166280952Y-97732904D02*
X166257143Y-97780523D01*
D10*
X148950952Y-106129580D02*
X148903333Y-106177200D01*
X148903333Y-106177200D02*
X148760476Y-106224819D01*
X148760476Y-106224819D02*
X148665238Y-106224819D01*
X148665238Y-106224819D02*
X148522381Y-106177200D01*
X148522381Y-106177200D02*
X148427143Y-106081961D01*
X148427143Y-106081961D02*
X148379524Y-105986723D01*
X148379524Y-105986723D02*
X148331905Y-105796247D01*
X148331905Y-105796247D02*
X148331905Y-105653390D01*
X148331905Y-105653390D02*
X148379524Y-105462914D01*
X148379524Y-105462914D02*
X148427143Y-105367676D01*
X148427143Y-105367676D02*
X148522381Y-105272438D01*
X148522381Y-105272438D02*
X148665238Y-105224819D01*
X148665238Y-105224819D02*
X148760476Y-105224819D01*
X148760476Y-105224819D02*
X148903333Y-105272438D01*
X148903333Y-105272438D02*
X148950952Y-105320057D01*
X149331905Y-105320057D02*
X149379524Y-105272438D01*
X149379524Y-105272438D02*
X149474762Y-105224819D01*
X149474762Y-105224819D02*
X149712857Y-105224819D01*
X149712857Y-105224819D02*
X149808095Y-105272438D01*
X149808095Y-105272438D02*
X149855714Y-105320057D01*
X149855714Y-105320057D02*
X149903333Y-105415295D01*
X149903333Y-105415295D02*
X149903333Y-105510533D01*
X149903333Y-105510533D02*
X149855714Y-105653390D01*
X149855714Y-105653390D02*
X149284286Y-106224819D01*
X149284286Y-106224819D02*
X149903333Y-106224819D01*
X150855714Y-106224819D02*
X150284286Y-106224819D01*
X150570000Y-106224819D02*
X150570000Y-105224819D01*
X150570000Y-105224819D02*
X150474762Y-105367676D01*
X150474762Y-105367676D02*
X150379524Y-105462914D01*
X150379524Y-105462914D02*
X150284286Y-105510533D01*
X151808095Y-106224819D02*
X151236667Y-106224819D01*
X151522381Y-106224819D02*
X151522381Y-105224819D01*
X151522381Y-105224819D02*
X151427143Y-105367676D01*
X151427143Y-105367676D02*
X151331905Y-105462914D01*
X151331905Y-105462914D02*
X151236667Y-105510533D01*
X167713333Y-112509580D02*
X167665714Y-112557200D01*
X167665714Y-112557200D02*
X167522857Y-112604819D01*
X167522857Y-112604819D02*
X167427619Y-112604819D01*
X167427619Y-112604819D02*
X167284762Y-112557200D01*
X167284762Y-112557200D02*
X167189524Y-112461961D01*
X167189524Y-112461961D02*
X167141905Y-112366723D01*
X167141905Y-112366723D02*
X167094286Y-112176247D01*
X167094286Y-112176247D02*
X167094286Y-112033390D01*
X167094286Y-112033390D02*
X167141905Y-111842914D01*
X167141905Y-111842914D02*
X167189524Y-111747676D01*
X167189524Y-111747676D02*
X167284762Y-111652438D01*
X167284762Y-111652438D02*
X167427619Y-111604819D01*
X167427619Y-111604819D02*
X167522857Y-111604819D01*
X167522857Y-111604819D02*
X167665714Y-111652438D01*
X167665714Y-111652438D02*
X167713333Y-111700057D01*
X168570476Y-111938152D02*
X168570476Y-112604819D01*
X168332381Y-111557200D02*
X168094286Y-112271485D01*
X168094286Y-112271485D02*
X168713333Y-112271485D01*
X138358095Y-119084819D02*
X138358095Y-118084819D01*
X138358095Y-118561009D02*
X138929523Y-118561009D01*
X138929523Y-119084819D02*
X138929523Y-118084819D01*
X139834285Y-118418152D02*
X139834285Y-119084819D01*
X139596190Y-118037200D02*
X139358095Y-118751485D01*
X139358095Y-118751485D02*
X139977142Y-118751485D01*
X167518095Y-120999819D02*
X167518095Y-121809342D01*
X167518095Y-121809342D02*
X167565714Y-121904580D01*
X167565714Y-121904580D02*
X167613333Y-121952200D01*
X167613333Y-121952200D02*
X167708571Y-121999819D01*
X167708571Y-121999819D02*
X167899047Y-121999819D01*
X167899047Y-121999819D02*
X167994285Y-121952200D01*
X167994285Y-121952200D02*
X168041904Y-121904580D01*
X168041904Y-121904580D02*
X168089523Y-121809342D01*
X168089523Y-121809342D02*
X168089523Y-120999819D01*
X168994285Y-120999819D02*
X168803809Y-120999819D01*
X168803809Y-120999819D02*
X168708571Y-121047438D01*
X168708571Y-121047438D02*
X168660952Y-121095057D01*
X168660952Y-121095057D02*
X168565714Y-121237914D01*
X168565714Y-121237914D02*
X168518095Y-121428390D01*
X168518095Y-121428390D02*
X168518095Y-121809342D01*
X168518095Y-121809342D02*
X168565714Y-121904580D01*
X168565714Y-121904580D02*
X168613333Y-121952200D01*
X168613333Y-121952200D02*
X168708571Y-121999819D01*
X168708571Y-121999819D02*
X168899047Y-121999819D01*
X168899047Y-121999819D02*
X168994285Y-121952200D01*
X168994285Y-121952200D02*
X169041904Y-121904580D01*
X169041904Y-121904580D02*
X169089523Y-121809342D01*
X169089523Y-121809342D02*
X169089523Y-121571247D01*
X169089523Y-121571247D02*
X169041904Y-121476009D01*
X169041904Y-121476009D02*
X168994285Y-121428390D01*
X168994285Y-121428390D02*
X168899047Y-121380771D01*
X168899047Y-121380771D02*
X168708571Y-121380771D01*
X168708571Y-121380771D02*
X168613333Y-121428390D01*
X168613333Y-121428390D02*
X168565714Y-121476009D01*
X168565714Y-121476009D02*
X168518095Y-121571247D01*
X162707142Y-110589580D02*
X162659523Y-110637200D01*
X162659523Y-110637200D02*
X162516666Y-110684819D01*
X162516666Y-110684819D02*
X162421428Y-110684819D01*
X162421428Y-110684819D02*
X162278571Y-110637200D01*
X162278571Y-110637200D02*
X162183333Y-110541961D01*
X162183333Y-110541961D02*
X162135714Y-110446723D01*
X162135714Y-110446723D02*
X162088095Y-110256247D01*
X162088095Y-110256247D02*
X162088095Y-110113390D01*
X162088095Y-110113390D02*
X162135714Y-109922914D01*
X162135714Y-109922914D02*
X162183333Y-109827676D01*
X162183333Y-109827676D02*
X162278571Y-109732438D01*
X162278571Y-109732438D02*
X162421428Y-109684819D01*
X162421428Y-109684819D02*
X162516666Y-109684819D01*
X162516666Y-109684819D02*
X162659523Y-109732438D01*
X162659523Y-109732438D02*
X162707142Y-109780057D01*
X163659523Y-110684819D02*
X163088095Y-110684819D01*
X163373809Y-110684819D02*
X163373809Y-109684819D01*
X163373809Y-109684819D02*
X163278571Y-109827676D01*
X163278571Y-109827676D02*
X163183333Y-109922914D01*
X163183333Y-109922914D02*
X163088095Y-109970533D01*
X164278571Y-109684819D02*
X164373809Y-109684819D01*
X164373809Y-109684819D02*
X164469047Y-109732438D01*
X164469047Y-109732438D02*
X164516666Y-109780057D01*
X164516666Y-109780057D02*
X164564285Y-109875295D01*
X164564285Y-109875295D02*
X164611904Y-110065771D01*
X164611904Y-110065771D02*
X164611904Y-110303866D01*
X164611904Y-110303866D02*
X164564285Y-110494342D01*
X164564285Y-110494342D02*
X164516666Y-110589580D01*
X164516666Y-110589580D02*
X164469047Y-110637200D01*
X164469047Y-110637200D02*
X164373809Y-110684819D01*
X164373809Y-110684819D02*
X164278571Y-110684819D01*
X164278571Y-110684819D02*
X164183333Y-110637200D01*
X164183333Y-110637200D02*
X164135714Y-110589580D01*
X164135714Y-110589580D02*
X164088095Y-110494342D01*
X164088095Y-110494342D02*
X164040476Y-110303866D01*
X164040476Y-110303866D02*
X164040476Y-110065771D01*
X164040476Y-110065771D02*
X164088095Y-109875295D01*
X164088095Y-109875295D02*
X164135714Y-109780057D01*
X164135714Y-109780057D02*
X164183333Y-109732438D01*
X164183333Y-109732438D02*
X164278571Y-109684819D01*
X174288095Y-72704819D02*
X174288095Y-71704819D01*
X174288095Y-72181009D02*
X174859523Y-72181009D01*
X174859523Y-72704819D02*
X174859523Y-71704819D01*
X175288095Y-71800057D02*
X175335714Y-71752438D01*
X175335714Y-71752438D02*
X175430952Y-71704819D01*
X175430952Y-71704819D02*
X175669047Y-71704819D01*
X175669047Y-71704819D02*
X175764285Y-71752438D01*
X175764285Y-71752438D02*
X175811904Y-71800057D01*
X175811904Y-71800057D02*
X175859523Y-71895295D01*
X175859523Y-71895295D02*
X175859523Y-71990533D01*
X175859523Y-71990533D02*
X175811904Y-72133390D01*
X175811904Y-72133390D02*
X175240476Y-72704819D01*
X175240476Y-72704819D02*
X175859523Y-72704819D01*
X155077142Y-118624819D02*
X154743809Y-118148628D01*
X154505714Y-118624819D02*
X154505714Y-117624819D01*
X154505714Y-117624819D02*
X154886666Y-117624819D01*
X154886666Y-117624819D02*
X154981904Y-117672438D01*
X154981904Y-117672438D02*
X155029523Y-117720057D01*
X155029523Y-117720057D02*
X155077142Y-117815295D01*
X155077142Y-117815295D02*
X155077142Y-117958152D01*
X155077142Y-117958152D02*
X155029523Y-118053390D01*
X155029523Y-118053390D02*
X154981904Y-118101009D01*
X154981904Y-118101009D02*
X154886666Y-118148628D01*
X154886666Y-118148628D02*
X154505714Y-118148628D01*
X155458095Y-117720057D02*
X155505714Y-117672438D01*
X155505714Y-117672438D02*
X155600952Y-117624819D01*
X155600952Y-117624819D02*
X155839047Y-117624819D01*
X155839047Y-117624819D02*
X155934285Y-117672438D01*
X155934285Y-117672438D02*
X155981904Y-117720057D01*
X155981904Y-117720057D02*
X156029523Y-117815295D01*
X156029523Y-117815295D02*
X156029523Y-117910533D01*
X156029523Y-117910533D02*
X155981904Y-118053390D01*
X155981904Y-118053390D02*
X155410476Y-118624819D01*
X155410476Y-118624819D02*
X156029523Y-118624819D01*
X156362857Y-117624819D02*
X156981904Y-117624819D01*
X156981904Y-117624819D02*
X156648571Y-118005771D01*
X156648571Y-118005771D02*
X156791428Y-118005771D01*
X156791428Y-118005771D02*
X156886666Y-118053390D01*
X156886666Y-118053390D02*
X156934285Y-118101009D01*
X156934285Y-118101009D02*
X156981904Y-118196247D01*
X156981904Y-118196247D02*
X156981904Y-118434342D01*
X156981904Y-118434342D02*
X156934285Y-118529580D01*
X156934285Y-118529580D02*
X156886666Y-118577200D01*
X156886666Y-118577200D02*
X156791428Y-118624819D01*
X156791428Y-118624819D02*
X156505714Y-118624819D01*
X156505714Y-118624819D02*
X156410476Y-118577200D01*
X156410476Y-118577200D02*
X156362857Y-118529580D01*
X151140952Y-107404819D02*
X150664762Y-107404819D01*
X150664762Y-107404819D02*
X150664762Y-106404819D01*
X151426667Y-106500057D02*
X151474286Y-106452438D01*
X151474286Y-106452438D02*
X151569524Y-106404819D01*
X151569524Y-106404819D02*
X151807619Y-106404819D01*
X151807619Y-106404819D02*
X151902857Y-106452438D01*
X151902857Y-106452438D02*
X151950476Y-106500057D01*
X151950476Y-106500057D02*
X151998095Y-106595295D01*
X151998095Y-106595295D02*
X151998095Y-106690533D01*
X151998095Y-106690533D02*
X151950476Y-106833390D01*
X151950476Y-106833390D02*
X151379048Y-107404819D01*
X151379048Y-107404819D02*
X151998095Y-107404819D01*
X152617143Y-106404819D02*
X152712381Y-106404819D01*
X152712381Y-106404819D02*
X152807619Y-106452438D01*
X152807619Y-106452438D02*
X152855238Y-106500057D01*
X152855238Y-106500057D02*
X152902857Y-106595295D01*
X152902857Y-106595295D02*
X152950476Y-106785771D01*
X152950476Y-106785771D02*
X152950476Y-107023866D01*
X152950476Y-107023866D02*
X152902857Y-107214342D01*
X152902857Y-107214342D02*
X152855238Y-107309580D01*
X152855238Y-107309580D02*
X152807619Y-107357200D01*
X152807619Y-107357200D02*
X152712381Y-107404819D01*
X152712381Y-107404819D02*
X152617143Y-107404819D01*
X152617143Y-107404819D02*
X152521905Y-107357200D01*
X152521905Y-107357200D02*
X152474286Y-107309580D01*
X152474286Y-107309580D02*
X152426667Y-107214342D01*
X152426667Y-107214342D02*
X152379048Y-107023866D01*
X152379048Y-107023866D02*
X152379048Y-106785771D01*
X152379048Y-106785771D02*
X152426667Y-106595295D01*
X152426667Y-106595295D02*
X152474286Y-106500057D01*
X152474286Y-106500057D02*
X152521905Y-106452438D01*
X152521905Y-106452438D02*
X152617143Y-106404819D01*
X153902857Y-107404819D02*
X153331429Y-107404819D01*
X153617143Y-107404819D02*
X153617143Y-106404819D01*
X153617143Y-106404819D02*
X153521905Y-106547676D01*
X153521905Y-106547676D02*
X153426667Y-106642914D01*
X153426667Y-106642914D02*
X153331429Y-106690533D01*
X171588095Y-118054819D02*
X171588095Y-118864342D01*
X171588095Y-118864342D02*
X171635714Y-118959580D01*
X171635714Y-118959580D02*
X171683333Y-119007200D01*
X171683333Y-119007200D02*
X171778571Y-119054819D01*
X171778571Y-119054819D02*
X171969047Y-119054819D01*
X171969047Y-119054819D02*
X172064285Y-119007200D01*
X172064285Y-119007200D02*
X172111904Y-118959580D01*
X172111904Y-118959580D02*
X172159523Y-118864342D01*
X172159523Y-118864342D02*
X172159523Y-118054819D01*
X173159523Y-119054819D02*
X172588095Y-119054819D01*
X172873809Y-119054819D02*
X172873809Y-118054819D01*
X172873809Y-118054819D02*
X172778571Y-118197676D01*
X172778571Y-118197676D02*
X172683333Y-118292914D01*
X172683333Y-118292914D02*
X172588095Y-118340533D01*
X172895180Y-115415500D02*
X172657085Y-115415500D01*
X172752323Y-115177405D02*
X172657085Y-115415500D01*
X172657085Y-115415500D02*
X172752323Y-115653595D01*
X172466609Y-115272643D02*
X172657085Y-115415500D01*
X172657085Y-115415500D02*
X172466609Y-115558357D01*
X171804819Y-115415499D02*
X172042914Y-115415499D01*
X171947676Y-115653594D02*
X172042914Y-115415499D01*
X172042914Y-115415499D02*
X171947676Y-115177404D01*
X172233390Y-115558356D02*
X172042914Y-115415499D01*
X172042914Y-115415499D02*
X172233390Y-115272642D01*
X159573333Y-97374819D02*
X159240000Y-96898628D01*
X159001905Y-97374819D02*
X159001905Y-96374819D01*
X159001905Y-96374819D02*
X159382857Y-96374819D01*
X159382857Y-96374819D02*
X159478095Y-96422438D01*
X159478095Y-96422438D02*
X159525714Y-96470057D01*
X159525714Y-96470057D02*
X159573333Y-96565295D01*
X159573333Y-96565295D02*
X159573333Y-96708152D01*
X159573333Y-96708152D02*
X159525714Y-96803390D01*
X159525714Y-96803390D02*
X159478095Y-96851009D01*
X159478095Y-96851009D02*
X159382857Y-96898628D01*
X159382857Y-96898628D02*
X159001905Y-96898628D01*
X160049524Y-97374819D02*
X160240000Y-97374819D01*
X160240000Y-97374819D02*
X160335238Y-97327200D01*
X160335238Y-97327200D02*
X160382857Y-97279580D01*
X160382857Y-97279580D02*
X160478095Y-97136723D01*
X160478095Y-97136723D02*
X160525714Y-96946247D01*
X160525714Y-96946247D02*
X160525714Y-96565295D01*
X160525714Y-96565295D02*
X160478095Y-96470057D01*
X160478095Y-96470057D02*
X160430476Y-96422438D01*
X160430476Y-96422438D02*
X160335238Y-96374819D01*
X160335238Y-96374819D02*
X160144762Y-96374819D01*
X160144762Y-96374819D02*
X160049524Y-96422438D01*
X160049524Y-96422438D02*
X160001905Y-96470057D01*
X160001905Y-96470057D02*
X159954286Y-96565295D01*
X159954286Y-96565295D02*
X159954286Y-96803390D01*
X159954286Y-96803390D02*
X160001905Y-96898628D01*
X160001905Y-96898628D02*
X160049524Y-96946247D01*
X160049524Y-96946247D02*
X160144762Y-96993866D01*
X160144762Y-96993866D02*
X160335238Y-96993866D01*
X160335238Y-96993866D02*
X160430476Y-96946247D01*
X160430476Y-96946247D02*
X160478095Y-96898628D01*
X160478095Y-96898628D02*
X160525714Y-96803390D01*
X170537142Y-124564819D02*
X170203809Y-124088628D01*
X169965714Y-124564819D02*
X169965714Y-123564819D01*
X169965714Y-123564819D02*
X170346666Y-123564819D01*
X170346666Y-123564819D02*
X170441904Y-123612438D01*
X170441904Y-123612438D02*
X170489523Y-123660057D01*
X170489523Y-123660057D02*
X170537142Y-123755295D01*
X170537142Y-123755295D02*
X170537142Y-123898152D01*
X170537142Y-123898152D02*
X170489523Y-123993390D01*
X170489523Y-123993390D02*
X170441904Y-124041009D01*
X170441904Y-124041009D02*
X170346666Y-124088628D01*
X170346666Y-124088628D02*
X169965714Y-124088628D01*
X171489523Y-124564819D02*
X170918095Y-124564819D01*
X171203809Y-124564819D02*
X171203809Y-123564819D01*
X171203809Y-123564819D02*
X171108571Y-123707676D01*
X171108571Y-123707676D02*
X171013333Y-123802914D01*
X171013333Y-123802914D02*
X170918095Y-123850533D01*
X171870476Y-123660057D02*
X171918095Y-123612438D01*
X171918095Y-123612438D02*
X172013333Y-123564819D01*
X172013333Y-123564819D02*
X172251428Y-123564819D01*
X172251428Y-123564819D02*
X172346666Y-123612438D01*
X172346666Y-123612438D02*
X172394285Y-123660057D01*
X172394285Y-123660057D02*
X172441904Y-123755295D01*
X172441904Y-123755295D02*
X172441904Y-123850533D01*
X172441904Y-123850533D02*
X172394285Y-123993390D01*
X172394285Y-123993390D02*
X171822857Y-124564819D01*
X171822857Y-124564819D02*
X172441904Y-124564819D01*
X164338095Y-103944819D02*
X164338095Y-104754342D01*
X164338095Y-104754342D02*
X164385714Y-104849580D01*
X164385714Y-104849580D02*
X164433333Y-104897200D01*
X164433333Y-104897200D02*
X164528571Y-104944819D01*
X164528571Y-104944819D02*
X164719047Y-104944819D01*
X164719047Y-104944819D02*
X164814285Y-104897200D01*
X164814285Y-104897200D02*
X164861904Y-104849580D01*
X164861904Y-104849580D02*
X164909523Y-104754342D01*
X164909523Y-104754342D02*
X164909523Y-103944819D01*
X165338095Y-104040057D02*
X165385714Y-103992438D01*
X165385714Y-103992438D02*
X165480952Y-103944819D01*
X165480952Y-103944819D02*
X165719047Y-103944819D01*
X165719047Y-103944819D02*
X165814285Y-103992438D01*
X165814285Y-103992438D02*
X165861904Y-104040057D01*
X165861904Y-104040057D02*
X165909523Y-104135295D01*
X165909523Y-104135295D02*
X165909523Y-104230533D01*
X165909523Y-104230533D02*
X165861904Y-104373390D01*
X165861904Y-104373390D02*
X165290476Y-104944819D01*
X165290476Y-104944819D02*
X165909523Y-104944819D01*
X138588095Y-78804819D02*
X138588095Y-77804819D01*
X138588095Y-78281009D02*
X139159523Y-78281009D01*
X139159523Y-78804819D02*
X139159523Y-77804819D01*
X140159523Y-78804819D02*
X139588095Y-78804819D01*
X139873809Y-78804819D02*
X139873809Y-77804819D01*
X139873809Y-77804819D02*
X139778571Y-77947676D01*
X139778571Y-77947676D02*
X139683333Y-78042914D01*
X139683333Y-78042914D02*
X139588095Y-78090533D01*
X164837142Y-124669819D02*
X164503809Y-124193628D01*
X164265714Y-124669819D02*
X164265714Y-123669819D01*
X164265714Y-123669819D02*
X164646666Y-123669819D01*
X164646666Y-123669819D02*
X164741904Y-123717438D01*
X164741904Y-123717438D02*
X164789523Y-123765057D01*
X164789523Y-123765057D02*
X164837142Y-123860295D01*
X164837142Y-123860295D02*
X164837142Y-124003152D01*
X164837142Y-124003152D02*
X164789523Y-124098390D01*
X164789523Y-124098390D02*
X164741904Y-124146009D01*
X164741904Y-124146009D02*
X164646666Y-124193628D01*
X164646666Y-124193628D02*
X164265714Y-124193628D01*
X165789523Y-124669819D02*
X165218095Y-124669819D01*
X165503809Y-124669819D02*
X165503809Y-123669819D01*
X165503809Y-123669819D02*
X165408571Y-123812676D01*
X165408571Y-123812676D02*
X165313333Y-123907914D01*
X165313333Y-123907914D02*
X165218095Y-123955533D01*
X166741904Y-124669819D02*
X166170476Y-124669819D01*
X166456190Y-124669819D02*
X166456190Y-123669819D01*
X166456190Y-123669819D02*
X166360952Y-123812676D01*
X166360952Y-123812676D02*
X166265714Y-123907914D01*
X166265714Y-123907914D02*
X166170476Y-123955533D01*
X172947200Y-89733332D02*
X172994819Y-89590475D01*
X172994819Y-89590475D02*
X172994819Y-89352380D01*
X172994819Y-89352380D02*
X172947200Y-89257142D01*
X172947200Y-89257142D02*
X172899580Y-89209523D01*
X172899580Y-89209523D02*
X172804342Y-89161904D01*
X172804342Y-89161904D02*
X172709104Y-89161904D01*
X172709104Y-89161904D02*
X172613866Y-89209523D01*
X172613866Y-89209523D02*
X172566247Y-89257142D01*
X172566247Y-89257142D02*
X172518628Y-89352380D01*
X172518628Y-89352380D02*
X172471009Y-89542856D01*
X172471009Y-89542856D02*
X172423390Y-89638094D01*
X172423390Y-89638094D02*
X172375771Y-89685713D01*
X172375771Y-89685713D02*
X172280533Y-89733332D01*
X172280533Y-89733332D02*
X172185295Y-89733332D01*
X172185295Y-89733332D02*
X172090057Y-89685713D01*
X172090057Y-89685713D02*
X172042438Y-89638094D01*
X172042438Y-89638094D02*
X171994819Y-89542856D01*
X171994819Y-89542856D02*
X171994819Y-89304761D01*
X171994819Y-89304761D02*
X172042438Y-89161904D01*
X171994819Y-88828570D02*
X172994819Y-88590475D01*
X172994819Y-88590475D02*
X172280533Y-88399999D01*
X172280533Y-88399999D02*
X172994819Y-88209523D01*
X172994819Y-88209523D02*
X171994819Y-87971428D01*
X172090057Y-87638094D02*
X172042438Y-87590475D01*
X172042438Y-87590475D02*
X171994819Y-87495237D01*
X171994819Y-87495237D02*
X171994819Y-87257142D01*
X171994819Y-87257142D02*
X172042438Y-87161904D01*
X172042438Y-87161904D02*
X172090057Y-87114285D01*
X172090057Y-87114285D02*
X172185295Y-87066666D01*
X172185295Y-87066666D02*
X172280533Y-87066666D01*
X172280533Y-87066666D02*
X172423390Y-87114285D01*
X172423390Y-87114285D02*
X172994819Y-87685713D01*
X172994819Y-87685713D02*
X172994819Y-87066666D01*
X173488095Y-110104819D02*
X173488095Y-110914342D01*
X173488095Y-110914342D02*
X173535714Y-111009580D01*
X173535714Y-111009580D02*
X173583333Y-111057200D01*
X173583333Y-111057200D02*
X173678571Y-111104819D01*
X173678571Y-111104819D02*
X173869047Y-111104819D01*
X173869047Y-111104819D02*
X173964285Y-111057200D01*
X173964285Y-111057200D02*
X174011904Y-111009580D01*
X174011904Y-111009580D02*
X174059523Y-110914342D01*
X174059523Y-110914342D02*
X174059523Y-110104819D01*
X175011904Y-110104819D02*
X174535714Y-110104819D01*
X174535714Y-110104819D02*
X174488095Y-110581009D01*
X174488095Y-110581009D02*
X174535714Y-110533390D01*
X174535714Y-110533390D02*
X174630952Y-110485771D01*
X174630952Y-110485771D02*
X174869047Y-110485771D01*
X174869047Y-110485771D02*
X174964285Y-110533390D01*
X174964285Y-110533390D02*
X175011904Y-110581009D01*
X175011904Y-110581009D02*
X175059523Y-110676247D01*
X175059523Y-110676247D02*
X175059523Y-110914342D01*
X175059523Y-110914342D02*
X175011904Y-111009580D01*
X175011904Y-111009580D02*
X174964285Y-111057200D01*
X174964285Y-111057200D02*
X174869047Y-111104819D01*
X174869047Y-111104819D02*
X174630952Y-111104819D01*
X174630952Y-111104819D02*
X174535714Y-111057200D01*
X174535714Y-111057200D02*
X174488095Y-111009580D01*
X173704819Y-113834499D02*
X173942914Y-113834499D01*
X173847676Y-114072594D02*
X173942914Y-113834499D01*
X173942914Y-113834499D02*
X173847676Y-113596404D01*
X174133390Y-113977356D02*
X173942914Y-113834499D01*
X173942914Y-113834499D02*
X174133390Y-113691642D01*
X173704819Y-113834499D02*
X173942914Y-113834499D01*
X173847676Y-114072594D02*
X173942914Y-113834499D01*
X173942914Y-113834499D02*
X173847676Y-113596404D01*
X174133390Y-113977356D02*
X173942914Y-113834499D01*
X173942914Y-113834499D02*
X174133390Y-113691642D01*
X148540952Y-104549580D02*
X148493333Y-104597200D01*
X148493333Y-104597200D02*
X148350476Y-104644819D01*
X148350476Y-104644819D02*
X148255238Y-104644819D01*
X148255238Y-104644819D02*
X148112381Y-104597200D01*
X148112381Y-104597200D02*
X148017143Y-104501961D01*
X148017143Y-104501961D02*
X147969524Y-104406723D01*
X147969524Y-104406723D02*
X147921905Y-104216247D01*
X147921905Y-104216247D02*
X147921905Y-104073390D01*
X147921905Y-104073390D02*
X147969524Y-103882914D01*
X147969524Y-103882914D02*
X148017143Y-103787676D01*
X148017143Y-103787676D02*
X148112381Y-103692438D01*
X148112381Y-103692438D02*
X148255238Y-103644819D01*
X148255238Y-103644819D02*
X148350476Y-103644819D01*
X148350476Y-103644819D02*
X148493333Y-103692438D01*
X148493333Y-103692438D02*
X148540952Y-103740057D01*
X148921905Y-103740057D02*
X148969524Y-103692438D01*
X148969524Y-103692438D02*
X149064762Y-103644819D01*
X149064762Y-103644819D02*
X149302857Y-103644819D01*
X149302857Y-103644819D02*
X149398095Y-103692438D01*
X149398095Y-103692438D02*
X149445714Y-103740057D01*
X149445714Y-103740057D02*
X149493333Y-103835295D01*
X149493333Y-103835295D02*
X149493333Y-103930533D01*
X149493333Y-103930533D02*
X149445714Y-104073390D01*
X149445714Y-104073390D02*
X148874286Y-104644819D01*
X148874286Y-104644819D02*
X149493333Y-104644819D01*
X150445714Y-104644819D02*
X149874286Y-104644819D01*
X150160000Y-104644819D02*
X150160000Y-103644819D01*
X150160000Y-103644819D02*
X150064762Y-103787676D01*
X150064762Y-103787676D02*
X149969524Y-103882914D01*
X149969524Y-103882914D02*
X149874286Y-103930533D01*
X150826667Y-103740057D02*
X150874286Y-103692438D01*
X150874286Y-103692438D02*
X150969524Y-103644819D01*
X150969524Y-103644819D02*
X151207619Y-103644819D01*
X151207619Y-103644819D02*
X151302857Y-103692438D01*
X151302857Y-103692438D02*
X151350476Y-103740057D01*
X151350476Y-103740057D02*
X151398095Y-103835295D01*
X151398095Y-103835295D02*
X151398095Y-103930533D01*
X151398095Y-103930533D02*
X151350476Y-104073390D01*
X151350476Y-104073390D02*
X150779048Y-104644819D01*
X150779048Y-104644819D02*
X151398095Y-104644819D01*
X151607142Y-102729580D02*
X151559523Y-102777200D01*
X151559523Y-102777200D02*
X151416666Y-102824819D01*
X151416666Y-102824819D02*
X151321428Y-102824819D01*
X151321428Y-102824819D02*
X151178571Y-102777200D01*
X151178571Y-102777200D02*
X151083333Y-102681961D01*
X151083333Y-102681961D02*
X151035714Y-102586723D01*
X151035714Y-102586723D02*
X150988095Y-102396247D01*
X150988095Y-102396247D02*
X150988095Y-102253390D01*
X150988095Y-102253390D02*
X151035714Y-102062914D01*
X151035714Y-102062914D02*
X151083333Y-101967676D01*
X151083333Y-101967676D02*
X151178571Y-101872438D01*
X151178571Y-101872438D02*
X151321428Y-101824819D01*
X151321428Y-101824819D02*
X151416666Y-101824819D01*
X151416666Y-101824819D02*
X151559523Y-101872438D01*
X151559523Y-101872438D02*
X151607142Y-101920057D01*
X152559523Y-102824819D02*
X151988095Y-102824819D01*
X152273809Y-102824819D02*
X152273809Y-101824819D01*
X152273809Y-101824819D02*
X152178571Y-101967676D01*
X152178571Y-101967676D02*
X152083333Y-102062914D01*
X152083333Y-102062914D02*
X151988095Y-102110533D01*
X153416666Y-102158152D02*
X153416666Y-102824819D01*
X153178571Y-101777200D02*
X152940476Y-102491485D01*
X152940476Y-102491485D02*
X153559523Y-102491485D01*
X176444819Y-116859047D02*
X177159104Y-116859047D01*
X177159104Y-116859047D02*
X177301961Y-116906666D01*
X177301961Y-116906666D02*
X177397200Y-117001904D01*
X177397200Y-117001904D02*
X177444819Y-117144761D01*
X177444819Y-117144761D02*
X177444819Y-117239999D01*
X177540057Y-116620952D02*
X177540057Y-115859047D01*
X177397200Y-115668570D02*
X177444819Y-115525713D01*
X177444819Y-115525713D02*
X177444819Y-115287618D01*
X177444819Y-115287618D02*
X177397200Y-115192380D01*
X177397200Y-115192380D02*
X177349580Y-115144761D01*
X177349580Y-115144761D02*
X177254342Y-115097142D01*
X177254342Y-115097142D02*
X177159104Y-115097142D01*
X177159104Y-115097142D02*
X177063866Y-115144761D01*
X177063866Y-115144761D02*
X177016247Y-115192380D01*
X177016247Y-115192380D02*
X176968628Y-115287618D01*
X176968628Y-115287618D02*
X176921009Y-115478094D01*
X176921009Y-115478094D02*
X176873390Y-115573332D01*
X176873390Y-115573332D02*
X176825771Y-115620951D01*
X176825771Y-115620951D02*
X176730533Y-115668570D01*
X176730533Y-115668570D02*
X176635295Y-115668570D01*
X176635295Y-115668570D02*
X176540057Y-115620951D01*
X176540057Y-115620951D02*
X176492438Y-115573332D01*
X176492438Y-115573332D02*
X176444819Y-115478094D01*
X176444819Y-115478094D02*
X176444819Y-115239999D01*
X176444819Y-115239999D02*
X176492438Y-115097142D01*
X176778152Y-114763808D02*
X177444819Y-114573332D01*
X177444819Y-114573332D02*
X176968628Y-114382856D01*
X176968628Y-114382856D02*
X177444819Y-114192380D01*
X177444819Y-114192380D02*
X176778152Y-114001904D01*
X177444819Y-113620951D02*
X176778152Y-113620951D01*
X176444819Y-113620951D02*
X176492438Y-113668570D01*
X176492438Y-113668570D02*
X176540057Y-113620951D01*
X176540057Y-113620951D02*
X176492438Y-113573332D01*
X176492438Y-113573332D02*
X176444819Y-113620951D01*
X176444819Y-113620951D02*
X176540057Y-113620951D01*
X176778152Y-113287618D02*
X176778152Y-112906666D01*
X176444819Y-113144761D02*
X177301961Y-113144761D01*
X177301961Y-113144761D02*
X177397200Y-113097142D01*
X177397200Y-113097142D02*
X177444819Y-113001904D01*
X177444819Y-113001904D02*
X177444819Y-112906666D01*
X177397200Y-112144761D02*
X177444819Y-112239999D01*
X177444819Y-112239999D02*
X177444819Y-112430475D01*
X177444819Y-112430475D02*
X177397200Y-112525713D01*
X177397200Y-112525713D02*
X177349580Y-112573332D01*
X177349580Y-112573332D02*
X177254342Y-112620951D01*
X177254342Y-112620951D02*
X176968628Y-112620951D01*
X176968628Y-112620951D02*
X176873390Y-112573332D01*
X176873390Y-112573332D02*
X176825771Y-112525713D01*
X176825771Y-112525713D02*
X176778152Y-112430475D01*
X176778152Y-112430475D02*
X176778152Y-112239999D01*
X176778152Y-112239999D02*
X176825771Y-112144761D01*
X177444819Y-111716189D02*
X176444819Y-111716189D01*
X177444819Y-111287618D02*
X176921009Y-111287618D01*
X176921009Y-111287618D02*
X176825771Y-111335237D01*
X176825771Y-111335237D02*
X176778152Y-111430475D01*
X176778152Y-111430475D02*
X176778152Y-111573332D01*
X176778152Y-111573332D02*
X176825771Y-111668570D01*
X176825771Y-111668570D02*
X176873390Y-111716189D01*
X177444819Y-110287618D02*
X177444819Y-110859046D01*
X177444819Y-110573332D02*
X176444819Y-110573332D01*
X176444819Y-110573332D02*
X176587676Y-110668570D01*
X176587676Y-110668570D02*
X176682914Y-110763808D01*
X176682914Y-110763808D02*
X176730533Y-110859046D01*
X162738095Y-112054819D02*
X162738095Y-112864342D01*
X162738095Y-112864342D02*
X162785714Y-112959580D01*
X162785714Y-112959580D02*
X162833333Y-113007200D01*
X162833333Y-113007200D02*
X162928571Y-113054819D01*
X162928571Y-113054819D02*
X163119047Y-113054819D01*
X163119047Y-113054819D02*
X163214285Y-113007200D01*
X163214285Y-113007200D02*
X163261904Y-112959580D01*
X163261904Y-112959580D02*
X163309523Y-112864342D01*
X163309523Y-112864342D02*
X163309523Y-112054819D01*
X164214285Y-112388152D02*
X164214285Y-113054819D01*
X163976190Y-112007200D02*
X163738095Y-112721485D01*
X163738095Y-112721485D02*
X164357142Y-112721485D01*
X165049399Y-115659780D02*
X165049399Y-115421685D01*
X165287494Y-115516923D02*
X165049399Y-115421685D01*
X165049399Y-115421685D02*
X164811304Y-115516923D01*
X165192256Y-115231209D02*
X165049399Y-115421685D01*
X165049399Y-115421685D02*
X164906542Y-115231209D01*
X165049400Y-114569419D02*
X165049400Y-114807514D01*
X164811305Y-114712276D02*
X165049400Y-114807514D01*
X165049400Y-114807514D02*
X165287495Y-114712276D01*
X164906543Y-114997990D02*
X165049400Y-114807514D01*
X165049400Y-114807514D02*
X165192257Y-114997990D01*
X145994819Y-73793333D02*
X146709104Y-73793333D01*
X146709104Y-73793333D02*
X146851961Y-73840952D01*
X146851961Y-73840952D02*
X146947200Y-73936190D01*
X146947200Y-73936190D02*
X146994819Y-74079047D01*
X146994819Y-74079047D02*
X146994819Y-74174285D01*
X146328152Y-72888571D02*
X146994819Y-72888571D01*
X145947200Y-73126666D02*
X146661485Y-73364761D01*
X146661485Y-73364761D02*
X146661485Y-72745714D01*
X163547142Y-79124580D02*
X163499523Y-79172200D01*
X163499523Y-79172200D02*
X163356666Y-79219819D01*
X163356666Y-79219819D02*
X163261428Y-79219819D01*
X163261428Y-79219819D02*
X163118571Y-79172200D01*
X163118571Y-79172200D02*
X163023333Y-79076961D01*
X163023333Y-79076961D02*
X162975714Y-78981723D01*
X162975714Y-78981723D02*
X162928095Y-78791247D01*
X162928095Y-78791247D02*
X162928095Y-78648390D01*
X162928095Y-78648390D02*
X162975714Y-78457914D01*
X162975714Y-78457914D02*
X163023333Y-78362676D01*
X163023333Y-78362676D02*
X163118571Y-78267438D01*
X163118571Y-78267438D02*
X163261428Y-78219819D01*
X163261428Y-78219819D02*
X163356666Y-78219819D01*
X163356666Y-78219819D02*
X163499523Y-78267438D01*
X163499523Y-78267438D02*
X163547142Y-78315057D01*
X164499523Y-79219819D02*
X163928095Y-79219819D01*
X164213809Y-79219819D02*
X164213809Y-78219819D01*
X164213809Y-78219819D02*
X164118571Y-78362676D01*
X164118571Y-78362676D02*
X164023333Y-78457914D01*
X164023333Y-78457914D02*
X163928095Y-78505533D01*
X164832857Y-78219819D02*
X165451904Y-78219819D01*
X165451904Y-78219819D02*
X165118571Y-78600771D01*
X165118571Y-78600771D02*
X165261428Y-78600771D01*
X165261428Y-78600771D02*
X165356666Y-78648390D01*
X165356666Y-78648390D02*
X165404285Y-78696009D01*
X165404285Y-78696009D02*
X165451904Y-78791247D01*
X165451904Y-78791247D02*
X165451904Y-79029342D01*
X165451904Y-79029342D02*
X165404285Y-79124580D01*
X165404285Y-79124580D02*
X165356666Y-79172200D01*
X165356666Y-79172200D02*
X165261428Y-79219819D01*
X165261428Y-79219819D02*
X164975714Y-79219819D01*
X164975714Y-79219819D02*
X164880476Y-79172200D01*
X164880476Y-79172200D02*
X164832857Y-79124580D01*
D12*
%TO.C,SW3*%
X136590000Y-108340000D02*
X136590000Y-114760000D01*
X136590000Y-114760000D02*
X137000000Y-114760000D01*
X137000000Y-108340000D02*
X136590000Y-108340000D01*
X138600000Y-114760000D02*
X141000000Y-114760000D01*
X141000000Y-108340000D02*
X138600000Y-108340000D01*
X142600000Y-114760000D02*
X143010000Y-114760000D01*
X143010000Y-108340000D02*
X142730000Y-108340000D01*
X143010000Y-114760000D02*
X143010000Y-108340000D01*
%TO.C,R17*%
X157853641Y-116620000D02*
X157546359Y-116620000D01*
X157853641Y-117380000D02*
X157546359Y-117380000D01*
%TO.C,SW1*%
X158390000Y-85190000D02*
X158390000Y-91610000D01*
X158390000Y-91610000D02*
X158670000Y-91610000D01*
X158800000Y-85190000D02*
X158390000Y-85190000D01*
X160400000Y-91610000D02*
X162800000Y-91610000D01*
X162800000Y-85190000D02*
X160400000Y-85190000D01*
X164400000Y-91610000D02*
X164810000Y-91610000D01*
X164810000Y-85190000D02*
X164400000Y-85190000D01*
X164810000Y-91610000D02*
X164810000Y-85190000D01*
%TO.C,C11*%
X154790000Y-107772164D02*
X154790000Y-107987836D01*
X155510000Y-107772164D02*
X155510000Y-107987836D01*
%TO.C,D5*%
X161012500Y-116135000D02*
X163297500Y-116135000D01*
X163297500Y-114665000D02*
X161012500Y-114665000D01*
X163297500Y-116135000D02*
X163297500Y-114665000D01*
%TO.C,D2*%
X171487500Y-104235000D02*
X173772500Y-104235000D01*
X173772500Y-102765000D02*
X171487500Y-102765000D01*
X173772500Y-104235000D02*
X173772500Y-102765000D01*
%TO.C,C12*%
X163340000Y-99157836D02*
X163340000Y-98942164D01*
X164060000Y-99157836D02*
X164060000Y-98942164D01*
%TO.C,C5*%
X160540000Y-112962164D02*
X160540000Y-113177836D01*
X161260000Y-112962164D02*
X161260000Y-113177836D01*
%TO.C,C17*%
X149772164Y-79465000D02*
X149987836Y-79465000D01*
X149772164Y-80185000D02*
X149987836Y-80185000D01*
%TO.C,J8*%
X163620000Y-127495000D02*
X163620000Y-129495000D01*
X163620000Y-131395000D02*
X163620000Y-133295000D01*
X163620000Y-133295000D02*
X173020000Y-133295000D01*
X173020000Y-127495000D02*
X173020000Y-129495000D01*
X173020000Y-131395000D02*
X173020000Y-133295000D01*
%TO.C,J9*%
X145685000Y-106660000D02*
X145685000Y-106595000D01*
X145685000Y-115605000D02*
X145685000Y-115540000D01*
X149215000Y-106595000D02*
X145685000Y-106595000D01*
X149215000Y-106660000D02*
X149215000Y-106595000D01*
X149215000Y-115605000D02*
X145685000Y-115605000D01*
X149215000Y-115605000D02*
X149215000Y-115540000D01*
X150540000Y-115540000D02*
X149215000Y-115540000D01*
%TO.C,C7*%
X164290000Y-99187836D02*
X164290000Y-98972164D01*
X165010000Y-99187836D02*
X165010000Y-98972164D01*
%TO.C,C16*%
X160040000Y-94357836D02*
X160040000Y-94142164D01*
X160760000Y-94357836D02*
X160760000Y-94142164D01*
%TO.C,J7*%
X176490000Y-99940000D02*
X176490000Y-101160000D01*
X176490000Y-101160000D02*
X179390000Y-101160000D01*
X176490000Y-106440000D02*
X176490000Y-107660000D01*
X176490000Y-107660000D02*
X189310000Y-107660000D01*
X178400000Y-104650000D02*
X178800000Y-105050000D01*
X178400000Y-105450000D02*
X178400000Y-104650000D01*
X178800000Y-105050000D02*
X178400000Y-105450000D01*
X179390000Y-101160000D02*
X179390000Y-101440000D01*
X179390000Y-106160000D02*
X179390000Y-106440000D01*
X179390000Y-106440000D02*
X176490000Y-106440000D01*
X182000000Y-100600000D02*
X182000000Y-99940000D01*
X182000000Y-101700000D02*
X185410000Y-101700000D01*
X182000000Y-102200000D02*
X182000000Y-101700000D01*
X182000000Y-105400000D02*
X182000000Y-105900000D01*
X182000000Y-105900000D02*
X185410000Y-105900000D01*
X182000000Y-107000000D02*
X182000000Y-107660000D01*
X183400000Y-103400000D02*
X185200000Y-103400000D01*
X183400000Y-104200000D02*
X183400000Y-103400000D01*
X185200000Y-103400000D02*
X185200000Y-104200000D01*
X185200000Y-104200000D02*
X183400000Y-104200000D01*
X185410000Y-100600000D02*
X182000000Y-100600000D01*
X185410000Y-101700000D02*
X185410000Y-100600000D01*
X185410000Y-105900000D02*
X185410000Y-107000000D01*
X185410000Y-107000000D02*
X182000000Y-107000000D01*
X187010000Y-101050000D02*
X189310000Y-101050000D01*
X187010000Y-102200000D02*
X182000000Y-102200000D01*
X187010000Y-102200000D02*
X187010000Y-101050000D01*
X187010000Y-105400000D02*
X182000000Y-105400000D01*
X187010000Y-106550000D02*
X187010000Y-105400000D01*
X189310000Y-99940000D02*
X176490000Y-99940000D01*
X189310000Y-106550000D02*
X187010000Y-106550000D01*
X189310000Y-107660000D02*
X189310000Y-99940000D01*
%TO.C,R6*%
X165046359Y-101870000D02*
X165353641Y-101870000D01*
X165046359Y-102630000D02*
X165353641Y-102630000D01*
%TO.C,J3*%
X176675000Y-78655000D02*
X177945000Y-78655000D01*
X176675000Y-79925000D02*
X176675000Y-78655000D01*
X178987929Y-82085000D02*
X179385000Y-82085000D01*
X178987929Y-82845000D02*
X179385000Y-82845000D01*
X178987929Y-84625000D02*
X179385000Y-84625000D01*
X178987929Y-85385000D02*
X179385000Y-85385000D01*
X178987929Y-87165000D02*
X179385000Y-87165000D01*
X178987929Y-87925000D02*
X179385000Y-87925000D01*
X178987929Y-89705000D02*
X179385000Y-89705000D01*
X178987929Y-90465000D02*
X179385000Y-90465000D01*
X178987929Y-92245000D02*
X179385000Y-92245000D01*
X178987929Y-93005000D02*
X179385000Y-93005000D01*
X178987929Y-94785000D02*
X179385000Y-94785000D01*
X178987929Y-95545000D02*
X179385000Y-95545000D01*
X178987929Y-97325000D02*
X179385000Y-97325000D01*
X178987929Y-98085000D02*
X179385000Y-98085000D01*
X179055000Y-79545000D02*
X179385000Y-79545000D01*
X179055000Y-80305000D02*
X179385000Y-80305000D01*
X179385000Y-78595000D02*
X179385000Y-99035000D01*
X179385000Y-81195000D02*
X182045000Y-81195000D01*
X179385000Y-83735000D02*
X182045000Y-83735000D01*
X179385000Y-86275000D02*
X182045000Y-86275000D01*
X179385000Y-88815000D02*
X182045000Y-88815000D01*
X179385000Y-91355000D02*
X182045000Y-91355000D01*
X179385000Y-93895000D02*
X182045000Y-93895000D01*
X179385000Y-96435000D02*
X182045000Y-96435000D01*
X179385000Y-99035000D02*
X182045000Y-99035000D01*
X182045000Y-78595000D02*
X179385000Y-78595000D01*
X182045000Y-79545000D02*
X188045000Y-79545000D01*
X182045000Y-79605000D02*
X188045000Y-79605000D01*
X182045000Y-79725000D02*
X188045000Y-79725000D01*
X182045000Y-79845000D02*
X188045000Y-79845000D01*
X182045000Y-79965000D02*
X188045000Y-79965000D01*
X182045000Y-80085000D02*
X188045000Y-80085000D01*
X182045000Y-80205000D02*
X188045000Y-80205000D01*
X182045000Y-82085000D02*
X188045000Y-82085000D01*
X182045000Y-84625000D02*
X188045000Y-84625000D01*
X182045000Y-87165000D02*
X188045000Y-87165000D01*
X182045000Y-89705000D02*
X188045000Y-89705000D01*
X182045000Y-92245000D02*
X188045000Y-92245000D01*
X182045000Y-94785000D02*
X188045000Y-94785000D01*
X182045000Y-97325000D02*
X188045000Y-97325000D01*
X182045000Y-99035000D02*
X182045000Y-78595000D01*
X188045000Y-79545000D02*
X188045000Y-80305000D01*
X188045000Y-80305000D02*
X182045000Y-80305000D01*
X188045000Y-82085000D02*
X188045000Y-82845000D01*
X188045000Y-82845000D02*
X182045000Y-82845000D01*
X188045000Y-84625000D02*
X188045000Y-85385000D01*
X188045000Y-85385000D02*
X182045000Y-85385000D01*
X188045000Y-87165000D02*
X188045000Y-87925000D01*
X188045000Y-87925000D02*
X182045000Y-87925000D01*
X188045000Y-89705000D02*
X188045000Y-90465000D01*
X188045000Y-90465000D02*
X182045000Y-90465000D01*
X188045000Y-92245000D02*
X188045000Y-93005000D01*
X188045000Y-93005000D02*
X182045000Y-93005000D01*
X188045000Y-94785000D02*
X188045000Y-95545000D01*
X188045000Y-95545000D02*
X182045000Y-95545000D01*
X188045000Y-97325000D02*
X188045000Y-98085000D01*
X188045000Y-98085000D02*
X182045000Y-98085000D01*
%TO.C,R20*%
X160920000Y-117353641D02*
X160920000Y-117046359D01*
X161680000Y-117353641D02*
X161680000Y-117046359D01*
%TO.C,R19*%
X159903641Y-116620000D02*
X159596359Y-116620000D01*
X159903641Y-117380000D02*
X159596359Y-117380000D01*
%TO.C,BZ1*%
X154950000Y-86750000D02*
G75*
G02*
X142750000Y-86750000I-6100000J0D01*
G01*
X142750000Y-86750000D02*
G75*
G02*
X154950000Y-86750000I6100000J0D01*
G01*
%TO.C,J6*%
X161560000Y-73150000D02*
X161560000Y-75810000D01*
X161560000Y-75810000D02*
X171840000Y-75810000D01*
X161620000Y-78520000D02*
X161620000Y-77250000D01*
X162510000Y-67150000D02*
X163270000Y-67150000D01*
X162510000Y-73150000D02*
X162510000Y-67150000D01*
X162510000Y-76140000D02*
X162510000Y-75810000D01*
X162570000Y-73150000D02*
X162570000Y-67150000D01*
X162690000Y-73150000D02*
X162690000Y-67150000D01*
X162810000Y-73150000D02*
X162810000Y-67150000D01*
X162890000Y-78520000D02*
X161620000Y-78520000D01*
X162930000Y-73150000D02*
X162930000Y-67150000D01*
X163050000Y-73150000D02*
X163050000Y-67150000D01*
X163170000Y-73150000D02*
X163170000Y-67150000D01*
X163270000Y-67150000D02*
X163270000Y-73150000D01*
X163270000Y-76140000D02*
X163270000Y-75810000D01*
X164160000Y-75810000D02*
X164160000Y-73150000D01*
X165050000Y-67150000D02*
X165810000Y-67150000D01*
X165050000Y-73150000D02*
X165050000Y-67150000D01*
X165050000Y-76207071D02*
X165050000Y-75810000D01*
X165810000Y-67150000D02*
X165810000Y-73150000D01*
X165810000Y-76207071D02*
X165810000Y-75810000D01*
X166700000Y-75810000D02*
X166700000Y-73150000D01*
X167590000Y-67150000D02*
X168350000Y-67150000D01*
X167590000Y-73150000D02*
X167590000Y-67150000D01*
X167590000Y-76207071D02*
X167590000Y-75810000D01*
X168350000Y-67150000D02*
X168350000Y-73150000D01*
X168350000Y-76207071D02*
X168350000Y-75810000D01*
X169240000Y-75810000D02*
X169240000Y-73150000D01*
X170130000Y-67150000D02*
X170890000Y-67150000D01*
X170130000Y-73150000D02*
X170130000Y-67150000D01*
X170130000Y-76207071D02*
X170130000Y-75810000D01*
X170890000Y-67150000D02*
X170890000Y-73150000D01*
X170890000Y-76207071D02*
X170890000Y-75810000D01*
X171840000Y-73150000D02*
X161560000Y-73150000D01*
X171840000Y-75810000D02*
X171840000Y-73150000D01*
%TO.C,C18*%
X142857836Y-116390000D02*
X142642164Y-116390000D01*
X142857836Y-117110000D02*
X142642164Y-117110000D01*
%TO.C,R14*%
X171606359Y-104370000D02*
X171913641Y-104370000D01*
X171606359Y-105130000D02*
X171913641Y-105130000D01*
%TO.C,R1*%
X153843641Y-116620000D02*
X153536359Y-116620000D01*
X153843641Y-117380000D02*
X153536359Y-117380000D01*
%TO.C,R7*%
X158920000Y-94096359D02*
X158920000Y-94403641D01*
X159680000Y-94096359D02*
X159680000Y-94403641D01*
%TO.C,C6*%
X165290000Y-99187836D02*
X165290000Y-98972164D01*
X166010000Y-99187836D02*
X166010000Y-98972164D01*
%TO.C,C211*%
X151957836Y-105190000D02*
X151742164Y-105190000D01*
X151957836Y-105910000D02*
X151742164Y-105910000D01*
%TO.C,C4*%
X165840000Y-112042164D02*
X165840000Y-112257836D01*
X166560000Y-112042164D02*
X166560000Y-112257836D01*
%TO.C,U6*%
X166720000Y-121545000D02*
X166720000Y-120745000D01*
X166720000Y-121545000D02*
X166720000Y-122345000D01*
X169840000Y-121545000D02*
X169840000Y-120745000D01*
X169840000Y-121545000D02*
X169840000Y-122345000D01*
X170120000Y-120485000D02*
X169790000Y-120245000D01*
X170120000Y-120005000D01*
X170120000Y-120485000D01*
G36*
X170120000Y-120485000D02*
G01*
X169790000Y-120245000D01*
X170120000Y-120005000D01*
X170120000Y-120485000D01*
G37*
%TO.C,C10*%
X163232164Y-108870000D02*
X163447836Y-108870000D01*
X163232164Y-109590000D02*
X163447836Y-109590000D01*
%TO.C,R23*%
X155873641Y-116620000D02*
X155566359Y-116620000D01*
X155873641Y-117380000D02*
X155566359Y-117380000D01*
%TO.C,L201*%
X153140000Y-107099622D02*
X153140000Y-106300378D01*
X154260000Y-107099622D02*
X154260000Y-106300378D01*
D13*
%TO.C,U1*%
X170876800Y-116326700D02*
X170876800Y-120873300D01*
X173823200Y-120873300D02*
X173823200Y-116326700D01*
D12*
%TO.C,R9*%
X159893641Y-95370000D02*
X159586359Y-95370000D01*
X159893641Y-96130000D02*
X159586359Y-96130000D01*
%TO.C,R12*%
X171026359Y-122665000D02*
X171333641Y-122665000D01*
X171026359Y-123425000D02*
X171333641Y-123425000D01*
%TO.C,U2*%
X156410000Y-100540000D02*
X156885000Y-100540000D01*
X156410000Y-101015000D02*
X156410000Y-100540000D01*
X156410000Y-107285000D02*
X156410000Y-107760000D01*
X156410000Y-107760000D02*
X156885000Y-107760000D01*
X163155000Y-100540000D02*
X163390000Y-100540000D01*
X163630000Y-101015000D02*
X163630000Y-100840000D01*
X163630000Y-107285000D02*
X163630000Y-107760000D01*
X163630000Y-107760000D02*
X163155000Y-107760000D01*
X163960000Y-100780000D02*
X163630000Y-100540000D01*
X163960000Y-100300000D01*
X163960000Y-100780000D01*
G36*
X163960000Y-100780000D02*
G01*
X163630000Y-100540000D01*
X163960000Y-100300000D01*
X163960000Y-100780000D01*
G37*
%TO.C,R11*%
X165633641Y-122665000D02*
X165326359Y-122665000D01*
X165633641Y-123425000D02*
X165326359Y-123425000D01*
%TO.C,SW2*%
X165090000Y-85190000D02*
X165090000Y-91610000D01*
X165090000Y-91610000D02*
X165500000Y-91610000D01*
X165500000Y-85190000D02*
X165090000Y-85190000D01*
X167100000Y-91610000D02*
X169500000Y-91610000D01*
X169500000Y-85190000D02*
X167100000Y-85190000D01*
X171100000Y-91610000D02*
X171510000Y-91610000D01*
X171510000Y-85190000D02*
X171230000Y-85190000D01*
X171510000Y-91610000D02*
X171510000Y-85190000D01*
D13*
%TO.C,U5*%
X172776800Y-108376700D02*
X172776800Y-112923300D01*
X175723200Y-112923300D02*
X175723200Y-108376700D01*
D12*
%TO.C,C212*%
X152740580Y-103640000D02*
X152459420Y-103640000D01*
X152740580Y-104660000D02*
X152459420Y-104660000D01*
%TO.C,C14*%
X153720000Y-102527836D02*
X153720000Y-102312164D01*
X154440000Y-102527836D02*
X154440000Y-102312164D01*
%TO.C,J_Switch1*%
X176540000Y-108540000D02*
X176540000Y-109760000D01*
X176540000Y-109760000D02*
X179440000Y-109760000D01*
X176540000Y-117540000D02*
X176540000Y-118760000D01*
X176540000Y-118760000D02*
X189360000Y-118760000D01*
X178450000Y-115750000D02*
X178850000Y-116150000D01*
X178450000Y-116550000D02*
X178450000Y-115750000D01*
X178850000Y-116150000D02*
X178450000Y-116550000D01*
X179440000Y-109760000D02*
X179440000Y-110040000D01*
X179440000Y-117260000D02*
X179440000Y-117540000D01*
X179440000Y-117540000D02*
X176540000Y-117540000D01*
X182050000Y-109650000D02*
X182050000Y-108540000D01*
X182050000Y-110750000D02*
X185460000Y-110750000D01*
X182050000Y-111250000D02*
X182050000Y-110750000D01*
X182050000Y-116050000D02*
X182050000Y-116550000D01*
X182050000Y-116550000D02*
X185460000Y-116550000D01*
X182050000Y-117650000D02*
X182050000Y-118760000D01*
X183450000Y-112850000D02*
X185250000Y-112850000D01*
X183450000Y-114450000D02*
X183450000Y-112850000D01*
X185250000Y-112850000D02*
X185250000Y-114450000D01*
X185250000Y-114450000D02*
X183450000Y-114450000D01*
X185460000Y-109650000D02*
X182050000Y-109650000D01*
X185460000Y-110750000D02*
X185460000Y-109650000D01*
X185460000Y-116550000D02*
X185460000Y-117650000D01*
X185460000Y-117650000D02*
X182050000Y-117650000D01*
X187060000Y-109650000D02*
X189360000Y-109650000D01*
X187060000Y-111250000D02*
X182050000Y-111250000D01*
X187060000Y-112050000D02*
X187060000Y-109650000D01*
X187060000Y-116050000D02*
X182050000Y-116050000D01*
X187060000Y-117650000D02*
X187060000Y-115250000D01*
X189360000Y-108540000D02*
X176540000Y-108540000D01*
X189360000Y-117650000D02*
X187060000Y-117650000D01*
X189360000Y-118760000D02*
X189360000Y-108540000D01*
D13*
%TO.C,U4*%
X162572900Y-112196140D02*
X162572900Y-113003860D01*
X162572900Y-114174800D02*
X164427100Y-114174800D01*
X164427100Y-111025200D02*
X162572900Y-111025200D01*
D12*
%TO.C,J4*%
X144900000Y-73075000D02*
X144900000Y-75735000D01*
X144900000Y-75735000D02*
X160260000Y-75735000D01*
X144960000Y-78445000D02*
X144960000Y-77175000D01*
X145850000Y-67075000D02*
X146610000Y-67075000D01*
X145850000Y-73075000D02*
X145850000Y-67075000D01*
X145850000Y-76065000D02*
X145850000Y-75735000D01*
X145910000Y-73075000D02*
X145910000Y-67075000D01*
X146030000Y-73075000D02*
X146030000Y-67075000D01*
X146150000Y-73075000D02*
X146150000Y-67075000D01*
X146230000Y-78445000D02*
X144960000Y-78445000D01*
X146270000Y-73075000D02*
X146270000Y-67075000D01*
X146390000Y-73075000D02*
X146390000Y-67075000D01*
X146510000Y-73075000D02*
X146510000Y-67075000D01*
X146610000Y-67075000D02*
X146610000Y-73075000D01*
X146610000Y-76065000D02*
X146610000Y-75735000D01*
X147500000Y-75735000D02*
X147500000Y-73075000D01*
X148390000Y-67075000D02*
X149150000Y-67075000D01*
X148390000Y-73075000D02*
X148390000Y-67075000D01*
X148390000Y-76132071D02*
X148390000Y-75735000D01*
X149150000Y-67075000D02*
X149150000Y-73075000D01*
X149150000Y-76132071D02*
X149150000Y-75735000D01*
X150040000Y-75735000D02*
X150040000Y-73075000D01*
X150930000Y-67075000D02*
X151690000Y-67075000D01*
X150930000Y-73075000D02*
X150930000Y-67075000D01*
X150930000Y-76132071D02*
X150930000Y-75735000D01*
X151690000Y-67075000D02*
X151690000Y-73075000D01*
X151690000Y-76132071D02*
X151690000Y-75735000D01*
X152580000Y-75735000D02*
X152580000Y-73075000D01*
X153470000Y-67075000D02*
X154230000Y-67075000D01*
X153470000Y-73075000D02*
X153470000Y-67075000D01*
X153470000Y-76132071D02*
X153470000Y-75735000D01*
X154230000Y-67075000D02*
X154230000Y-73075000D01*
X154230000Y-76132071D02*
X154230000Y-75735000D01*
X155120000Y-75735000D02*
X155120000Y-73075000D01*
X156010000Y-67075000D02*
X156770000Y-67075000D01*
X156010000Y-73075000D02*
X156010000Y-67075000D01*
X156010000Y-76132071D02*
X156010000Y-75735000D01*
X156770000Y-67075000D02*
X156770000Y-73075000D01*
X156770000Y-76132071D02*
X156770000Y-75735000D01*
X157660000Y-75735000D02*
X157660000Y-73075000D01*
X158550000Y-67075000D02*
X159310000Y-67075000D01*
X158550000Y-73075000D02*
X158550000Y-67075000D01*
X158550000Y-76132071D02*
X158550000Y-75735000D01*
X159310000Y-67075000D02*
X159310000Y-73075000D01*
X159310000Y-76132071D02*
X159310000Y-75735000D01*
X160260000Y-73075000D02*
X144900000Y-73075000D01*
X160260000Y-75735000D02*
X160260000Y-73075000D01*
%TO.C,C13*%
X164082164Y-79565000D02*
X164297836Y-79565000D01*
X164082164Y-80285000D02*
X164297836Y-80285000D01*
%TD*%
M02*
