%TF.GenerationSoftware,KiCad,Pcbnew,9.0.0-9.0.0-2~ubuntu22.04.1*%
%TF.CreationDate,2025-03-23T14:57:04+01:00*%
%TF.ProjectId,PCB_Module_Payement,5043425f-4d6f-4647-956c-655f50617965,rev?*%
%TF.SameCoordinates,Original*%
%TF.FileFunction,Legend,Bot*%
%TF.FilePolarity,Positive*%
%FSLAX46Y46*%
G04 Gerber Fmt 4.6, Leading zero omitted, Abs format (unit mm)*
G04 Created by KiCad (PCBNEW 9.0.0-9.0.0-2~ubuntu22.04.1) date 2025-03-23 14:57:04*
%MOMM*%
%LPD*%
G01*
G04 APERTURE LIST*
%ADD10C,0.150000*%
%ADD11C,0.125000*%
%ADD12C,0.100000*%
%ADD13C,0.062500*%
%ADD14C,0.120000*%
G04 APERTURE END LIST*
D10*
X182741904Y-125014819D02*
X182741904Y-124014819D01*
X182741904Y-124491009D02*
X182170476Y-124491009D01*
X182170476Y-125014819D02*
X182170476Y-124014819D01*
X181789523Y-124014819D02*
X181170476Y-124014819D01*
X181170476Y-124014819D02*
X181503809Y-124395771D01*
X181503809Y-124395771D02*
X181360952Y-124395771D01*
X181360952Y-124395771D02*
X181265714Y-124443390D01*
X181265714Y-124443390D02*
X181218095Y-124491009D01*
X181218095Y-124491009D02*
X181170476Y-124586247D01*
X181170476Y-124586247D02*
X181170476Y-124824342D01*
X181170476Y-124824342D02*
X181218095Y-124919580D01*
X181218095Y-124919580D02*
X181265714Y-124967200D01*
X181265714Y-124967200D02*
X181360952Y-125014819D01*
X181360952Y-125014819D02*
X181646666Y-125014819D01*
X181646666Y-125014819D02*
X181741904Y-124967200D01*
X181741904Y-124967200D02*
X181789523Y-124919580D01*
X168762857Y-114684819D02*
X169096190Y-114208628D01*
X169334285Y-114684819D02*
X169334285Y-113684819D01*
X169334285Y-113684819D02*
X168953333Y-113684819D01*
X168953333Y-113684819D02*
X168858095Y-113732438D01*
X168858095Y-113732438D02*
X168810476Y-113780057D01*
X168810476Y-113780057D02*
X168762857Y-113875295D01*
X168762857Y-113875295D02*
X168762857Y-114018152D01*
X168762857Y-114018152D02*
X168810476Y-114113390D01*
X168810476Y-114113390D02*
X168858095Y-114161009D01*
X168858095Y-114161009D02*
X168953333Y-114208628D01*
X168953333Y-114208628D02*
X169334285Y-114208628D01*
X167810476Y-114684819D02*
X168381904Y-114684819D01*
X168096190Y-114684819D02*
X168096190Y-113684819D01*
X168096190Y-113684819D02*
X168191428Y-113827676D01*
X168191428Y-113827676D02*
X168286666Y-113922914D01*
X168286666Y-113922914D02*
X168381904Y-113970533D01*
X166905714Y-113684819D02*
X167381904Y-113684819D01*
X167381904Y-113684819D02*
X167429523Y-114161009D01*
X167429523Y-114161009D02*
X167381904Y-114113390D01*
X167381904Y-114113390D02*
X167286666Y-114065771D01*
X167286666Y-114065771D02*
X167048571Y-114065771D01*
X167048571Y-114065771D02*
X166953333Y-114113390D01*
X166953333Y-114113390D02*
X166905714Y-114161009D01*
X166905714Y-114161009D02*
X166858095Y-114256247D01*
X166858095Y-114256247D02*
X166858095Y-114494342D01*
X166858095Y-114494342D02*
X166905714Y-114589580D01*
X166905714Y-114589580D02*
X166953333Y-114637200D01*
X166953333Y-114637200D02*
X167048571Y-114684819D01*
X167048571Y-114684819D02*
X167286666Y-114684819D01*
X167286666Y-114684819D02*
X167381904Y-114637200D01*
X167381904Y-114637200D02*
X167429523Y-114589580D01*
X176182857Y-93569580D02*
X176230476Y-93617200D01*
X176230476Y-93617200D02*
X176373333Y-93664819D01*
X176373333Y-93664819D02*
X176468571Y-93664819D01*
X176468571Y-93664819D02*
X176611428Y-93617200D01*
X176611428Y-93617200D02*
X176706666Y-93521961D01*
X176706666Y-93521961D02*
X176754285Y-93426723D01*
X176754285Y-93426723D02*
X176801904Y-93236247D01*
X176801904Y-93236247D02*
X176801904Y-93093390D01*
X176801904Y-93093390D02*
X176754285Y-92902914D01*
X176754285Y-92902914D02*
X176706666Y-92807676D01*
X176706666Y-92807676D02*
X176611428Y-92712438D01*
X176611428Y-92712438D02*
X176468571Y-92664819D01*
X176468571Y-92664819D02*
X176373333Y-92664819D01*
X176373333Y-92664819D02*
X176230476Y-92712438D01*
X176230476Y-92712438D02*
X176182857Y-92760057D01*
X175230476Y-93664819D02*
X175801904Y-93664819D01*
X175516190Y-93664819D02*
X175516190Y-92664819D01*
X175516190Y-92664819D02*
X175611428Y-92807676D01*
X175611428Y-92807676D02*
X175706666Y-92902914D01*
X175706666Y-92902914D02*
X175801904Y-92950533D01*
X174754285Y-93664819D02*
X174563809Y-93664819D01*
X174563809Y-93664819D02*
X174468571Y-93617200D01*
X174468571Y-93617200D02*
X174420952Y-93569580D01*
X174420952Y-93569580D02*
X174325714Y-93426723D01*
X174325714Y-93426723D02*
X174278095Y-93236247D01*
X174278095Y-93236247D02*
X174278095Y-92855295D01*
X174278095Y-92855295D02*
X174325714Y-92760057D01*
X174325714Y-92760057D02*
X174373333Y-92712438D01*
X174373333Y-92712438D02*
X174468571Y-92664819D01*
X174468571Y-92664819D02*
X174659047Y-92664819D01*
X174659047Y-92664819D02*
X174754285Y-92712438D01*
X174754285Y-92712438D02*
X174801904Y-92760057D01*
X174801904Y-92760057D02*
X174849523Y-92855295D01*
X174849523Y-92855295D02*
X174849523Y-93093390D01*
X174849523Y-93093390D02*
X174801904Y-93188628D01*
X174801904Y-93188628D02*
X174754285Y-93236247D01*
X174754285Y-93236247D02*
X174659047Y-93283866D01*
X174659047Y-93283866D02*
X174468571Y-93283866D01*
X174468571Y-93283866D02*
X174373333Y-93236247D01*
X174373333Y-93236247D02*
X174325714Y-93188628D01*
X174325714Y-93188628D02*
X174278095Y-93093390D01*
D11*
X178123333Y-107144809D02*
X178289999Y-106906714D01*
X178409047Y-107144809D02*
X178409047Y-106644809D01*
X178409047Y-106644809D02*
X178218571Y-106644809D01*
X178218571Y-106644809D02*
X178170952Y-106668619D01*
X178170952Y-106668619D02*
X178147142Y-106692428D01*
X178147142Y-106692428D02*
X178123333Y-106740047D01*
X178123333Y-106740047D02*
X178123333Y-106811476D01*
X178123333Y-106811476D02*
X178147142Y-106859095D01*
X178147142Y-106859095D02*
X178170952Y-106882904D01*
X178170952Y-106882904D02*
X178218571Y-106906714D01*
X178218571Y-106906714D02*
X178409047Y-106906714D01*
X177694761Y-106811476D02*
X177694761Y-107144809D01*
X177813809Y-106621000D02*
X177932856Y-106978142D01*
X177932856Y-106978142D02*
X177623333Y-106978142D01*
D10*
X159762857Y-99764819D02*
X160096190Y-99288628D01*
X160334285Y-99764819D02*
X160334285Y-98764819D01*
X160334285Y-98764819D02*
X159953333Y-98764819D01*
X159953333Y-98764819D02*
X159858095Y-98812438D01*
X159858095Y-98812438D02*
X159810476Y-98860057D01*
X159810476Y-98860057D02*
X159762857Y-98955295D01*
X159762857Y-98955295D02*
X159762857Y-99098152D01*
X159762857Y-99098152D02*
X159810476Y-99193390D01*
X159810476Y-99193390D02*
X159858095Y-99241009D01*
X159858095Y-99241009D02*
X159953333Y-99288628D01*
X159953333Y-99288628D02*
X160334285Y-99288628D01*
X158810476Y-99764819D02*
X159381904Y-99764819D01*
X159096190Y-99764819D02*
X159096190Y-98764819D01*
X159096190Y-98764819D02*
X159191428Y-98907676D01*
X159191428Y-98907676D02*
X159286666Y-99002914D01*
X159286666Y-99002914D02*
X159381904Y-99050533D01*
X158477142Y-98764819D02*
X157858095Y-98764819D01*
X157858095Y-98764819D02*
X158191428Y-99145771D01*
X158191428Y-99145771D02*
X158048571Y-99145771D01*
X158048571Y-99145771D02*
X157953333Y-99193390D01*
X157953333Y-99193390D02*
X157905714Y-99241009D01*
X157905714Y-99241009D02*
X157858095Y-99336247D01*
X157858095Y-99336247D02*
X157858095Y-99574342D01*
X157858095Y-99574342D02*
X157905714Y-99669580D01*
X157905714Y-99669580D02*
X157953333Y-99717200D01*
X157953333Y-99717200D02*
X158048571Y-99764819D01*
X158048571Y-99764819D02*
X158334285Y-99764819D01*
X158334285Y-99764819D02*
X158429523Y-99717200D01*
X158429523Y-99717200D02*
X158477142Y-99669580D01*
D12*
X173751904Y-103017419D02*
X173751904Y-103826942D01*
X173751904Y-103826942D02*
X173704285Y-103922180D01*
X173704285Y-103922180D02*
X173656666Y-103969800D01*
X173656666Y-103969800D02*
X173561428Y-104017419D01*
X173561428Y-104017419D02*
X173370952Y-104017419D01*
X173370952Y-104017419D02*
X173275714Y-103969800D01*
X173275714Y-103969800D02*
X173228095Y-103922180D01*
X173228095Y-103922180D02*
X173180476Y-103826942D01*
X173180476Y-103826942D02*
X173180476Y-103017419D01*
X172799523Y-103017419D02*
X172180476Y-103017419D01*
X172180476Y-103017419D02*
X172513809Y-103398371D01*
X172513809Y-103398371D02*
X172370952Y-103398371D01*
X172370952Y-103398371D02*
X172275714Y-103445990D01*
X172275714Y-103445990D02*
X172228095Y-103493609D01*
X172228095Y-103493609D02*
X172180476Y-103588847D01*
X172180476Y-103588847D02*
X172180476Y-103826942D01*
X172180476Y-103826942D02*
X172228095Y-103922180D01*
X172228095Y-103922180D02*
X172275714Y-103969800D01*
X172275714Y-103969800D02*
X172370952Y-104017419D01*
X172370952Y-104017419D02*
X172656666Y-104017419D01*
X172656666Y-104017419D02*
X172751904Y-103969800D01*
X172751904Y-103969800D02*
X172799523Y-103922180D01*
D10*
X172368094Y-115504819D02*
X172368094Y-114504819D01*
X172368094Y-114504819D02*
X172129999Y-114504819D01*
X172129999Y-114504819D02*
X171987142Y-114552438D01*
X171987142Y-114552438D02*
X171891904Y-114647676D01*
X171891904Y-114647676D02*
X171844285Y-114742914D01*
X171844285Y-114742914D02*
X171796666Y-114933390D01*
X171796666Y-114933390D02*
X171796666Y-115076247D01*
X171796666Y-115076247D02*
X171844285Y-115266723D01*
X171844285Y-115266723D02*
X171891904Y-115361961D01*
X171891904Y-115361961D02*
X171987142Y-115457200D01*
X171987142Y-115457200D02*
X172129999Y-115504819D01*
X172129999Y-115504819D02*
X172368094Y-115504819D01*
X171463332Y-114504819D02*
X170844285Y-114504819D01*
X170844285Y-114504819D02*
X171177618Y-114885771D01*
X171177618Y-114885771D02*
X171034761Y-114885771D01*
X171034761Y-114885771D02*
X170939523Y-114933390D01*
X170939523Y-114933390D02*
X170891904Y-114981009D01*
X170891904Y-114981009D02*
X170844285Y-115076247D01*
X170844285Y-115076247D02*
X170844285Y-115314342D01*
X170844285Y-115314342D02*
X170891904Y-115409580D01*
X170891904Y-115409580D02*
X170939523Y-115457200D01*
X170939523Y-115457200D02*
X171034761Y-115504819D01*
X171034761Y-115504819D02*
X171320475Y-115504819D01*
X171320475Y-115504819D02*
X171415713Y-115457200D01*
X171415713Y-115457200D02*
X171463332Y-115409580D01*
X151824819Y-94683333D02*
X151348628Y-94350000D01*
X151824819Y-94111905D02*
X150824819Y-94111905D01*
X150824819Y-94111905D02*
X150824819Y-94492857D01*
X150824819Y-94492857D02*
X150872438Y-94588095D01*
X150872438Y-94588095D02*
X150920057Y-94635714D01*
X150920057Y-94635714D02*
X151015295Y-94683333D01*
X151015295Y-94683333D02*
X151158152Y-94683333D01*
X151158152Y-94683333D02*
X151253390Y-94635714D01*
X151253390Y-94635714D02*
X151301009Y-94588095D01*
X151301009Y-94588095D02*
X151348628Y-94492857D01*
X151348628Y-94492857D02*
X151348628Y-94111905D01*
X151253390Y-95254762D02*
X151205771Y-95159524D01*
X151205771Y-95159524D02*
X151158152Y-95111905D01*
X151158152Y-95111905D02*
X151062914Y-95064286D01*
X151062914Y-95064286D02*
X151015295Y-95064286D01*
X151015295Y-95064286D02*
X150920057Y-95111905D01*
X150920057Y-95111905D02*
X150872438Y-95159524D01*
X150872438Y-95159524D02*
X150824819Y-95254762D01*
X150824819Y-95254762D02*
X150824819Y-95445238D01*
X150824819Y-95445238D02*
X150872438Y-95540476D01*
X150872438Y-95540476D02*
X150920057Y-95588095D01*
X150920057Y-95588095D02*
X151015295Y-95635714D01*
X151015295Y-95635714D02*
X151062914Y-95635714D01*
X151062914Y-95635714D02*
X151158152Y-95588095D01*
X151158152Y-95588095D02*
X151205771Y-95540476D01*
X151205771Y-95540476D02*
X151253390Y-95445238D01*
X151253390Y-95445238D02*
X151253390Y-95254762D01*
X151253390Y-95254762D02*
X151301009Y-95159524D01*
X151301009Y-95159524D02*
X151348628Y-95111905D01*
X151348628Y-95111905D02*
X151443866Y-95064286D01*
X151443866Y-95064286D02*
X151634342Y-95064286D01*
X151634342Y-95064286D02*
X151729580Y-95111905D01*
X151729580Y-95111905D02*
X151777200Y-95159524D01*
X151777200Y-95159524D02*
X151824819Y-95254762D01*
X151824819Y-95254762D02*
X151824819Y-95445238D01*
X151824819Y-95445238D02*
X151777200Y-95540476D01*
X151777200Y-95540476D02*
X151729580Y-95588095D01*
X151729580Y-95588095D02*
X151634342Y-95635714D01*
X151634342Y-95635714D02*
X151443866Y-95635714D01*
X151443866Y-95635714D02*
X151348628Y-95588095D01*
X151348628Y-95588095D02*
X151301009Y-95540476D01*
X151301009Y-95540476D02*
X151253390Y-95445238D01*
D13*
X176541666Y-109122404D02*
X176624999Y-109003357D01*
X176684523Y-109122404D02*
X176684523Y-108872404D01*
X176684523Y-108872404D02*
X176589285Y-108872404D01*
X176589285Y-108872404D02*
X176565475Y-108884309D01*
X176565475Y-108884309D02*
X176553570Y-108896214D01*
X176553570Y-108896214D02*
X176541666Y-108920023D01*
X176541666Y-108920023D02*
X176541666Y-108955738D01*
X176541666Y-108955738D02*
X176553570Y-108979547D01*
X176553570Y-108979547D02*
X176565475Y-108991452D01*
X176565475Y-108991452D02*
X176589285Y-109003357D01*
X176589285Y-109003357D02*
X176684523Y-109003357D01*
X176315475Y-108872404D02*
X176434523Y-108872404D01*
X176434523Y-108872404D02*
X176446427Y-108991452D01*
X176446427Y-108991452D02*
X176434523Y-108979547D01*
X176434523Y-108979547D02*
X176410713Y-108967642D01*
X176410713Y-108967642D02*
X176351189Y-108967642D01*
X176351189Y-108967642D02*
X176327380Y-108979547D01*
X176327380Y-108979547D02*
X176315475Y-108991452D01*
X176315475Y-108991452D02*
X176303570Y-109015261D01*
X176303570Y-109015261D02*
X176303570Y-109074785D01*
X176303570Y-109074785D02*
X176315475Y-109098595D01*
X176315475Y-109098595D02*
X176327380Y-109110500D01*
X176327380Y-109110500D02*
X176351189Y-109122404D01*
X176351189Y-109122404D02*
X176410713Y-109122404D01*
X176410713Y-109122404D02*
X176434523Y-109110500D01*
X176434523Y-109110500D02*
X176446427Y-109098595D01*
D10*
X169876666Y-98029580D02*
X169924285Y-98077200D01*
X169924285Y-98077200D02*
X170067142Y-98124819D01*
X170067142Y-98124819D02*
X170162380Y-98124819D01*
X170162380Y-98124819D02*
X170305237Y-98077200D01*
X170305237Y-98077200D02*
X170400475Y-97981961D01*
X170400475Y-97981961D02*
X170448094Y-97886723D01*
X170448094Y-97886723D02*
X170495713Y-97696247D01*
X170495713Y-97696247D02*
X170495713Y-97553390D01*
X170495713Y-97553390D02*
X170448094Y-97362914D01*
X170448094Y-97362914D02*
X170400475Y-97267676D01*
X170400475Y-97267676D02*
X170305237Y-97172438D01*
X170305237Y-97172438D02*
X170162380Y-97124819D01*
X170162380Y-97124819D02*
X170067142Y-97124819D01*
X170067142Y-97124819D02*
X169924285Y-97172438D01*
X169924285Y-97172438D02*
X169876666Y-97220057D01*
X169543332Y-97124819D02*
X168924285Y-97124819D01*
X168924285Y-97124819D02*
X169257618Y-97505771D01*
X169257618Y-97505771D02*
X169114761Y-97505771D01*
X169114761Y-97505771D02*
X169019523Y-97553390D01*
X169019523Y-97553390D02*
X168971904Y-97601009D01*
X168971904Y-97601009D02*
X168924285Y-97696247D01*
X168924285Y-97696247D02*
X168924285Y-97934342D01*
X168924285Y-97934342D02*
X168971904Y-98029580D01*
X168971904Y-98029580D02*
X169019523Y-98077200D01*
X169019523Y-98077200D02*
X169114761Y-98124819D01*
X169114761Y-98124819D02*
X169400475Y-98124819D01*
X169400475Y-98124819D02*
X169495713Y-98077200D01*
X169495713Y-98077200D02*
X169543332Y-98029580D01*
X152100057Y-91567261D02*
X152052438Y-91472023D01*
X152052438Y-91472023D02*
X151957200Y-91376785D01*
X151957200Y-91376785D02*
X151814342Y-91233928D01*
X151814342Y-91233928D02*
X151766723Y-91138690D01*
X151766723Y-91138690D02*
X151766723Y-91043452D01*
X152004819Y-91091071D02*
X151957200Y-90995833D01*
X151957200Y-90995833D02*
X151861961Y-90900595D01*
X151861961Y-90900595D02*
X151671485Y-90852976D01*
X151671485Y-90852976D02*
X151338152Y-90852976D01*
X151338152Y-90852976D02*
X151147676Y-90900595D01*
X151147676Y-90900595D02*
X151052438Y-90995833D01*
X151052438Y-90995833D02*
X151004819Y-91091071D01*
X151004819Y-91091071D02*
X151004819Y-91281547D01*
X151004819Y-91281547D02*
X151052438Y-91376785D01*
X151052438Y-91376785D02*
X151147676Y-91472023D01*
X151147676Y-91472023D02*
X151338152Y-91519642D01*
X151338152Y-91519642D02*
X151671485Y-91519642D01*
X151671485Y-91519642D02*
X151861961Y-91472023D01*
X151861961Y-91472023D02*
X151957200Y-91376785D01*
X151957200Y-91376785D02*
X152004819Y-91281547D01*
X152004819Y-91281547D02*
X152004819Y-91091071D01*
X151100057Y-91900595D02*
X151052438Y-91948214D01*
X151052438Y-91948214D02*
X151004819Y-92043452D01*
X151004819Y-92043452D02*
X151004819Y-92281547D01*
X151004819Y-92281547D02*
X151052438Y-92376785D01*
X151052438Y-92376785D02*
X151100057Y-92424404D01*
X151100057Y-92424404D02*
X151195295Y-92472023D01*
X151195295Y-92472023D02*
X151290533Y-92472023D01*
X151290533Y-92472023D02*
X151433390Y-92424404D01*
X151433390Y-92424404D02*
X152004819Y-91852976D01*
X152004819Y-91852976D02*
X152004819Y-92472023D01*
X171592857Y-109534819D02*
X171926190Y-109058628D01*
X172164285Y-109534819D02*
X172164285Y-108534819D01*
X172164285Y-108534819D02*
X171783333Y-108534819D01*
X171783333Y-108534819D02*
X171688095Y-108582438D01*
X171688095Y-108582438D02*
X171640476Y-108630057D01*
X171640476Y-108630057D02*
X171592857Y-108725295D01*
X171592857Y-108725295D02*
X171592857Y-108868152D01*
X171592857Y-108868152D02*
X171640476Y-108963390D01*
X171640476Y-108963390D02*
X171688095Y-109011009D01*
X171688095Y-109011009D02*
X171783333Y-109058628D01*
X171783333Y-109058628D02*
X172164285Y-109058628D01*
X170640476Y-109534819D02*
X171211904Y-109534819D01*
X170926190Y-109534819D02*
X170926190Y-108534819D01*
X170926190Y-108534819D02*
X171021428Y-108677676D01*
X171021428Y-108677676D02*
X171116666Y-108772914D01*
X171116666Y-108772914D02*
X171211904Y-108820533D01*
X170021428Y-108534819D02*
X169926190Y-108534819D01*
X169926190Y-108534819D02*
X169830952Y-108582438D01*
X169830952Y-108582438D02*
X169783333Y-108630057D01*
X169783333Y-108630057D02*
X169735714Y-108725295D01*
X169735714Y-108725295D02*
X169688095Y-108915771D01*
X169688095Y-108915771D02*
X169688095Y-109153866D01*
X169688095Y-109153866D02*
X169735714Y-109344342D01*
X169735714Y-109344342D02*
X169783333Y-109439580D01*
X169783333Y-109439580D02*
X169830952Y-109487200D01*
X169830952Y-109487200D02*
X169926190Y-109534819D01*
X169926190Y-109534819D02*
X170021428Y-109534819D01*
X170021428Y-109534819D02*
X170116666Y-109487200D01*
X170116666Y-109487200D02*
X170164285Y-109439580D01*
X170164285Y-109439580D02*
X170211904Y-109344342D01*
X170211904Y-109344342D02*
X170259523Y-109153866D01*
X170259523Y-109153866D02*
X170259523Y-108915771D01*
X170259523Y-108915771D02*
X170211904Y-108725295D01*
X170211904Y-108725295D02*
X170164285Y-108630057D01*
X170164285Y-108630057D02*
X170116666Y-108582438D01*
X170116666Y-108582438D02*
X170021428Y-108534819D01*
X137478333Y-118159819D02*
X137478333Y-118874104D01*
X137478333Y-118874104D02*
X137525952Y-119016961D01*
X137525952Y-119016961D02*
X137621190Y-119112200D01*
X137621190Y-119112200D02*
X137764047Y-119159819D01*
X137764047Y-119159819D02*
X137859285Y-119159819D01*
X136478333Y-119159819D02*
X137049761Y-119159819D01*
X136764047Y-119159819D02*
X136764047Y-118159819D01*
X136764047Y-118159819D02*
X136859285Y-118302676D01*
X136859285Y-118302676D02*
X136954523Y-118397914D01*
X136954523Y-118397914D02*
X137049761Y-118445533D01*
X140594819Y-124246666D02*
X141309104Y-124246666D01*
X141309104Y-124246666D02*
X141451961Y-124199047D01*
X141451961Y-124199047D02*
X141547200Y-124103809D01*
X141547200Y-124103809D02*
X141594819Y-123960952D01*
X141594819Y-123960952D02*
X141594819Y-123865714D01*
X140594819Y-125199047D02*
X140594819Y-124722857D01*
X140594819Y-124722857D02*
X141071009Y-124675238D01*
X141071009Y-124675238D02*
X141023390Y-124722857D01*
X141023390Y-124722857D02*
X140975771Y-124818095D01*
X140975771Y-124818095D02*
X140975771Y-125056190D01*
X140975771Y-125056190D02*
X141023390Y-125151428D01*
X141023390Y-125151428D02*
X141071009Y-125199047D01*
X141071009Y-125199047D02*
X141166247Y-125246666D01*
X141166247Y-125246666D02*
X141404342Y-125246666D01*
X141404342Y-125246666D02*
X141499580Y-125199047D01*
X141499580Y-125199047D02*
X141547200Y-125151428D01*
X141547200Y-125151428D02*
X141594819Y-125056190D01*
X141594819Y-125056190D02*
X141594819Y-124818095D01*
X141594819Y-124818095D02*
X141547200Y-124722857D01*
X141547200Y-124722857D02*
X141499580Y-124675238D01*
X155738094Y-100734819D02*
X155738094Y-99734819D01*
X155738094Y-99734819D02*
X155499999Y-99734819D01*
X155499999Y-99734819D02*
X155357142Y-99782438D01*
X155357142Y-99782438D02*
X155261904Y-99877676D01*
X155261904Y-99877676D02*
X155214285Y-99972914D01*
X155214285Y-99972914D02*
X155166666Y-100163390D01*
X155166666Y-100163390D02*
X155166666Y-100306247D01*
X155166666Y-100306247D02*
X155214285Y-100496723D01*
X155214285Y-100496723D02*
X155261904Y-100591961D01*
X155261904Y-100591961D02*
X155357142Y-100687200D01*
X155357142Y-100687200D02*
X155499999Y-100734819D01*
X155499999Y-100734819D02*
X155738094Y-100734819D01*
X154214285Y-100734819D02*
X154785713Y-100734819D01*
X154499999Y-100734819D02*
X154499999Y-99734819D01*
X154499999Y-99734819D02*
X154595237Y-99877676D01*
X154595237Y-99877676D02*
X154690475Y-99972914D01*
X154690475Y-99972914D02*
X154785713Y-100020533D01*
D11*
X178193333Y-109364809D02*
X178359999Y-109126714D01*
X178479047Y-109364809D02*
X178479047Y-108864809D01*
X178479047Y-108864809D02*
X178288571Y-108864809D01*
X178288571Y-108864809D02*
X178240952Y-108888619D01*
X178240952Y-108888619D02*
X178217142Y-108912428D01*
X178217142Y-108912428D02*
X178193333Y-108960047D01*
X178193333Y-108960047D02*
X178193333Y-109031476D01*
X178193333Y-109031476D02*
X178217142Y-109079095D01*
X178217142Y-109079095D02*
X178240952Y-109102904D01*
X178240952Y-109102904D02*
X178288571Y-109126714D01*
X178288571Y-109126714D02*
X178479047Y-109126714D01*
X178026666Y-108864809D02*
X177717142Y-108864809D01*
X177717142Y-108864809D02*
X177883809Y-109055285D01*
X177883809Y-109055285D02*
X177812380Y-109055285D01*
X177812380Y-109055285D02*
X177764761Y-109079095D01*
X177764761Y-109079095D02*
X177740952Y-109102904D01*
X177740952Y-109102904D02*
X177717142Y-109150523D01*
X177717142Y-109150523D02*
X177717142Y-109269571D01*
X177717142Y-109269571D02*
X177740952Y-109317190D01*
X177740952Y-109317190D02*
X177764761Y-109341000D01*
X177764761Y-109341000D02*
X177812380Y-109364809D01*
X177812380Y-109364809D02*
X177955237Y-109364809D01*
X177955237Y-109364809D02*
X178002856Y-109341000D01*
X178002856Y-109341000D02*
X178026666Y-109317190D01*
D10*
X176816666Y-109534819D02*
X177149999Y-109058628D01*
X177388094Y-109534819D02*
X177388094Y-108534819D01*
X177388094Y-108534819D02*
X177007142Y-108534819D01*
X177007142Y-108534819D02*
X176911904Y-108582438D01*
X176911904Y-108582438D02*
X176864285Y-108630057D01*
X176864285Y-108630057D02*
X176816666Y-108725295D01*
X176816666Y-108725295D02*
X176816666Y-108868152D01*
X176816666Y-108868152D02*
X176864285Y-108963390D01*
X176864285Y-108963390D02*
X176911904Y-109011009D01*
X176911904Y-109011009D02*
X177007142Y-109058628D01*
X177007142Y-109058628D02*
X177388094Y-109058628D01*
X176435713Y-108630057D02*
X176388094Y-108582438D01*
X176388094Y-108582438D02*
X176292856Y-108534819D01*
X176292856Y-108534819D02*
X176054761Y-108534819D01*
X176054761Y-108534819D02*
X175959523Y-108582438D01*
X175959523Y-108582438D02*
X175911904Y-108630057D01*
X175911904Y-108630057D02*
X175864285Y-108725295D01*
X175864285Y-108725295D02*
X175864285Y-108820533D01*
X175864285Y-108820533D02*
X175911904Y-108963390D01*
X175911904Y-108963390D02*
X176483332Y-109534819D01*
X176483332Y-109534819D02*
X175864285Y-109534819D01*
X170436666Y-108309580D02*
X170484285Y-108357200D01*
X170484285Y-108357200D02*
X170627142Y-108404819D01*
X170627142Y-108404819D02*
X170722380Y-108404819D01*
X170722380Y-108404819D02*
X170865237Y-108357200D01*
X170865237Y-108357200D02*
X170960475Y-108261961D01*
X170960475Y-108261961D02*
X171008094Y-108166723D01*
X171008094Y-108166723D02*
X171055713Y-107976247D01*
X171055713Y-107976247D02*
X171055713Y-107833390D01*
X171055713Y-107833390D02*
X171008094Y-107642914D01*
X171008094Y-107642914D02*
X170960475Y-107547676D01*
X170960475Y-107547676D02*
X170865237Y-107452438D01*
X170865237Y-107452438D02*
X170722380Y-107404819D01*
X170722380Y-107404819D02*
X170627142Y-107404819D01*
X170627142Y-107404819D02*
X170484285Y-107452438D01*
X170484285Y-107452438D02*
X170436666Y-107500057D01*
X169484285Y-108404819D02*
X170055713Y-108404819D01*
X169769999Y-108404819D02*
X169769999Y-107404819D01*
X169769999Y-107404819D02*
X169865237Y-107547676D01*
X169865237Y-107547676D02*
X169960475Y-107642914D01*
X169960475Y-107642914D02*
X170055713Y-107690533D01*
X177652857Y-114554819D02*
X177986190Y-114078628D01*
X178224285Y-114554819D02*
X178224285Y-113554819D01*
X178224285Y-113554819D02*
X177843333Y-113554819D01*
X177843333Y-113554819D02*
X177748095Y-113602438D01*
X177748095Y-113602438D02*
X177700476Y-113650057D01*
X177700476Y-113650057D02*
X177652857Y-113745295D01*
X177652857Y-113745295D02*
X177652857Y-113888152D01*
X177652857Y-113888152D02*
X177700476Y-113983390D01*
X177700476Y-113983390D02*
X177748095Y-114031009D01*
X177748095Y-114031009D02*
X177843333Y-114078628D01*
X177843333Y-114078628D02*
X178224285Y-114078628D01*
X177271904Y-113650057D02*
X177224285Y-113602438D01*
X177224285Y-113602438D02*
X177129047Y-113554819D01*
X177129047Y-113554819D02*
X176890952Y-113554819D01*
X176890952Y-113554819D02*
X176795714Y-113602438D01*
X176795714Y-113602438D02*
X176748095Y-113650057D01*
X176748095Y-113650057D02*
X176700476Y-113745295D01*
X176700476Y-113745295D02*
X176700476Y-113840533D01*
X176700476Y-113840533D02*
X176748095Y-113983390D01*
X176748095Y-113983390D02*
X177319523Y-114554819D01*
X177319523Y-114554819D02*
X176700476Y-114554819D01*
X175748095Y-114554819D02*
X176319523Y-114554819D01*
X176033809Y-114554819D02*
X176033809Y-113554819D01*
X176033809Y-113554819D02*
X176129047Y-113697676D01*
X176129047Y-113697676D02*
X176224285Y-113792914D01*
X176224285Y-113792914D02*
X176319523Y-113840533D01*
X174338094Y-115734819D02*
X174338094Y-114734819D01*
X174338094Y-114734819D02*
X174099999Y-114734819D01*
X174099999Y-114734819D02*
X173957142Y-114782438D01*
X173957142Y-114782438D02*
X173861904Y-114877676D01*
X173861904Y-114877676D02*
X173814285Y-114972914D01*
X173814285Y-114972914D02*
X173766666Y-115163390D01*
X173766666Y-115163390D02*
X173766666Y-115306247D01*
X173766666Y-115306247D02*
X173814285Y-115496723D01*
X173814285Y-115496723D02*
X173861904Y-115591961D01*
X173861904Y-115591961D02*
X173957142Y-115687200D01*
X173957142Y-115687200D02*
X174099999Y-115734819D01*
X174099999Y-115734819D02*
X174338094Y-115734819D01*
X172909523Y-115068152D02*
X172909523Y-115734819D01*
X173147618Y-114687200D02*
X173385713Y-115401485D01*
X173385713Y-115401485D02*
X172766666Y-115401485D01*
D13*
X175451666Y-109038595D02*
X175463570Y-109050500D01*
X175463570Y-109050500D02*
X175499285Y-109062404D01*
X175499285Y-109062404D02*
X175523094Y-109062404D01*
X175523094Y-109062404D02*
X175558808Y-109050500D01*
X175558808Y-109050500D02*
X175582618Y-109026690D01*
X175582618Y-109026690D02*
X175594523Y-109002880D01*
X175594523Y-109002880D02*
X175606427Y-108955261D01*
X175606427Y-108955261D02*
X175606427Y-108919547D01*
X175606427Y-108919547D02*
X175594523Y-108871928D01*
X175594523Y-108871928D02*
X175582618Y-108848119D01*
X175582618Y-108848119D02*
X175558808Y-108824309D01*
X175558808Y-108824309D02*
X175523094Y-108812404D01*
X175523094Y-108812404D02*
X175499285Y-108812404D01*
X175499285Y-108812404D02*
X175463570Y-108824309D01*
X175463570Y-108824309D02*
X175451666Y-108836214D01*
X175356427Y-108836214D02*
X175344523Y-108824309D01*
X175344523Y-108824309D02*
X175320713Y-108812404D01*
X175320713Y-108812404D02*
X175261189Y-108812404D01*
X175261189Y-108812404D02*
X175237380Y-108824309D01*
X175237380Y-108824309D02*
X175225475Y-108836214D01*
X175225475Y-108836214D02*
X175213570Y-108860023D01*
X175213570Y-108860023D02*
X175213570Y-108883833D01*
X175213570Y-108883833D02*
X175225475Y-108919547D01*
X175225475Y-108919547D02*
X175368332Y-109062404D01*
X175368332Y-109062404D02*
X175213570Y-109062404D01*
D14*
%TO.C,R15*%
X169720000Y-113846359D02*
X169720000Y-114153641D01*
X170480000Y-113846359D02*
X170480000Y-114153641D01*
%TO.C,C19*%
X176340000Y-91242164D02*
X176340000Y-91457836D01*
X177060000Y-91242164D02*
X177060000Y-91457836D01*
%TO.C,R4*%
X177120000Y-108103641D02*
X177120000Y-107796359D01*
X177880000Y-108103641D02*
X177880000Y-107796359D01*
%TO.C,R13*%
X156770000Y-99463641D02*
X156770000Y-99156359D01*
X157530000Y-99463641D02*
X157530000Y-99156359D01*
%TO.C,U3*%
D12*
X168000000Y-100650000D02*
X178000000Y-100650000D01*
X178000000Y-106650000D01*
X168000000Y-106650000D01*
X168000000Y-100650000D01*
D14*
%TO.C,D3*%
X170865000Y-111965000D02*
X172335000Y-111965000D01*
X170865000Y-114250000D02*
X170865000Y-111965000D01*
X172335000Y-111965000D02*
X172335000Y-114250000D01*
%TO.C,R8*%
X149820000Y-95003641D02*
X149820000Y-94696359D01*
X150580000Y-95003641D02*
X150580000Y-94696359D01*
%TO.C,R5*%
X176070000Y-107796359D02*
X176070000Y-108103641D01*
X176830000Y-107796359D02*
X176830000Y-108103641D01*
%TO.C,C3*%
X169488748Y-98615000D02*
X170011252Y-98615000D01*
X169488748Y-100085000D02*
X170011252Y-100085000D01*
%TO.C,Q2*%
X147590000Y-91662500D02*
X147590000Y-91012500D01*
X147590000Y-91662500D02*
X147590000Y-92312500D01*
X150710000Y-91662500D02*
X150710000Y-91012500D01*
X150710000Y-91662500D02*
X150710000Y-92312500D01*
X150990000Y-93065000D02*
X150660000Y-92825000D01*
X150990000Y-92585000D01*
X150990000Y-93065000D01*
G36*
X150990000Y-93065000D02*
G01*
X150660000Y-92825000D01*
X150990000Y-92585000D01*
X150990000Y-93065000D01*
G37*
%TO.C,R10*%
X171103641Y-109870000D02*
X170796359Y-109870000D01*
X171103641Y-110630000D02*
X170796359Y-110630000D01*
%TO.C,J1*%
X127810000Y-88795000D02*
X127810000Y-89555000D01*
X127810000Y-89555000D02*
X133810000Y-89555000D01*
X127810000Y-91335000D02*
X127810000Y-92095000D01*
X127810000Y-92095000D02*
X133810000Y-92095000D01*
X127810000Y-93875000D02*
X127810000Y-94635000D01*
X127810000Y-94635000D02*
X133810000Y-94635000D01*
X127810000Y-96415000D02*
X127810000Y-97175000D01*
X127810000Y-97175000D02*
X133810000Y-97175000D01*
X127810000Y-98955000D02*
X127810000Y-99715000D01*
X127810000Y-99715000D02*
X133810000Y-99715000D01*
X127810000Y-101495000D02*
X127810000Y-102255000D01*
X127810000Y-102255000D02*
X133810000Y-102255000D01*
X127810000Y-104035000D02*
X127810000Y-104795000D01*
X127810000Y-104795000D02*
X133810000Y-104795000D01*
X133810000Y-87845000D02*
X136470000Y-87845000D01*
X133810000Y-88795000D02*
X127810000Y-88795000D01*
X133810000Y-88855000D02*
X127810000Y-88855000D01*
X133810000Y-88975000D02*
X127810000Y-88975000D01*
X133810000Y-89095000D02*
X127810000Y-89095000D01*
X133810000Y-89215000D02*
X127810000Y-89215000D01*
X133810000Y-89335000D02*
X127810000Y-89335000D01*
X133810000Y-89455000D02*
X127810000Y-89455000D01*
X133810000Y-91335000D02*
X127810000Y-91335000D01*
X133810000Y-93875000D02*
X127810000Y-93875000D01*
X133810000Y-96415000D02*
X127810000Y-96415000D01*
X133810000Y-98955000D02*
X127810000Y-98955000D01*
X133810000Y-101495000D02*
X127810000Y-101495000D01*
X133810000Y-104035000D02*
X127810000Y-104035000D01*
X133810000Y-105745000D02*
X133810000Y-87845000D01*
X136470000Y-87845000D02*
X136470000Y-105745000D01*
X136470000Y-90445000D02*
X133810000Y-90445000D01*
X136470000Y-92985000D02*
X133810000Y-92985000D01*
X136470000Y-95525000D02*
X133810000Y-95525000D01*
X136470000Y-98065000D02*
X133810000Y-98065000D01*
X136470000Y-100605000D02*
X133810000Y-100605000D01*
X136470000Y-103145000D02*
X133810000Y-103145000D01*
X136470000Y-105745000D02*
X133810000Y-105745000D01*
X136867071Y-88795000D02*
X136470000Y-88795000D01*
X136867071Y-89555000D02*
X136470000Y-89555000D01*
X136867071Y-91335000D02*
X136470000Y-91335000D01*
X136867071Y-92095000D02*
X136470000Y-92095000D01*
X136867071Y-93875000D02*
X136470000Y-93875000D01*
X136867071Y-94635000D02*
X136470000Y-94635000D01*
X136867071Y-96415000D02*
X136470000Y-96415000D01*
X136867071Y-97175000D02*
X136470000Y-97175000D01*
X136867071Y-98955000D02*
X136470000Y-98955000D01*
X136867071Y-99715000D02*
X136470000Y-99715000D01*
X136867071Y-101495000D02*
X136470000Y-101495000D01*
X136867071Y-102255000D02*
X136470000Y-102255000D01*
X136867071Y-104035000D02*
X136470000Y-104035000D01*
X136867071Y-104795000D02*
X136470000Y-104795000D01*
X139340000Y-88795000D02*
X138952929Y-88795000D01*
X139340000Y-89555000D02*
X138952929Y-89555000D01*
X139407071Y-91335000D02*
X138952929Y-91335000D01*
X139407071Y-92095000D02*
X138952929Y-92095000D01*
X139407071Y-93875000D02*
X138952929Y-93875000D01*
X139407071Y-94635000D02*
X138952929Y-94635000D01*
X139407071Y-96415000D02*
X138952929Y-96415000D01*
X139407071Y-97175000D02*
X138952929Y-97175000D01*
X139407071Y-98955000D02*
X138952929Y-98955000D01*
X139407071Y-99715000D02*
X138952929Y-99715000D01*
X139407071Y-101495000D02*
X138952929Y-101495000D01*
X139407071Y-102255000D02*
X138952929Y-102255000D01*
X139407071Y-104035000D02*
X138952929Y-104035000D01*
X139407071Y-104795000D02*
X138952929Y-104795000D01*
X141720000Y-87905000D02*
X140450000Y-87905000D01*
X141720000Y-89175000D02*
X141720000Y-87905000D01*
%TO.C,J5*%
X142080000Y-121635000D02*
X162520000Y-121635000D01*
X142080000Y-124295000D02*
X142080000Y-121635000D01*
X142140000Y-118925000D02*
X142140000Y-120195000D01*
X143030000Y-121305000D02*
X143030000Y-121635000D01*
X143030000Y-124295000D02*
X143030000Y-130295000D01*
X143030000Y-130295000D02*
X143790000Y-130295000D01*
X143090000Y-124295000D02*
X143090000Y-130295000D01*
X143210000Y-124295000D02*
X143210000Y-130295000D01*
X143330000Y-124295000D02*
X143330000Y-130295000D01*
X143410000Y-118925000D02*
X142140000Y-118925000D01*
X143450000Y-124295000D02*
X143450000Y-130295000D01*
X143570000Y-124295000D02*
X143570000Y-130295000D01*
X143690000Y-124295000D02*
X143690000Y-130295000D01*
X143790000Y-121305000D02*
X143790000Y-121635000D01*
X143790000Y-130295000D02*
X143790000Y-124295000D01*
X144680000Y-121635000D02*
X144680000Y-124295000D01*
X145570000Y-121237929D02*
X145570000Y-121635000D01*
X145570000Y-124295000D02*
X145570000Y-130295000D01*
X145570000Y-130295000D02*
X146330000Y-130295000D01*
X146330000Y-121237929D02*
X146330000Y-121635000D01*
X146330000Y-130295000D02*
X146330000Y-124295000D01*
X147220000Y-121635000D02*
X147220000Y-124295000D01*
X148110000Y-121237929D02*
X148110000Y-121635000D01*
X148110000Y-124295000D02*
X148110000Y-130295000D01*
X148110000Y-130295000D02*
X148870000Y-130295000D01*
X148870000Y-121237929D02*
X148870000Y-121635000D01*
X148870000Y-130295000D02*
X148870000Y-124295000D01*
X149760000Y-121635000D02*
X149760000Y-124295000D01*
X150650000Y-121237929D02*
X150650000Y-121635000D01*
X150650000Y-124295000D02*
X150650000Y-130295000D01*
X150650000Y-130295000D02*
X151410000Y-130295000D01*
X151410000Y-121237929D02*
X151410000Y-121635000D01*
X151410000Y-130295000D02*
X151410000Y-124295000D01*
X152300000Y-121635000D02*
X152300000Y-124295000D01*
X153190000Y-121237929D02*
X153190000Y-121635000D01*
X153190000Y-124295000D02*
X153190000Y-130295000D01*
X153190000Y-130295000D02*
X153950000Y-130295000D01*
X153950000Y-121237929D02*
X153950000Y-121635000D01*
X153950000Y-130295000D02*
X153950000Y-124295000D01*
X154840000Y-121635000D02*
X154840000Y-124295000D01*
X155730000Y-121237929D02*
X155730000Y-121635000D01*
X155730000Y-124295000D02*
X155730000Y-130295000D01*
X155730000Y-130295000D02*
X156490000Y-130295000D01*
X156490000Y-121237929D02*
X156490000Y-121635000D01*
X156490000Y-130295000D02*
X156490000Y-124295000D01*
X157380000Y-121635000D02*
X157380000Y-124295000D01*
X158270000Y-121237929D02*
X158270000Y-121635000D01*
X158270000Y-124295000D02*
X158270000Y-130295000D01*
X158270000Y-130295000D02*
X159030000Y-130295000D01*
X159030000Y-121237929D02*
X159030000Y-121635000D01*
X159030000Y-130295000D02*
X159030000Y-124295000D01*
X159920000Y-121635000D02*
X159920000Y-124295000D01*
X160810000Y-121237929D02*
X160810000Y-121635000D01*
X160810000Y-124295000D02*
X160810000Y-130295000D01*
X160810000Y-130295000D02*
X161570000Y-130295000D01*
X161570000Y-121237929D02*
X161570000Y-121635000D01*
X161570000Y-130295000D02*
X161570000Y-124295000D01*
X162520000Y-121635000D02*
X162520000Y-124295000D01*
X162520000Y-124295000D02*
X142080000Y-124295000D01*
%TO.C,D1*%
X153515000Y-98115000D02*
X155800000Y-98115000D01*
X153515000Y-99585000D02*
X153515000Y-98115000D01*
X155800000Y-99585000D02*
X153515000Y-99585000D01*
%TO.C,R3*%
X178170000Y-107796359D02*
X178170000Y-108103641D01*
X178930000Y-107796359D02*
X178930000Y-108103641D01*
%TO.C,R2*%
X176803641Y-109870000D02*
X176496359Y-109870000D01*
X176803641Y-110630000D02*
X176496359Y-110630000D01*
%TO.C,C1*%
X173411252Y-107215000D02*
X172888748Y-107215000D01*
X173411252Y-108685000D02*
X172888748Y-108685000D01*
%TO.C,R21*%
X174820000Y-113796359D02*
X174820000Y-114103641D01*
X175580000Y-113796359D02*
X175580000Y-114103641D01*
%TO.C,D4*%
X173015000Y-111965000D02*
X174485000Y-111965000D01*
X173015000Y-114250000D02*
X173015000Y-111965000D01*
X174485000Y-111965000D02*
X174485000Y-114250000D01*
%TO.C,C2*%
X175040000Y-107792164D02*
X175040000Y-108007836D01*
X175760000Y-107792164D02*
X175760000Y-108007836D01*
%TD*%
M02*
