%TF.GenerationSoftware,KiCad,Pcbnew,9.0.0-9.0.0-2~ubuntu22.04.1*%
%TF.CreationDate,2025-03-23T14:57:04+01:00*%
%TF.ProjectId,PCB_Module_Payement,5043425f-4d6f-4647-956c-655f50617965,rev?*%
%TF.SameCoordinates,Original*%
%TF.FileFunction,Soldermask,Bot*%
%TF.FilePolarity,Negative*%
%FSLAX46Y46*%
G04 Gerber Fmt 4.6, Leading zero omitted, Abs format (unit mm)*
G04 Created by KiCad (PCBNEW 9.0.0-9.0.0-2~ubuntu22.04.1) date 2025-03-23 14:57:04*
%MOMM*%
%LPD*%
G01*
G04 APERTURE LIST*
G04 Aperture macros list*
%AMRoundRect*
0 Rectangle with rounded corners*
0 $1 Rounding radius*
0 $2 $3 $4 $5 $6 $7 $8 $9 X,Y pos of 4 corners*
0 Add a 4 corners polygon primitive as box body*
4,1,4,$2,$3,$4,$5,$6,$7,$8,$9,$2,$3,0*
0 Add four circle primitives for the rounded corners*
1,1,$1+$1,$2,$3*
1,1,$1+$1,$4,$5*
1,1,$1+$1,$6,$7*
1,1,$1+$1,$8,$9*
0 Add four rect primitives between the rounded corners*
20,1,$1+$1,$2,$3,$4,$5,0*
20,1,$1+$1,$4,$5,$6,$7,0*
20,1,$1+$1,$6,$7,$8,$9,0*
20,1,$1+$1,$8,$9,$2,$3,0*%
G04 Aperture macros list end*
%ADD10C,0.650000*%
%ADD11O,1.000000X2.100000*%
%ADD12O,1.000000X1.600000*%
%ADD13O,2.000000X2.800000*%
%ADD14RoundRect,0.250000X0.725000X-0.600000X0.725000X0.600000X-0.725000X0.600000X-0.725000X-0.600000X0*%
%ADD15O,1.950000X1.700000*%
%ADD16R,1.700000X1.700000*%
%ADD17O,1.700000X1.700000*%
%ADD18R,2.000000X2.000000*%
%ADD19C,2.000000*%
%ADD20C,5.400000*%
%ADD21RoundRect,0.135000X-0.185000X0.135000X-0.185000X-0.135000X0.185000X-0.135000X0.185000X0.135000X0*%
%ADD22RoundRect,0.140000X-0.170000X0.140000X-0.170000X-0.140000X0.170000X-0.140000X0.170000X0.140000X0*%
%ADD23RoundRect,0.135000X0.185000X-0.135000X0.185000X0.135000X-0.185000X0.135000X-0.185000X-0.135000X0*%
%ADD24R,0.400000X0.500000*%
%ADD25R,1.500000X1.500000*%
%ADD26RoundRect,0.218750X-0.256250X0.218750X-0.256250X-0.218750X0.256250X-0.218750X0.256250X0.218750X0*%
%ADD27RoundRect,0.250000X-0.250000X-0.475000X0.250000X-0.475000X0.250000X0.475000X-0.250000X0.475000X0*%
%ADD28RoundRect,0.150000X0.150000X-0.587500X0.150000X0.587500X-0.150000X0.587500X-0.150000X-0.587500X0*%
%ADD29RoundRect,0.135000X0.135000X0.185000X-0.135000X0.185000X-0.135000X-0.185000X0.135000X-0.185000X0*%
%ADD30RoundRect,0.218750X-0.218750X-0.256250X0.218750X-0.256250X0.218750X0.256250X-0.218750X0.256250X0*%
%ADD31RoundRect,0.250000X0.250000X0.475000X-0.250000X0.475000X-0.250000X-0.475000X0.250000X-0.475000X0*%
G04 APERTURE END LIST*
D10*
%TO.C,J8*%
X165430000Y-126795000D03*
X171210000Y-126795000D03*
D11*
X164000000Y-126265000D03*
D12*
X164000000Y-130445000D03*
D11*
X172640000Y-126265000D03*
D12*
X172640000Y-130445000D03*
%TD*%
D13*
%TO.C,J7*%
X186500000Y-103800000D03*
D14*
X180000000Y-105050000D03*
D15*
X180000000Y-102550000D03*
%TD*%
D16*
%TO.C,J3*%
X177945000Y-79925000D03*
D17*
X177945000Y-82465000D03*
X177945000Y-85005000D03*
X177945000Y-87545000D03*
X177945000Y-90085000D03*
X177945000Y-92625000D03*
X177945000Y-95165000D03*
X177945000Y-97705000D03*
%TD*%
D18*
%TO.C,BZ1*%
X145050000Y-86750000D03*
D19*
X152650000Y-86750000D03*
%TD*%
D16*
%TO.C,J6*%
X162890000Y-77250000D03*
D17*
X165430000Y-77250000D03*
X167970000Y-77250000D03*
X170510000Y-77250000D03*
%TD*%
D20*
%TO.C,H3*%
X178700000Y-122200000D03*
%TD*%
%TO.C,H4*%
X139050000Y-122150000D03*
%TD*%
%TO.C,H2*%
X178700000Y-74150000D03*
%TD*%
%TO.C,H1*%
X139000000Y-74150000D03*
%TD*%
D13*
%TO.C,J_Switch1*%
X186550000Y-113650000D03*
D14*
X180050000Y-116150000D03*
D15*
X180050000Y-113650000D03*
X180050000Y-111150000D03*
%TD*%
D16*
%TO.C,J4*%
X146230000Y-77175000D03*
D17*
X148770000Y-77175000D03*
X151310000Y-77175000D03*
X153850000Y-77175000D03*
X156390000Y-77175000D03*
X158930000Y-77175000D03*
%TD*%
D21*
%TO.C,R15*%
X170100000Y-113490000D03*
X170100000Y-114510000D03*
%TD*%
D22*
%TO.C,C19*%
X176700000Y-90870000D03*
X176700000Y-91830000D03*
%TD*%
D23*
%TO.C,R4*%
X177500000Y-108460000D03*
X177500000Y-107440000D03*
%TD*%
%TO.C,R13*%
X157150000Y-99820000D03*
X157150000Y-98800000D03*
%TD*%
D24*
%TO.C,U3*%
X177650000Y-106250000D03*
X176650000Y-106250000D03*
X175650000Y-106250000D03*
X174650000Y-106250000D03*
X173650000Y-106250000D03*
D25*
X168900000Y-105750000D03*
X168900000Y-101550000D03*
D24*
X173650000Y-101050000D03*
X174650000Y-101050000D03*
X175650000Y-101050000D03*
X176650000Y-101050000D03*
X177650000Y-101050000D03*
D25*
X176050000Y-103650000D03*
%TD*%
D26*
%TO.C,D3*%
X171600000Y-112662500D03*
X171600000Y-114237500D03*
%TD*%
D23*
%TO.C,R8*%
X150200000Y-95360000D03*
X150200000Y-94340000D03*
%TD*%
D21*
%TO.C,R5*%
X176450000Y-107440000D03*
X176450000Y-108460000D03*
%TD*%
D27*
%TO.C,C3*%
X168800000Y-99350000D03*
X170700000Y-99350000D03*
%TD*%
D28*
%TO.C,Q2*%
X150100000Y-92600000D03*
X148200000Y-92600000D03*
X149150000Y-90725000D03*
%TD*%
D29*
%TO.C,R10*%
X171460000Y-110250000D03*
X170440000Y-110250000D03*
%TD*%
D16*
%TO.C,J1*%
X140450000Y-89175000D03*
D17*
X137910000Y-89175000D03*
X140450000Y-91715000D03*
X137910000Y-91715000D03*
X140450000Y-94255000D03*
X137910000Y-94255000D03*
X140450000Y-96795000D03*
X137910000Y-96795000D03*
X140450000Y-99335000D03*
X137910000Y-99335000D03*
X140450000Y-101875000D03*
X137910000Y-101875000D03*
X140450000Y-104415000D03*
X137910000Y-104415000D03*
%TD*%
D16*
%TO.C,J5*%
X143410000Y-120195000D03*
D17*
X145950000Y-120195000D03*
X148490000Y-120195000D03*
X151030000Y-120195000D03*
X153570000Y-120195000D03*
X156110000Y-120195000D03*
X158650000Y-120195000D03*
X161190000Y-120195000D03*
%TD*%
D30*
%TO.C,D1*%
X154212500Y-98850000D03*
X155787500Y-98850000D03*
%TD*%
D21*
%TO.C,R3*%
X178550000Y-107440000D03*
X178550000Y-108460000D03*
%TD*%
D29*
%TO.C,R2*%
X177160000Y-110250000D03*
X176140000Y-110250000D03*
%TD*%
D31*
%TO.C,C1*%
X174100000Y-107950000D03*
X172200000Y-107950000D03*
%TD*%
D21*
%TO.C,R21*%
X175200000Y-113440000D03*
X175200000Y-114460000D03*
%TD*%
D26*
%TO.C,D4*%
X173750000Y-112662500D03*
X173750000Y-114237500D03*
%TD*%
D22*
%TO.C,C2*%
X175400000Y-107420000D03*
X175400000Y-108380000D03*
%TD*%
M02*
