M48
; DRILL file {KiCad 9.0.0-9.0.0-2~ubuntu22.04.1} date 2025-03-23T14:57:06+0100
; FORMAT={-:-/ absolute / metric / decimal}
; #@! TF.CreationDate,2025-03-23T14:57:06+01:00
; #@! TF.GenerationSoftware,Kicad,Pcbnew,9.0.0-9.0.0-2~ubuntu22.04.1
; #@! TF.FileFunction,Plated,1,4,PTH
FMAT,2
METRIC
; #@! TA.AperFunction,Plated,PTH,ViaDrill
T1C0.300
; #@! TA.AperFunction,Plated,PTH,ComponentDrill
T2C0.600
; #@! TA.AperFunction,Plated,PTH,ComponentDrill
T3C0.950
; #@! TA.AperFunction,Plated,PTH,ComponentDrill
T4C1.000
; #@! TA.AperFunction,Plated,PTH,ComponentDrill
T5C2.700
%
G90
G05
T1
X136.6Y-87.8
X138.0Y-87.6
X138.75Y-114.4
X138.8Y-108.65
X139.22Y-104.4
X140.45Y-87.6
X141.77Y-104.45
X143.35Y-108.56
X143.5Y-88.4
X143.6Y-94.7
X143.7Y-116.7
X144.04Y-112.36
X144.05Y-111.1
X144.06Y-113.65
X144.55Y-99.6
X144.95Y-85.45
X146.2Y-82.5
X146.2Y-88.4
X147.4Y-98.9
X147.46Y-108.45
X147.8Y-78.4
X148.1Y-85.0
X148.1Y-89.4
X148.2Y-82.6
X148.2Y-111.1
X148.25Y-112.4
X148.71Y-93.32
X148.77Y-79.195
X149.5Y-96.7
X149.75Y-101.2
X150.7Y-105.54
X150.75Y-113.65
X151.3Y-78.8
X151.8Y-104.95
X152.71Y-102.46
X152.8Y-85.0
X153.0Y-100.1
X153.23Y-117.72
X153.76Y-97.56
X154.2Y-78.9
X154.65Y-104.23
X154.88Y-102.91
X155.02Y-117.7
X155.15Y-108.7
X155.675Y-106.875
X155.68Y-102.72
X155.85Y-104.4
X156.25Y-101.15
X156.5Y-89.0
X156.7Y-97.9
X156.8Y-85.6
X157.0Y-117.66
X157.15Y-99.82
X158.75Y-96.3
X158.85Y-87.75
X159.27Y-117.71
X159.55Y-99.35
X160.0Y-104.1
X160.15Y-98.75
X160.45Y-87.15
X160.55Y-93.5
X160.7Y-99.45
X161.25Y-98.35
X161.458Y-110.525
X161.49Y-112.59
X161.5Y-113.552
X161.76Y-117.71
X161.85Y-109.8
X162.2Y-97.5
X162.75Y-96.6
X162.86Y-109.73
X163.15Y-100.75
X163.2Y-115.5
X163.3Y-108.25
X163.6Y-87.35
X163.6Y-88.2
X163.6Y-89.35
X163.7Y-97.95
X163.71Y-78.87
X163.85Y-107.699
X164.5Y-123.1
X164.56Y-105.4
X164.6Y-98.1
X164.65Y-100.2
X164.65Y-124.55
X165.18Y-98.6
X165.2Y-102.83
X165.3Y-105.5
X165.4Y-75.5
X165.45Y-79.86
X165.5Y-112.6
X165.55Y-111.67
X165.8Y-107.425
X165.85Y-124.5
X166.0Y-113.7
X166.1Y-101.5
X166.2Y-97.95
X166.25Y-82.05
X166.25Y-102.22
X166.7Y-112.65
X167.0Y-107.0
X167.3Y-119.55
X167.4Y-105.4
X168.1Y-97.0
X168.2Y-79.8
X168.2Y-81.7
X168.3Y-119.65
X168.3Y-123.45
X168.9Y-105.75
X169.2Y-119.4
X169.4Y-113.45
X169.5Y-96.1
X169.55Y-109.2
X170.75Y-124.4
X171.25Y-104.75
X171.3Y-94.2
X171.65Y-107.95
X171.7Y-99.2
X171.95Y-124.6
X172.412Y-110.25
X173.8Y-91.8
X174.15Y-106.25
X174.8Y-98.9
X175.2Y-103.65
X175.7Y-100.4
X175.88Y-108.33
X176.05Y-102.8
X176.05Y-103.65
X176.05Y-104.55
X176.1Y-94.3
X176.25Y-115.3
X176.6Y-81.5
X176.9Y-103.7
X176.9Y-114.7
X177.4Y-110.25
X177.5Y-108.46
X178.45Y-114.7
X179.35Y-108.46
T3
X180.0Y-102.55
X180.0Y-105.05
X180.05Y-111.15
X180.05Y-113.65
X180.05Y-116.15
T4
X137.91Y-89.175
X137.91Y-91.715
X137.91Y-94.255
X137.91Y-96.795
X137.91Y-99.335
X137.91Y-101.875
X137.91Y-104.415
X140.45Y-89.175
X140.45Y-91.715
X140.45Y-94.255
X140.45Y-96.795
X140.45Y-99.335
X140.45Y-101.875
X140.45Y-104.415
X143.41Y-120.195
X145.05Y-86.75
X145.95Y-120.195
X146.23Y-77.175
X148.49Y-120.195
X148.77Y-77.175
X151.03Y-120.195
X151.31Y-77.175
X152.65Y-86.75
X153.57Y-120.195
X153.85Y-77.175
X156.11Y-120.195
X156.39Y-77.175
X158.65Y-120.195
X158.93Y-77.175
X161.19Y-120.195
X162.89Y-77.25
X165.43Y-77.25
X167.97Y-77.25
X170.51Y-77.25
X177.945Y-79.925
X177.945Y-82.465
X177.945Y-85.005
X177.945Y-87.545
X177.945Y-90.085
X177.945Y-92.625
X177.945Y-95.165
X177.945Y-97.705
T5
X139.0Y-74.15
X139.05Y-122.15
X178.7Y-74.15
X178.7Y-122.2
T2
G00X164.0Y-125.715
M15
G01X164.0Y-126.815
M16
G05
G00X164.0Y-130.145
M15
G01X164.0Y-130.745
M16
G05
G00X172.64Y-125.715
M15
G01X172.64Y-126.815
M16
G05
G00X172.64Y-130.145
M15
G01X172.64Y-130.745
M16
G05
M30
